<svg width="191" height="145" viewBox="0 0 191 145" fill="none" xmlns="http://www.w3.org/2000/svg">
<path d="M163.658 0H172.281C172.64 0.233585 176.692 0.792816 177.627 0.995317C181.206 1.80398 184.686 3.00977 188 4.59038C182.495 7.03738 177.463 9.50382 171.81 11.8167C153.092 19.4754 133.024 25.1086 112.664 24.9984C108.91 24.978 99.5088 24.4286 96 23.3873C97.7442 22.9025 100.155 22.5757 102.091 22.0925C107.263 20.8051 112.349 19.1922 117.319 17.263C128.304 12.9991 139.196 7.02655 150.129 3.24082C153.064 2.231 156.06 1.41165 159.099 0.787865C160.366 0.535219 162.423 0.366634 163.536 0.0372763L163.658 0Z" fill="#80C676"/>
<path d="M150.284 108.227C148.86 112.505 144.668 119.932 139.38 120.178C134.991 120.382 137.89 111.705 138.55 109.435C141.193 100.34 144.971 91.0398 150.997 83.6638C152.553 81.7584 155.507 84.4422 156.683 85.621C155.398 87.3495 154.059 89.046 152.861 90.8365C148.798 97.0168 145.617 103.744 143.411 110.82C143.094 111.826 141.788 115.233 142.572 115.877C144.058 115.958 149.637 108.744 150.192 107.532C152.454 102.591 154.587 97.4146 159.916 94.9372C163.631 93.2104 165.666 94.7062 167.179 98.4692C166.071 103.421 162.448 107.396 157.176 107.487C156.634 107.496 156.093 107.487 155.551 107.48C155.856 110.4 156.889 113.571 160.46 113.401C163.234 113.268 165.53 110.551 167.246 108.596C167.854 103.583 169.323 99.1158 172.603 95.21C174.464 92.9953 176.118 94.4499 177.719 96.0313C174.507 99.9734 172.571 103.658 171.939 108.844C171.849 109.588 171.843 110.397 172.335 110.987C173.259 111.382 174.14 110.635 174.764 109.972C176.858 107.744 178.341 104.99 180.161 102.537C182.287 99.6727 183.754 96.5601 186.165 93.8822C188.574 94.6819 189.285 95.4343 191 97.2592V97.3235C188.418 98.8132 183.667 110.24 182.625 113.38C182.358 114.184 181.968 115.156 181.626 115.964C185.008 113.042 187.11 109.067 189.843 105.89C187.882 109.833 186.802 113.741 183.601 117.051C182.747 117.932 180.697 119.084 180.182 119.845C177.777 123.4 175.617 128.123 170.646 127.998C166.723 126.018 167.498 122.243 170.715 120.023C171.891 119.211 172.827 118.801 174.186 118.378C175.098 116.245 176.629 112.346 177.361 110.139C174.294 113.385 167.421 118.239 167.322 110.033C165.274 113.396 162.532 117.678 158.226 117.751C151.55 117.865 150.51 113.514 150.284 108.227Z" fill="#286F66"/>
<path d="M162.987 97C163.434 97.0673 163.488 97.1093 163.866 97.3874C165.031 100.001 158.273 104.753 156.779 105.696C156.464 105.865 156.352 105.903 156.016 106C155.973 105.579 156.013 105.517 156.199 105.088C157.976 100.992 159.223 98.5583 162.987 97Z" fill="white"/>
<path d="M11.6682 87.1406C9.40735 87.2423 6.56197 86.6473 4.23393 86.5989C3.4888 86.5835 1.8376 86.7809 1.46296 86.6193C0.815899 85.2505 3.08419 82.9301 4.34948 82.4117C8.49659 80.7125 13.4881 81.708 17.8758 81.7702C22.4639 81.8489 27.6222 82.0233 31.982 80.401C33.7045 79.7601 34.5926 78.9132 36 78C35.2152 88.6625 26.7991 88.1228 18.6183 87.6853C12.4676 95.6603 7.95296 104.789 5.33733 114.539C5.12251 115.367 4.65969 117.69 4.25378 118.291C3.26847 119.75 0.876257 118.601 0 117.999V115.186C0.252953 114.719 0.294395 114.35 0.402965 113.839C2.4641 104.134 6.39767 95.451 11.6682 87.1406Z" fill="#286F66"/>
<path d="M144.832 144.385C142.186 142.285 140.98 139.515 143.512 136.697C144.374 135.731 145.591 135.134 146.901 135.037C148.251 134.95 149.659 135.519 150.654 136.39C151.647 137.246 152.241 138.459 152.301 139.75C152.396 142.071 150.973 143.314 149.318 144.649C152.079 144.716 154.842 144.734 157.605 144.699L157.616 135.017L160.377 135.02C161.02 136.197 162.384 138.714 163.196 139.688C163.067 138.088 163.107 136.605 163.136 135.004L165.769 135C165.769 136.359 165.598 144.458 166 145H140C140.648 144.606 143.28 144.885 144.832 144.385Z" fill="#FBA639"/>
<path d="M146.571 137.058C147.287 136.862 148.03 137.17 148.51 137.861C148.99 138.552 149.13 139.516 148.874 140.373C148.619 141.231 148.009 141.845 147.283 141.975C146.713 142.077 146.135 141.866 145.698 141.397C145.26 140.928 145.006 140.245 145 139.525C144.99 138.341 145.646 137.312 146.571 137.058Z" fill="white"/>
<path d="M160 140C160.579 140.307 162.866 143.979 163 144.679C162.473 144.931 160.803 144.959 160.106 145C160.114 143.283 160.13 141.717 160 140Z" fill="white"/>
<path d="M33.7272 135L36.5136 135.003C36.495 136.632 36.1359 141.092 37.1233 142.108C37.7175 142.354 38.5143 142.149 38.6238 141.652C39.0243 139.832 38.8017 136.766 38.8172 135.005L41.5934 135.002C41.6078 137.715 42.2027 142.107 40.2798 143.963C40.0406 144.193 39.7964 144.417 39.5473 144.636C40.8849 144.696 46.9444 145.115 47.6875 144.495C47.9536 142.963 47.8033 136.87 47.8224 135.008C50.8877 135.03 55.4823 135.57 54.2041 140.03C54.0991 140.397 53.6105 141.129 53.3727 141.478C53.9288 142.359 55.1657 144.633 56 145H32C32.452 144.738 34.5691 144.679 35.5782 144.433C34.0863 143.044 33.7258 142.319 33.6822 140.186C33.6471 138.474 33.7502 136.717 33.7272 135Z" fill="#FBA639"/>
<path d="M50.1677 142C50.9261 142.279 52.0814 144.159 51.9955 144.883C51.1278 145.011 50.8796 145.105 50.2242 144.771C49.8088 144.11 50.0815 142.822 50.1677 142Z" fill="white"/>
<path d="M50.0262 138C50.4687 138.042 50.7225 138.131 50.9735 138.353C51.0295 138.673 51.0143 138.579 50.754 138.9C50.3225 139.021 50.4751 139.023 50.1293 138.954C49.9352 138.733 50.0137 138.27 50.0262 138Z" fill="white"/>
<path d="M105 145C105.87 144.478 108.699 145.082 109.99 144.355C108.649 143.17 107.244 142.051 107.378 140.203C107.748 135.125 112.546 133.559 116.474 136.628L114.553 138.562C113.852 138.081 113.343 137.844 112.516 137.579C109.384 138.723 109.368 141.276 112.494 142.369L112.588 142.402C113.496 142.034 113.724 141.914 114.523 141.368C115.232 142.079 115.798 142.645 116.573 143.287C116.043 143.662 115.203 144.221 114.747 144.637C116.173 144.699 122.359 145.085 123.241 144.548C123.473 143.417 123.377 139.142 123.371 137.711L121.375 137.733L121.399 135L127.994 135.007L128 137.736L126.198 137.676C126.183 138.885 125.951 144.329 126.459 145H105Z" fill="#FBA639"/>
<path d="M20.2178 135C23.4402 135.007 25.9581 135.05 26.8278 138.839C26.5083 139.935 26.3359 140.5 25.5837 141.408C26.0986 142.273 27.3269 144.536 28 145H17C17.4843 144.685 19.3454 144.802 20.224 144.681L20.2178 135Z" fill="#FBA639"/>
<path d="M23.1235 142C23.4554 142.377 24.1189 144.106 23.9815 144.831C23.6074 145.013 23.4197 145.136 23.1104 144.723C22.9014 144.034 23.0378 142.776 23.1235 142Z" fill="white"/>
<path d="M23.0559 137C23.4137 137.225 23.8406 137.598 24 138.287C23.9813 139.131 23.9832 138.888 23.6638 139.663C23.3344 139.999 23.3915 140.083 23.1045 139.917C22.9218 139.236 23.0285 137.829 23.0559 137Z" fill="white"/>
<path d="M97.3676 134.014L99.912 134C100.696 136.79 102.345 141.721 103.388 144.629C103.625 144.773 103.83 144.896 104 145H89C89.979 144.601 92.3916 144.84 93.6996 144.681C94.7228 141.505 96.1128 137.072 97.3676 134.014ZM99.7493 144.478L100.044 144.313C99.9924 143.799 100.083 143.98 99.7141 143.633C98.9974 143.407 97.9555 143.516 97.178 143.548L96.9449 144.138C97.3472 144.773 98.9672 144.496 99.7493 144.478Z" fill="#FBA639"/>
<path d="M97.2256 144.052C97.9782 144.021 98.9867 143.919 99.6804 144.131C100.037 144.459 99.9499 144.288 100 144.774L99.7145 144.929C98.9574 144.946 97.3894 145.207 97 144.608L97.2256 144.052Z" fill="white" fill-opacity="0.988235"/>
<path d="M63.6119 135.003L66.1464 135C66.6053 136.331 69.1147 144.348 69.8008 144.854C69.868 144.903 69.9304 144.953 70 145H57C57.6731 144.604 58.9284 144.915 59.975 144.661C61.1772 141.581 62.3548 137.954 63.6119 135.003ZM66.0906 144.472C66.3508 144.218 66.2924 144.353 66.2979 143.997C65.6192 143.505 64.3344 143.647 63.4196 143.655L63.2716 144.218C63.8387 144.819 65.2352 144.531 66.0906 144.472Z" fill="#FBA639"/>
<path d="M63.1466 144.026C64.0529 144.018 65.3257 143.87 65.998 144.381C65.9926 144.751 66.0505 144.611 65.7926 144.874C64.9452 144.936 63.5618 145.235 63 144.611L63.1466 144.026Z" fill="white" fill-opacity="0.988235"/>
<path d="M74.892 135.005L77.4543 135L77.4595 142.306L80.7559 142.3C80.7252 143.185 80.5278 144.371 81 145H72C72.7075 144.519 73.8913 145.066 74.8096 144.602C74.9988 143.597 74.8961 136.402 74.892 135.005Z" fill="#FBA639"/>
<path d="M134.095 135.011L136.727 135C136.726 136.343 136.485 144.397 137 145H129C129.603 144.621 132.896 144.833 134.108 144.694L134.095 135.011Z" fill="#FBA639"/>
<path d="M20.4271 24.0656C34.2269 23.2411 48.1578 30.3602 60.3997 35.9682C68.7942 39.8138 76.2009 43.0415 85.1206 45.6002C112.351 53.4112 139.36 48.8032 165.417 38.9779C170.574 37.0334 175.668 34.9209 180.692 32.6434C183.253 31.4878 186.492 29.7801 189 28.8302C188.905 37.5147 183.927 44.8411 176.05 48.1896C175.037 48.6201 174.026 49.0597 173.012 49.4872C167.701 51.4471 163.198 53.3827 157.697 55.216C130.909 64.1436 103.82 66.473 76.9869 56.4395C66.8365 52.7923 57.1874 47.7999 47.2846 43.5623C37.6513 39.4398 28.0182 36.5677 17.4512 37.7999C11.4921 38.4947 7.50988 39.9162 2.03965 42.1972C2.1074 39.1086 1.80999 33.29 2.22981 30.5546C2.93874 25.9353 16.8845 24.2471 20.4271 24.0656Z" fill="#286F66"/>
<path d="M21.578 6.04367C34.8487 5.3458 50.3101 13.167 62.0882 18.3893C67.9387 20.9834 73.3192 23.2328 79.4423 25.2575C89.4155 28.5763 99.8203 30.4776 110.341 30.9036C136.503 31.7438 165.781 21.9001 189 10.5818C188.928 14.215 189.034 17.8588 188.987 21.4938C188.949 24.4546 184.669 25.7736 182.298 26.826C178.984 28.2966 175.647 29.7135 172.286 31.0761C145.867 41.4142 119.106 47.7673 90.7281 41.5342C85.4165 40.3241 80.0559 38.6971 74.9507 36.8165C49.1407 27.3089 30.1955 11.3284 2 23.7615C2.91893 17.8848 3.85945 13.9219 8.91249 9.93976C13.0107 6.71004 16.5376 6.30031 21.578 6.04367Z" fill="#286F66"/>
<path d="M20.5158 44.0973C21.3476 43.9601 24.5374 43.9977 25.3078 44.0327C37.2725 44.5766 48.2582 49.7721 58.9615 54.6142C64.8195 57.2643 70.5731 59.839 76.6135 62.0474C80.9857 63.647 85.4453 65.0032 89.971 66.1096C91.8443 66.5665 93.6892 66.8779 95.5863 67.2323C95.8826 67.2877 95.9087 67.3691 96 67.5636C95.611 67.787 94.8973 67.728 94.4258 67.802C89.3454 68.5988 84.2978 68.8973 79.155 68.9999C57.9059 69.0318 37.6067 63.2464 18.1006 55.2727C13.0345 53.2018 8.01037 50.5912 3 48.6178C9.27397 46.0418 13.6221 44.6259 20.5158 44.0973Z" fill="#FBA639"/>
<path d="M18.1595 107.476C18.7038 110.102 18.8553 112.348 21.7298 113.344C22.9056 113.752 24.1286 113.555 25.2289 112.958C27.1369 111.922 29.0651 110.153 30.138 108.241C30.449 107.628 30.8434 105.926 31.1237 105.158C32.6469 101.182 35.7444 96.7719 39.6203 94.8713C43.7241 92.8592 45.5717 94.4785 47.2609 98.2233C46.854 100.616 45.71 102.817 43.9929 104.51C41.4007 107.074 39.1236 107.533 35.6662 107.482C35.7096 109.699 35.8597 110.92 37.4604 112.587C42.5426 116.096 46.1369 109.401 48.907 106.485L49 106.388C47.1995 110.812 44.2985 116.718 39.1735 117.832C35.6111 118.607 31.7146 116.65 30.6798 112.992C30.3388 111.786 30.2977 111.028 30.2077 109.748C28.4276 113.221 26.039 116.895 22.0203 117.8C17.8393 118.653 13.955 116.305 13.1657 111.972C11.9086 105.071 18.0001 95.4552 24.8302 94.0796C28.0653 93.9147 28.874 95.6138 30.0163 98.3154C29.0452 102.401 26.7057 105.704 22.6348 107.071C21.097 107.588 19.7456 107.503 18.1595 107.476Z" fill="#286F66"/>
<path d="M44.0088 97.0005C44.482 96.9883 44.696 97.2211 44.9504 97.5538C45.6379 100.596 38.9818 104.38 36.8485 105.683C36.6087 105.804 36.3899 105.896 36.1429 106L36.001 105.816C35.9762 105.117 36.4188 104.325 36.7614 103.726C38.5018 100.687 40.5453 97.9471 44.0088 97.0005Z" fill="white"/>
<path d="M26.0116 97C26.5349 97.0916 26.7301 97.305 26.9925 97.7937C27.2315 100.574 21.6643 104.47 19.8699 105.622C19.5303 105.828 19.3904 105.937 19.0004 106C18.9837 105.614 19.4532 104.381 19.6213 104C21.2596 100.281 22.6905 98.42 26.0116 97Z" fill="white"/>
<path d="M85.8874 84.0322C88.5034 83.7541 89.6841 85.3199 91.2539 87.0875C90.4772 88.3924 89.5772 89.6118 88.7951 90.9219C87.0651 93.8634 85.7195 97.0056 84.79 100.275C84.2623 102.135 82.7158 108.554 83.5297 109.955C83.7292 110.092 83.8257 110.189 84.0745 110.21C87.4448 110.494 95.1446 94.7684 96.8876 91.7588C98.2285 89.4435 99.8366 86.4521 101.896 84.711C102.497 84.2026 103.028 84.002 103.825 84.0639C105.911 84.2257 107.717 86.2186 109 87.6591L107.027 89.9782C103.201 94.5609 99.2729 99.1738 95.4929 103.775C92.6091 107.285 90.3219 111.371 86.6204 114.419C84.8201 116.142 82.233 117.434 79.5724 116.863C76.1696 116.134 77.0364 106.524 77.2769 104.331C77.9534 98.2994 80.0018 92.4919 83.272 87.3346C83.9041 86.3428 84.9623 84.7638 85.8874 84.0322Z" fill="#286F66"/>
<path d="M111.599 94.0506C114.002 93.6923 115.79 95.2916 117.051 97.1272C119.203 93.4352 120.367 93.105 123.679 96.0036C120.79 98.6355 117.079 106.03 117.569 109.911C118.26 115.383 124.181 107.358 125 106.192L124.919 106.424C123.885 109.361 122.213 113.392 119.29 114.911C117.151 116.022 114.738 114.271 113.909 112.265C112.317 108.416 114.168 103.488 115.607 99.8796C115.745 99.4138 115.883 99.2718 115.734 98.9061C110.695 98.7897 106.265 108.138 106.389 112.328C106.539 117.372 111.735 110.739 112.544 109.726C111.362 113.316 110.053 116.868 105.956 117.861C103.484 118.46 100.756 117.086 100.177 114.509C98.8094 108.424 105.629 95.375 111.599 94.0506Z" fill="#286F66"/>
<path d="M137.937 83.0043C140.059 82.9182 141.661 84.1397 143 85.6149C141.339 88.0991 139.38 90.2551 137.708 92.9946C134.284 98.5461 131.517 104.606 129.514 110.799C129.188 111.804 128.022 114.884 128.76 115.684C130.597 115.809 136.426 107.431 137.576 105.868C137.109 107.065 136.619 108.253 136.107 109.432C133.983 113.865 130.811 119.425 125.298 119.989C123.542 120.169 122.96 118.082 123.002 116.758C123.075 114.458 123.845 111.908 124.51 109.712C127.125 101.081 131.468 89.5421 137.937 83.0043Z" fill="#286F66"/>
<path d="M60.2193 94.0427C61.5058 93.9681 62.5572 93.9209 63.7481 94.5336C65.7763 95.577 66.6133 98.4286 65.5119 100.399C64.5079 102.196 62.5591 102.539 60.7203 103.032C61.6165 100.593 61.9105 95.6502 57.7617 97.2446C54.8452 98.4728 56.7853 103.224 57.1908 105.385C57.7585 108.411 59.6819 111.683 58.3412 114.636C56.6281 117.261 54.0706 118.064 51.016 117.996C45.2041 114.721 49.0022 111.071 52.3264 107.865C51.6534 106.506 51.1481 105.491 50.831 104.015C49.5912 98.2413 55.4488 94.9611 60.2193 94.0427Z" fill="#286F66"/>
</svg>
