<svg width="220" height="156" viewBox="0 0 220 156" fill="none" xmlns="http://www.w3.org/2000/svg">
<path d="M0.0990492 9.2605C16.7239 9.42351 33.3498 9.45956 49.975 9.36861C64.6947 9.35038 78.8965 8.54105 93.2871 11.7214L93.4191 11.819C93.8081 22.16 93.2795 34.5132 93.2886 45.0542L93.3903 117.977L93.2873 143.594C93.2864 146.523 93.1368 152.981 93.4411 155.747C91.5377 155.691 89.4709 155.587 87.581 155.58C82.8964 149.358 79.1924 143.253 74.745 136.891C74.0318 135.871 71.5134 132.074 70.911 131.384C70.7646 131.024 70.3206 130.458 70.077 130.115C69.4072 128.869 63.5161 119.971 62.8355 119.315C58.4853 118.29 53.9271 118.997 49.4747 118.54C49.7788 121.964 49.5363 127.22 49.5547 130.719C49.5979 138.976 49.2144 147.526 49.6279 155.758C43.369 155.375 37.3782 155.58 31.149 155.586C20.8188 155.698 10.4876 155.679 0.157674 155.529C-0.113008 151.015 0.0541844 144.23 0.0336558 139.592L0 107.059L0.0990492 9.2605ZM49.5769 81.356C53.1457 81.4729 56.7188 81.4065 60.2882 81.444C67.6853 81.5218 76.1636 81.7949 82.264 76.8512C86.5376 71.4822 87.6639 68.3431 86.8254 61.0453C86.3793 57.2991 84.4718 53.8804 81.5174 51.5326C75.8047 47.023 67.1118 47.317 60.273 47.3352L49.4027 47.3699C49.4787 52.7237 49.3238 58.1076 49.4222 63.439C49.5293 69.2407 49.2176 75.5958 49.5769 81.356Z" fill="#293D63"/>
<path d="M93.2883 0H140.968C140.546 13.1617 141.4 26.9892 140.719 40.2169C140.562 43.2587 140.715 46.7975 140.399 49.7868C152.61 41.8843 157.7 38.9943 172.828 39.0645C189.276 39.1408 204.281 44.3936 212.907 59.3961C220.702 72.9535 219.756 87.7015 219.817 102.562L219.807 146.195C219.792 147.847 220.158 153.845 219.919 154.948C217.669 156.429 202.063 155.908 198.605 155.923C193.246 155.959 187.888 155.956 182.529 155.916C180.533 155.9 174.157 155.95 172.62 155.265C171.012 154.548 171.617 145.478 171.617 143.635L171.571 109.502C171.537 101.474 172.646 90.9544 168.286 83.692C167.16 81.8167 162.621 80.205 160.58 79.5621C157.165 78.6273 153.487 79.0487 150.37 80.7944C144.279 84.2065 143.376 87.1735 141.543 93.5584C140.639 96.7046 140.823 103.596 140.834 107.026L140.855 120.18L140.781 142.746C140.768 144.6 140.699 146.547 140.571 148.396C140.489 149.586 141.212 153.432 140.321 153.985C137.855 153.806 134.269 147.169 132.838 145.03C130.401 141.462 127.911 137.93 125.369 134.436C124.731 133.556 123.225 131.216 122.574 130.544C120.725 127.444 118.652 124.706 116.654 121.728C114.442 118.435 112.558 115.137 109.893 112.139C109.66 111.876 109.523 111.197 109.463 110.835C109.644 110.43 110.023 109.662 110.39 109.452C118.06 105.06 123.695 100.328 128.574 92.7983C134.461 83.7119 137.073 74.9385 136.482 64.0018C136.234 59.4073 136.353 54.5703 135.107 50.0364C130.598 33.5268 120.208 23.205 104.844 16.1826C101.505 14.6563 95.6523 13.166 93.4193 11.8188L93.2873 11.7212C92.4433 8.44275 92.7281 3.30331 93.2883 0Z" fill="#BBEF03"/>
</svg>
