<svg width="401" height="147" viewBox="0 0 401 147" fill="none" xmlns="http://www.w3.org/2000/svg">
<path d="M379.466 115.231L379.675 115.229C380.258 115.866 380.015 118.997 379.997 120.095C376.982 119.989 373.745 120.04 370.713 120.039L370.703 146.75C368.989 146.711 367.118 146.762 365.391 146.775C365.457 139.445 365.357 132.087 365.334 124.756C365.328 123.171 365.237 121.634 365.385 120.053C362.191 120.016 358.997 120.017 355.804 120.057C355.682 128.953 355.684 137.85 355.814 146.746C353.306 146.763 350.798 146.759 348.288 146.735C347.699 145.706 347.127 144.551 346.6 143.485C343.161 136.514 339.236 129.629 335.966 122.586C336.221 125.029 336.101 129.502 336.07 132.041C335.972 136.937 335.958 141.835 336.029 146.731L308.856 146.709C309.239 140.229 309.002 131.952 308.98 125.329L308.836 115.291C314.269 115.088 320.715 115.306 326.287 115.264C326.149 116.46 326.19 118.628 326.182 119.905C322.344 119.745 318.15 119.826 314.284 119.832C314.416 122.466 314.32 126.005 314.329 128.71C316.88 128.685 321.658 128.807 323.962 128.52L323.973 133.218C320.76 133.241 317.545 133.223 314.331 133.166C314.445 135.918 314.341 139.397 314.335 142.205C319.298 141.955 325.801 142.107 330.891 142.065C330.728 136.128 330.937 129.914 330.813 123.955C330.752 121.062 330.891 118.118 330.64 115.231C333.132 115.338 335.569 115.205 338.075 115.42C339.456 117.775 340.728 120.587 341.999 123.049L350.731 140.05C350.073 132.497 350.955 123.048 350.405 115.239C359.611 115.461 370.233 115.38 379.466 115.231Z" fill="#006284"/>
<path d="M81.2764 115.216C86.7123 115.432 93.0608 115.341 98.5349 115.252C98.5174 116.796 98.5358 118.367 98.5398 119.913C94.9432 119.698 90.3805 119.84 86.7125 119.874C86.8445 122.288 86.7814 126.12 86.7184 128.574C89.9004 128.641 93.1611 128.7 96.3357 128.512C96.3127 130.097 96.306 131.682 96.3158 133.267C93.1896 133.179 89.8597 133.216 86.7174 133.198C86.793 135.567 86.8127 139.782 86.6847 142.054C92.2114 142.191 97.7405 142.2 103.268 142.079L103.217 115.271C106.339 115.328 109.558 115.302 112.68 115.287C117.469 115.265 121.399 115.816 123.811 120.502C126.006 126.142 123.062 131.415 117.293 132.954C119.79 136.504 123.352 142.805 125.777 146.726C123.627 146.784 121.476 146.781 119.327 146.717C116.706 142.65 113.933 137.537 111.514 133.283C110.556 133.274 109.597 133.258 108.639 133.234C108.903 136.069 108.758 143.664 108.791 146.73C99.6647 146.691 90.5385 146.707 81.4128 146.78C81.4253 136.386 81.4489 125.597 81.2764 115.216ZM108.92 128.682C111.952 128.721 115.271 129.115 117.876 127.581C119.366 125.614 119.864 122.703 117.628 120.976C115.423 119.274 111.517 120.041 108.827 119.873C108.892 122.809 108.923 125.745 108.92 128.682Z" fill="#006284"/>
<path d="M188.972 115.24C193.68 115.418 198.863 114.947 203.507 115.701C206.128 116.127 208.08 118.047 209.395 120.298C211.792 126.214 208.897 131.092 203.003 132.908C205.924 137.283 208.536 142.194 211.619 146.779L204.884 146.769C204.301 145.501 202.921 143.264 202.164 141.949C200.549 139.138 198.9 136.051 197.094 133.384L194.4 133.4C194.546 137.598 194.443 142.505 194.457 146.773C185.826 146.584 175.629 146.589 166.999 146.772C167.179 143.087 167.087 138.862 167.088 135.114L167.082 115.267C172.421 115.401 178.949 115.426 184.264 115.237C184.212 116.718 184.243 118.364 184.242 119.859C180.343 119.787 176.264 119.83 172.356 119.822C172.48 122.68 172.438 125.812 172.446 128.694C175.173 128.668 179.467 128.788 182.023 128.511C182.013 130.087 182.021 131.664 182.047 133.24C178.831 133.198 175.644 133.249 172.415 133.173C172.479 136.111 172.417 139.239 172.406 142.191C177.284 141.922 184.039 142.098 189.101 142.066C188.851 140.474 188.978 135.078 188.984 133.105C189.023 127.15 189.019 121.195 188.972 115.24ZM194.414 128.732C197.76 128.746 200.781 129.123 203.701 127.409C204.682 126.023 204.92 125.208 204.676 123.499C204.029 118.955 197.723 119.823 194.302 119.869C194.501 122.211 194.444 126.27 194.414 128.732Z" fill="#006284"/>
<path d="M0.138051 115.257C1.9217 115.282 3.70561 115.285 5.48934 115.268C5.58006 119.479 5.69273 126.114 5.44236 130.212L11.8651 121.568C13.1894 119.776 15.2834 116.823 16.8081 115.338C18.7257 115.276 20.9635 115.339 22.9057 115.346C18.9915 120.471 14.9976 125.534 10.9255 130.535C13.6146 134.27 17.5468 138.468 19.9661 142.169C22.5584 133.669 25.9938 123.764 29.0821 115.34C30.9855 115.216 33.9761 115.343 35.957 115.366C37.137 118.214 38.5813 122.978 39.5993 126.034C41.092 130.238 42.5554 134.451 43.9893 138.675C44.753 140.904 45.9914 144.795 46.9994 146.779L40.9597 146.743C39.9759 143.789 38.8665 140.629 38.0279 137.654C35.0586 137.874 29.7316 137.665 26.3916 137.729C25.9175 140.132 24.407 144.154 23.649 146.752C21.4004 146.778 19.3732 146.804 17.12 146.673C13.6212 142.535 8.42897 135.56 5.48081 131.008L5.59124 146.791L0.235887 146.771C-0.219561 137.116 0.121794 125.054 0.138051 115.257ZM27.8779 133.235L32.6116 133.261L36.6873 133.271C35.7475 131.449 32.624 120.998 32.1543 120.549C30.9741 124.013 29.1517 130.1 27.8779 133.235Z" fill="#006284"/>
<path d="M214.937 115.283C218.127 115.269 221.316 115.28 224.506 115.316C226.572 122.63 228.187 130.956 230.145 138.462C230.347 136.08 231.371 132.167 231.951 129.75L235.443 115.298C238.556 115.318 241.713 115.371 244.822 115.264L244.814 146.747L239.612 146.702C239.604 138.511 239.781 128.609 239.482 120.537C239.215 120.823 233.246 144.759 232.766 146.685C231.11 146.78 228.967 146.719 227.271 146.715L223.109 130.922C222.162 127.21 221.344 123.406 220.363 119.733C220.224 122.895 220.438 126.049 220.41 129.205C220.357 135.062 220.306 140.889 220.361 146.748L215.023 146.711C214.927 136.612 215.308 125.21 214.937 115.283Z" fill="#006284"/>
<path d="M297.996 115.226C299.764 115.291 301.588 115.256 303.363 115.243C303.111 125.36 303.357 136.179 303.337 146.36L303.239 146.506C302.59 146.959 297.162 146.712 295.946 146.68C291.842 139.526 287.288 130.174 283.493 122.728C283.727 125.424 283.637 128.804 283.637 131.556C283.617 136.617 283.627 141.679 283.664 146.741L278.505 146.703C278.419 136.385 278.665 125.499 278.336 115.27C280.775 115.267 283.238 115.241 285.673 115.344C287.043 117.486 289.822 123.244 291.003 125.599L298.194 139.704C298.064 132.193 298.505 122.546 297.996 115.226Z" fill="#006284"/>
<path d="M258.412 115.31C260.139 115.209 263.616 115.245 265.285 115.401L276.175 146.755C274.276 146.728 272.332 146.75 270.43 146.75C269.463 144.676 268.294 140.286 267.26 137.749L264.766 137.673C262.083 137.684 258.325 137.795 255.743 137.582C255.114 140.273 253.848 144.015 253.011 146.737L247.579 146.757C247.848 145.726 248.283 144.536 248.644 143.528C251.999 134.167 255.059 124.665 258.412 115.31ZM257.078 133.22L262.309 133.222C263.439 133.222 264.738 133.194 265.855 133.229C265.338 131.652 261.893 120.854 261.342 120.368C260.422 123.446 258.353 130.483 257.078 133.22Z" fill="#006284"/>
<path d="M142.461 115.262C149.75 115.498 163.56 112.97 163.624 124.252C163.672 132.722 156.917 133.659 150.187 133.762L147.89 133.752C147.946 138.056 147.905 142.448 147.909 146.76L142.555 146.778C142.527 136.424 142.759 125.557 142.461 115.262ZM147.938 129.109C150.644 129.084 155.018 129.524 157.062 127.762C157.518 127.159 158.24 126.17 158.331 125.396C159.089 118.925 152.109 119.806 147.872 119.856C147.927 122.62 148.062 126.404 147.938 129.109Z" fill="#006284"/>
<path d="M199.655 0.0653076C215.644 -1.30842 213.771 19.4342 203.681 20.4495C197.666 21.1836 192.508 19.0979 191.498 12.4741C190.588 6.50099 193.137 0.907657 199.655 0.0653076Z" fill="#006284"/>
<path d="M382.74 115.14C384.177 115.376 387.603 115.304 389.151 115.303C392.724 115.316 396.297 115.297 399.87 115.244C399.89 116.793 399.931 118.341 399.994 119.888C396.079 119.747 391.938 119.83 388.011 119.877C388.169 122.288 388.114 126.171 388.059 128.625C391.134 128.667 394.664 128.728 397.702 128.55C397.636 130.175 397.63 131.583 397.659 133.21C394.505 133.295 391.185 133.234 388.019 133.22C388.053 134.865 388.039 136.563 388.049 138.214L388.057 142.073C392.37 142.196 396.688 142.175 401 142.012L400.947 146.757C394.886 146.715 388.823 146.716 382.76 146.761L382.734 128.14C382.725 123.911 382.613 119.329 382.74 115.14Z" fill="#006284"/>
<path d="M67.6118 114.808C70.2253 114.452 73.4423 115.137 75.844 116.16C75.9432 117.615 75.9322 119.412 75.9617 120.895C72.4734 119.165 67.5583 117.665 64.415 120.919C62.057 122.81 64.0746 126.097 66.6567 127.004C74.3749 129.714 82.2928 134.662 75.715 143.69C73.9755 146.078 69.3503 146.955 66.2013 146.997C62.5008 147.04 61.5804 146.654 58.1104 145.439C57.9909 143.777 57.9691 142.005 57.9216 140.331C61.9709 143.004 72.5375 144.777 72.3074 137.443C72.2166 134.552 66.1634 132.709 63.915 131.696C57.7537 128.921 55.6634 122.921 60.4022 117.699C62.0098 115.928 65.3082 115.094 67.6118 114.808Z" fill="#006284"/>
<path d="M169.728 9.2906C174.323 9.06606 178.678 10.4535 179.768 15.6133C181.003 21.4612 179.244 26.1456 172.881 27.4793C160.759 29.4858 157.835 11.3136 169.728 9.2906Z" fill="#006284"/>
<path d="M158.513 35.4174C160.249 32.7393 165.453 28.9945 168.47 29.7858C169.644 30.0934 173.64 39.7186 174.395 41.3777L184.556 63.788C184.168 63.7489 183.399 63.6051 183.09 63.6992C182.591 63.3544 178.311 58.2677 177.608 57.4476L166.548 44.5849C164.107 41.7178 161.112 37.9934 158.513 35.4174Z" fill="#006284"/>
<path d="M228.442 15.4878C233.366 14.7619 237.939 18.1826 238.631 23.1088C239.323 28.0352 235.869 32.5829 230.936 33.241C226.051 33.8928 221.554 30.4815 220.87 25.6026C220.184 20.724 223.567 16.2066 228.442 15.4878Z" fill="#006284"/>
<path d="M199.761 22.2789C202.432 21.9774 204.556 22.5805 207.107 23.2625C206.199 26.9596 205.879 32.4284 205.238 36.2806C203.902 44.3018 202.974 52.9687 201.49 60.9125C201.42 61.5582 201.536 61.4509 201.172 61.8175C200.517 60.9406 196.459 27.8159 195.236 23.1775C196.927 22.7479 198.041 22.5105 199.761 22.2789Z" fill="#006284"/>
<path d="M230.215 35.2021C232.743 35.3314 235.215 35.9801 237.479 37.1076C238.784 37.7706 240.022 38.4647 240.494 39.893C239.338 41.8121 236.404 44.8644 234.767 46.609C230.2 51.4751 225.652 56.7911 221.049 61.5735C218.985 63.6935 217.405 65.6644 215.438 67.7695C217.016 64.1278 229.097 36.3629 230.215 35.2021Z" fill="#006284"/>
<path d="M157.604 36.4495C159.198 37.4101 178.25 65.8997 181.869 70.3672C181.162 70.0157 180.388 69.3971 179.741 68.9155L163.17 55.9728C160.662 54.0082 157.491 51.7196 155.162 49.6481C155.145 44.862 155.355 40.7897 157.604 36.4495Z" fill="#006284"/>
<path d="M170.31 29.4917C173.451 29.2124 176.954 29.874 179.637 31.5218C183.862 34.1166 184.881 39.7266 186.099 44.1505C187.909 50.7192 188.827 57.4995 190.384 64.1208C188.378 62.902 173.415 33.8618 170.31 29.4917Z" fill="#006284"/>
<path d="M193.804 23.5833L193.94 23.6703C194.236 24.082 195.96 59.444 195.936 63.5467C195.098 61.4839 194.313 59.1472 193.617 57.0334L188.58 43.2639C187.654 40.711 186.497 38.0087 185.966 35.3549C184.965 30.3456 189.518 25.4768 193.804 23.5833Z" fill="#006284"/>
<path d="M208.233 23.4973C211.523 24.8632 214.326 27.2759 215.845 30.5335C217.671 34.4836 215.599 38.7022 214.184 42.4545C212.331 47.3615 210.713 52.4116 208.807 57.2962C208.015 59.4078 207.207 61.5128 206.38 63.6109L207.592 37.9025C207.832 33.138 208.245 28.262 208.233 23.4973Z" fill="#006284"/>
<path d="M241.911 40.8721C244.765 42.7886 245.443 48.0975 245.423 51.2588C243.629 52.3563 239.588 55.8187 237.636 57.3419C232.621 61.2539 227.446 65.1409 222.476 69.0874C221.804 69.6506 220.65 70.3932 219.899 70.9098C225.538 62.892 231.33 54.9826 237.271 47.1858C238.749 45.2168 240.182 42.4823 241.911 40.8721Z" fill="#006284"/>
<path d="M48.2861 115.34C50.0872 115.276 52.1199 115.322 53.9596 115.293C53.8401 124.841 54.0322 134.419 53.961 143.97C53.9539 144.91 53.9789 145.819 53.8942 146.757L48.4041 146.772C48.1409 136.46 48.681 125.512 48.2861 115.34Z" fill="#006284"/>
<path d="M227.822 35.2332L228.168 35.319C228.177 35.4587 228.185 35.5981 228.193 35.7378C223.516 44.2342 216.34 56.8384 211.692 64.759L211.448 64.7771L211.329 64.3651C212.211 60.283 213.145 56.5204 213.901 52.3599C214.308 50.1224 215.198 45.5659 215.823 43.5769C216.146 42.5228 216.623 41.5231 217.24 40.6112C219.85 36.842 223.685 36.0203 227.822 35.2332Z" fill="#006284"/>
<path d="M155.196 51.7393C155.776 51.9445 176.604 72.1621 177.983 73.683L177.853 73.9336C175.236 73.0365 172.622 71.5468 170.087 70.4248C165.141 68.2346 160.252 65.7168 155.29 63.6031C155.277 59.718 155.337 55.5978 155.196 51.7393Z" fill="#006284"/>
<path d="M245.02 53.5923L245.331 53.8695C245.608 55.6465 245.45 62.2996 245.427 64.3487C243.882 64.9691 241.522 66.2527 239.91 67.0072L224.445 74.2992C224.357 74.3065 224.048 74.2481 223.94 74.2308C223.969 74.1112 243.438 55.1921 245.02 53.5923Z" fill="#006284"/>
<path d="M155.159 65.116C157.457 66.883 175.158 78.0247 175.669 78.9401C170.352 77.8642 165.06 76.4439 159.788 75.1544C158.217 74.7702 156.775 74.3488 155.165 74.1508C155.129 71.1393 155.127 68.1274 155.159 65.116Z" fill="#006284"/>
<path d="M155.211 75.9055C157.809 77.0231 174.088 83.4982 174.933 84.7779C170.099 84.3314 160.366 84.6616 155.116 84.6873C155.116 81.7737 155.082 78.8135 155.211 75.9055Z" fill="#006284"/>
<path d="M245.042 66.5581L245.303 66.6025C245.582 67.0412 245.443 73.8251 245.435 74.8533C243.147 75.1983 240.213 75.9858 237.924 76.5286L226.928 79.0662L226.586 79.1566L226.489 78.9146C227.554 77.5251 242.699 68.0212 245.042 66.5581Z" fill="#006284"/>
<path d="M245.338 76.6785C245.578 77.3279 245.494 83.5832 245.523 84.7478C240.301 84.4598 232.745 84.6167 227.466 84.7228L227.251 84.6181C227.741 83.8353 243.397 77.5108 245.338 76.6785Z" fill="#006284"/>
<path d="M183.09 63.6991C183.399 63.605 184.168 63.7488 184.556 63.7879L185.896 66.9852C184.94 66.0507 183.902 64.7758 183.09 63.6991Z" fill="#0A6D90" fill-opacity="0.984314"/>
</svg>
