<svg width="343" height="103" viewBox="0 0 343 103" fill="none" xmlns="http://www.w3.org/2000/svg">
<rect width="343" height="101.001" fill="#FFFEFE"/>
<path d="M79.9477 17.9067V0.00195312H87.7712C89.6506 0.00195312 91.1059 0.411562 92.1396 1.23319C93.1733 2.05482 93.6889 3.19208 93.6889 4.64981C93.6889 5.73407 93.3757 6.64726 92.7492 7.39178C92.1227 8.1363 91.2674 8.63747 90.1831 8.89047V8.50977C91.012 8.62784 91.7228 8.88324 92.3155 9.27116C92.9082 9.6615 93.3612 10.1603 93.6744 10.7698C93.9877 11.3794 94.1443 12.0902 94.1443 12.9022C94.1443 13.9528 93.9033 14.8539 93.4214 15.6081C92.9396 16.3622 92.2408 16.9333 91.3252 17.3236C90.412 17.7139 89.3181 17.9067 88.0483 17.9067H79.9453H79.9477ZM83.0704 7.59418H87.2098C88.3278 7.59418 89.1615 7.37732 89.7109 6.94603C90.2602 6.51474 90.5373 5.87623 90.5373 5.0281C90.5373 4.17996 90.2626 3.54146 89.7109 3.11016C89.1591 2.67887 88.3254 2.46202 87.2098 2.46202H83.0704V7.59177V7.59418ZM83.0704 15.4418H87.6411C88.0989 15.4418 88.5085 15.4081 88.8724 15.3406C89.2362 15.2731 89.5494 15.1671 89.8121 15.0226C90.0747 14.878 90.294 14.6973 90.4723 14.4756C90.6506 14.2563 90.7807 14.0009 90.865 13.7142C90.9493 13.4275 90.9927 13.1046 90.9927 12.748C90.9927 12.3914 90.9493 12.0445 90.865 11.7577C90.7807 11.471 90.6482 11.2204 90.4723 11.0084C90.294 10.7964 90.0747 10.6181 89.8121 10.4759C89.5494 10.3313 89.2362 10.2253 88.8724 10.1578C88.5085 10.0904 88.0965 10.0566 87.6411 10.0566H83.0704V15.4418Z" fill="black"/>
<path d="M102.779 18.1597C101.492 18.1597 100.374 17.897 99.4271 17.3718C98.4777 16.8465 97.7429 16.0972 97.2176 15.1237C96.6923 14.1503 96.4297 13.0034 96.4297 11.683C96.4297 10.3626 96.6923 9.21813 97.2176 8.25435C97.7429 7.28815 98.4777 6.54363 99.4271 6.01836C100.374 5.4931 101.492 5.23047 102.779 5.23047C104.065 5.23047 105.183 5.4931 106.13 6.01836C107.077 6.54363 107.814 7.28815 108.34 8.25435C108.865 9.21813 109.128 10.3626 109.128 11.683C109.128 13.0034 108.865 14.1503 108.34 15.1237C107.814 16.0972 107.077 16.8465 106.13 17.3718C105.181 17.897 104.065 18.1597 102.779 18.1597ZM102.779 15.7478C103.726 15.7478 104.489 15.4056 105.065 14.7189C105.641 14.0322 105.928 13.0227 105.928 11.683C105.928 10.3434 105.639 9.31692 105.065 8.64709C104.489 7.97726 103.728 7.64475 102.779 7.64475C101.829 7.64475 101.068 7.97967 100.492 8.64709C99.9162 9.31692 99.6295 10.3265 99.6295 11.683C99.6295 13.0395 99.9162 14.0322 100.492 14.7189C101.068 15.4056 101.829 15.7478 102.779 15.7478Z" fill="black"/>
<path d="M111.742 17.9076V5.4868H114.841V8.48418H114.588C114.824 7.46738 115.291 6.69395 115.985 6.15904C116.679 5.62655 117.602 5.31814 118.754 5.2314L119.72 5.1543L119.922 7.84567L118.094 8.02397C117.06 8.12517 116.282 8.44322 115.756 8.97571C115.231 9.5082 114.968 10.2575 114.968 11.2237V17.9028H111.742V17.9076Z" fill="black"/>
<path d="M126.478 18.1597C125.394 18.1597 124.442 17.897 123.62 17.3718C122.799 16.8465 122.16 16.0972 121.702 15.1238C121.245 14.1503 121.016 13.0034 121.016 11.683C121.016 10.3627 121.245 9.19888 121.702 8.24232C122.16 7.28576 122.799 6.54606 123.62 6.0208C124.442 5.49553 125.394 5.2329 126.478 5.2329C127.562 5.2329 128.413 5.4859 129.184 5.99429C129.955 6.50269 130.475 7.17011 130.745 8.00137H130.466V0.00195312H133.641V17.9067H130.543V15.2659H130.772C130.519 16.1478 130.001 16.8489 129.222 17.3742C128.444 17.8995 127.528 18.1621 126.48 18.1621L126.478 18.1597ZM127.367 15.7478C128.314 15.7478 129.078 15.4057 129.654 14.719C130.229 14.0323 130.516 13.0227 130.516 11.683C130.516 10.3434 130.227 9.31694 129.654 8.64711C129.078 7.97728 128.316 7.64477 127.367 7.64477C126.418 7.64477 125.656 7.97969 125.08 8.64711C124.505 9.31694 124.218 10.3265 124.218 11.683C124.218 13.0396 124.505 14.0323 125.08 14.719C125.656 15.4057 126.418 15.7478 127.367 15.7478Z" fill="black"/>
<path d="M143.065 18.1597C141.66 18.1597 140.448 17.897 139.433 17.3718C138.417 16.8465 137.634 16.102 137.084 15.1358C136.535 14.172 136.258 13.0275 136.258 11.7071C136.258 10.3867 136.525 9.29524 137.058 8.32904C137.59 7.36525 138.328 6.60627 139.267 6.05692C140.207 5.50756 141.277 5.23047 142.479 5.23047C143.681 5.23047 144.679 5.48346 145.527 5.99186C146.373 6.50026 147.031 7.22069 147.496 8.15074C147.961 9.0832 148.194 10.1916 148.194 11.4782V12.4179H138.821V10.5891H145.958L145.551 10.9698C145.551 9.81809 145.298 8.93382 144.79 8.31458C144.281 7.69776 143.554 7.38694 142.604 7.38694C141.894 7.38694 141.289 7.55078 140.788 7.88088C140.289 8.21098 139.908 8.676 139.646 9.27837C139.383 9.88074 139.253 10.5939 139.253 11.4252V11.6035C139.253 12.536 139.397 13.3046 139.684 13.9142C139.971 14.5238 140.404 14.9816 140.98 15.2852C141.556 15.5888 142.267 15.743 143.113 15.743C143.807 15.743 144.501 15.6369 145.195 15.4249C145.888 15.2129 146.525 14.878 147.1 14.4226L147.989 16.555C147.397 17.0465 146.652 17.4368 145.754 17.7235C144.855 18.0103 143.958 18.1548 143.062 18.1548L143.065 18.1597Z" fill="black"/>
<path d="M150.711 17.9076V5.4868H153.81V8.48418H153.557C153.793 7.46738 154.26 6.69395 154.954 6.15904C155.648 5.62655 156.571 5.31814 157.722 5.2314L158.689 5.1543L158.891 7.84567L157.062 8.02397C156.029 8.12517 155.25 8.44322 154.725 8.97571C154.2 9.5082 153.937 10.2575 153.937 11.2237V17.9028H150.711V17.9076Z" fill="black"/>
<path d="M164.982 18.1601C163.51 18.1601 162.421 17.7578 161.719 16.953C161.016 16.1482 160.664 14.9676 160.664 13.4111V0H163.84V13.2569C163.84 13.7484 163.912 14.1677 164.057 14.5146C164.201 14.8616 164.416 15.1194 164.705 15.288C164.991 15.4567 165.348 15.541 165.772 15.541C165.958 15.541 166.143 15.5314 166.331 15.5145C166.517 15.4977 166.695 15.4639 166.864 15.4133L166.813 17.9288C166.507 17.9963 166.208 18.0517 165.912 18.0951C165.616 18.136 165.307 18.1577 164.984 18.1577L164.982 18.1601Z" fill="black"/>
<path d="M172.851 18.1597C171.952 18.1597 171.152 17.9862 170.451 17.6392C169.748 17.2923 169.198 16.8224 168.801 16.2297C168.403 15.6369 168.203 14.9695 168.203 14.2226C168.203 13.3094 168.439 12.5842 168.914 12.0517C169.389 11.5192 170.16 11.1337 171.225 10.8951C172.292 10.659 173.723 10.5385 175.516 10.5385H176.786V12.3673H175.54C174.745 12.3673 174.075 12.3962 173.533 12.4565C172.991 12.5167 172.555 12.6082 172.225 12.736C171.894 12.8637 171.656 13.0371 171.514 13.2564C171.369 13.4757 171.297 13.7479 171.297 14.0684C171.297 14.6274 171.492 15.0852 171.88 15.4394C172.27 15.796 172.81 15.9719 173.506 15.9719C174.065 15.9719 174.562 15.8418 174.993 15.5791C175.424 15.3165 175.766 14.9575 176.022 14.4997C176.275 14.0419 176.403 13.5166 176.403 12.9239V10.0036C176.403 9.1579 176.217 8.5483 175.844 8.17483C175.47 7.80378 174.844 7.61584 173.964 7.61584C173.27 7.61584 172.559 7.72186 171.832 7.93389C171.104 8.14592 170.367 8.4712 169.622 8.91213L168.709 6.75325C169.15 6.44966 169.67 6.18221 170.27 5.95331C170.87 5.72441 171.506 5.54611 172.176 5.42082C172.846 5.29312 173.475 5.23047 174.068 5.23047C175.287 5.23047 176.289 5.416 177.077 5.78946C177.865 6.16293 178.453 6.72434 178.843 7.4785C179.234 8.23266 179.426 9.20127 179.426 10.3867V17.9043H176.456V15.2635H176.658C176.54 15.8562 176.306 16.3694 175.959 16.8007C175.612 17.232 175.176 17.5669 174.651 17.8031C174.126 18.0392 173.526 18.1597 172.849 18.1597H172.851Z" fill="black"/>
<path d="M182.653 17.9067V5.48587H185.752V7.97485H185.472C185.843 7.07853 186.424 6.39665 187.212 5.92921C188 5.46419 188.891 5.23047 189.891 5.23047C190.891 5.23047 191.71 5.416 192.354 5.78946C192.997 6.16293 193.479 6.72434 193.802 7.4785C194.122 8.23266 194.284 9.1844 194.284 10.3361V17.9043H191.108V10.4879C191.108 9.84459 191.029 9.31933 190.867 8.91213C190.706 8.50493 190.46 8.20616 190.13 8.01099C189.8 7.81582 189.38 7.71945 188.872 7.71945C188.262 7.71945 187.73 7.84956 187.272 8.11219C186.814 8.37482 186.46 8.74588 186.205 9.23018C185.952 9.71207 185.824 10.2759 185.824 10.9192V17.9043H182.648L182.653 17.9067Z" fill="black"/>
<path d="M202.29 18.1597C201.206 18.1597 200.254 17.897 199.433 17.3718C198.611 16.8465 197.973 16.0972 197.515 15.1238C197.057 14.1503 196.828 13.0034 196.828 11.683C196.828 10.3627 197.057 9.19888 197.515 8.24232C197.973 7.28576 198.611 6.54606 199.433 6.0208C200.254 5.49553 201.206 5.2329 202.29 5.2329C203.375 5.2329 204.225 5.4859 204.996 5.99429C205.767 6.50269 206.288 7.17011 206.558 8.00137H206.278V0.00195312H209.454V17.9067H206.355V15.2659H206.584C206.331 16.1478 205.813 16.8489 205.035 17.3742C204.257 17.8995 203.341 18.1621 202.293 18.1621L202.29 18.1597ZM203.179 15.7478C204.126 15.7478 204.89 15.4057 205.466 14.719C206.042 14.0323 206.329 13.0227 206.329 11.683C206.329 10.3434 206.04 9.31694 205.466 8.64711C204.89 7.97728 204.129 7.64477 203.179 7.64477C202.23 7.64477 201.469 7.97969 200.893 8.64711C200.317 9.31694 200.03 10.3265 200.03 11.683C200.03 13.0396 200.317 14.0323 200.893 14.719C201.469 15.4057 202.23 15.7478 203.179 15.7478Z" fill="black"/>
<path d="M217.301 18.1597C216.607 18.1597 215.933 18.0994 215.282 17.9814C214.629 17.8633 214.034 17.697 213.492 17.485C212.95 17.273 212.475 17.0079 212.07 16.6851L212.882 14.6033C213.306 14.8731 213.762 15.1117 214.253 15.3141C214.745 15.5165 215.253 15.6707 215.776 15.7719C216.301 15.8731 216.817 15.9237 217.325 15.9237C218.137 15.9237 218.745 15.7839 219.142 15.5044C219.54 15.2249 219.74 14.8563 219.74 14.3985C219.74 14.0082 219.61 13.7094 219.347 13.4973C219.084 13.2853 218.692 13.1287 218.166 13.0275L215.627 12.5456C214.576 12.3432 213.776 11.9577 213.227 11.3891C212.677 10.8228 212.4 10.0904 212.4 9.19163C212.4 8.37964 212.624 7.67608 213.073 7.08335C213.521 6.49062 214.142 6.03282 214.94 5.71236C215.735 5.3919 216.651 5.23047 217.682 5.23047C218.275 5.23047 218.851 5.28589 219.41 5.39431C219.969 5.50515 220.496 5.66417 220.997 5.87621C221.496 6.08824 221.932 6.36292 222.306 6.70265L221.443 8.78443C221.12 8.51457 220.749 8.28085 220.325 8.08569C219.901 7.89052 219.465 7.73872 219.017 7.62789C218.569 7.51705 218.133 7.46163 217.708 7.46163C216.88 7.46163 216.265 7.6062 215.868 7.89293C215.47 8.18206 215.27 8.56276 215.27 9.03501C215.27 9.39161 215.388 9.68798 215.627 9.92411C215.863 10.1602 216.227 10.3217 216.718 10.406L219.258 10.8879C220.359 11.0903 221.193 11.4638 221.759 12.0059C222.325 12.548 222.609 13.2757 222.609 14.1913C222.609 15.0201 222.39 15.7333 221.949 16.3236C221.508 16.9164 220.891 17.3694 220.094 17.6826C219.299 17.9958 218.366 18.1524 217.301 18.1524V18.1597Z" fill="black"/>
<path d="M89.3319 31.7731C90.1704 32.2478 90.8185 32.9128 91.2739 33.7657C91.7317 34.6211 91.9606 35.6066 91.9606 36.7245C91.9606 37.8425 91.71 38.8569 91.2112 39.7219C90.7125 40.5845 90.0041 41.2592 89.0909 41.7411C88.1777 42.2229 87.1103 42.4639 85.8911 42.4639C84.8069 42.4639 83.7371 42.2639 82.6793 41.8663C81.6216 41.4688 80.7277 40.9315 80 40.2544L80.7879 38.6545C82.448 40.0255 84.1491 40.7122 85.8936 40.7122C87.1465 40.7122 88.1295 40.3556 88.8403 39.6448C89.5511 38.934 89.9077 37.9678 89.9077 36.7486C89.9077 35.5295 89.5559 34.6066 88.8548 33.879C88.1512 33.1513 87.2163 32.7875 86.0478 32.7875C84.337 32.7875 82.9757 33.4814 81.9589 34.8693H80.5108V24.3809H91.2546V26.1084H82.5685V32.4839C83.0432 32.0261 83.6046 31.6743 84.2575 31.4285C84.9105 31.1828 85.6165 31.0599 86.3779 31.0599C87.5127 31.0599 88.4982 31.2984 89.3367 31.7707L89.3319 31.7731Z" fill="black"/>
<path d="M109.614 32.969V41.2479C108.903 41.6213 107.975 41.9201 106.833 42.149C105.691 42.3779 104.535 42.4912 103.366 42.4912C101.588 42.4912 100.056 42.1273 98.7689 41.3997C97.4823 40.672 96.4968 39.6215 95.8101 38.2505C95.1234 36.8795 94.7812 35.2363 94.7812 33.3232C94.7812 31.41 95.121 29.7933 95.798 28.4223C96.4751 27.0513 97.4485 26.0008 98.7183 25.2731C99.9881 24.5455 101.487 24.1816 103.214 24.1816C104.467 24.1816 105.619 24.372 106.67 24.7527C107.72 25.1334 108.616 25.6972 109.361 26.4417L108.573 28.0416C107.71 27.2971 106.857 26.7646 106.021 26.4417C105.183 26.1213 104.248 25.9598 103.214 25.9598C101.2 25.9598 99.6508 26.5959 98.5665 27.8657C97.4823 29.1355 96.9401 30.9571 96.9401 33.3256C96.9401 35.6941 97.4895 37.5879 98.5906 38.8505C99.6917 40.113 101.299 40.7419 103.417 40.7419C104.956 40.7419 106.388 40.513 107.708 40.0552V34.5953H103.263V32.969H109.612H109.614Z" fill="black"/>
<path d="M120.383 24.3828H122.465V42.2875H120.383V24.3828Z" fill="black"/>
<path d="M137.247 34.5185V42.2914H135.19V34.6462C135.19 33.4945 134.965 32.656 134.517 32.1307C134.069 31.6055 133.354 31.3428 132.37 31.3428C131.236 31.3428 130.33 31.6898 129.653 32.3837C128.976 33.0776 128.636 34.0173 128.636 35.2028V42.289H126.578V29.9212H128.609V31.9524C129.017 31.191 129.583 30.6103 130.31 30.2128C131.038 29.8152 131.867 29.6152 132.799 29.6152C135.763 29.6152 137.245 31.2489 137.245 34.5161L137.247 34.5185Z" fill="black"/>
<path d="M151.677 34.5185V42.2914H149.619V34.6462C149.619 33.4945 149.395 32.656 148.947 32.1307C148.499 31.6055 147.783 31.3428 146.8 31.3428C145.665 31.3428 144.759 31.6898 144.082 32.3837C143.405 33.0776 143.066 34.0173 143.066 35.2028V42.289H141.008V29.9212H143.039V31.9524C143.446 31.191 144.012 30.6103 144.74 30.2128C145.468 29.8152 146.297 29.6152 147.229 29.6152C150.193 29.6152 151.675 31.2489 151.675 34.5161L151.677 34.5185Z" fill="black"/>
<path d="M157.476 41.6794C156.587 41.1542 155.9 40.4048 155.418 39.4314C154.936 38.458 154.695 37.3279 154.695 36.0413C154.695 34.7546 154.936 33.6246 155.418 32.6512C155.9 31.6777 156.587 30.9284 157.476 30.4031C158.365 29.8779 159.394 29.6152 160.562 29.6152C161.731 29.6152 162.762 29.8779 163.661 30.4031C164.557 30.9284 165.249 31.6777 165.731 32.6512C166.213 33.6246 166.453 34.7546 166.453 36.0413C166.453 37.3279 166.213 38.458 165.731 39.4314C165.249 40.4048 164.557 41.1542 163.661 41.6794C162.762 42.2047 161.731 42.4673 160.562 42.4673C159.394 42.4673 158.365 42.2047 157.476 41.6794ZM163.369 39.5591C164.02 38.7543 164.348 37.5833 164.348 36.0413C164.348 34.4992 164.018 33.3716 163.357 32.55C162.697 31.7283 161.765 31.3187 160.565 31.3187C159.365 31.3187 158.432 31.7283 157.77 32.55C157.11 33.3716 156.78 34.5354 156.78 36.0413C156.78 37.5472 157.105 38.7326 157.758 39.547C158.408 40.359 159.346 40.7662 160.565 40.7662C161.784 40.7662 162.719 40.3639 163.372 39.5591H163.369Z" fill="black"/>
<path d="M180.299 29.9453L174.965 42.289H173.035L167.727 29.9453H169.912L174.051 40.053L178.241 29.9453H180.299Z" fill="black"/>
<path d="M190.751 30.8224C191.522 31.6271 191.908 32.8511 191.908 34.492V42.289H189.901V40.1807C189.578 40.9084 189.089 41.4722 188.428 41.8698C187.768 42.2673 187.007 42.4673 186.142 42.4673C185.347 42.4673 184.614 42.3059 183.944 41.9854C183.275 41.665 182.747 41.2144 182.357 40.6385C181.966 40.0627 181.773 39.429 181.773 38.7326C181.773 37.8026 182.01 37.0773 182.484 36.5617C182.959 36.0461 183.737 35.6726 184.821 35.4437C185.906 35.2148 187.412 35.1016 189.342 35.1016H189.901V34.2631C189.901 33.2294 189.689 32.4801 189.264 32.0151C188.84 31.55 188.156 31.3163 187.207 31.3163C185.785 31.3163 184.371 31.7572 182.966 32.6367L182.279 31.138C182.923 30.6802 183.696 30.3116 184.605 30.0345C185.511 29.755 186.388 29.6152 187.233 29.6152C188.809 29.6152 189.98 30.0176 190.751 30.8224ZM188.922 39.8145C189.573 39.1278 189.901 38.2435 189.901 37.1593V36.422H189.443C187.954 36.422 186.819 36.4846 186.041 36.6123C185.262 36.74 184.708 36.9521 184.376 37.2484C184.046 37.5448 183.882 37.9809 183.882 38.5568C183.882 39.2169 184.123 39.7639 184.605 40.1952C185.086 40.6265 185.691 40.8433 186.421 40.8433C187.438 40.8433 188.272 40.5012 188.922 39.8145Z" fill="black"/>
<path d="M202.216 40.7398L202.115 42.3662C201.725 42.4337 201.303 42.4674 200.845 42.4674C199.356 42.4674 198.234 42.0771 197.479 41.2988C196.725 40.5206 196.349 39.4363 196.349 38.0485V31.5453H193.938V29.9189H196.349V26.1602H198.407V29.9189H201.913V31.5453H198.407V37.8942C198.407 39.8411 199.303 40.8145 201.098 40.8145C201.469 40.8145 201.843 40.7904 202.216 40.7374V40.7398Z" fill="black"/>
<path d="M206.583 24.5625V26.8732H204.094V24.5625H206.583ZM204.299 29.9211H206.356V42.2889H204.299V29.9211Z" fill="black"/>
<path d="M212.234 41.6794C211.345 41.1542 210.658 40.4048 210.176 39.4314C209.694 38.458 209.453 37.3279 209.453 36.0413C209.453 34.7546 209.694 33.6246 210.176 32.6512C210.658 31.6777 211.345 30.9284 212.234 30.4031C213.123 29.8779 214.152 29.6152 215.32 29.6152C216.489 29.6152 217.52 29.8779 218.419 30.4031C219.315 30.9284 220.007 31.6777 220.488 32.6512C220.97 33.6246 221.211 34.7546 221.211 36.0413C221.211 37.3279 220.97 38.458 220.488 39.4314C220.007 40.4048 219.315 41.1542 218.419 41.6794C217.52 42.2047 216.489 42.4673 215.32 42.4673C214.152 42.4673 213.123 42.2047 212.234 41.6794ZM218.125 39.5591C218.775 38.7543 219.103 37.5833 219.103 36.0413C219.103 34.4992 218.773 33.3716 218.113 32.55C217.453 31.7283 216.52 31.3187 215.32 31.3187C214.12 31.3187 213.188 31.7283 212.525 32.55C211.865 33.3716 211.535 34.5354 211.535 36.0413C211.535 37.5472 211.86 38.7326 212.513 39.547C213.164 40.359 214.101 40.7662 215.32 40.7662C216.539 40.7662 217.474 40.3639 218.127 39.5591H218.125Z" fill="black"/>
<path d="M234.958 34.5185V42.2914H232.9V34.6462C232.9 33.4945 232.676 32.656 232.228 32.1307C231.78 31.6055 231.064 31.3428 230.081 31.3428C228.947 31.3428 228.041 31.6898 227.364 32.3837C226.686 33.0776 226.347 34.0173 226.347 35.2028V42.289H224.289V29.9212H226.32V31.9524C226.727 31.191 227.294 30.6103 228.021 30.2128C228.749 29.8152 229.578 29.6152 230.51 29.6152C233.474 29.6152 234.956 31.2489 234.956 34.5161L234.958 34.5185Z" fill="black"/>
<path d="M259.668 42.2875H257.381L254.334 36.5482C253.96 35.8543 253.524 35.3748 253.025 35.1122C252.526 34.8495 251.845 34.7194 250.98 34.7194H247.628V42.2875H245.57V24.3828H252.936C254.883 24.3828 256.37 24.8141 257.394 25.6791C258.418 26.5417 258.931 27.8115 258.931 29.4885C258.931 30.8763 258.538 31.9991 257.75 32.8545C256.962 33.7099 255.842 34.2472 254.384 34.4664C254.842 34.6014 255.244 34.8303 255.591 35.1531C255.938 35.4736 256.256 35.9073 256.543 36.4494L259.668 42.29V42.2875ZM252.76 32.9918C254.148 32.9918 255.186 32.7051 255.871 32.1292C256.557 31.5534 256.9 30.6812 256.9 29.5126C256.9 28.344 256.56 27.5055 255.883 26.9465C255.206 26.3875 254.165 26.108 252.758 26.108H247.628V32.9918H252.758H252.76Z" fill="black"/>
<path d="M273.051 36.4215H264.008C264.076 37.86 264.466 38.949 265.177 39.6839C265.888 40.4212 266.895 40.7899 268.198 40.7899C269.637 40.7899 270.957 40.2983 272.16 39.3177L272.846 40.8164C272.304 41.3248 271.61 41.7272 270.765 42.0235C269.919 42.3199 269.054 42.4669 268.174 42.4669C266.244 42.4669 264.724 41.9006 263.616 40.7658C262.507 39.6309 261.953 38.0648 261.953 36.0673C261.953 34.7975 262.199 33.6747 262.69 32.7013C263.182 31.7279 263.871 30.9713 264.76 30.4292C265.649 29.8871 266.661 29.6172 267.796 29.6172C269.439 29.6172 270.726 30.1545 271.656 31.2291C272.586 32.3037 273.054 33.7807 273.054 35.6601V36.4215H273.051ZM265.216 32.2315C264.563 32.9085 264.177 33.8651 264.059 35.1011H271.246C271.213 33.8482 270.899 32.8868 270.307 32.2194C269.714 31.5496 268.885 31.2171 267.818 31.2171C266.75 31.2171 265.866 31.5568 265.216 32.2339V32.2315Z" fill="black"/>
<path d="M287.145 29.9208V41.4525C287.145 43.2981 286.67 44.6908 285.723 45.6305C284.774 46.5702 283.369 47.04 281.507 47.04C279.338 47.04 277.519 46.481 276.047 45.363L276.733 43.8378C277.562 44.38 278.343 44.7679 279.071 45.0064C279.798 45.2426 280.61 45.363 281.509 45.363C282.694 45.363 283.591 45.045 284.2 44.4113C284.81 43.7776 285.114 42.85 285.114 41.6308V39.4454C284.757 40.2405 284.212 40.8501 283.475 41.2742C282.738 41.6982 281.87 41.9103 280.873 41.9103C279.789 41.9103 278.827 41.6573 277.991 41.1489C277.153 40.6405 276.502 39.9225 276.035 38.99C275.57 38.06 275.336 36.9829 275.336 35.7637C275.336 34.5445 275.57 33.4699 276.035 32.5375C276.5 31.6074 277.153 30.887 277.991 30.3786C278.83 29.8702 279.791 29.6172 280.873 29.6172C281.856 29.6172 282.709 29.8292 283.439 30.2509C284.167 30.6749 284.718 31.2749 285.089 32.0532V29.9208H287.147H287.145ZM284.073 39.0261C284.75 38.2383 285.089 37.1516 285.089 35.7613C285.089 34.3711 284.755 33.3109 284.087 32.523C283.417 31.7351 282.482 31.3424 281.28 31.3424C280.078 31.3424 279.133 31.7351 278.449 32.523C277.765 33.3109 277.42 34.3903 277.42 35.7613C277.42 37.1323 277.762 38.2383 278.449 39.0261C279.136 39.814 280.078 40.2068 281.28 40.2068C282.482 40.2068 283.396 39.814 284.075 39.0261H284.073Z" fill="black"/>
<path d="M293.239 24.5625V26.8732H290.75V24.5625H293.239ZM290.952 29.9211H293.01V42.2889H290.952V29.9211Z" fill="black"/>
<path d="M298.89 41.6794C298.001 41.1542 297.314 40.4048 296.832 39.4314C296.35 38.458 296.109 37.3279 296.109 36.0413C296.109 34.7546 296.35 33.6246 296.832 32.6512C297.314 31.6777 298.001 30.9284 298.89 30.4031C299.779 29.8779 300.808 29.6152 301.976 29.6152C303.145 29.6152 304.176 29.8779 305.075 30.4031C305.971 30.9284 306.663 31.6777 307.145 32.6512C307.627 33.6246 307.868 34.7546 307.868 36.0413C307.868 37.3279 307.627 38.458 307.145 39.4314C306.663 40.4048 305.971 41.1542 305.075 41.6794C304.176 42.2047 303.145 42.4673 301.976 42.4673C300.808 42.4673 299.779 42.2047 298.89 41.6794ZM304.783 39.5591C305.434 38.7543 305.762 37.5833 305.762 36.0413C305.762 34.4992 305.432 33.3716 304.771 32.55C304.111 31.7283 303.179 31.3187 301.979 31.3187C300.779 31.3187 299.846 31.7283 299.184 32.55C298.524 33.3716 298.194 34.5354 298.194 36.0413C298.194 37.5472 298.519 38.7326 299.172 39.547C299.822 40.359 300.76 40.7662 301.979 40.7662C303.198 40.7662 304.133 40.3639 304.786 39.5591H304.783Z" fill="black"/>
<path d="M321.607 34.5185V42.2914H319.549V34.6462C319.549 33.4945 319.325 32.656 318.877 32.1307C318.429 31.6055 317.713 31.3428 316.73 31.3428C315.595 31.3428 314.689 31.6898 314.012 32.3837C313.335 33.0776 312.995 34.0173 312.995 35.2028V42.289H310.938V29.9212H312.969V31.9524C313.376 31.191 313.942 30.6103 314.67 30.2128C315.397 29.8152 316.226 29.6152 317.159 29.6152C320.122 29.6152 321.604 31.2489 321.604 34.5161L321.607 34.5185Z" fill="black"/>
<path d="M32.3906 51.6407C32.3906 30.4471 49.5701 13.2676 70.7638 13.2676" stroke="#AD1F82" stroke-width="3.85514" stroke-linecap="round" stroke-linejoin="round"/>
<path d="M70.7587 2.28125C43.498 2.28125 21.3984 24.3809 21.3984 51.6415" stroke="#EFD2E6" stroke-width="3.85514" stroke-linecap="round" stroke-linejoin="round"/>
<path d="M70.7578 101.001C98.0185 101.001 120.118 78.9013 120.118 51.6406" stroke="#EFD2E6" stroke-width="3.85514" stroke-linecap="round" stroke-linejoin="round"/>
<path d="M109.131 51.6406C109.131 72.8343 91.9515 90.0138 70.7578 90.0138" stroke="#AD1F82" stroke-width="3.85514" stroke-linecap="round" stroke-linejoin="round"/>
<path d="M70.7578 90.0138C91.9515 90.0138 109.131 72.8343 109.131 51.6406" stroke="#CE79B4" stroke-width="3.85514" stroke-linecap="round" stroke-linejoin="round"/>
<path d="M70.7559 13.2676C49.5623 13.2676 32.3828 30.4471 32.3828 51.6407" stroke="#CE79B4" stroke-width="3.85514" stroke-linecap="round" stroke-linejoin="round"/>
<path d="M97.7968 51.6406H70.7578V78.6796" stroke="#AD1F82" stroke-width="3.85514" stroke-linecap="round" stroke-linejoin="round"/>
<path d="M43.7188 51.6406H70.7554V24.6016" stroke="#AD1F82" stroke-width="3.85514" stroke-linecap="round" stroke-linejoin="round"/>
</svg>
