<svg width="470" height="160" viewBox="0 0 470 160" fill="none" xmlns="http://www.w3.org/2000/svg">
<path d="M94.0072 27.8367V0.00488281H106.168C109.09 0.00488281 111.352 0.641596 112.959 1.91877C114.565 3.19594 115.367 4.96375 115.367 7.2297C115.367 8.91512 114.88 10.3346 113.906 11.4919C112.933 12.6493 111.603 13.4283 109.917 13.8216V13.2298C111.206 13.4133 112.311 13.8103 113.232 14.4133C114.154 15.0201 114.858 15.7954 115.345 16.7429C115.831 17.6905 116.075 18.7954 116.075 20.0576C116.075 21.6906 115.7 23.0914 114.951 24.2637C114.202 25.436 113.116 26.3236 111.693 26.9304C110.273 27.5371 108.573 27.8367 106.599 27.8367H94.0034H94.0072ZM98.8612 11.8065H105.296C107.034 11.8065 108.329 11.4695 109.183 10.799C110.037 10.1286 110.468 9.1361 110.468 7.81773C110.468 6.49936 110.041 5.50683 109.183 4.83641C108.326 4.16599 107.03 3.82891 105.296 3.82891H98.8612V11.8028V11.8065ZM98.8612 24.0052H105.966C106.678 24.0052 107.314 23.9528 107.88 23.8479C108.446 23.743 108.932 23.5783 109.341 23.3535C109.749 23.1288 110.09 22.8479 110.367 22.5033C110.644 22.1625 110.846 21.7655 110.977 21.3198C111.109 20.8741 111.176 20.3722 111.176 19.8179C111.176 19.2636 111.109 18.7242 110.977 18.2786C110.846 17.8329 110.64 17.4433 110.367 17.1137C110.09 16.7841 109.749 16.507 109.341 16.286C108.932 16.0613 108.446 15.8965 107.88 15.7916C107.314 15.6868 106.674 15.6343 105.966 15.6343H98.8612V24.0052Z" fill="black"/>
<path d="M129.498 28.2295C127.498 28.2295 125.76 27.8213 124.288 27.0048C122.812 26.1883 121.67 25.0235 120.854 23.5103C120.037 21.9972 119.629 20.2144 119.629 18.1619C119.629 16.1095 120.037 14.3304 120.854 12.8323C121.67 11.3304 122.812 10.1731 124.288 9.35657C125.76 8.54008 127.498 8.13184 129.498 8.13184C131.498 8.13184 133.236 8.54008 134.708 9.35657C136.18 10.1731 137.326 11.3304 138.142 12.8323C138.959 14.3304 139.367 16.1095 139.367 18.1619C139.367 20.2144 138.959 21.9972 138.142 23.5103C137.326 25.0235 136.18 26.1883 134.708 27.0048C133.232 27.8213 131.498 28.2295 129.498 28.2295ZM129.498 24.4804C130.97 24.4804 132.157 23.9485 133.052 22.8811C133.947 21.8137 134.393 20.2444 134.393 18.1619C134.393 16.0795 133.944 14.484 133.052 13.4428C132.157 12.4016 130.974 11.8847 129.498 11.8847C128.022 11.8847 126.839 12.4053 125.943 13.4428C125.048 14.484 124.603 16.0533 124.603 18.1619C124.603 20.2706 125.048 21.8137 125.943 22.8811C126.839 23.9485 128.022 24.4804 129.498 24.4804Z" fill="black"/>
<path d="M143.435 27.8352V8.52785H148.252V13.1871H147.858C148.226 11.6065 148.952 10.4043 150.031 9.57281C151.109 8.74508 152.544 8.26567 154.334 8.13084L155.836 8.01099L156.151 12.1946L153.308 12.4717C151.701 12.629 150.491 13.1234 149.675 13.9511C148.858 14.7789 148.45 15.9437 148.45 17.4456V27.8277H143.435V27.8352Z" fill="black"/>
<path d="M166.336 28.23C164.65 28.23 163.171 27.8218 161.894 27.0053C160.616 26.1888 159.624 25.024 158.912 23.5108C158.201 21.9977 157.845 20.2149 157.845 18.1624C157.845 16.11 158.201 14.301 158.912 12.8141C159.624 11.3271 160.616 10.1773 161.894 9.36082C163.171 8.54433 164.65 8.13608 166.336 8.13608C168.021 8.13608 169.343 8.52935 170.542 9.31962C171.74 10.1099 172.549 11.1474 172.969 12.4395H172.534V0.00488281H177.471V27.8367H172.654V23.7318H173.01C172.617 25.1026 171.811 26.1925 170.602 27.009C169.392 27.8255 167.969 28.2337 166.339 28.2337L166.336 28.23ZM167.718 24.4809C169.19 24.4809 170.377 23.949 171.272 22.8816C172.167 21.8142 172.613 20.2449 172.613 18.1624C172.613 16.08 172.163 14.4845 171.272 13.4433C170.377 12.4021 169.193 11.8852 167.718 11.8852C166.242 11.8852 165.058 12.4058 164.163 13.4433C163.268 14.4845 162.822 16.0538 162.822 18.1624C162.822 20.2711 163.268 21.8142 164.163 22.8816C165.058 23.949 166.242 24.4809 167.718 24.4809Z" fill="black"/>
<path d="M192.113 28.2295C189.929 28.2295 188.045 27.8213 186.469 27.0048C184.888 26.1883 183.671 25.031 182.817 23.5291C181.963 22.0309 181.532 20.2519 181.532 18.1994C181.532 16.1469 181.948 14.4503 182.776 12.9484C183.603 11.4502 184.749 10.2704 186.21 9.4165C187.671 8.56255 189.334 8.13184 191.203 8.13184C193.072 8.13184 194.622 8.5251 195.941 9.31537C197.255 10.1056 198.278 11.2255 199 12.6712C199.723 14.1207 200.087 15.8436 200.087 17.8436V19.3043H185.517V16.4615H196.611L195.978 17.0533C195.978 15.263 195.585 13.8885 194.794 12.9259C194.004 11.9671 192.873 11.4839 191.397 11.4839C190.293 11.4839 189.352 11.7386 188.573 12.2517C187.798 12.7649 187.206 13.4877 186.798 14.4241C186.39 15.3604 186.188 16.469 186.188 17.7612V18.0383C186.188 19.4878 186.412 20.6826 186.858 21.6302C187.304 22.5777 187.978 23.2894 188.873 23.7613C189.768 24.2332 190.873 24.4729 192.188 24.4729C193.266 24.4729 194.345 24.3081 195.424 23.9785C196.502 23.6489 197.491 23.1283 198.386 22.4204L199.768 25.7351C198.847 26.4991 197.69 27.1059 196.293 27.5516C194.896 27.9973 193.502 28.222 192.109 28.222L192.113 28.2295Z" fill="black"/>
<path d="M203.999 27.8352V8.52785H208.815V13.1871H208.422C208.789 11.6065 209.516 10.4043 210.594 9.57281C211.673 8.74508 213.108 8.26567 214.898 8.13084L216.4 8.01099L216.714 12.1946L213.872 12.4717C212.265 12.629 211.055 13.1234 210.239 13.9511C209.422 14.7789 209.014 15.9437 209.014 17.4456V27.8277H203.999V27.8352Z" fill="black"/>
<path d="M226.185 28.2289C223.897 28.2289 222.204 27.6034 221.114 26.3524C220.02 25.1015 219.473 23.2662 219.473 20.8467V0H224.41V20.607C224.41 21.3711 224.522 22.0228 224.747 22.5621C224.971 23.1014 225.305 23.5022 225.754 23.7644C226.2 24.0266 226.754 24.1576 227.413 24.1576C227.702 24.1576 227.99 24.1427 228.282 24.1164C228.571 24.0902 228.848 24.0378 229.11 23.9591L229.031 27.8693C228.556 27.9742 228.091 28.0603 227.631 28.1277C227.17 28.1914 226.691 28.2251 226.189 28.2251L226.185 28.2289Z" fill="black"/>
<path d="M238.425 28.2295C237.028 28.2295 235.784 27.9598 234.694 27.4205C233.601 26.8812 232.747 26.1508 232.129 25.2295C231.511 24.3081 231.2 23.2706 231.2 22.1096C231.2 20.6901 231.567 19.5627 232.305 18.735C233.043 17.9073 234.241 17.308 235.897 16.9372C237.556 16.5702 239.78 16.3829 242.567 16.3829H244.541V19.2256H242.604C241.369 19.2256 240.327 19.2706 239.485 19.3642C238.642 19.4578 237.964 19.6002 237.451 19.7987C236.938 19.9972 236.567 20.2668 236.346 20.6077C236.121 20.9485 236.009 21.3717 236.009 21.8699C236.009 22.7388 236.312 23.4504 236.915 24.001C237.522 24.5553 238.361 24.8287 239.443 24.8287C240.312 24.8287 241.084 24.6265 241.754 24.2182C242.425 23.81 242.957 23.2519 243.354 22.5403C243.747 21.8287 243.945 21.0122 243.945 20.0908V15.5514C243.945 14.2368 243.657 13.2892 243.076 12.7087C242.496 12.1319 241.522 11.8398 240.155 11.8398C239.076 11.8398 237.971 12.0046 236.84 12.3341C235.709 12.6637 234.563 13.1694 233.406 13.8548L231.986 10.4989C232.672 10.027 233.481 9.61126 234.413 9.25545C235.346 8.89964 236.335 8.62248 237.376 8.42772C238.417 8.22922 239.395 8.13184 240.316 8.13184C242.211 8.13184 243.769 8.42023 244.994 9.00076C246.219 9.58129 247.133 10.454 247.739 11.6263C248.346 12.7986 248.646 14.3042 248.646 16.1469V27.8325H244.028V23.7276H244.342C244.159 24.6489 243.796 25.4467 243.256 26.1171C242.717 26.7875 242.039 27.3081 241.222 27.6752C240.406 28.0422 239.473 28.2295 238.421 28.2295H238.425Z" fill="black"/>
<path d="M253.66 27.8362V8.52885H258.477V12.3978H258.042C258.619 11.0045 259.522 9.9446 260.746 9.21799C261.971 8.49514 263.357 8.13184 264.911 8.13184C266.466 8.13184 267.739 8.42023 268.739 9.00076C269.739 9.58129 270.488 10.454 270.99 11.6263C271.488 12.7986 271.739 14.278 271.739 16.0683V27.8325H266.803V16.3042C266.803 15.3042 266.679 14.4877 266.428 13.8548C266.177 13.2218 265.795 12.7574 265.282 12.454C264.769 12.1506 264.117 12.0008 263.327 12.0008C262.379 12.0008 261.552 12.2031 260.84 12.6113C260.128 13.0195 259.578 13.5963 259.181 14.3492C258.788 15.0982 258.589 15.9746 258.589 16.9747V27.8325H253.653L253.66 27.8362Z" fill="black"/>
<path d="M284.182 28.23C282.497 28.23 281.017 27.8218 279.74 27.0053C278.463 26.1888 277.47 25.024 276.759 23.5108C276.047 21.9977 275.691 20.2149 275.691 18.1624C275.691 16.11 276.047 14.301 276.759 12.8141C277.47 11.3271 278.463 10.1773 279.74 9.36082C281.017 8.54433 282.497 8.13608 284.182 8.13608C285.867 8.13608 287.189 8.52935 288.388 9.31962C289.586 10.1099 290.395 11.1474 290.815 12.4395H290.381V0.00488281H295.317V27.8367H290.5V23.7318H290.856C290.463 25.1026 289.658 26.1925 288.448 27.009C287.238 27.8255 285.815 28.2337 284.186 28.2337L284.182 28.23ZM285.564 24.4809C287.036 24.4809 288.223 23.949 289.118 22.8816C290.013 21.8142 290.459 20.2449 290.459 18.1624C290.459 16.08 290.01 14.4845 289.118 13.4433C288.223 12.4021 287.04 11.8852 285.564 11.8852C284.088 11.8852 282.905 12.4058 282.01 13.4433C281.114 14.4845 280.669 16.0538 280.669 18.1624C280.669 20.2711 281.114 21.8142 282.01 22.8816C282.905 23.949 284.088 24.4809 285.564 24.4809Z" fill="black"/>
<path d="M307.513 28.2295C306.434 28.2295 305.385 28.1359 304.374 27.9523C303.359 27.7688 302.434 27.5104 301.591 27.1808C300.749 26.8512 300.011 26.4392 299.381 25.9373L300.644 22.7013C301.303 23.1208 302.011 23.4916 302.775 23.8062C303.539 24.1208 304.329 24.3605 305.142 24.5178C305.958 24.6751 306.76 24.7538 307.55 24.7538C308.812 24.7538 309.756 24.5366 310.374 24.1021C310.992 23.6676 311.303 23.0946 311.303 22.383C311.303 21.7762 311.101 21.3118 310.692 20.9822C310.284 20.6526 309.674 20.4092 308.857 20.2519L304.91 19.5028C303.277 19.1882 302.033 18.5889 301.179 17.705C300.325 16.8248 299.895 15.6863 299.895 14.2892C299.895 13.027 300.243 11.9334 300.94 11.012C301.636 10.0907 302.603 9.37904 303.842 8.88091C305.078 8.38278 306.501 8.13184 308.104 8.13184C309.026 8.13184 309.921 8.21798 310.79 8.38652C311.659 8.55881 312.479 8.806 313.258 9.1356C314.033 9.46519 314.711 9.89216 315.292 10.4203L313.951 13.6563C313.449 13.2368 312.872 12.8735 312.213 12.5701C311.554 12.2667 310.876 12.0308 310.179 11.8585C309.483 11.6862 308.805 11.6001 308.146 11.6001C306.857 11.6001 305.902 11.8248 305.284 12.2705C304.666 12.7199 304.355 13.3117 304.355 14.0458C304.355 14.6001 304.539 15.0608 304.91 15.4278C305.277 15.7949 305.842 16.0458 306.606 16.1769L310.554 16.926C312.266 17.2406 313.561 17.8211 314.442 18.6638C315.322 19.5065 315.764 20.6376 315.764 22.0609C315.764 23.3493 315.423 24.4579 314.737 25.3755C314.052 26.2969 313.093 27.001 311.854 27.4879C310.618 27.9748 309.168 28.2183 307.513 28.2183V28.2295Z" fill="black"/>
<path d="M108.596 49.3919C109.9 50.1298 110.907 51.1635 111.615 52.4893C112.327 53.819 112.682 55.3508 112.682 57.0887C112.682 58.8265 112.293 60.4033 111.518 61.7479C110.742 63.0887 109.641 64.1375 108.222 64.8865C106.802 65.6356 105.143 66.0101 103.248 66.0101C101.562 66.0101 99.8994 65.6993 98.2552 65.0813C96.611 64.4633 95.2214 63.6281 94.0903 62.5756L95.3151 60.0887C97.8956 62.2198 100.54 63.2872 103.252 63.2872C105.199 63.2872 106.727 62.7329 107.832 61.6281C108.937 60.5232 109.491 59.0213 109.491 57.1261C109.491 55.231 108.944 53.7965 107.855 52.6654C106.761 51.5343 105.308 50.9687 103.491 50.9687C100.832 50.9687 98.7159 52.0474 97.1353 54.2047H94.8844V37.9011H111.585V40.5866H98.0829V50.4968C98.8207 49.7852 99.6934 49.2384 100.708 48.8563C101.723 48.4743 102.821 48.2833 104.004 48.2833C105.768 48.2833 107.3 48.6541 108.604 49.3882L108.596 49.3919Z" fill="black"/>
<path d="M140.121 51.2477V64.1168C139.016 64.6974 137.574 65.1618 135.799 65.5176C134.023 65.8734 132.225 66.0495 130.409 66.0495C127.645 66.0495 125.263 65.4839 123.263 64.3528C121.263 63.2217 119.731 61.5887 118.663 59.4576C117.596 57.3265 117.064 54.7721 117.064 51.7983C117.064 48.8245 117.592 46.3114 118.645 44.1802C119.697 42.0491 121.21 40.4161 123.184 39.285C125.158 38.1539 127.488 37.5884 130.173 37.5884C132.121 37.5884 133.911 37.8843 135.544 38.476C137.177 39.0678 138.57 39.9442 139.727 41.1015L138.503 43.5885C137.162 42.4311 135.836 41.6034 134.536 41.1015C133.233 40.6034 131.78 40.3525 130.173 40.3525C127.042 40.3525 124.634 41.3412 122.948 43.3151C121.263 45.2889 120.42 48.1204 120.42 51.8021C120.42 55.4838 121.274 58.4276 122.986 60.3902C124.697 62.3528 127.195 63.3303 130.488 63.3303C132.881 63.3303 135.106 62.9745 137.158 62.2629V53.7759H130.248V51.2477H140.117H140.121Z" fill="black"/>
<path d="M156.858 37.9036H160.094V65.7354H156.858V37.9036Z" fill="black"/>
<path d="M183.073 53.656V65.7386H179.875V53.8545C179.875 52.0642 179.526 50.7608 178.83 49.9443C178.133 49.1279 177.021 48.7196 175.493 48.7196C173.729 48.7196 172.32 49.2589 171.268 50.3376C170.215 51.4163 169.687 52.877 169.687 54.7197V65.7348H166.489V46.5098H169.646V49.6672C170.279 48.4837 171.159 47.581 172.29 46.963C173.421 46.345 174.71 46.0342 176.159 46.0342C180.766 46.0342 183.07 48.5735 183.07 53.6523L183.073 53.656Z" fill="black"/>
<path d="M205.5 53.656V65.7386H202.301V53.8545C202.301 52.0642 201.953 50.7608 201.256 49.9443C200.56 49.1279 199.447 48.7196 197.919 48.7196C196.155 48.7196 194.747 49.2589 193.695 50.3376C192.642 51.4163 192.114 52.877 192.114 54.7197V65.7348H188.915V46.5098H192.073V49.6672C192.706 48.4837 193.586 47.581 194.717 46.963C195.848 46.345 197.136 46.0342 198.586 46.0342C203.193 46.0342 205.496 48.5735 205.496 53.6523L205.5 53.656Z" fill="black"/>
<path d="M214.517 64.7872C213.135 63.9708 212.068 62.806 211.319 61.2928C210.57 59.7797 210.195 58.0231 210.195 56.0231C210.195 54.0231 210.57 52.2665 211.319 50.7533C212.068 49.2402 213.135 48.0754 214.517 47.2589C215.899 46.4424 217.499 46.0342 219.315 46.0342C221.132 46.0342 222.735 46.4424 224.132 47.2589C225.525 48.0754 226.6 49.2402 227.349 50.7533C228.098 52.2665 228.472 54.0231 228.472 56.0231C228.472 58.0231 228.098 59.7797 227.349 61.2928C226.6 62.806 225.525 63.9708 224.132 64.7872C222.735 65.6037 221.132 66.012 219.315 66.012C217.499 66.012 215.899 65.6037 214.517 64.7872ZM223.678 61.4913C224.69 60.2404 225.199 58.4201 225.199 56.0231C225.199 53.626 224.686 51.8732 223.66 50.596C222.633 49.3189 221.184 48.6822 219.319 48.6822C217.454 48.6822 216.004 49.3189 214.974 50.596C213.948 51.8732 213.435 53.6822 213.435 56.0231C213.435 58.3639 213.94 60.2067 214.955 61.4726C215.967 62.7348 217.424 63.3678 219.319 63.3678C221.214 63.3678 222.667 62.7423 223.682 61.4913H223.678Z" fill="black"/>
<path d="M249.992 46.5481L241.7 65.7356H238.7L230.449 46.5481H233.846L240.28 62.2599L246.794 46.5481H249.992Z" fill="black"/>
<path d="M266.239 47.9106C267.437 49.1616 268.037 51.0642 268.037 53.6148V65.7348H264.917V62.4576C264.415 63.5887 263.655 64.4651 262.628 65.0831C261.602 65.7011 260.419 66.012 259.074 66.012C257.838 66.012 256.699 65.761 255.658 65.2629C254.617 64.7648 253.797 64.0644 253.19 63.1693C252.583 62.2741 252.284 61.2891 252.284 60.2067C252.284 58.7609 252.651 57.6336 253.389 56.8321C254.126 56.0306 255.336 55.45 257.022 55.0942C258.707 54.7384 261.048 54.5624 264.048 54.5624H264.917V53.259C264.917 51.6522 264.587 50.4874 263.928 49.7646C263.269 49.0417 262.205 48.6784 260.729 48.6784C258.52 48.6784 256.321 49.3638 254.138 50.7309L253.07 48.4013C254.07 47.6896 255.272 47.1166 256.685 46.6859C258.093 46.2514 259.456 46.0342 260.771 46.0342C263.22 46.0342 265.04 46.6597 266.239 47.9106ZM263.396 61.8883C264.407 60.8209 264.917 59.4464 264.917 57.7609V56.6149H264.205C261.891 56.6149 260.127 56.7122 258.917 56.9107C257.707 57.1092 256.846 57.4388 256.329 57.8995C255.816 58.3602 255.561 59.0381 255.561 59.9333C255.561 60.9595 255.935 61.8097 256.685 62.4801C257.434 63.1505 258.374 63.4876 259.509 63.4876C261.089 63.4876 262.385 62.9558 263.396 61.8883Z" fill="black"/>
<path d="M284.064 63.3275L283.906 65.8557C283.3 65.9605 282.644 66.013 281.933 66.013C279.618 66.013 277.873 65.4062 276.7 64.1965C275.528 62.9867 274.944 61.3013 274.944 59.144V49.0352H271.195V46.5071H274.944V40.6643H278.142V46.5071H283.592V49.0352H278.142V58.9043C278.142 61.9305 279.536 63.4437 282.326 63.4437C282.903 63.4437 283.483 63.4062 284.064 63.3238V63.3275Z" fill="black"/>
<path d="M290.852 38.1802V41.772H286.984V38.1802H290.852ZM287.302 46.5099H290.5V65.7349H287.302V46.5099Z" fill="black"/>
<path d="M299.641 64.7872C298.259 63.9708 297.191 62.806 296.442 61.2928C295.693 59.7797 295.318 58.0231 295.318 56.0231C295.318 54.0231 295.693 52.2665 296.442 50.7533C297.191 49.2402 298.259 48.0754 299.641 47.2589C301.023 46.4424 302.622 46.0342 304.438 46.0342C306.255 46.0342 307.858 46.4424 309.255 47.2589C310.648 48.0754 311.723 49.2402 312.472 50.7533C313.221 52.2665 313.596 54.0231 313.596 56.0231C313.596 58.0231 313.221 59.7797 312.472 61.2928C311.723 62.806 310.648 63.9708 309.255 64.7872C307.858 65.6037 306.255 66.012 304.438 66.012C302.622 66.012 301.023 65.6037 299.641 64.7872ZM308.798 61.4913C309.809 60.2404 310.319 58.4201 310.319 56.0231C310.319 53.626 309.806 51.8732 308.779 50.596C307.753 49.3189 306.304 48.6822 304.438 48.6822C302.573 48.6822 301.124 49.3189 300.094 50.596C299.068 51.8732 298.554 53.6822 298.554 56.0231C298.554 58.3639 299.06 60.2067 300.075 61.4726C301.086 62.7348 302.543 63.3678 304.438 63.3678C306.334 63.3678 307.787 62.7423 308.802 61.4913H308.798Z" fill="black"/>
<path d="M334.956 53.656V65.7386H331.758V53.8545C331.758 52.0642 331.409 50.7608 330.713 49.9443C330.016 49.1279 328.904 48.7196 327.375 48.7196C325.611 48.7196 324.203 49.2589 323.151 50.3376C322.098 51.4163 321.57 52.877 321.57 54.7197V65.7348H318.372V46.5098H321.529V49.6672C322.162 48.4837 323.042 47.581 324.173 46.963C325.304 46.345 326.593 46.0342 328.042 46.0342C332.649 46.0342 334.952 48.5735 334.952 53.6523L334.956 53.656Z" fill="black"/>
<path d="M373.368 65.7354H369.814L365.076 56.8139C364.496 55.7353 363.818 54.9899 363.043 54.5817C362.267 54.1735 361.207 53.9712 359.863 53.9712H354.653V65.7354H351.454V37.9036H362.904C365.93 37.9036 368.241 38.574 369.833 39.9186C371.425 41.2594 372.222 43.2332 372.222 45.84C372.222 47.9973 371.612 49.7427 370.387 51.0723C369.162 52.4019 367.421 53.2371 365.155 53.5779C365.867 53.7877 366.492 54.1435 367.031 54.6454C367.571 55.1435 368.065 55.8177 368.511 56.6604L373.368 65.7392V65.7354ZM362.631 51.2858C364.788 51.2858 366.402 50.8401 367.466 49.9449C368.533 49.0498 369.065 47.694 369.065 45.8775C369.065 44.061 368.537 42.7576 367.485 41.8886C366.432 41.0197 364.814 40.5853 362.627 40.5853H354.653V51.2858H362.627H362.631Z" fill="black"/>
<path d="M394.172 56.6148H380.116C380.221 58.8508 380.828 60.5437 381.932 61.686C383.037 62.8321 384.603 63.4051 386.629 63.4051C388.865 63.4051 390.918 62.6411 392.787 61.1167L393.854 63.4463C393.011 64.2366 391.933 64.8621 390.618 65.3228C389.303 65.7834 387.959 66.0119 386.592 66.0119C383.592 66.0119 381.228 65.1317 379.505 63.3677C377.783 61.6036 376.921 59.1691 376.921 56.0642C376.921 54.0904 377.303 52.345 378.067 50.8319C378.831 49.3188 379.902 48.1427 381.285 47.3C382.667 46.4573 384.24 46.0378 386.004 46.0378C388.558 46.0378 390.558 46.8731 392.004 48.5435C393.449 50.2139 394.176 52.5098 394.176 55.4312V56.6148H394.172ZM381.992 50.1016C380.977 51.154 380.378 52.6409 380.195 54.5623H391.367C391.315 52.6147 390.828 51.1203 389.906 50.0828C388.985 49.0416 387.697 48.5248 386.037 48.5248C384.378 48.5248 383.004 49.0529 381.992 50.1053V50.1016Z" fill="black"/>
<path d="M416.083 46.5098V64.4351C416.083 67.3041 415.345 69.4689 413.873 70.9296C412.398 72.3903 410.214 73.1206 407.319 73.1206C403.948 73.1206 401.12 72.2517 398.832 70.5138L399.899 68.143C401.188 68.9857 402.401 69.5887 403.532 69.9595C404.663 70.3266 405.926 70.5138 407.323 70.5138C409.165 70.5138 410.559 70.0195 411.506 69.0344C412.454 68.0494 412.926 66.6074 412.926 64.7123V61.3152C412.371 62.5512 411.525 63.4988 410.379 64.1579C409.233 64.8171 407.884 65.1467 406.334 65.1467C404.648 65.1467 403.154 64.7535 401.854 63.9632C400.551 63.1729 399.54 62.0568 398.813 60.6073C398.09 59.1616 397.727 57.4874 397.727 55.5923C397.727 53.6971 398.09 52.0267 398.813 50.5772C399.536 49.1315 400.551 48.0117 401.854 47.2214C403.158 46.4311 404.652 46.0378 406.334 46.0378C407.862 46.0378 409.188 46.3674 410.323 47.0229C411.454 47.6821 412.312 48.6147 412.888 49.8244V46.5098H416.087H416.083ZM411.308 60.6635C412.36 59.4388 412.888 57.7496 412.888 55.5885C412.888 53.4275 412.368 51.7795 411.33 50.5548C410.289 49.33 408.836 48.7195 406.967 48.7195C405.098 48.7195 403.63 49.33 402.566 50.5548C401.502 51.7795 400.967 53.4574 400.967 55.5885C400.967 57.7197 401.499 59.4388 402.566 60.6635C403.634 61.8883 405.098 62.4987 406.967 62.4987C408.836 62.4987 410.255 61.8883 411.312 60.6635H411.308Z" fill="black"/>
<path d="M425.559 38.1802V41.772H421.69V38.1802H425.559ZM422.004 46.5099H425.203V65.7349H422.004V46.5099Z" fill="black"/>
<path d="M434.341 64.7872C432.959 63.9708 431.892 62.806 431.143 61.2928C430.394 59.7797 430.019 58.0231 430.019 56.0231C430.019 54.0231 430.394 52.2665 431.143 50.7533C431.892 49.2402 432.959 48.0754 434.341 47.2589C435.724 46.4424 437.323 46.0342 439.139 46.0342C440.956 46.0342 442.559 46.4424 443.956 47.2589C445.349 48.0754 446.424 49.2402 447.173 50.7533C447.922 52.2665 448.297 54.0231 448.297 56.0231C448.297 58.0231 447.922 59.7797 447.173 61.2928C446.424 62.806 445.349 63.9708 443.956 64.7872C442.559 65.6037 440.956 66.012 439.139 66.012C437.323 66.012 435.724 65.6037 434.341 64.7872ZM443.503 61.4913C444.514 60.2404 445.023 58.4201 445.023 56.0231C445.023 53.626 444.51 51.8732 443.484 50.596C442.458 49.3189 441.008 48.6822 439.143 48.6822C437.278 48.6822 435.828 49.3189 434.798 50.596C433.772 51.8732 433.259 53.6822 433.259 56.0231C433.259 58.3639 433.765 60.2067 434.78 61.4726C435.791 62.7348 437.248 63.3678 439.143 63.3678C441.038 63.3678 442.491 62.7423 443.506 61.4913H443.503Z" fill="black"/>
<path d="M469.658 53.656V65.7386H466.459V53.8545C466.459 52.0642 466.111 50.7608 465.414 49.9443C464.717 49.1279 463.605 48.7196 462.077 48.7196C460.313 48.7196 458.905 49.2589 457.852 50.3376C456.8 51.4163 456.272 52.877 456.272 54.7197V65.7348H453.073V46.5098H456.23V49.6672C456.863 48.4837 457.743 47.581 458.875 46.963C460.006 46.345 461.294 46.0342 462.744 46.0342C467.35 46.0342 469.654 48.5735 469.654 53.6523L469.658 53.656Z" fill="black"/>
<path d="M20.0819 80.2726C20.0819 47.3283 46.7864 20.6238 79.7307 20.6238" stroke="#AD1F82" stroke-width="5.99259" stroke-linecap="round" stroke-linejoin="round"/>
<path d="M79.724 3.54663C37.3489 3.54663 2.99634 37.8992 2.99634 80.2743" stroke="#EFD2E6" stroke-width="5.99259" stroke-linecap="round" stroke-linejoin="round"/>
<path d="M79.7256 157C122.101 157 156.453 122.648 156.453 80.2725" stroke="#EFD2E6" stroke-width="5.99259" stroke-linecap="round" stroke-linejoin="round"/>
<path d="M139.374 80.2725C139.374 113.217 112.67 139.921 79.7256 139.921" stroke="#AD1F82" stroke-width="5.99259" stroke-linecap="round" stroke-linejoin="round"/>
<path d="M79.7256 139.921C112.67 139.921 139.374 113.217 139.374 80.2725" stroke="#CE79B4" stroke-width="5.99259" stroke-linecap="round" stroke-linejoin="round"/>
<path d="M79.7253 20.6238C46.781 20.6238 20.0765 47.3283 20.0765 80.2726" stroke="#CE79B4" stroke-width="5.99259" stroke-linecap="round" stroke-linejoin="round"/>
<path d="M121.756 80.2725H79.7256V122.303" stroke="#AD1F82" stroke-width="5.99259" stroke-linecap="round" stroke-linejoin="round"/>
<path d="M37.6975 80.2718H79.7243V38.2412" stroke="#AD1F82" stroke-width="5.99259" stroke-linecap="round" stroke-linejoin="round"/>
</svg>
