<svg width="514" height="149" viewBox="0 0 514 149" fill="none" xmlns="http://www.w3.org/2000/svg">
<path d="M107.519 76.8667C127.194 74.1933 145.302 87.9929 147.929 107.662C150.557 127.331 136.705 145.394 117.018 147.973C97.398 150.542 79.3988 136.756 76.7802 117.155C74.1617 97.5527 87.912 79.5312 107.519 76.8667Z" fill="#00A5E5"/>
<path d="M30.9983 76.8822C50.6362 74.1782 68.7481 87.8987 71.4495 107.525C74.1506 127.151 60.4177 145.249 40.7784 147.944C21.146 150.638 3.04419 136.919 0.343935 117.299C-2.35632 97.6791 11.3671 79.5854 30.9983 76.8822Z" fill="#00A5E5"/>
<path d="M31.0784 0.32783C50.7575 -2.33212 68.8562 11.4869 71.461 31.1615C74.0661 50.8361 60.1867 68.8843 40.4927 71.4311C20.8784 73.9676 2.90866 60.1651 0.314163 40.5702C-2.28033 20.9752 11.4792 2.97689 31.0784 0.32783Z" fill="#00A5E5"/>
<path d="M107.396 0.35023C127.085 -2.40195 145.259 11.3675 147.926 31.0556C150.592 50.744 136.734 68.8465 117.022 71.4237C97.4336 73.9851 79.4582 60.2405 76.8084 40.6757C74.1588 21.1108 87.8315 3.08522 107.396 0.35023Z" fill="#00A5E5"/>
<path d="M247.212 79.3867C253.285 78.2578 262.786 81.4643 267.475 85.0893C281.416 95.7669 282.411 119.459 272.061 132.884C266.931 139.541 260.178 142.325 252.095 143.364C243.731 143.54 237.287 142.63 230.436 137.135C224.029 131.832 220.669 124.155 219.92 116.03C218.2 97.3862 227.158 81.2145 247.212 79.3867ZM251.639 133.713C275.718 128.443 271.118 86.747 247.401 89.0961C228.812 91.571 226.055 119.83 239.064 130.318C242.913 133.42 246.831 133.883 251.639 133.713Z" fill="#004381"/>
<path d="M176.561 5.68262C185.708 6.69521 196.408 4.74823 205.613 6.33829C220.254 8.86705 225.336 26.2398 212.269 35.0322C213.398 35.4029 214.507 35.8326 215.591 36.3195C218.992 37.8268 221.63 40.6575 222.892 44.1556C224.754 49.2721 223.706 53.6954 221.458 58.4149C214.777 69.0309 203.625 68.4827 192.622 68.4096C187.367 68.375 181.949 68.3288 176.699 68.4847C176.445 53.9635 176.828 39.1723 176.675 24.6242C176.61 18.4226 176.86 11.8183 176.561 5.68262ZM187.422 58.6203C194.51 58.6653 204.573 59.8981 210.069 55.8942C215.234 49.6866 212.361 42.6443 204.393 41.6752C198.801 40.9952 193.035 41.6835 187.445 41.4418L187.422 58.6203ZM187.427 31.7169C193.216 31.7501 202.399 32.7948 206.579 29.2051C210.428 24.6331 209.305 17.5407 203.059 16.1013C198.791 15.1179 192.032 15.6103 187.422 15.6507L187.427 31.7169Z" fill="#004381"/>
<path d="M230.709 5.72778C241.407 6.6573 253.164 4.19185 263.56 7.75124C273.365 11.1078 276.733 21.912 273.039 31.1267C271.187 35.7511 267.65 38.0731 263.156 39.9035C269.393 46.0598 274.667 60.8344 279.33 68.4049C275.555 68.4161 271.694 68.4551 267.911 68.433C266.954 68.4273 266.988 68.3574 266.501 67.8074C262.941 61.34 258.547 48.5722 252.886 44.3563C249.729 44.026 245.125 44.169 241.822 44.1607L241.848 68.4201C238.153 68.3794 234.458 68.3955 230.764 68.4682C230.806 47.7716 231.014 26.3826 230.709 5.72778ZM241.806 34.5243C247.912 34.5647 256.162 35.546 260.912 31.6014C265.168 26.3408 264.391 18.2378 257.105 16.2115C253.113 15.1006 246.207 15.6139 241.77 15.6609C241.833 21.9487 241.845 28.2365 241.806 34.5243Z" fill="#004381"/>
<path d="M386.377 79.8549L397.26 79.8532C397.458 85.8783 397.263 93.0922 397.263 99.1995L397.277 142.162C396.592 142.765 396.369 142.561 395.254 142.575L387.79 142.585C383.643 137.098 378.736 129.449 374.772 123.649C368.733 114.809 362.287 105.648 356.485 96.7166C356.976 100.894 356.858 106.798 356.861 111.077L356.847 132.288C356.849 135.381 356.749 139.557 357.033 142.569L345.966 142.622C346.167 122.376 346.322 100.043 345.926 79.8594C349.804 79.8219 353.685 79.8377 357.563 79.9061C359.721 82.2854 364.855 90.3732 367.007 93.5373L386.847 122.757C386.262 118.003 386.535 113 386.443 108.222C386.262 98.9256 386.715 89.1014 386.377 79.8549Z" fill="#004381"/>
<path d="M439.637 5.74858C442.687 5.87663 447.668 5.85228 450.678 5.68872L450.68 31.4506L480.85 31.4151C480.73 22.9529 480.839 14.2051 480.844 5.72166C484.421 5.88723 488.099 5.7758 491.687 5.71737C492.005 26.2774 491.753 47.8374 491.704 68.4455C488.047 68.4077 484.516 68.3627 480.856 68.4982L480.859 41.4384L450.7 41.4639L450.692 68.451C447.006 68.3836 443.32 68.3868 439.634 68.4604L439.637 5.74858Z" fill="#004381"/>
<path d="M285.999 79.8724L296.88 79.8352L296.885 106.863C296.86 114.126 295.019 129.146 303.65 132.184C314.065 135.85 325.507 133.201 325.619 120.192C325.737 106.793 325.513 93.2742 325.645 79.8547L336.783 79.8553L336.726 89.4383L336.751 109.075C336.757 115.167 337.136 121.23 335.734 127.147C332.435 139.705 322.939 143.331 311.279 143.437C293.821 143.595 285.656 134.248 285.985 117.246C286.048 114.012 285.982 110.006 285.982 106.635L285.999 79.8724Z" fill="#004381"/>
<path d="M406.507 5.17452C412.48 4.53488 421.064 6.37817 426.593 8.64769C426.682 12.1738 426.622 15.7986 426.604 19.3333C419.806 15.2434 403.443 11.2724 398.384 19.3777C398.275 20.6873 398.306 22.1419 398.306 23.4687C400.874 27.7597 406.415 30.3077 411.442 31.678C426.481 35.7782 436.851 46.7236 426.091 61.8202C421.938 67.6472 412.818 68.9364 405.672 69.5096C396.432 68.7485 392.869 68.1261 384.689 63.7718L389.252 54.9215C395.942 58.4542 401.883 60.551 409.585 59.6593C413.669 59.4006 419.915 55.7012 418.611 50.6431C416.24 41.4579 399.903 41.5324 393.374 35.7682C389.779 32.5949 387.618 30.4658 387.091 25.7858C385.543 12.0472 394.463 6.80411 406.507 5.17452Z" fill="#004381"/>
<path d="M432.566 79.3844C439.253 78.5574 445.963 80.6634 452.082 82.9467C451.022 86.1572 450.004 89.2153 448.792 92.3802C443.334 89.3399 436.014 88.1546 430.018 90.0615C412.964 95.4862 412.124 124.781 428 132.07C435.395 135.466 441.546 133.29 448.591 130.679L449.044 131.018C450.084 133.915 451.079 136.828 452.03 139.756C448.058 141.613 443.802 142.789 439.439 143.235C431.147 144.111 422.17 142.739 415.604 137.198C402.479 126.124 401.918 101.989 412.626 89.095C417.943 82.6917 424.529 80.1166 432.566 79.3844Z" fill="#004381"/>
<path d="M198.19 79.3878C204.871 78.5519 211.687 80.6748 217.81 82.9604C216.737 86.0766 215.612 89.1748 214.435 92.253C208.457 89.4739 201.723 87.9342 195.269 90.1779C178.483 95.9963 177.845 125.018 193.825 132.128C201.207 135.413 207.142 133.365 214.125 130.693L214.584 131.062C215.717 133.566 216.872 137.096 217.819 139.75C206.574 144.536 191.86 145.651 181.77 137.583C168.084 126.64 167.458 102.283 178.239 89.1215C183.515 82.6808 190.136 80.1119 198.19 79.3878Z" fill="#004381"/>
<path d="M304.951 5.69556C310.431 6.1321 319.809 5.86485 325.476 5.84652C335.381 5.81472 346.012 6.04732 355.866 5.72822C356.004 8.76971 355.898 12.5485 355.892 15.645L335.883 15.6791C336.083 26.1994 335.923 37.2222 335.926 47.7809L335.909 68.44C332.489 68.4059 328.296 68.2805 324.96 68.5881C324.679 51.2346 324.862 33.0237 324.957 15.6298C318.287 15.6009 311.62 15.6284 304.951 15.7117C305.008 12.3732 305.008 9.0341 304.951 5.69556Z" fill="#004381"/>
<path d="M480.81 79.8505L491.693 79.8442C491.902 85.3724 491.719 92.2316 491.716 97.8927L491.702 132.767C497.408 132.776 508.329 133.093 513.539 132.585L513.551 142.529C512.588 142.697 505.009 142.602 503.685 142.6C496.064 142.549 488.44 142.559 480.816 142.627L480.81 79.8505Z" fill="#004381"/>
<path d="M363.72 5.66772C366.236 5.9917 372.141 5.78918 374.884 5.7528V68.4116C371.192 68.3772 367.5 68.3993 363.811 68.4772L363.814 27.6219C363.814 20.4358 363.946 12.7971 363.72 5.66772Z" fill="#004381"/>
<path d="M460.225 79.8478L471.148 79.8418L471.151 142.611C467.52 142.559 463.885 142.567 460.251 142.634L460.225 79.8478Z" fill="#004381"/>
<path d="M286.174 5.75479C289.213 5.87911 293.905 5.8688 296.894 5.70581C297.206 26.13 297.063 47.9103 296.914 68.3618C294.922 68.5677 288.568 68.4411 286.22 68.5018C285.716 48.3577 286.02 26.0278 286.174 5.75479Z" fill="#004381"/>
</svg>
