<svg width="192" height="156" viewBox="0 0 192 156" fill="none" xmlns="http://www.w3.org/2000/svg">
<path d="M95.6677 10.2245C97.6556 10.5545 100.243 12.24 101.769 13.5155C107.945 18.6799 110.44 26.5455 111.207 34.2822C118.615 32.4038 126.59 32.2297 133.414 35.9486C135.347 37.0016 137.94 38.9034 138.974 40.8804C139.245 49.4552 132.944 56.8751 125.932 60.9828C124.356 61.9055 122.821 62.6998 121.185 63.5085C125.756 71.0777 128.808 83.5382 122.161 91.4774C121.282 92.5269 116.517 92.4536 115.042 92.3345C107.351 91.7131 100.928 86.6952 96.0708 81.0211C95.7082 81.1394 92.9741 84.1664 92.3924 84.7304C86.7237 90.2262 77.9315 94.2604 69.9207 91.7049C63.4022 83.7376 65.7103 71.4808 70.8902 63.4442C61.793 59.8769 52.6298 51.1944 53.0017 40.7215C54.0498 38.7852 55.9477 37.3172 57.7843 36.1713C64.5281 31.9636 72.8108 32.3175 80.2712 34.0785C80.4356 33.9105 80.7678 30.8684 80.8556 30.3058C82.1085 22.2814 87.1244 12.3833 95.6677 10.2245ZM56.4378 41.6545C56.3829 46.1625 58.7464 50.2093 61.7977 53.3829C65.3283 57.0553 69.0068 58.8982 73.4762 61.0806C74.0595 60.8889 77.6503 59.7348 77.9533 59.5532C79.2883 59.0239 85.2286 57.2074 85.9437 56.6702C85.6445 56.1212 84.2806 55.1908 83.8098 54.7399C82.9421 53.9085 80.7189 51.2367 81.3359 49.9823C82.6414 47.3289 86.7618 47.2564 89.061 47.4799C82.0686 39.5841 83.9354 36.76 71.8338 36.04C71.388 36.0158 70.9414 36.0109 70.4952 36.0255C65.1741 36.2324 60.2033 37.7342 56.4378 41.6545ZM71.8626 88.8588C75.0428 89.3897 77.6748 89.2411 80.7765 88.1552C85.8529 86.149 91.8702 81.551 94.7055 76.9033C94.631 73.988 94.6023 71.0716 94.6195 68.1553C94.6223 67.4682 94.7478 64.9717 94.6357 64.4955C94.1791 64.7886 93.9242 65.1771 93.5242 65.4557C91.984 66.5285 87.8538 68.5817 86.6002 66.2983C85.5664 64.4154 85.8685 61.2785 86.7783 59.4095C86.7188 59.3601 86.6348 59.2744 86.5727 59.2594C82.7846 60.5538 78.6399 61.8988 74.9136 63.3019C69.8952 69.9614 66.9594 81.3779 71.8626 88.8588ZM105.2 66.7513L103.539 67.4437C100.732 66.8695 99.2074 66.3338 97.1734 64.2275C97.3745 67.07 96.7961 75.7059 97.7548 77.6051C98.811 79.6974 101.377 81.8648 103.162 83.4078C105.664 85.5707 108.766 87.419 111.937 88.3905C115.109 89.2469 116.798 89.3469 119.948 88.94C122.644 84.9054 123.186 79.9887 122.218 75.3095C121.393 71.3255 119.491 66.412 116.871 63.2722C114.244 62.3909 107.476 59.7655 105.168 59.3009C106.08 61.5021 106.332 64.09 105.391 66.3285C105.331 66.4709 105.267 66.6119 105.2 66.7513ZM83.5119 36.2679C85.092 38.3113 86.6834 40.3457 88.286 42.3714C89.1151 43.4286 90.5951 45.1908 91.1626 46.3421C91.6496 43.7202 92.9971 40.1347 95.8927 39.392C98.9522 40.5027 99.8993 43.3618 100.795 46.1577C102.96 42.718 105.916 39.7278 107.896 36.6567C107.458 28.8893 105.851 21.9471 99.8538 16.3751C98.9959 15.5781 96.6693 13.717 95.4906 13.6999C88.8605 16.8358 85.2434 23.9798 84.1898 30.9458C83.9241 32.7029 83.7175 34.5013 83.5119 36.2679ZM96.9618 59.8117C99.8233 59.2633 101.695 56.4943 101.137 53.6346C100.578 50.775 97.8029 48.913 94.9453 49.4811C92.1015 50.0465 90.2505 52.8054 90.8061 55.6512C91.3615 58.497 94.1141 60.3574 96.9618 59.8117ZM119.353 36.3159C106.589 37.7418 110.556 38.8468 102.647 47.5736C104.37 47.4438 105.81 47.3881 107.496 47.8297C113.617 49.4336 109.004 54.914 105.667 56.5965C108.661 57.9094 112.68 58.8754 115.227 60.048L118.209 61.0679C124.541 58.5736 131.633 53.6226 134.345 47.2305C135.071 45.5194 135.656 43.6223 135.598 41.7527C130.797 37.417 125.836 35.9906 119.353 36.3159Z" fill="#10A350"/>
<path d="M29.1228 35.2449C34.3273 34.9374 37.7817 36.523 41.3817 40.2078C43.5822 42.46 44.8829 43.0423 47.9666 43.407C48.5317 45.5518 48.9718 49.1738 50.1913 51.1546C45.3844 51.5395 41.7926 51.4393 37.9282 48.1363C36.3879 46.8198 35.069 45.4415 33.4479 44.1976C28.4145 40.6762 24.7546 47.665 20.8863 49.7235C18.2989 51.1003 16.7494 50.9737 14.0509 51.5421C13.8532 48.838 14.0685 46.1198 13.897 43.391C20.4294 41.9359 20.5196 36.2244 29.1228 35.2449Z" fill="#10A350"/>
<path d="M160.029 35.2493C161.701 35.3775 162.391 35.1176 164.345 35.4261C170.735 36.435 172.534 42.5677 177.975 43.3619L177.98 51.4688C173.949 50.8942 171.585 50.6721 168.425 47.748C166.085 45.582 164.184 43.0263 160.691 43.3384C157.606 44.2394 156.49 45.9991 154.137 48.1062C150.354 51.4937 146.536 51.4347 141.777 51.2048C142.976 48.6767 143.448 46.1968 143.917 43.4708C147.004 42.8622 148.267 42.588 150.575 40.141C153.334 37.2165 156.041 35.7948 160.029 35.2493Z" fill="#10A350"/>
<path d="M29.3295 55.2091C34.1339 54.0392 38.856 58.2364 41.9565 61.139C47.0672 65.9234 50.8823 61.9017 54.7826 58.348C56.1992 59.7478 57.6456 61.1174 59.1207 62.4556C56.7291 64.1469 55.0946 66.7564 51.8148 68.0446C48.3593 69.4019 44.7354 69.1877 41.3533 67.8192C38.5193 66.2721 37.8753 65.0771 35.5471 63.1331C28.4715 57.2247 25.5666 64.3427 20.1888 67.4864C18.2823 68.601 16.1354 68.9467 14.012 69.0541L13.9893 63.2187C16.7562 62.8524 17.721 62.3697 19.7551 60.4226C22.7641 57.5424 25.0574 55.5846 29.3295 55.2091Z" fill="#169EDC"/>
<path d="M160.36 55.2109C164.485 54.2677 169.373 57.4534 172.001 60.2815C173.884 62.3063 175.212 62.9938 177.988 63.0978C177.963 65.0797 177.977 67.0617 178.029 69.0429C175.955 68.8478 174.976 68.7638 173.027 68.0841C168.884 66.6382 166.621 61.6754 162.375 60.9597C158.06 60.2321 155.668 64.3937 152.578 66.6177C150.858 67.7986 149.304 68.5362 147.201 68.7929C143.263 69.2736 139.73 68.5534 136.709 65.8761C135.493 64.7978 134.206 63.4344 132.961 62.4827C133.651 61.628 136.161 59.3357 137.149 58.3228C138.811 59.7978 140.718 62.0196 142.801 62.8242C148.154 64.8912 150.923 59.4165 154.824 57.03C156.731 55.8633 158.142 55.3917 160.36 55.2109Z" fill="#169EDC"/>
<path d="M166.96 99.9306C168.212 99.915 169.463 99.9136 170.715 99.9264C170.546 101.764 170.642 104.949 170.642 106.896L170.636 119.499C169.837 119.503 168.357 119.556 167.641 119.379C167.191 118.853 167.35 118.785 167.191 118.023C166.868 118.132 165.953 118.831 165.563 119.025C163.763 119.92 162.854 119.851 161.087 119.384C160.602 119.165 160.185 118.964 159.737 118.67C158.178 117.662 157.101 116.059 156.756 114.235C155.514 107.923 161.161 102.795 167.011 106.823C166.982 104.526 166.966 102.228 166.96 99.9306ZM161.399 115.577C162.624 116.287 162.926 116.4 164.376 116.429C168.002 115.713 166.982 112.726 166.964 109.765C165.459 108.766 164.783 108.447 162.933 108.497C160.238 110.026 159.624 112.621 161.207 115.276C161.267 115.379 161.33 115.479 161.399 115.577Z" fill="black"/>
<path d="M78.5225 99.9407C79.7374 99.8942 81.1134 99.9293 82.3413 99.9338C82.1846 101.992 82.2726 104.839 82.2826 106.961C83.424 106.035 84.115 105.574 85.6732 105.423C87.3074 105.257 88.9388 105.762 90.1924 106.823C93.3757 109.554 93.3644 114.536 90.6993 117.651C86.3849 122.234 82.9167 118.032 81.899 118.191C81.8006 118.653 81.768 118.909 81.5355 119.332C81.2002 119.474 79.2467 119.532 78.6212 119.609L78.6026 107.533C78.6064 105.176 78.6906 102.235 78.5225 99.9407ZM86.4195 116.343L87.783 115.635C89.5549 112.437 89.1376 108.268 84.7263 108.509C82.5687 109.237 82.2244 110.291 82.1112 112.499C81.949 115.669 83.42 116.607 86.4195 116.343Z" fill="black"/>
<path d="M29.0456 72.568C32.8477 71.8972 36.5073 73.6574 39.1256 76.2644C41.1006 78.0612 42.6528 79.8332 45.3743 80.3419C50.7173 81.3404 52.8608 77.3057 56.601 74.5277C58.121 73.3987 59.7571 72.9042 61.5792 72.358C61.5457 73.5433 61.3481 74.7181 60.9921 75.849C60.0669 76.4201 58.6532 77.2422 57.8566 77.9405C54.0725 81.258 52.1591 83.7569 46.7824 83.8467C41.4763 83.747 39.3154 80.9665 35.6686 77.7277C34.1309 76.3619 32.6979 75.943 30.7019 75.844C25.5614 75.5888 24.0541 79.8 20.1323 82.1301C18.0731 83.3536 16.4483 83.752 14.065 83.973C13.9006 82.736 13.9049 81.8346 13.9004 80.5803C14.594 80.4848 16.0071 80.2994 16.5917 80.0483C22.3222 77.5865 22.0616 73.5294 29.0456 72.568Z" fill="#10A350"/>
<path d="M130.451 72.4312C137.341 74.1685 138.799 79.7226 144.327 80.4071C151.29 81.2692 152.552 72.9473 160.57 72.5034C170.095 71.9759 169.95 79.844 178.014 80.5136C178.038 81.5788 177.972 82.8743 177.945 83.9564C173.242 83.8262 170.307 81.3369 167.188 78.1667C164.511 75.445 160.063 75.0189 156.96 77.2321C155.352 78.3782 153.957 80.0144 152.382 81.22C147.771 85.1017 141.242 84.6109 136.955 80.4991C135.097 78.7167 133.633 77.403 131.421 76.0458C130.451 75.4509 130.491 73.5487 130.451 72.4312Z" fill="#10A350"/>
<path d="M66.165 107.527C67.9924 105.083 71.7183 104.613 73.7423 106.596C76.1516 108.956 75.5322 116.309 75.5256 119.469C74.2706 119.496 72.8922 119.461 71.627 119.455C71.6369 119.341 71.6453 119.227 71.6524 119.112C71.7638 117.325 71.9864 109.632 70.8647 109.025C65.5761 106.164 66.8585 115.083 66.8591 116.784C66.8542 117.684 66.8577 118.583 66.8698 119.483L63.1047 119.452C63.1229 119.311 63.1384 119.17 63.1514 119.029C63.3142 117.24 63.4606 110.264 62.3956 109.041C62.0892 108.689 61.6758 108.474 61.2058 108.454C60.4681 108.423 59.5105 108.829 58.9916 109.349C58.037 110.306 58.4601 117.663 58.464 119.459C57.2806 119.445 55.9766 119.538 54.7842 119.6C54.9318 115.124 54.7723 110.177 54.8279 105.612C56.1117 105.767 57.4033 105.273 58.0373 106.531L58.0998 106.656C58.8153 106.774 59.9313 105.792 61.276 105.464C63.717 105.41 64.515 105.717 66.165 107.527Z" fill="black"/>
<path d="M74.7128 131.395C78.6046 131.088 82.0343 133.933 82.453 137.814C82.8715 141.695 80.1268 145.205 76.2593 145.735C73.6566 146.092 71.0659 145.005 69.4958 142.899C67.9258 140.793 67.6246 138 68.7096 135.608C69.7944 133.215 72.094 131.602 74.7128 131.395ZM72.6627 141.419C73.8349 142.239 74.4775 142.704 75.9561 142.578C77.3147 141.878 77.8773 141.557 78.4725 139.975C78.8497 138.971 78.7353 137.469 78.2359 136.509C77.8226 135.714 77.1062 135.119 76.2488 134.86C75.674 134.685 75.0273 134.679 74.4304 134.725C71.4318 136.062 71.4749 138.754 72.6627 141.419Z" fill="black" fill-opacity="0.988235"/>
<path d="M99.7846 105.472C100.014 105.454 100.243 105.444 100.473 105.442C103.318 105.41 105.673 106.172 106.953 108.923C107.654 110.429 107.566 111.784 107.574 113.386C104.269 113.323 100.964 113.325 97.6593 113.392C98.7105 117.78 101.99 117.28 104.594 115.076C104.826 114.879 105.075 115.03 105.353 115.122C105.819 115.483 106.615 115.872 107.155 116.159C107.067 116.321 106.976 116.481 106.881 116.639C104.942 119.849 100.171 120.621 97.0927 118.689C95.6097 117.756 94.5611 116.269 94.1802 114.559C93.215 110.31 95.3802 106.419 99.7846 105.472ZM97.7949 110.908L101.118 110.916L104.024 110.917C103.654 110.141 103.339 109.375 102.786 108.718C101.978 108.369 101.548 108.136 100.645 108.176C99.2149 108.619 98.8623 108.859 98.1591 110.196C98.0353 110.432 97.9138 110.669 97.7949 110.908Z" fill="black" fill-opacity="0.988235"/>
<path d="M131.469 105.473C131.674 105.461 131.88 105.452 132.086 105.446C133.947 105.391 135.694 105.393 137.142 106.78C138.956 108.517 138.685 111.03 138.677 113.31C138.669 115.385 138.614 117.457 138.661 119.531C137.81 119.486 136.952 119.52 136.097 119.471C135.436 119.433 135.557 119.242 135.052 118.623C134.181 118.654 132.951 119.878 131.463 119.814C129.69 119.739 128.655 119.111 127.432 117.933C126.708 116.942 126.686 116.487 126.631 115.277C126.475 111.851 129.696 110.961 132.499 111.003C133.236 111.015 133.964 111.119 134.737 111.043C134.863 110.926 135.055 110.812 135.038 110.631C134.68 106.958 130.102 107.986 128.221 109.591L127.165 106.76C128.873 105.947 129.588 105.804 131.469 105.473ZM132.957 117.01C133.571 116.771 134.249 116.525 134.833 116.231C134.938 115.201 134.996 114.428 135.013 113.393C134.16 113.275 133.209 113.083 132.374 113.225C129.106 113.951 129.416 117.165 132.957 117.01Z" fill="black"/>
<path d="M29.2492 100.882C32.4811 100.624 33.9248 101.078 36.6222 102.628C35.8783 103.491 35.3303 104.464 34.8565 105.493C34.5573 105.277 34.2493 105.075 33.9333 104.885C26.7535 100.645 21.7301 112.116 28.1811 115.791C30.7379 117.248 32.6047 115.934 34.949 115.168L35.0583 115.132C35.4161 115.718 36.4881 117.022 36.9508 117.615C35.7983 118.416 34.5382 119.052 33.1786 119.411C30.659 120.088 27.9727 119.715 25.7326 118.378C22.5599 116.507 21.0864 113.334 21.3198 109.719C21.6437 104.701 24.6379 102.051 29.2492 100.882Z" fill="black" fill-opacity="0.988235"/>
<path d="M61.2093 126.962C63.8697 127.054 64.6226 127.312 66.9851 128.586C66.4775 129.585 65.8258 130.601 65.2341 131.561C62.4188 129.592 58.9884 129.456 56.8204 132.552C53.737 136.955 57.0953 144.051 62.936 142.226C63.7406 141.974 64.5089 141.433 65.3616 141.266C65.8936 141.538 65.8317 141.645 66.2022 142.231C66.4455 142.6 67.0348 143.226 67.3521 143.582C63.8185 146.522 58.1985 146.388 54.7147 143.42C50.9579 140.22 50.7725 133.676 54.0597 130.088C56.1801 127.774 58.1298 127.146 61.2093 126.962Z" fill="black" fill-opacity="0.988235"/>
<path d="M148.601 105.47C156.326 104.995 154.272 114.338 154.505 119.489L150.774 119.474C150.874 116.888 152.058 105.494 146.626 109.148C144.729 110.304 145.406 117.179 145.449 119.5C144.209 119.433 142.921 119.461 141.676 119.47C141.77 118.123 141.704 115.958 141.702 114.547L141.707 105.724C142.333 105.717 143.28 105.739 143.874 105.716C145.627 105.648 144.587 106.495 145.308 107.055C146.304 106.831 146.452 105.989 148.601 105.47Z" fill="black"/>
<path d="M39.1968 105.61C40.2839 105.764 41.5397 105.702 42.6498 105.678C42.6398 107.21 42.2042 115.213 43.3568 115.848C49.2174 119.075 47.8508 108.882 47.8417 105.708L51.4954 105.725L51.5371 110.971C51.5671 113.788 51.4385 116.703 51.5379 119.501L48.2424 119.439C48.173 118.832 48.2332 118.377 47.8578 118.017C47.1376 118.096 45.9048 119.42 45.0441 119.58C39.8391 120.548 38.6002 115.926 38.998 111.93C39.1851 110.049 38.6412 106.632 39.1968 105.61Z" fill="black"/>
<path d="M84.76 131.619L88.3771 131.679C88.3536 134.531 88.227 137.485 88.4234 140.319C88.6569 143.691 93.2691 142.955 93.4867 140.112C93.6951 137.389 93.5626 134.473 93.5392 131.724C94.7824 131.641 95.9871 131.68 97.2299 131.705C97.1679 133.225 97.2301 135.063 97.2424 136.606C97.2572 139.551 97.2432 142.496 97.2004 145.441C94.8939 145.464 94.0382 145.915 93.67 144.034C93.6348 143.854 92.59 144.638 92.4434 144.762C90.6558 146.286 87.5853 145.947 86.0662 144.2C85.4891 143.524 85.0849 142.719 84.8886 141.852C84.5511 140.411 84.6575 133.36 84.76 131.619Z" fill="black"/>
<path d="M107.956 131.37C114.441 130.632 113.055 141.613 113.024 145.443C111.742 145.401 110.652 145.358 109.367 145.449C109.399 142.08 111.027 131.792 104.887 135.453L104.467 135.799C104.021 136.655 104.224 143.812 104.159 145.432C102.887 145.437 101.837 145.43 100.576 145.578C100.469 141.064 100.517 136.128 100.57 131.599C101.57 131.667 102.274 131.582 103.324 131.726C103.789 132.051 103.697 132.439 103.932 133.148C104.584 133.039 105.606 132.063 106.276 131.797C106.763 131.604 107.439 131.476 107.956 131.37Z" fill="black"/>
<path d="M121.963 131.368C123.67 131.154 125.829 132.136 127.194 133.135C126.372 133.865 125.83 134.814 125.288 135.753C123.923 134.624 123.126 134.658 121.43 134.683C118.645 136.496 117.845 140.41 121.257 142.227C122.528 142.904 124.058 142.274 125.312 141.744L126.512 143.27L127.086 144.231C124.399 145.881 121.091 146.486 118.309 144.62C116.795 143.62 115.752 142.047 115.419 140.263C114.781 136.973 116.053 133.565 119.209 132.095C120.158 131.653 120.94 131.55 121.963 131.368Z" fill="black" fill-opacity="0.988235"/>
<path d="M120.252 99.9598C121.654 99.8775 122.718 99.891 124.126 99.9329C123.908 101.823 124.017 105.537 124.026 107.618C124.044 111.542 123.986 115.523 124.027 119.436C123.416 119.527 121.044 119.478 120.3 119.477C120.346 118.586 120.341 117.632 120.324 116.737C120.222 111.172 120.458 105.514 120.252 99.9598Z" fill="black"/>
<path d="M136.552 125.738C137.706 125.889 139 125.821 140.174 125.792C140.268 130.596 140.181 135.433 140.216 140.24C140.228 141.857 140.282 143.898 140.088 145.483C138.878 145.452 137.749 145.404 136.538 145.512C136.475 139.197 136.371 132.009 136.552 125.738Z" fill="black"/>
<path d="M116.079 105.468C116.786 105.424 117.603 105.454 118.319 105.463C118.154 106.045 117.853 108.293 117.458 108.615C117.193 108.832 115.111 108.287 114.176 109.242C113.231 110.207 113.62 117.749 113.607 119.496C112.724 119.465 111.758 119.475 110.868 119.467C110.494 119.497 110.439 119.501 110.082 119.391C109.776 118.897 109.925 107.336 109.923 105.689L112.841 105.739C113.893 107.805 113.892 106.033 116.079 105.468Z" fill="black"/>
<path d="M129.776 131.657C131.004 131.658 132.232 131.665 133.459 131.679C133.246 134.079 133.708 144.08 133.219 145.425C132.058 145.403 130.896 145.427 129.737 145.496C129.628 143.295 129.353 133.461 129.776 131.657Z" fill="black"/>
<path d="M129.758 126.775C130.996 126.766 132.234 126.766 133.473 126.775C133.358 128.071 133.33 128.484 133.419 129.782L129.553 129.843C129.754 128.729 129.559 127.722 129.758 126.775Z" fill="black" fill-opacity="0.984314"/>
</svg>
