<svg width="354" height="156" viewBox="0 0 354 156" fill="none" xmlns="http://www.w3.org/2000/svg">
<path d="M103.934 25.3497C109.674 24.9126 115.902 27.0462 120.502 30.5268C134.684 41.2567 133.608 63.3135 118.398 72.5805C114.406 75.0125 111.807 75.6358 107.169 76.2352C107.136 73.316 107.084 70.3972 107.014 67.4786C107.782 67.2277 108.817 67.0797 109.676 66.8265C113.87 65.6251 117.408 62.7896 119.499 58.9545C120.506 57.2397 121.164 55.3421 121.435 53.3711C123.684 36.505 103.59 27.4506 92.4185 40.0624C89.9783 42.8171 89.0565 45.9916 88.6192 49.58C85.8304 49.4757 82.648 49.5505 79.8306 49.553C79.9265 41.1638 84.9421 33.2471 92.0263 29.0236C95.9637 26.6762 99.4015 25.7281 103.934 25.3497Z" fill="#3474B8"/>
<path d="M107.161 79.9106C114.418 80.334 120.993 84.0137 125.388 89.8482C129.747 95.6355 131.228 102.375 130.151 109.529C129.151 116.007 125.641 121.828 120.383 125.73C114.762 129.864 106.941 131.296 100.041 130.226C93.6937 129.241 87.7521 124.649 84.0099 119.47C81.2536 115.261 80.1562 111.467 79.7671 106.509L88.5884 106.507C88.9758 109.898 89.933 112.627 92.0186 115.377C94.7054 118.906 98.6748 121.229 103.063 121.841C107.322 122.389 111.624 121.215 115.017 118.578C118.594 115.873 120.935 111.84 121.512 107.387C122.636 98.5188 116.062 89.8069 107.182 88.7289C107.142 85.8106 107.166 82.834 107.161 79.9106Z" fill="#F47520"/>
<path d="M47.1269 25.6874C47.3217 25.6623 47.5171 25.6415 47.7127 25.6251C63.1698 24.3689 74.6255 34.0889 75.9392 49.5537C73.0555 49.4785 70.054 49.5247 67.1611 49.531C66.4374 44.3151 64.4536 40.0936 59.9662 37.0392C56.3807 34.5858 51.9642 33.6716 47.7017 34.5008C43.2296 35.375 39.2928 38.0052 36.7688 41.8051C34.2588 45.5915 33.5584 50.0114 34.4398 54.4312C34.8555 56.4822 35.6795 58.4283 36.8623 60.1535C39.7603 64.3539 43.6953 66.5009 48.6128 67.3868L48.653 76.2658C43.3913 75.402 39.6775 74.4402 35.3409 71.1237C29.9617 67.0168 26.4129 60.9539 25.4619 54.2465C24.5605 47.556 26.3484 40.7806 30.4327 35.4101C34.4808 30.0694 40.4906 26.5692 47.1269 25.6874Z" fill="#01A1B1"/>
<path d="M47.9806 80.0225L48.4205 80.0566C48.7875 80.7498 48.6653 87.361 48.7036 88.7708C29.0041 91.7985 29.5669 118.844 48.2616 121.765C52.533 122.473 56.9087 121.419 60.3915 118.843C64.7569 115.621 66.5244 111.702 67.3189 106.524C70.1488 106.627 73.2632 106.58 76.1146 106.593C75.5642 111.692 74.9745 113.964 72.4221 118.524C72.0348 119.198 71.5484 119.918 71.082 120.539C62.6764 131.732 46.333 133.95 35.2342 125.532C29.9188 121.492 26.4187 115.507 25.5011 108.887C24.577 102.124 26.3676 95.2706 30.4802 89.8283C34.9545 83.9915 40.8117 80.973 47.9806 80.0225Z" fill="#DB0862"/>
<path d="M79.8622 79.8884C82.7782 80.0437 86.4455 79.9646 89.4007 79.965C94.1007 79.9824 98.8009 79.9679 103.501 79.9218C103.308 81.5497 103.409 87.0547 103.475 88.8157C99.4477 88.5709 93.2141 88.8208 88.975 88.7723L88.6471 88.8975C88.3067 89.9103 88.5475 101.183 88.5549 102.87C85.7508 102.874 82.5184 102.807 79.7516 102.978C79.6972 100.959 79.4652 80.7972 79.8622 79.8884Z" fill="#F47520"/>
<path d="M52.3193 79.9048C59.3352 80.2535 68.8491 79.9733 76.0316 79.9617C75.9048 87.4579 76.0375 95.3493 76.0517 102.875C73.1343 102.864 70.2167 102.869 67.2993 102.889C67.1242 98.4103 67.1856 93.3578 67.1937 88.844C62.515 88.7481 57.0843 88.7758 52.4101 88.8721C52.2906 85.9999 52.3375 82.8014 52.3193 79.9048Z" fill="#DB0862"/>
<path d="M67.2366 53.3091C70.1793 53.3189 73.1219 53.3085 76.0643 53.2781C76.0014 60.9113 75.9904 68.5451 76.0312 76.1786C71.1084 76.1088 66.05 76.1663 61.1165 76.1638L52.3425 76.1664L52.2544 67.3875L67.2548 67.4078C67.2792 62.7082 67.2731 58.0085 67.2366 53.3091Z" fill="#01A1B1"/>
<path d="M79.6993 53.2374C82.4255 53.3983 85.7456 53.3167 88.5164 53.3169C88.7145 57.4953 88.491 63.0938 88.5569 67.4378C93.264 67.2729 98.7192 67.4066 103.472 67.426C103.354 69.9412 103.382 73.7287 103.48 76.2338C96.2723 75.9248 87.1357 76.1589 79.8104 76.198C79.5084 69.1903 79.7701 60.4491 79.6993 53.2374Z" fill="#3474B8"/>
<path d="M201.092 109.128C202.592 109.101 203.978 109.225 205.579 109.169C205.38 109.97 205.13 110.751 204.863 111.533C203.069 116.809 201.094 122.031 199.446 127.356L194.138 127.312C193.649 125.092 191.277 118.477 190.461 115.993C190.232 116.534 190.047 117.084 189.889 117.65C188.977 120.915 187.82 124.087 186.671 127.274C184.975 127.345 183.279 127.355 181.582 127.304C180.835 124.756 179.328 120.778 178.424 118.169C177.435 114.924 176.538 112.738 175.66 109.257C177.465 109.21 179.053 109.142 180.858 109.306C182.042 111.729 183.336 117.559 184.574 120.775C185.103 118.945 187.618 110.672 188.515 109.572C189.685 108.934 191.298 109.197 192.655 109.282C193.853 113.197 195.583 117.114 196.691 120.782C197.681 117.529 198.67 114.237 199.711 110.999C200.053 109.936 200.164 109.574 201.092 109.128Z" fill="#939294"/>
<path d="M225.096 101.701L226.314 101.661C231.968 101.496 234.056 101.807 238.234 105.757C237.396 106.659 235.75 108.047 234.786 108.911C229.943 104.901 222.99 104.671 220.619 111.709C219.117 116.171 221.269 121.893 226.159 122.973C229.31 123.669 231.037 123.063 233.847 121.465C234.373 121.02 234.9 120.72 235.484 120.363C236.43 121.286 237.577 122.592 238.502 123.58C231.147 130.9 216.441 128.802 214.756 117.45C213.641 109.941 217.146 102.85 225.096 101.701Z" fill="#939294"/>
<path d="M318.202 108.771C318.398 108.751 318.593 108.734 318.79 108.719C322.61 108.434 325.737 109.302 327.759 112.787C329.082 115.069 329.088 117.431 329.272 119.985L316.03 119.957C317.393 125.199 321.365 124.469 325.094 122.212C325.585 121.915 325.448 121.859 326.038 121.822C326.795 122.646 327.783 123.586 328.587 124.391C325.5 128.001 319.034 128.964 315.034 126.63C313.084 125.508 311.667 123.648 311.102 121.469C310.45 118.994 310.649 115.071 312.025 112.86C313.572 110.374 315.528 109.468 318.202 108.771ZM316.116 116.306C317.57 116.158 318.987 116.174 320.444 116.167C321.614 116.188 323.006 116.246 324.155 116.182C323.236 113.855 322.511 112.65 319.793 112.582C317.497 113.132 316.908 114.254 316.116 116.306Z" fill="#939294"/>
<path d="M247.085 108.773L247.339 108.76C255.43 108.345 257.613 112.399 257.924 119.852C255.814 120.108 245.771 119.491 244.843 120.035C244.447 121.436 246.799 123.669 248.191 123.803C250.538 124.03 252.516 123.048 254.379 121.788L254.73 121.857C255.744 122.786 256.334 123.337 257.16 124.434C255.855 125.99 254.076 127.075 252.097 127.522C249.295 128.148 245.823 127.935 243.351 126.335C241.462 125.108 240.145 123.171 239.697 120.96C238.438 115.057 241.038 110.066 247.085 108.773ZM244.568 116.341L249.802 116.344C250.479 116.349 251.949 116.415 252.522 116.225C252.944 115.692 252.872 115.931 252.892 115.27C252.04 113.375 249.869 112.462 247.885 112.546C246.149 113.345 245.489 113.807 244.782 115.711C244.706 115.919 244.633 116.129 244.568 116.341Z" fill="#939294"/>
<path d="M164.866 108.609C165.023 108.604 165.179 108.599 165.336 108.595C172.921 108.398 175.061 111.322 174.751 118.638C174.637 121.343 174.717 124.671 174.746 127.404C173.574 127.392 171.71 127.601 170.657 127.244C169.986 127.016 170.117 126.369 169.911 125.88C168.928 125.938 166.659 127.931 164.204 127.768C161.984 127.619 160.833 127.339 159.145 125.698C157.314 123.527 157.505 120.122 159.537 118.147C162.218 115.542 166.236 115.932 169.68 115.966L169.269 113.723C166.215 111.698 163.797 113.099 161.157 114.881C160.399 114.023 159.223 112.895 159.026 111.787C159.283 110 163.279 108.84 164.866 108.609ZM167.092 123.791C169.463 122.664 169.348 122.002 169.563 119.489C168.342 119.494 166.836 119.46 165.639 119.529C164.614 119.704 163.926 119.833 163.299 120.756C162.981 121.217 162.87 121.79 162.992 122.336C163.453 124.318 165.586 124.093 167.092 123.791Z" fill="#939294"/>
<path d="M269.424 108.781C269.985 108.731 270.551 108.7 271.116 108.689C273.942 108.663 276.967 110.775 277.302 113.547C277.828 117.889 277.57 122.946 277.593 127.34C275.847 127.276 274.101 127.275 272.357 127.338C272.357 125.922 272.419 124.375 272.348 122.965C272.156 119.099 273.69 110.741 266.86 113.666C266.793 113.726 266.727 113.787 266.665 113.852C265.009 115.54 265.218 117.466 265.206 119.667C265.192 122.2 265.22 124.747 265.234 127.279C263.49 127.271 261.747 127.272 260.003 127.282C259.886 121.448 259.919 115.157 259.979 109.322C261.253 109.388 263.626 109.147 264.708 109.45C265.016 109.874 264.976 110.293 265.049 110.869C265.36 110.874 267.913 109.241 269.424 108.781Z" fill="#939294"/>
<path d="M137.828 101.888C139.722 101.741 141.384 101.805 143.28 101.848C143.168 108.812 143.166 115.779 143.272 122.743C146.953 122.697 152.306 122.911 155.761 122.619C155.745 124.176 155.741 125.733 155.749 127.291C149.768 127.391 143.733 127.214 137.744 127.356C137.695 124.852 137.445 103.242 137.828 101.888Z" fill="#939294"/>
<path d="M287.563 103.275C287.744 103.212 287.815 103.254 288.021 103.286C288.294 103.993 288.156 108.457 288.14 109.446C290.235 109.425 292.33 109.372 294.423 109.285C294.529 110.604 294.473 112.372 294.468 113.726C292.463 113.607 290.157 113.628 288.126 113.601C288.337 119.045 286.246 124.718 293.998 123.019C294.619 124.275 295.015 125.518 295.441 126.849C294.728 127.142 293.889 127.357 293.141 127.571C292.166 127.821 290.263 127.798 289.222 127.802C281.779 127.826 282.607 119.063 282.879 113.638C281.482 113.596 280.407 113.582 279.017 113.661C279.183 112.386 279.155 110.605 279.173 109.283C280.483 109.341 281.625 109.246 282.958 109.405C282.822 107.627 282.849 105.709 282.839 103.917C284.275 103.579 286.073 103.436 287.563 103.275Z" fill="#939294"/>
<path d="M165.279 75.4924L168.911 75.5146C168.947 81.3948 168.938 87.2752 168.884 93.1552C168.204 93.1587 166.121 93.2356 165.604 93.0323C165.524 92.7213 165.438 92.4123 165.344 92.1051C163.244 92.3889 163.359 94.2486 159.034 93.1327C154.871 91.6467 154.153 85.8355 156.485 82.6132C157.409 81.3141 158.821 80.4482 160.396 80.2157C162.443 79.9207 163.758 80.5987 165.29 81.7556C165.271 79.6679 165.267 77.5802 165.279 75.4924ZM162.779 90.5933C164.137 90.0141 164.431 89.6114 165.225 88.3885C165.419 85.6342 165.219 83.2609 161.789 83.1366C161.721 83.1342 161.653 83.1324 161.585 83.1309C157.702 84.5635 157.962 90.7243 162.779 90.5933Z" fill="black"/>
<path d="M264.124 75.4449C265.286 75.5016 266.58 75.4924 267.754 75.5094C267.792 81.388 267.787 87.2668 267.738 93.1453C267.04 93.1476 264.945 93.248 264.439 92.9351L264.264 91.9867C263.127 91.9273 262.292 94.2084 258.015 93.2471C257.421 92.9987 256.795 92.7275 256.287 92.3267C253.457 90.0939 253.431 85.1164 255.509 82.4095C256.453 81.164 257.862 80.358 259.412 80.1778C261.355 79.9592 262.705 80.6409 264.138 81.7966C264.108 79.7008 264.141 77.5545 264.124 75.4449ZM261.939 90.4646C265.626 88.3808 264.978 82.9799 260.112 83.1568C256.322 84.9635 257.215 91.3625 261.939 90.4646Z" fill="black"/>
<path d="M260.672 84.0568C261.02 84.1877 261.78 84.5599 262.01 84.8544C261.374 84.9387 260.738 85.0104 260.102 85.0693C259.54 85.5181 259.708 85.3526 259.454 86.0945C259.397 86.622 259.393 87.0301 259.122 87.4858L258.899 87.4503C258.392 86.1235 259.858 84.8395 260.672 84.0568Z" fill="black" fill-opacity="0.329412"/>
<path d="M260.012 87.9796C260.389 88.1488 260.508 88.1831 260.825 88.458L260.555 88.8986C260.195 88.9096 260.178 88.8969 259.834 88.7702C259.729 88.3605 259.791 88.43 260.012 87.9796Z" fill="black" fill-opacity="0.0431373"/>
<path d="M143.311 75.5262L147.315 75.5107C147.801 77.0413 149.044 79.8651 149.683 81.4256C151.315 85.3271 152.912 89.2432 154.474 93.1734C153.375 93.0776 151.533 93.1219 150.379 93.1138C150.006 92.0289 149.374 90.7608 148.879 89.7009L147.485 89.6855C145.54 89.7014 143.526 89.6474 141.575 89.6171C141.126 90.8502 140.692 91.9138 140.172 93.1197L136.157 93.1663C137.94 87.8276 141.256 81.1506 143.311 75.5262ZM142.596 86.5691C143.504 86.5113 144.061 86.4887 144.979 86.5322L147.941 86.5653C147.477 85.3727 145.699 80.5246 145.217 79.762C144.487 81.6503 143.402 84.8048 142.596 86.5691Z" fill="black"/>
<path d="M144.777 82.9882C145.62 83.5756 144.771 83.5571 145.386 84.6396C146.011 84.7952 146.051 84.7367 146.239 85.3179C145.791 85.3079 145.407 85.3351 145.005 85.1294C144.635 84.6271 144.762 83.6575 144.777 82.9882Z" fill="black" fill-opacity="0.505882"/>
<path d="M199.274 56.8427C200.892 56.9643 201.726 57.6806 202.912 58.6422L202.99 58.567C207.036 54.6954 211.221 57.54 211.002 62.7536C210.908 64.9949 211.047 67.6808 211.012 69.9929L207.406 69.9746C207.327 68.6051 207.659 61.1633 206.805 60.6144C202.39 57.7792 203.391 66.4418 203.343 68.6953C203.341 69.4867 203.471 69.3833 203.057 69.8496C202.185 70.1446 200.757 69.9781 199.716 69.9751C199.625 68.1372 200.155 61.6418 199.108 60.4986C198.812 60.1769 198.513 60.055 198.086 60.0548C197.509 60.0547 196.957 60.2413 196.555 60.6679C195.274 62.0286 195.824 67.9776 195.853 69.9826C194.612 69.9708 193.341 69.9914 192.099 69.9981C191.99 66.2621 191.988 60.9971 192.093 57.279C193.124 57.2569 194.46 57.0782 195.281 57.6321C195.381 57.9411 195.388 58.0644 195.618 58.2765C196.064 58.1659 196.444 57.7671 196.911 57.5209C197.706 57.103 198.406 56.9958 199.274 56.8427Z" fill="black"/>
<path d="M176.824 57.0109C178.918 56.7238 180.078 57.0538 181.413 58.6964C183.416 56.8893 186.19 55.9705 188.266 58.049C190.377 60.1613 189.666 67.1206 189.682 69.9757L186.121 69.9829C185.858 67.267 186.204 64.614 185.935 61.9206C185.824 60.8156 185.33 60.1174 184.178 60.0798C181.247 59.9837 181.968 65.6908 181.987 67.6116L181.981 69.9469L178.388 70.016C178.333 68.7162 178.625 61.052 177.9 60.5828C173.396 57.6665 174.557 67.5255 174.58 70.008L170.948 69.9814C170.778 68.2676 170.893 66.1318 170.902 64.3773C170.894 62.0101 170.874 59.6429 170.841 57.2761C171.538 57.2756 173.659 57.1733 174.139 57.4506L174.296 58.0973C174.673 58.1397 176.094 57.2851 176.824 57.0109Z" fill="black"/>
<path d="M160.446 56.9952C164.026 56.5519 167.35 57.8197 168.492 61.5581C169.054 63.3576 168.868 65.308 167.977 66.969C166.913 68.9107 165.505 69.6255 163.516 70.1892C161.429 70.3643 159.422 70.304 157.611 69.0986C156.225 68.1851 155.261 66.7539 154.935 65.1245C154.079 60.9885 156.365 57.8057 160.446 56.9952ZM162.546 67.1934C163.57 66.8022 164.193 66.3792 164.663 65.334C165.12 64.3026 165.15 63.1322 164.748 62.0783C164.026 60.1876 162.546 59.7256 160.692 59.9294C157.307 62.1794 158.082 67.7568 162.546 67.1934Z" fill="black"/>
<path d="M145.852 51.8428C149.08 51.8641 151.038 52.5997 153.401 54.8345C152.737 55.5908 151.847 56.436 151.121 57.1594C147.43 54.0278 142.351 54.2439 141.202 59.6256C140.821 61.4173 141.173 63.2872 142.179 64.8171C144.599 68.4295 148.496 67.0565 151.404 65.0701C152.033 65.1951 153.007 66.353 153.222 66.9438C153.35 69.1105 148.87 70.0368 147.217 70.2418C134.659 71.7988 132.849 52.7178 145.852 51.8428Z" fill="black"/>
<path d="M307.638 108.777L309.522 108.671C309.743 110.078 309.748 112.316 309.793 113.797C309.503 113.783 309.213 113.773 308.922 113.766C301.04 113.601 302.755 121.878 302.808 127.429C301.275 127.3 299.695 127.42 298.167 127.285C297.682 127.242 297.772 127.233 297.516 126.88L297.483 109.374C298.776 109.263 301.023 109.352 302.454 109.303C302.48 110.333 302.451 111.406 302.435 112.44C304.091 110.15 304.936 109.542 307.638 108.777Z" fill="#939294"/>
<path d="M190.989 33.6543C196.567 33.3873 197.825 36.5651 198.082 41.4166C195.168 41.5111 192.169 41.2747 189.224 41.4489C189.092 41.6544 189.029 41.6467 189.072 41.87C189.815 45.7639 193.443 43.8784 195.754 42.8837C195.846 42.8444 196.21 43.1613 196.314 43.239L197.626 44.6107C195.184 47.0911 190.665 48.0936 188.012 45.9968C183.209 42.2035 184.648 34.7503 190.989 33.6543ZM193.027 38.9848C193.797 38.9602 193.893 39.0985 194.335 38.6975C194.556 36.8546 192.25 36.2666 190.767 36.3868C190.117 36.8577 189.239 37.4643 189.051 38.2815C189.535 39.3558 191.946 39.018 193.027 38.9848Z" fill="black"/>
<path d="M191.152 37.1587C191.712 37.1682 192.235 37.224 192.662 37.6085L192.396 37.7098L191.046 37.8596L190.853 37.6852L191.152 37.1587Z" fill="black" fill-opacity="0.878431"/>
<path d="M157.281 33.6505C162.807 33.423 163.533 37.0793 163.904 41.4318C160.808 41.3066 157.681 41.5308 154.53 41.4004C156.323 45.4748 158.489 44.3395 161.678 42.8662C161.85 42.7866 162.101 43.1192 162.226 43.2413L163.655 44.5841C159.916 48.0977 152.905 48.3008 151.306 42.3745C150.109 37.9362 152.469 34.1834 157.281 33.6505ZM158.116 38.99C158.782 39.0132 159.578 39.1387 160.09 38.7555C160.371 38.2314 160.337 38.4607 160.235 37.8952C159.387 36.6295 158.274 36.2498 156.83 36.3651C155.382 37.1216 155.281 37.5527 154.561 38.9977L158.116 38.99Z" fill="black"/>
<path d="M156.708 37.2603C157.725 37.1666 157.947 37.0785 158.594 37.8696C158.015 37.8683 157.371 37.9179 156.852 37.6814L156.708 37.2603Z" fill="black" fill-opacity="0.929412"/>
<path d="M210.466 80.2087L210.627 80.1971C216.156 79.8379 217.636 83.2451 217.84 87.9519C214.748 87.8316 211.515 87.9874 208.354 87.8643C211.144 93.8706 214.26 89.1627 215.56 89.3033L217.491 91.0969C211.085 97.1275 201.815 91.3628 205.979 83.1081C206.8 81.4792 208.762 80.6097 210.466 80.2087ZM208.514 85.5686C209.951 85.5217 211.387 85.4977 212.824 85.4963C213.612 85.4902 213.655 85.6256 214.167 85.2404C214.243 84.8387 214.258 84.5847 213.98 84.249C212.825 82.8573 211.927 82.8626 210.397 82.9757C209.24 83.6431 209.042 84.3658 208.514 85.5686Z" fill="black"/>
<path d="M230.788 80.2098C239.242 79.9276 237.773 87.0137 237.517 93.1478C236.698 93.1512 235.028 93.2119 234.314 93.0221C234.233 92.6924 234.219 92.5764 234.062 92.279C232.956 92.3337 231.841 93.4151 230.487 93.4967C228.944 93.5896 227.777 93.0413 226.624 92.1261C225.881 91.0133 225.269 88.7072 226.1 87.5209C227.976 84.8424 231.426 85.7425 233.904 85.2468L234.06 84.9804C233.896 81.7594 229.639 83.1406 227.939 84.4968C227.175 83.5656 226.918 83.2085 226.334 82.1561C227.815 81.03 228.98 80.5244 230.788 80.2098ZM230.015 90.6842C231.393 91.0703 231.801 90.8504 233.12 90.3753C233.604 89.6231 234.191 88.7848 234.083 87.8573L233.835 87.666L233.612 87.7013C232.677 87.6996 230.333 87.4679 229.682 88.2649C228.945 89.1666 229.054 89.9845 230.015 90.6842Z" fill="black"/>
<path d="M228.989 33.6521C234.197 33.5343 235.45 37.0335 235.576 41.4032C232.482 41.3251 229.333 41.4966 226.247 41.3418C227.834 45.6604 229.922 44.1932 233.199 43.0567C233.559 42.9324 233.972 43.4463 234.226 43.6818L235.255 44.6006C232.667 47.0897 228.603 48.0447 225.435 45.8947C221.224 43.0387 222.12 35.1196 227.395 33.9303C227.92 33.8119 228.446 33.7263 228.989 33.6521ZM226.354 38.9829L230.454 38.9883L232.23 38.9595C231.314 36.994 230.909 36.1837 228.513 36.3614C227.241 36.9298 226.958 37.3967 226.443 38.745C226.411 38.8239 226.382 38.9032 226.354 38.9829Z" fill="black"/>
<path d="M228.498 37.2067L228.62 37.1975C229.276 37.1537 229.867 37.2041 230.361 37.6314L230.178 37.8518C229.521 37.8411 229.136 37.9427 228.399 37.8853L228.247 37.6896L228.498 37.2067Z" fill="black" fill-opacity="0.972549"/>
<path d="M259.056 57.2217L262.439 57.363C262.988 58.1154 265.253 64.1548 265.894 65.6299C266.876 63.1469 267.953 59.673 269.154 57.3635C270.191 57.2632 271.785 57.2967 272.867 57.289C271.111 61.6891 269.178 66.0997 267.437 70.5061C266.749 72.2467 265.699 74.0806 263.873 74.6954C262.891 75.037 261.272 75.4307 260.287 74.9577C258.876 74.2809 259.841 72.7746 260.281 71.8758C260.788 71.9504 261.31 72.0187 261.821 71.9373C262.411 71.8433 263.076 71.5534 263.434 71.0555C264.981 68.9051 259.262 60.3006 258.802 57.4246L259.056 57.2217Z" fill="black"/>
<path d="M221.864 57.2915L225.549 57.2783C225.594 58.5118 225.575 59.8342 225.58 61.0755L225.563 70.0106C224.524 70.0267 223.544 70.0624 222.508 69.9541C222.061 69.6435 222.166 69.5036 221.998 68.8085C221.584 68.6345 220.156 69.9798 219.532 70.1053C211.608 71.6963 213.209 62.5525 213.29 57.2913L217.119 57.2958C217.07 58.8302 216.562 65.89 217.75 66.6085C222.918 69.7405 221.832 59.9007 221.864 57.2915Z" fill="black"/>
<path d="M246.495 80.2146C253.886 79.6772 252.251 87.9882 252.144 93.1701C251.07 93.1074 249.661 93.1427 248.562 93.1393C248.46 90.6594 248.903 86.8724 248.204 84.525C247.774 83.0784 246.123 83.2432 244.856 83.5715C243.159 85.1989 243.745 90.7077 243.712 93.1455L239.978 93.1381C239.847 89.3972 239.949 84.4112 239.985 80.6103C241.09 80.6401 242.274 80.6466 243.363 80.7801L243.409 81.7128L243.594 81.8396C244.828 80.8115 245.022 80.6712 246.495 80.2146Z" fill="black"/>
<path d="M234.356 57.0361C242.125 55.8612 240.252 64.8626 240.266 69.9978L236.631 69.989C236.544 67.4798 236.788 64.953 236.656 62.4754C236.541 60.2545 234.928 59.98 233.175 60.2283C231.713 61.1853 231.775 62.6528 231.765 64.2658C231.753 66.1761 231.791 68.0957 231.808 70.0065L228.164 69.9538C227.965 66.3738 228.157 61.0092 228.149 57.2836C228.94 57.2758 230.42 57.2235 231.219 57.3876C231.448 57.4347 231.559 57.9822 231.652 58.2594C232.152 58.2429 233.229 57.379 234.287 57.0566L234.356 57.0361Z" fill="black"/>
<path d="M137.77 29.0413L141.727 29.0473L141.775 43.2096C144.634 43.1902 147.493 43.2205 150.351 43.3005C150.254 44.2858 150.336 45.6642 150.367 46.6876L137.86 46.6675C137.503 42.0017 137.754 33.9713 137.77 29.0413Z" fill="black"/>
<path d="M204.54 33.6593C206.938 33.678 208.71 34.0109 210.543 35.6475C210.089 36.3276 209.451 37.017 208.908 37.641C207.436 36.8229 204.597 35.456 203.261 36.9909C203.182 37.2977 202.962 38.2515 203.42 38.3774C205.529 38.9597 207.847 38.8831 209.691 40.2319C211.619 41.6418 211.276 43.413 209.956 45.1349C208.782 46.665 207.097 46.8378 205.342 47.072C202.786 47.13 201.127 46.5631 199.068 45.1732C199.593 44.4197 200.169 43.6488 200.71 42.9016C202.257 44.0162 206.398 45.4412 207.202 43.0484C206.295 40.1864 200.9 43.743 199.346 37.8304C200.127 34.6237 201.398 34.0274 204.54 33.6593Z" fill="black"/>
<path d="M251.549 53.3667C252.277 53.2713 252.884 53.1754 253.603 53.0315C253.639 54.4132 253.708 55.9221 253.699 57.2937C254.856 57.2809 256.479 57.3117 257.599 57.226L257.82 57.3512C258.012 57.756 257.99 59.6486 258.048 60.32L253.67 60.2536C253.699 61.7813 253.521 63.8701 253.724 65.3345C254.031 67.5774 256.009 67.2233 257.687 66.8639C258.012 67.6728 258.778 69.0886 258.188 69.7851C257.162 70.2535 255.689 70.2311 254.571 70.2569C248.83 70.3894 249.893 64.2673 249.966 60.2461C249.117 60.2868 248.101 60.2671 247.24 60.2697C247.316 59.0734 247.292 58.4818 247.197 57.2835L250.073 57.3027C250.033 56.6027 249.973 55.8883 249.928 55.1899C249.821 53.5604 250.242 53.5698 251.549 53.3667Z" fill="black"/>
<path d="M216.737 30.0465L217.114 29.9604L217.318 30.1436C217.52 31.272 217.428 32.9229 217.402 34.1113C218.887 34.1273 220.372 34.1323 221.855 34.126C221.897 34.9803 221.829 36.1968 221.802 37.0788L217.399 37.0617C217.51 38.8287 216.931 42.4417 218.142 43.542C219.546 44.8152 222.341 42.1466 222.232 46.1514C221.909 46.7006 221.827 46.564 221.019 46.8046C220.116 46.9158 219.207 46.9664 218.298 46.956C212.675 46.8936 213.646 41.0851 213.795 37.1214C213.081 37.1562 211.88 37.0887 211.131 37.0663C211.13 35.9816 211.163 35.1786 211.254 34.0977L213.826 34.1037C213.786 32.8031 213.812 31.5596 213.838 30.2612C214.81 30.1464 215.76 30.1012 216.737 30.0465Z" fill="black"/>
<path d="M177.499 33.6478C177.679 33.6392 177.859 33.6348 178.039 33.635C180.714 33.6369 182.191 34.2597 184.082 36.148C183.392 36.8324 182.656 37.4661 181.926 38.109C181.7 37.9433 181.47 37.7842 181.233 37.632C174.181 33.0108 172.905 46.3124 180.327 43.602C180.953 43.3733 181.382 42.7528 182.013 42.593L182.274 42.802C183.041 43.3825 183.871 43.7181 183.758 44.7204C181.292 48.6732 172.383 47.5207 171.766 41.9799C171.234 37.2078 172.682 34.5314 177.499 33.6478Z" fill="black"/>
<path d="M197.21 80.207C197.288 80.2002 197.366 80.1949 197.445 80.1911C200.218 80.0409 201.879 80.8724 203.88 82.6557C202.988 83.3677 202.544 83.7628 201.754 84.5864C199.715 83.1126 196.866 82.1609 195.476 85.0229C194.966 86.0872 194.901 87.3103 195.291 88.4236C196.099 90.7199 198.541 91.1897 200.446 89.8894C200.847 89.6156 201.346 89.2962 201.806 89.1537C202.518 89.7429 203.199 90.3686 203.887 90.9874C200.036 94.8954 192.871 94.6456 191.456 88.4648C190.476 84.1854 192.839 81.0632 197.21 80.207Z" fill="black"/>
<path d="M181.482 80.5829C182.3 80.5548 183.572 80.652 184.428 80.6942C182.879 83.5576 180.371 89.9839 179.071 93.1245L175.569 93.1441C174.601 90.8205 173.521 88.4573 172.498 86.1504C171.737 84.5999 170.891 82.3036 170.185 80.6364L174.25 80.6828C174.929 82.8751 176.501 86.4389 177.387 88.7257C178.414 86.3364 179.239 83.4601 180.409 81.1198C180.635 80.6665 181.052 80.663 181.482 80.5829Z" fill="black"/>
<path d="M245.548 33.6294C245.608 33.6375 245.819 33.7499 245.89 33.7845C246.07 34.6099 245.984 36.1545 245.965 37.0586C242.392 37.3258 241.18 38.4507 241.208 42.229C241.216 43.6581 241.247 45.1431 241.277 46.5757C240.281 46.5106 238.442 46.804 237.713 46.3698L237.573 45.7401C237.429 42.6615 237.637 37.4025 237.633 34.1133C238.779 34.1812 239.683 34.0347 240.884 34.2072C241.298 34.7806 240.959 34.8916 241.182 35.7431C241.486 35.687 242.305 34.6701 242.77 34.4295C243.75 33.9225 244.488 33.787 245.548 33.6294Z" fill="black"/>
<path d="M242.843 57.3119C243.964 57.3983 245.302 57.3637 246.443 57.3616L246.471 69.9865L242.832 69.9475C242.659 66.5971 242.811 60.7775 242.843 57.3119Z" fill="black"/>
<path d="M185.631 80.6561C186.82 80.6303 188.059 80.6746 189.254 80.7006C189.328 84.7763 189.26 89.0909 189.24 93.1811C188.232 93.1032 186.688 93.1446 185.639 93.1417C185.589 88.98 185.586 84.8179 185.631 80.6561Z" fill="black"/>
<path d="M165.903 34.1166L169.44 34.1675C169.575 38.1454 169.493 42.5565 169.498 46.5704C168.97 46.781 166.634 46.6721 165.927 46.6591C165.758 42.961 165.909 37.904 165.903 34.1166Z" fill="black"/>
<path d="M251.549 53.3667C250.856 53.3211 250.172 53.2798 249.48 53.2053C248.516 54.2528 249.499 55.5268 248.989 56.5277C248.21 56.9285 247.408 56.6292 247.036 55.8568C247.346 55.011 247.32 52.8651 247.48 52.649C247.734 53.1873 247.975 53.7315 248.203 54.2809L248.194 54.2836C248.699 54.0743 248.538 54.2293 248.773 53.6756L248.616 53.1205C248.766 52.9671 253.869 51.723 254.334 52.4844C255.741 54.7909 253.525 56.5736 257.684 56.4382C258.854 56.4361 261.49 55.839 262.308 56.4924C262.378 56.8375 262.416 57.0123 262.439 57.3629L259.056 57.2217C258.691 57.0719 257.99 57.123 257.599 57.226C256.479 57.3117 254.856 57.2809 253.7 57.2937C253.708 55.9221 253.639 54.4131 253.603 53.0315C252.884 53.1754 252.277 53.2713 251.549 53.3667Z" fill="#CDCBCE" fill-opacity="0.0196078"/>
<path d="M186.318 75.379C187.691 75.2436 189.727 75.2997 189.483 77.6778C189.43 78.2073 188.906 78.7689 188.415 79.0304C187.158 79.2556 186.292 79.305 185.563 78.0793C185.316 77.6549 185.252 77.1476 185.387 76.6753C185.554 76.0702 185.784 75.6865 186.318 75.379Z" fill="black"/>
<path d="M167.379 28.7748C170.404 28.9213 170.642 31.7537 168.121 32.6112C165.007 32.6263 164.722 29.4132 167.379 28.7748Z" fill="black"/>
<path d="M244.376 51.9725C247.164 52.3001 247.543 55.1237 244.67 55.8831C241.826 55.6107 241.667 52.766 244.376 51.9725Z" fill="black"/>
<path d="M238.561 88.6991C238.469 87.4542 238.407 83.2983 238.784 82.2224L239.067 82.1542C239.594 82.6107 239.268 86.6345 239.202 87.5086C239.078 87.7466 238.697 88.5187 238.561 88.6991Z" fill="black" fill-opacity="0.486275"/>
<path d="M236.442 38.6456L236.801 38.9021C237.08 40.0027 236.76 43.1149 236.571 44.3319L236.431 44.406L236.143 44.0374C236.077 43.8627 236.004 43.6908 235.925 43.5223C235.669 42.9884 235.399 42.8464 234.848 42.6613L234.73 42.6225C236.884 41.7123 236.322 40.8866 236.442 38.6456Z" fill="black" fill-opacity="0.964706"/>
<path d="M241.102 60.584L241.52 59.6843C241.488 61.1991 241.647 68.7015 241.249 69.4928C240.85 68.157 240.997 62.198 241.102 60.584Z" fill="black" fill-opacity="0.847059"/>
<path d="M190.358 83.3887C191.053 83.6851 190.548 88.7152 190.419 89.6749L190.144 89.4237C189.682 88.1166 190.118 84.7774 190.358 83.3887Z" fill="black" fill-opacity="0.94902"/>
<path d="M226.774 60.0663C226.838 61.5511 227.137 67.5046 226.659 68.5005C226.315 67.5025 226.444 63.0864 226.453 61.7307L226.774 60.0663Z" fill="black" fill-opacity="0.662745"/>
<path d="M153.977 86.2368C154.082 87.4071 154.008 88.2068 154.63 89.3298C154.941 89.8906 155.216 90.5096 154.993 91.1431L154.786 90.998C154.291 89.9696 153.001 87.441 153.313 86.3784L153.977 86.2368Z" fill="black" fill-opacity="0.866667"/>
<path d="M183.43 85.9191L183.601 86.1338C184.049 85.9998 184.374 85.084 184.666 84.5405C184.669 84.7602 184.669 85.7918 184.598 85.903C184.016 86.8185 182.884 88.6732 182.178 89.397L182.071 89.5048C182.182 89.0832 183.267 86.22 183.43 85.9191Z" fill="black" fill-opacity="0.4"/>
<path d="M238.561 88.6991C238.698 88.5187 239.078 87.7466 239.202 87.5085C239.242 88.2363 238.995 88.7804 238.751 89.4628C239.289 91.0534 239.562 91.3055 239.059 92.8467L238.836 92.8984C238.405 91.435 238.521 90.216 238.561 88.6991Z" fill="black" fill-opacity="0.384314"/>
<path d="M190.631 60.5737C190.699 61.4017 190.681 64.0921 190.763 64.5506L190.972 65.6712C191.05 67.3164 191.013 68.4323 190.737 70.0475C190.457 68.2432 190.369 62.3765 190.631 60.5737Z" fill="black" fill-opacity="0.839216"/>
<path d="M209.911 88.9036C211.387 88.8322 212.082 88.8305 213.546 88.9768L213.724 89.2363C213.546 89.2931 213.368 89.3454 213.188 89.3932C211.887 89.7343 211.036 89.5553 209.911 88.9036Z" fill="black" fill-opacity="0.921569"/>
<path d="M242.379 39.5143L242.727 39.7248C242.568 40.7917 242.782 41.7011 242.55 43.0767L242.355 43.2178L242.187 43.0602C241.994 42.0342 242.139 40.5339 242.379 39.5143Z" fill="black" fill-opacity="0.168627"/>
<path d="M228.193 42.5073C229.277 42.3421 230.211 42.4197 231.301 42.4683L231.289 42.612C230.148 43.0863 229.167 43.5285 228.193 42.5073Z" fill="black" fill-opacity="0.94902"/>
<path d="M203.135 42.7875C202.53 42.7099 200.164 42.0243 199.848 41.5056C200.629 41.4862 202.551 42.3302 203.937 42.4572L204.017 42.4639L203.135 42.7875Z" fill="black" fill-opacity="0.705882"/>
<path d="M183.954 83.8329C184.07 84.0881 184.115 84.1157 184.307 84.3051C184.621 84.0092 184.675 83.2041 184.77 82.6947C184.772 83.2983 184.801 83.9581 184.666 84.5406C184.374 85.084 184.049 85.9998 183.601 86.1338L183.43 85.9191C183.871 85.0963 183.919 84.758 183.954 83.8329Z" fill="black" fill-opacity="0.576471"/>
<path d="M246.103 56.3451C246.324 56.3444 246.213 56.3294 246.426 56.4582L246.317 56.6452C245.214 56.8772 244.637 56.8566 243.508 56.858L243.327 56.7814L243.27 56.5951C243.743 56.3792 245.473 56.37 246.103 56.3451Z" fill="black" fill-opacity="0.85098"/>
<path d="M204.141 37.275C205.266 37.1037 206.373 36.959 207.111 37.9502C206.224 38.0458 204.948 37.6574 204.141 37.275Z" fill="black" fill-opacity="0.933333"/>
<path d="M191.265 42.4396C191.869 42.3878 193.099 42.4557 193.666 42.6496L193.67 42.8894C193.032 42.9382 191.654 43.1503 191.191 42.8195L191.265 42.4396Z" fill="black" fill-opacity="0.529412"/>
<path d="M190.802 59.1809C191.224 60.5586 191.022 64.094 190.972 65.6711L190.763 64.5505C190.896 63.0709 190.847 60.6923 190.802 59.1809Z" fill="black" fill-opacity="0.72549"/>
<path d="M164.933 38.4283L164.95 41.0416L164.461 41.0899C164.532 40.4435 164.529 39.1488 164.545 38.4633L164.933 38.4283Z" fill="black" fill-opacity="0.890196"/>
<path d="M231.223 84.0404C231.716 84.052 231.88 84.0352 232.35 84.2364L232.245 84.4097L231.576 84.5314C230.999 84.5273 230.378 84.5796 229.88 84.307C230.249 84.0184 230.727 84.0657 231.223 84.0404Z" fill="black" fill-opacity="0.847059"/>
<path d="M204.017 42.4639C204.554 42.5932 205.391 42.7127 205.749 43.0761C205.075 43.3303 203.835 42.9831 203.135 42.7875L204.017 42.4639Z" fill="black" fill-opacity="0.901961"/>
<path d="M236.006 34.7526C236.302 35.254 236.444 36.4893 236.082 36.9878C235.628 35.902 235.445 35.7554 236.006 34.7526Z" fill="black" fill-opacity="0.443137"/>
<path d="M190.631 60.5737C190.596 60.0984 190.572 59.6224 190.56 59.1461L190.802 59.1809C190.847 60.6923 190.895 63.0709 190.762 64.5505C190.681 64.0921 190.698 61.4016 190.631 60.5737Z" fill="black" fill-opacity="0.976471"/>
<path d="M183.954 83.8329C184.113 83.3502 184.225 82.8062 184.59 82.4937L184.769 82.6947C184.674 83.204 184.621 84.0092 184.306 84.305C184.114 84.1156 184.069 84.0881 183.954 83.8329Z" fill="black" fill-opacity="0.917647"/>
<path d="M226.453 61.7306C226.429 61.1927 226.292 59.0433 226.574 58.6953C226.748 59.2192 226.743 59.5191 226.774 60.0662L226.453 61.7306Z" fill="black" fill-opacity="0.356863"/>
<path d="M253.022 89.2264L253.317 89.4371C253.558 89.8667 253.468 90.4613 253.444 90.976C252.92 90.6275 253.024 89.7999 253.022 89.2264Z" fill="black" fill-opacity="0.917647"/>
<path d="M164.545 38.4633L164.494 37.0029L164.64 36.8467C164.917 37.4956 164.904 37.7138 164.933 38.4283L164.545 38.4633Z" fill="black" fill-opacity="0.301961"/>
<path d="M241.102 60.584C241.085 59.8125 241.095 59.574 241.232 58.819C241.489 59.1346 241.441 59.2489 241.52 59.6843L241.102 60.584Z" fill="black" fill-opacity="0.576471"/>
<path d="M169.759 83.3954L169.974 83.3246C170.223 83.6338 170.084 84.0433 170.047 84.5535C169.812 84.1318 169.812 83.8655 169.759 83.3954Z" fill="black" fill-opacity="0.243137"/>
<path d="M164.461 41.0898L164.95 41.0415C164.902 41.506 164.976 41.6723 164.705 41.9292C164.552 41.5646 164.516 41.4802 164.461 41.0898Z" fill="black" fill-opacity="0.701961"/>
</svg>
