<svg width="656" height="142" viewBox="0 0 656 142" fill="none" xmlns="http://www.w3.org/2000/svg">
<path d="M493.172 17.3883C499.091 17.0567 501.231 22.1437 498.073 23.9276C495.84 23.8898 493.8 21.1324 491.83 22.2515C497.666 29.9955 495.728 43.1533 484.492 44.2437C482.618 44.4255 480.943 43.8091 478.876 44.2585C477.236 45.49 477.07 47.828 477.967 49.751C478.543 50.5994 481.525 50.3908 482.422 50.3558C490.808 50.0263 499.018 52.6522 497.66 62.8717C497.186 66.4207 495.924 67.2125 493.162 69.3085C489.985 71.0401 486.1 71.601 482.547 71.4292C476.605 71.142 473.928 69.84 470.02 65.6075C468.617 58.8124 468.553 56.8683 474.005 52.2833C472.009 48.1393 472.201 45.6602 474.719 41.9653C474.12 41.2287 473.54 40.4761 472.983 39.7081C470.853 36.6453 470.004 32.8671 470.628 29.1866C472.275 19.631 480.212 18.6645 488.098 20.0857C490.289 18.4706 490.667 18.1749 493.172 17.3883ZM478.162 24.8795C473.819 30.6881 474.924 40.0873 483.742 40.0097C485.68 39.7584 487.765 39.0269 488.752 37.3024C492.663 30.4673 490.232 24.1487 482.502 23.4631C480.507 23.7751 479.988 23.9381 478.162 24.8795ZM474.424 58.5338C474.399 59.9355 474.312 61.7097 474.379 63.0807C477.948 66.282 481.932 67.558 486.763 66.532C489.168 65.7797 490.763 65.2373 492.849 63.732C493.21 61.6463 493.717 59.8641 492.374 58.0056C489.963 54.6649 484.296 54.9716 480.654 55.2047C477.47 55.8083 476.903 56.4336 474.424 58.5338Z" fill="#9D672A"/>
<path d="M459.879 2.59591C463.902 2.51739 464.46 2.59076 464.261 7.22907C464.216 8.21243 464.136 9.30906 464.146 10.2979C464.242 23.3755 464.04 36.4663 464.21 49.538C464.223 50.5439 466.5 52.254 465.847 53.8464C464.802 56.3841 461.055 55.7851 459.69 53.9012C459.261 53.2816 459.354 52.6293 459.014 51.9135C457.707 52.1174 455.526 54.7221 452.874 55.4581C449.29 56.4518 446 55.8559 442.765 54.1833C431.218 48.0231 432.736 17.972 449.485 19.074C454.459 19.4013 455.904 20.3737 459.325 23.8899C459.402 20.6944 458.787 4.04455 459.879 2.59591ZM451.589 50.8529C454.953 50.1022 457.4 47.9436 459.296 45.087C459.588 39.7394 460.664 30.9291 457.124 27.0241C455.35 25.0989 452.89 23.9496 450.276 23.8249C449.892 23.8093 449.507 23.8025 449.123 23.8047C440.734 25.06 439.988 34.5213 440.891 41.4065C441.695 47.5346 445.004 51.4125 451.589 50.8529Z" fill="#9D672A"/>
<path d="M368.388 2.69355C369.727 2.5815 371.367 2.32145 372.498 3.01969C373.276 4.23981 372.879 21.4897 372.857 24.2993C375.07 21.7116 376.832 19.9913 380.352 19.3569C397.867 16.1987 400.314 40.3992 393.001 51.17C389.18 56.4022 380.73 56.7657 375.547 53.4324C374.711 52.8968 373.603 51.6265 372.911 50.8671C372.959 52.7275 373.219 53.4446 372.059 54.7671C370.977 55.2021 369.343 54.8136 368.139 54.6351C367.978 53.0792 367.911 43.7636 368.017 42.4538C368.443 37.1444 367.258 4.52202 368.388 2.69355ZM372.914 30.5822C372.905 34.7195 372.732 40.1539 372.953 44.1889C375.57 48.4977 377.844 50.6597 383.209 51.028C385.676 50.7357 387.527 50.2555 389.065 48.0909C393.978 41.1765 393.568 23.0566 381.771 23.8163C377.895 24.6804 375.884 25.8465 373.677 29.3244C373.414 29.7388 373.161 30.1582 372.914 30.5822Z" fill="#9D672A"/>
<path d="M490.764 87.9233C499.675 87.0104 506.481 91.4765 508.057 100.594C509.832 110.874 507.369 122.159 495.543 124.316C491.417 124.529 487.516 124.242 484.085 121.663C475.914 115.516 475.751 101.099 481.173 93.1565C483.464 89.7997 487.038 88.5131 490.764 87.9233ZM494.95 119.522C497.897 118.766 499.691 117.683 501.299 114.968C503.688 110.938 504.076 105.376 502.9 100.907C502.151 98.0559 500.661 95.4176 498.054 93.8895C496.004 92.6865 493.803 92.4965 491.484 92.6926C488.291 93.7588 486.001 94.9258 484.418 98.1133C482.4 102.176 482.381 108.412 483.835 112.653C484.7 115.18 486.35 117.355 488.778 118.547C490.642 119.463 492.9 119.678 494.95 119.522Z" fill="#9D672A"/>
<path d="M295.021 87.907C312.193 86.4764 316.816 102.733 311.079 116.586C309.29 120.904 305.604 122.709 301.304 124.16C282.789 126.239 278.728 108.261 285.446 93.9886C287.056 90.5672 291.439 88.7125 295.021 87.907ZM291.489 117.685C294.457 119.066 296.422 119.628 299.707 119.563C302.723 118.73 304.571 117.617 306.18 114.779C308.514 110.662 308.769 104.735 307.503 100.249C306.74 97.5457 305.209 95.2105 302.714 93.8284C300.748 92.7392 298.664 92.5238 296.464 92.6805C293.217 93.6453 290.942 94.673 289.247 97.8367C287.088 101.868 287.109 107.762 288.425 112.048C289.068 114.144 290.13 115.968 291.489 117.685Z" fill="#9D672A"/>
<path d="M295.062 19.3657C295.834 19.2045 299.528 19.2046 300.535 19.2542C312.89 19.8634 307.563 38.3291 308.559 46.3882C308.779 48.1723 310.123 53.4023 310.058 54.3745C307.025 57.4254 303.862 54.236 303.529 52.4086C303.484 52.1634 300.798 53.809 300.014 54.1969C297.259 55.5688 294.132 56.0003 291.109 55.4255C288.527 54.9745 286.227 53.5241 284.707 51.388C282.786 46.6949 282.224 40.1655 286.5 36.5405C291.42 32.369 297.65 33.0601 303.613 33.4473L303.562 27.6399C303.127 26.8546 302.278 25.2467 301.623 24.8528C296.82 21.968 291.351 25.1614 286.663 26.4606C285.807 26.6977 285.409 26.3887 284.831 25.9732C284.387 24.6699 284.96 23.203 285.471 21.9859C287.353 20.259 292.54 19.568 295.062 19.3657ZM295.728 51.1915C299.655 50.6197 300.62 49.634 303.771 47.2495C303.903 44.0662 303.696 40.4543 303.844 37.6265C301.792 37.4755 299.056 37.1995 297.062 37.306C294.799 37.564 293.463 37.5832 291.49 38.9705C286.389 42.5577 287.246 51.0251 294.216 51.1425C294.688 51.1505 295.239 51.1806 295.728 51.1915Z" fill="#9D672A"/>
<path d="M328.676 19.6884C334.662 19.1168 335.008 19.6835 339.39 22.4773C346.709 21.3919 348.868 16.7909 357.629 21.1897C362.123 26.9528 359.877 36.6742 360.464 43.6361C360.653 45.8776 360.816 53.6735 359.227 55.1759C353.833 56.1522 355.508 50.2299 355.355 47.1242C355.05 41.1022 356.482 33.2063 354.804 27.4967C353.109 21.7375 344.096 25.3686 340.768 26.8139C340.896 33.3893 340.806 40.28 340.812 46.8793C340.761 49.5286 341.821 53.2241 339.541 54.8239C338.634 54.9589 337.27 55.1611 336.427 54.7133C333.929 53.3885 336.517 31.7265 335.255 27.7073C334.903 26.5799 334.144 25.6067 333.083 25.0701C329.56 23.2875 324.441 25.4574 320.985 26.5866C321.107 32.687 321.123 38.7888 321.036 44.8897C321.024 47.5351 321.991 53.6206 319.292 55.0146C318.356 55.498 317.398 55.264 316.589 54.6015C315.725 53.2504 316.012 24.4231 316.245 20.6973L316.718 20.2841C317.851 20.0061 319.651 19.6587 320.764 20.1956C321.068 20.3428 321.28 21.4343 321.408 21.8782C321.895 21.8792 327.183 19.9991 328.676 19.6884Z" fill="#9D672A"/>
<path d="M639.206 19.3606C640.455 19.1426 643.584 19.2785 644.843 19.5175C647.572 20.0416 649.975 21.6404 651.509 23.9545C654.18 27.8905 654.184 33.2654 653.312 37.7639L630.564 37.8543C630.836 40.6888 631.502 43.65 633.017 46.0858C634.484 48.4764 636.858 50.1689 639.597 50.7753C642.252 51.3789 646.493 50.6962 648.764 49.271C649.059 49.088 649.353 48.9091 649.654 48.7351C650.811 48.0632 651.66 47.6097 652.973 47.9616C653.354 48.311 653.931 48.7633 653.815 49.3178C652.121 57.3003 636.31 56.6858 631.755 52.563C624.029 45.5694 624.17 31.4925 630.08 23.6311C632.335 20.631 635.73 19.6657 639.206 19.3606ZM631.393 33.9296C635.359 33.7302 637.643 33.8635 641.579 33.9248L648.956 33.96C649.225 26.4315 646.621 23.2297 638.821 23.8303C633.504 25.2282 632.383 29.1482 631.393 33.9296Z" fill="#9D672A"/>
<path d="M513.675 19.335C526.334 17.9392 529.79 27.2126 528.138 37.8382C521.465 37.8468 513.394 37.6353 506.632 37.8814C505.946 37.9061 505.745 38.4526 505.427 38.9678C505.36 39.3925 505.318 39.8909 505.386 40.324C506.584 47.7519 512.859 52.8568 520.444 50.5297C521.654 50.1575 522.417 50.0402 523.519 49.2491C524.893 48.3859 526.017 47.399 527.686 47.923C532.804 53.555 513.384 59.0067 506.51 52.5991C496.459 43.2303 498.464 21.0251 513.675 19.335ZM506.142 33.9176C509.572 33.8554 512.634 33.8131 516.062 33.9615C517.558 33.9721 521.84 34.1151 523.048 33.7625C525.184 31.5713 523.137 27.698 521.325 25.9243C519.393 24.0328 517.471 23.6797 514.845 23.7635C514.547 23.7733 514.249 23.7886 513.951 23.8095C508.032 24.9708 507.099 28.6312 506.142 33.9176Z" fill="#9D672A"/>
<path d="M423.319 116.403C423.463 112.348 422.62 90.0612 424.001 88.5066C424.901 88.1203 426.435 87.9088 427.377 88.1649C427.72 88.2582 427.909 88.3787 428.091 88.6803C429.363 90.776 428.946 121.169 428.617 125.8C428.492 127.561 428.088 129.265 427.659 130.972C426.563 133.664 425.538 135.581 423.082 137.319C419.395 139.929 413.946 140.377 409.6 139.614C408.306 139.386 406.8 138.907 406.022 137.766C405.295 136.704 405.432 135.568 405.666 134.373C405.749 134.286 406.121 133.82 406.198 133.803C407.127 133.593 412.3 134.814 413.831 134.902C415.468 134.996 417.044 134.737 418.645 134.433L422.047 131.547C423.165 128.103 423.274 124.777 423.469 121.195C422.457 121.546 421.442 121.888 420.423 122.22C416.403 123.524 411.022 124.8 407.04 122.732C405.032 121.688 403.783 119.868 403.129 117.732C402.383 115.293 401.829 90.2692 402.915 88.2245L407.3 88.1966C408.193 94.4962 406.38 111.747 408.462 115.875C409.1 117.138 410.102 118.004 411.451 118.427C414.827 119.484 420.276 117.999 423.319 116.403Z" fill="#9D672A"/>
<path d="M561.386 2.60186C562.619 2.57582 564.141 2.46329 565.172 3.10115C566.047 4.70011 565.662 19.3845 565.649 22.1413C569.868 19.9973 579.285 17.5829 583.654 21.2139C585.803 23.3255 587.005 29.9137 586.768 32.5982C586.447 36.1793 587.7 52.8096 585.851 54.7592C584.586 55.1794 583.046 54.8884 581.7 54.7364C581.354 46.3982 581.399 38.5487 581.422 30.1915C581.434 21.256 570.678 24.4647 565.685 26.7104L565.643 44.7403C565.649 47.4335 566.902 54.8352 563.298 55.2416C560.614 55.8945 560.473 52.0343 560.649 50.2123C561.139 45.0891 559.698 4.72255 561.386 2.60186Z" fill="#9D672A"/>
<path d="M459.527 76.356C461.346 76.2037 463.498 76.0611 465.299 76.3342C470.251 77.0855 475.481 77.3727 474.866 83.6858C474.735 83.8813 474.597 84.0929 474.447 84.3202C469.149 82.5863 464.421 80.1179 458.636 82.0571C448.572 85.2895 448.111 101.633 450.673 109.943C453.412 118.827 461.458 120.855 469.498 118.183C470.773 117.808 471.868 116.7 473.681 116.378C474.729 116.68 474.373 116.451 475.075 117.402C475.901 121.191 471.212 123.549 468.162 124.164C463.255 125.395 456.753 124.481 452.541 121.677C439.808 113.202 440.18 83.9044 455.068 77.5311C456.253 77.023 458.213 76.6281 459.527 76.356Z" fill="#9D672A"/>
<path d="M263.92 76.3721C268.694 75.6666 281.208 76.2208 279.851 83.6606C278.898 84.8328 276.514 83.4644 275.172 82.9275C256.488 75.3319 251.241 95.1735 255.298 109.326C257.922 118.478 265.262 120.964 273.796 118.238C276.212 117.849 276.798 115.773 279.563 116.713C280.598 117.727 280.706 118.795 279.801 120.009C275.384 126.006 263.974 125.72 258.08 122.178C246.511 115.226 246.221 94.9462 252.121 84.3113C254.671 79.7141 258.961 77.5501 263.92 76.3721Z" fill="#9D672A"/>
<path d="M264.112 7.47783C267.329 7.16264 282.063 7.3215 279.854 14.5356C279.318 16.286 275.382 14.2838 273.814 13.7578C256.443 7.98781 251.912 25.7142 254.909 39.0203C257.13 48.8833 263.858 52.4446 273.502 49.868L274.094 49.5398C276.08 48.4474 278.59 46.837 280.03 49.5254C280.126 52.818 276.421 54.5008 273.718 55.1127C261.6 57.8566 251.859 52.6846 249.308 40.1114C247.701 32.1866 248.022 22.7501 252.29 15.5629C254.939 11.1028 259.139 8.59995 264.112 7.47783Z" fill="#9D672A"/>
<path d="M365.819 88.2339C366.735 88.1685 367.655 88.1567 368.571 88.1986C371.281 88.3089 373.888 88.7073 375.819 90.8284C377.04 92.1702 377.729 93.8908 378.068 95.6551C378.834 99.6093 378.369 103.889 378.388 107.903C378.411 112.356 378.651 116.867 378.427 121.313C378.372 122.419 378.385 123.318 377.543 124.084C375.39 124.422 373.26 123.819 373.042 121.262C372.37 113.366 373.728 105.138 372.994 97.2395C372.539 92.3272 365.976 93.3155 362.664 93.9351C360.694 94.3438 359.532 94.6412 357.626 95.2804C357.344 99.7474 358.225 120.736 357.225 123.349C356.242 124.249 353.731 124.373 352.642 123.41C351.271 121.17 351.453 92.8545 352.968 88.7192C353.071 88.4387 354.554 88.1512 355.031 88.2253C356.364 88.4307 357.052 89.2459 357.84 90.3152C357.93 90.3274 364.426 88.4448 365.819 88.2339Z" fill="#9D672A"/>
<path d="M319.557 88.542C320.518 88.4977 321.684 88.3394 322.625 88.5019C323.314 88.6211 323.676 88.8679 323.926 89.5311C324.522 91.1249 324.208 93.4469 324.188 95.1316C324.128 99.9183 323.058 113.979 325.399 117.319C326.091 118.31 327.078 118.951 328.276 119.147C332.049 119.764 336.703 116.897 339.608 114.787C339.736 110.641 338.932 91.7349 339.957 89.2971C340.729 88.6961 341.751 88.4971 342.715 88.4936C343.08 88.4919 344.096 88.4397 344.336 88.6929C345.521 89.9341 344.983 98.9721 344.954 101.012C344.941 104.859 344.362 116.045 345.079 119.078C345.287 119.957 346.104 120.951 346.508 121.808C346.453 122.174 346.373 122.551 346.194 122.876C345.803 123.578 345.239 124.159 344.445 124.376C343.548 124.622 342.584 124.437 341.79 123.973C340.194 123.042 339.957 121.805 339.528 120.151C338.766 120.142 332.981 123.973 329.794 124.392C327.11 124.749 324.39 124.02 322.244 122.368C320.249 120.808 319.242 118.691 318.946 116.226C318.549 112.915 318.03 91.3454 318.946 89.3202C319.048 89.093 319.395 88.7474 319.557 88.542Z" fill="#9D672A"/>
<path d="M534.694 114.981C535.226 110.37 534.121 91.7506 535.059 89.3171C535.175 89.019 535.216 88.9395 535.511 88.81C536.51 88.3721 538.682 88.2994 539.704 88.6981C541.245 90.6512 540.37 98.1323 540.345 100.81C540.335 105.622 539.768 115.363 540.479 119.559C540.617 120.365 541.555 120.8 541.738 121.768C541.655 122.211 541.552 122.688 541.286 123.061C540.771 123.782 539.976 124.191 539.115 124.333C538.186 124.486 537.068 124.38 536.286 123.805C535.172 122.982 535.005 121.349 534.797 120.079C534.425 120.353 534.044 120.614 533.653 120.864C530.008 123.196 524.998 124.994 520.649 124.002C518.611 123.537 516.875 122.517 515.77 120.708C514.912 119.307 514.55 117.664 514.367 116.048C514.034 113.05 513.912 90.5874 514.419 88.5138C515.44 88.4709 516.75 88.3622 517.737 88.5789C518.538 88.7545 518.909 89.2004 519.153 89.9591C519.675 91.5859 519.348 93.77 519.316 95.4744C519.226 100.102 518.15 113.554 520.466 117.145C521.116 118.15 522.068 118.802 523.24 119.033C527.084 119.791 531.664 116.99 534.694 114.981Z" fill="#9D672A"/>
<path d="M562.123 88.2889C563.161 88.1196 564.237 88.1684 565.284 88.2196C567.539 88.3293 569.493 88.9713 571.031 90.6993C572.338 92.1684 573.074 94.1182 573.433 96.0312C574.09 99.5703 573.718 103.474 573.731 107.073C573.75 112.566 573.939 118.111 573.645 123.597L573.565 123.608C571.838 123.832 570.387 123.888 568.651 123.71C568.164 115.121 569.73 102.61 567.69 94.8279C564.032 92.9784 560.646 93.3489 556.777 94.1657C555.409 94.5151 554.067 94.992 552.725 95.4309C552.869 99.3222 552.645 103.285 552.651 107.186C552.655 111.486 552.879 115.83 552.815 120.12C552.799 121.284 552.536 122.745 551.649 123.581C551.207 123.995 550.556 124.248 549.948 124.224C549.093 124.189 548.519 123.768 547.965 123.156C546.921 120.374 547.27 93.6387 547.67 89.6368C547.738 88.945 547.933 88.795 548.465 88.3696C548.865 88.0481 549.362 87.9305 549.871 88.0004C551.175 88.1796 552.158 89.473 552.888 90.442C554.134 90.6907 557.645 88.9556 559.061 88.6242C560.044 88.394 561.114 88.3511 562.123 88.2889Z" fill="#9D672A"/>
<path d="M541.543 19.5897C545.028 19.3217 557.052 19.5763 553.948 26.1444C553.43 26.4004 552.898 26.632 552.296 26.335C547.69 24.0582 539.387 20.1404 538.9 28.6799C538.798 30.4984 540.569 32.2691 541.809 33.551C544.301 34.1459 548.292 34.9296 550.342 36.3532C558.113 41.7482 556.639 52.8941 547.116 55.0632C543.144 55.644 539.759 55.6113 535.787 54.1118C533.618 53.2931 532.423 49.9672 534.067 48.3898C534.89 47.5997 538.641 49.9134 539.832 50.4432C541.591 51.2257 544.067 51.9033 546.117 51.0763C549.06 49.8922 551.341 47.0936 550.053 43.8167C548.538 39.9509 543.641 39.4759 540.204 37.978C534.07 35.304 532.92 30.301 535.303 24.4341C536.479 21.5924 538.833 20.6061 541.543 19.5897Z" fill="#9D672A"/>
<path d="M592.444 87.8967C595.89 87.6191 604.997 87.6618 605.621 92.6683C605.727 93.51 605.778 94.0409 605.439 94.8435C604.334 95.3137 602.322 94.5374 601.204 94.0126C596.963 91.7682 588.485 91.6695 586.329 97.0145C581.486 109.024 584.532 123.063 600.355 118.787C601.864 117.977 603.389 116.8 605.086 117.544C607.879 120.86 601.723 123.524 599.116 124.056C589.506 126.193 581.092 120.878 579.548 110.971C577.892 100.332 580.762 90.0697 592.444 87.8967Z" fill="#9D672A"/>
<path d="M386.813 80.5975C388.11 80.5356 389.583 80.2792 390.621 81.0043C391.944 82.4954 391.409 86.2631 391.55 88.8338C393.882 88.7239 397.136 88.228 398.549 90.6138C398.299 93.4906 393.254 92.9637 391.355 92.9015C391.425 97.1525 390.893 116.653 391.947 119.174C394.119 121.283 394.948 118.211 397.822 119.291C398.443 120.079 398.254 121.265 398.206 122.29C393.968 125.778 390.06 125.104 386.345 121.545C385.96 118.834 386.098 113.469 386.111 110.578L386.217 92.6694C384.205 93.0185 382.629 93.3326 381.739 91.0462C382.056 88.4344 384.25 88.7245 386.194 88.795C386.162 86.9186 385.73 81.7357 386.813 80.5975Z" fill="#9D672A"/>
<path d="M624.443 71.2337C625.526 71.2228 627.034 71.0888 627.95 71.5811C628.3 72.5908 628.351 73.9839 628.36 75.0561C628.437 87.0678 628.421 99.0878 628.399 111.1C628.396 113.809 628.979 122.084 627.416 123.761C626.112 123.808 624.376 123.704 623.04 123.663C622.505 111.97 623.091 84.9763 623.175 71.8126C623.175 71.6741 624.171 71.3395 624.443 71.2337Z" fill="#9D672A"/>
<path d="M607.309 20.1374C608.325 19.7835 609.853 19.6096 610.817 20.0951C610.98 20.1756 611.137 20.2694 611.284 20.3754C611.515 21.2557 611.522 21.6401 611.563 22.5286C613.251 22.672 624.891 14.8454 624.216 24.794C624.161 25.6009 623.889 25.8666 623.287 26.3086C621.659 26.4729 620.026 25.1289 618.543 24.3572C615.103 25.0125 614.404 25.5594 611.557 27.6217C611.56 35.3392 611.954 47.0402 611.499 54.4194C609.657 54.6614 608.6 54.8473 606.733 54.6826C605.544 53.6953 606.304 23.9706 606.217 20.6493C606.211 20.4439 607.079 20.2167 607.309 20.1374Z" fill="#9D672A"/>
<path d="M606.733 54.6826C605.544 53.6953 606.304 23.9706 606.217 20.6494C606.211 20.4439 607.079 20.2167 607.309 20.1375L607.742 20.6703C607.71 20.9029 607.585 21.9538 607.546 22.0735C606.486 25.2225 607.905 49.7036 607.047 51.03L606.848 49.843C606.887 51.2451 607.04 53.3716 606.733 54.6826Z" fill="#9C6F34"/>
<path d="M403.6 19.9052C404.84 19.814 406.339 19.6974 407.348 20.4316C408.084 21.2871 408.075 21.6381 408.18 22.7715C408.783 22.9888 409.311 22.1207 409.897 21.7617C413.225 19.7246 421.435 17.9956 420.631 24.5559C420.496 25.6534 420.544 25.6362 419.773 26.3101C418.19 26.3847 416.4 24.7755 414.971 24.4873C412.828 24.0549 409.769 26.4145 408.072 27.6007C408.2 31.0407 408.113 35.0607 408.123 38.5453C408.142 41.0414 408.562 52.7719 407.639 54.1316C406.339 54.7737 404.404 54.7282 402.914 54.7997C402.924 45.0145 402.681 30.8903 403.043 20.6922C403.26 20.3839 403.446 20.1216 403.6 19.9052Z" fill="#9D672A"/>
<path d="M611.438 88.5075C612.732 88.4478 614.19 88.2703 615.327 88.9944C615.881 89.6813 615.852 90.8461 615.894 91.7033C616.173 97.6096 615.929 103.629 615.932 109.549C615.932 113.515 616.326 117.996 615.785 121.922C615.679 122.691 615.471 123.255 614.946 123.836C613.745 123.902 612.239 124.056 611.176 123.424C610.609 122.772 610.618 121.811 610.57 120.986C610.381 117.84 610.266 90.241 610.724 89.3114C610.839 89.0764 611.253 88.7152 611.438 88.5075Z" fill="#9D672A"/>
<path d="M425.939 19.9288C427.178 19.865 429.03 19.9294 430.317 19.9371L430.391 41.3329C430.401 44.882 430.58 50.5937 430.247 53.9953C429.664 54.9303 429.558 54.7098 428.242 55.1553C427.281 55.1172 426.48 55.1899 425.731 54.5944C424.462 52.0111 425.173 28.0264 424.968 23.6728C424.907 22.3983 424.949 20.9154 425.939 19.9288Z" fill="#9D672A"/>
<path d="M594.186 19.9777C594.696 19.9183 598.421 19.5108 598.498 20.3641C599.369 30.0542 598.626 40.1245 598.837 49.9074C598.869 51.4483 598.917 53.418 598.517 54.879C598.056 54.9598 597.594 55.0262 597.13 55.0771C596.15 55.1791 594.929 55.2082 594.138 54.5617C593.337 52.358 593.286 22.3431 594.186 19.9777Z" fill="#9D672A"/>
<path d="M595.336 7.89287C597.037 7.32487 598.882 8.22376 599.481 9.91478C600.083 11.6058 599.221 13.467 597.543 14.1011C596.428 14.5226 595.172 14.3083 594.259 13.5408C593.347 12.7733 592.921 11.5725 593.145 10.4011C593.369 9.22959 594.205 8.27034 595.336 7.89287Z" fill="#9D672A"/>
<path d="M612.236 76.5772C613.408 76.281 614.648 76.6529 615.468 77.5456C616.284 78.4383 616.544 79.7076 616.147 80.8513C615.749 81.9947 614.76 82.8278 613.565 83.0207C611.826 83.3015 610.173 82.162 609.817 80.4356C609.462 78.7091 610.528 77.0083 612.236 76.5772Z" fill="#9D672A"/>
<path d="M426.964 7.92126C428.604 7.37759 430.382 8.21151 431.013 9.81973C431.64 11.4279 430.904 13.2485 429.334 13.9643C428.239 14.4627 426.961 14.3159 426.006 13.5826C425.055 12.8494 424.584 11.6495 424.786 10.4637C424.984 9.27779 425.824 8.29975 426.964 7.92126Z" fill="#9D672A"/>
<path d="M36.2565 43.9722C37.8619 43.5087 41.2947 44.2408 42.7255 44.9767C45.5366 46.4227 46.945 48.5899 48.4953 51.2379C47.9005 52.813 47.7381 54.0442 46.3402 54.6962L44.4757 54.3539C47.9883 58.3671 73.1908 84.8226 75.8683 85.0438C77.7786 85.2015 79.7325 83.8514 81.0922 82.6503C88.1708 76.3982 95.8638 67.9888 102.594 61.1356C105.557 58.1193 108.506 54.8453 111.792 52.1816C112.477 51.6254 113.63 50.7279 114.566 50.7375C118.66 50.7802 146.162 83.9902 151.886 85.0634C153.601 85.3849 155.342 83.77 156.538 82.7138C159.67 79.9482 162.564 76.7998 165.509 73.8338C170.254 69.0049 175.042 64.2198 179.874 59.479C182.283 57.0794 187.068 51.1808 190.365 50.6776C191.956 50.951 198.868 58.3405 200.481 59.947L215.223 74.6278C217.338 76.7524 226.351 85.557 227.679 87.4328L227.74 87.5197C227.781 100.33 227.921 114.019 227.752 126.754C225.341 125.309 221.886 121.413 219.722 119.24L202.417 101.989C199.279 98.8339 196.19 94.9133 192.545 92.3926C191.54 91.698 190.583 91.1642 189.347 91.4684C184.056 92.7718 156.522 125.257 152.738 125.891C152.137 125.992 151.284 125.606 150.786 125.309C147.287 123.216 143.967 119.025 141.067 116.105L123.934 98.8117C119.825 94.6633 115.872 88.3489 110.339 93.61C107.493 96.317 104.806 99.0406 102.051 101.824L84.2166 119.914C81.8898 122.231 78.2126 127.38 75.0089 125.032C71.9342 122.779 69.4684 119.882 66.8319 117.14C61.4785 111.666 56.0646 106.252 50.5908 100.899C47.8608 98.1758 45.2095 94.7184 41.968 92.6057C40.8703 91.8903 39.3158 91.2088 37.9814 91.5479C34.201 92.5086 7.99205 121.753 1.22933 126.939C1.06112 118.504 1.20732 109.837 1.09833 101.333L0 101.615V77.1508L1.26789 76.8681C3.78385 77.0582 8.6517 70.371 10.7689 68.7494C15.3621 65.2305 32.1104 45.5181 36.2565 43.9722Z" fill="#129BD6"/>
<path d="M36.2565 43.9722C37.8619 43.5087 41.2947 44.2408 42.7255 44.9767C45.5366 46.4227 46.945 48.5899 48.4953 51.2379C47.9005 52.813 47.7381 54.0442 46.3402 54.6962L44.4757 54.3539C42.4891 54.1792 40.4568 49.0528 37.7777 51.3286C32.5117 55.8021 27.8096 61.0003 22.8417 65.811C16.3935 72.6719 7.31648 80.6197 1.40074 87.612C1.39389 89.4369 1.54235 100.357 1.09833 101.333L0 101.615V77.1508L1.26789 76.8681C3.78385 77.0582 8.6517 70.371 10.7689 68.7494C15.3621 65.2305 32.1104 45.5181 36.2565 43.9722Z" fill="#FEFDFD"/>
<path d="M115.065 0.876465C122.702 5.75511 146.986 34.8173 151.294 35.7135C152.418 35.9475 153.763 35.6635 154.719 35.0349C157.237 33.3803 159.256 30.5767 161.4 28.4528C166.196 23.7553 170.957 19.0225 175.684 14.255C179.707 10.1563 185.057 4.12352 189.67 1.06985C191.801 1.92439 193.233 3.07729 194.804 4.7355C205.534 16.0605 217.931 26.7364 228.503 38.1121C228.791 46.8963 228.366 55.8996 228.585 64.7104C228.694 69.1226 228.786 73.8695 228.501 78.2478C225.273 74.4779 221.58 71.0536 218.07 67.5481C213.314 62.7996 208.625 58.0001 203.812 53.309C200.785 50.3581 197.999 46.9943 194.793 44.2521C193.584 43.2171 192.121 42.174 190.576 41.7464C186.941 40.7403 159.8 72.8284 153.123 76.6653C148.568 74.5382 143.096 68.0132 139.301 64.2081L125.5 50.3732C122.864 47.7162 120.104 44.4367 116.771 42.6407C115.795 42.1147 114.931 41.7576 113.86 42.1599C110.541 43.4056 107.077 47.8864 104.601 50.3821C101.041 53.9696 81.0649 75.219 77.7416 76.1124C76.7611 76.3758 76.0033 75.8425 75.2368 75.2841C71.7092 72.714 68.5717 68.8133 65.4708 65.7108C60.6129 60.8501 55.5613 56.1378 50.7598 51.2361C48.0448 48.464 45.0547 44.5977 41.6847 42.6866C40.725 42.142 39.6424 41.782 38.544 42.1067C37.6481 42.3718 36.6932 43.1491 36.2567 43.9723C32.1105 45.5182 15.3623 65.2306 10.769 68.7495C8.65188 70.3711 3.78402 77.0583 1.26807 76.8682L1.86719 76.4143C2.36343 72.871 2.16356 66.7003 2.19565 63.0016C2.26893 54.5562 2.07247 46.0789 2.27762 37.6255C3.68274 35.744 10.0517 29.7026 11.9907 27.738C17.3183 22.2383 22.704 16.7954 28.1471 11.4101C31.4672 8.09317 35.7823 3.3337 39.6414 0.937749C48.7367 6.06129 70.2079 33.931 76.568 35.6609C77.576 35.935 78.2538 35.8254 79.1468 35.2721C82.3525 33.2857 85.1328 29.7794 87.753 27.0789C92.4779 22.2091 97.3236 17.4698 102.129 12.6828C106.116 8.71217 110.172 3.66011 115.065 0.876465Z" fill="#9D672A"/>
</svg>
