<?xml version="1.0" encoding="UTF-8"?>
<svg viewBox="0 0 400 200" xmlns="http://www.w3.org/2000/svg">
 <path d="m373.21 182.76h-6.9536v-12.301l-10.786-18.854h7.533l6.7295 11.589 6.7305-11.589h7.533l-10.786 18.854zm-28.409-25.138v25.138h-6.9536v-25.138h-8.8249v-6.017h24.603v6.017zm-26.551-6.0168h6.9536v31.155h-6.9536zm-13.058-9e-5h6.9526v31.155h-6.9526l-14.843-19.521v19.521h-6.9526v-31.155h6.5073l15.288 20.057zm-34.654 9e-5h6.9536v31.155h-6.9536zm-5.2267-9e-5v6.1071h-14.442v6.7295h13.727v6.1061h-13.727v12.212h-6.9526v-31.155zm-34.689 0h6.9536v31.155h-6.9536l-14.842-19.521v19.521h-6.9536v-31.155h6.5073l15.288 20.057zm-34.876 9e-5h6.9536v31.155h-6.9536zm-26.385-9e-5h6.9526v31.155h-6.9526l-14.843-19.521v19.521h-6.9526v-31.155h6.5074l15.288 20.057zm-41.744 9.271-3.9226 9.048h7.8002zm9.4032 21.884-2.8959-6.7295h-13.06l-2.8969 6.7295h-7.399l13.461-31.155h6.7294l13.461 31.155zm-29.192-31.155v6.1961h-15.511v6.4173h13.95v5.929h-13.95v6.4623h16.002v6.1501h-22.954v-31.155zm-39.672 25.004c3.4163 0 6.2102-1.3509 8.3797-4.0557l4.456 4.5911c-3.5354 3.9816-7.7032 5.973-12.502 5.973-4.7991 0-8.7508-1.516-11.855-4.5471-3.106-3.031-4.6591-6.8566-4.6591-11.478 0-4.6191 1.5831-8.4746 4.7472-11.566 3.1641-3.0901 7.0346-4.6351 11.611-4.6351 5.1105 0 9.3894 1.9463 12.836 5.8389l-4.3219 4.9023c-2.1995-2.7328-4.9334-4.0997-8.2016-4.0997-2.6147 0-4.8512 0.85357-6.7074 2.5627-1.8582 1.7092-2.7858 4.0107-2.7858 6.9086 0 2.8969 0.8756 5.2225 2.6297 6.9746 1.7522 1.7542 3.8776 2.6297 6.3732 2.6297m-26.594-9.6047c0-2.7788-0.8926-5.1484-2.6749-7.1087-1.7822-1.9613-3.9746-2.942-6.5743-2.942-2.5998 0-4.7912 0.98064-6.5734 2.942-1.7832 1.9603-2.6748 4.3299-2.6748 7.1087s0.8916 5.1414 2.6748 7.0867c1.7822 1.9463 3.9736 2.9189 6.5734 2.9189 2.5997 0 4.7921-0.97265 6.5743-2.9189 1.7823-1.9453 2.6749-4.3079 2.6749-7.0867m2.3615 11.455c-3.15 3.075-7.0277 4.6121-11.633 4.6121-4.606 0-8.4836-1.537-11.633-4.6121-3.1501-3.0761-4.7241-6.9006-4.7241-11.478 0-4.5751 1.574-8.4006 4.7241-11.476 3.1491-3.076 7.0267-4.6141 11.633-4.6141 4.6051 0 8.4828 1.538 11.633 4.6141 3.1502 3.0751 4.7242 6.9006 4.7242 11.476 0 4.577-1.574 8.4016-4.7242 11.478"/>
 <path d="m183.8 74.01c-8.1324 12.509-18.915 25.313-35.063 25.313-17.14 0-31.036-13.895-31.036-31.037 0-8.7248 3.6005-16.609 9.3963-22.247 1.0056-0.97866 2.0694-1.8622 3.1841-2.7068 5.1584-3.8206 11.543-6.0821 18.455-6.0821 9.3591 0 16.915 4.3009 23.197 10.352 5.7779 5.5647 10.9 12.593 15.897 20.037-1.3379 2.1264-2.6617 4.2648-4.0307 6.3702m-51.89-31.87c0.057-0.039 0.1151-0.0741 0.1701-0.11408-0.6024 0.41928-1.1988 0.84956-1.7882 1.2989 0.5284-0.40127 1.0657-0.79652 1.6181-1.1848m108.18-23.883c-11.736 2.8309-7.568 21.655 6.3022 19.379 1.536-0.25217 3.1241-0.38526 4.7692-0.38526 17.14 0 31.038 13.895 31.038 31.036s-13.897 31.037-31.038 31.037c-5.4726 0-10.33-1.472-14.676-3.9016-13.938-7.7982-25.302-28.762-37.879-46.492-6.14-8.6538-12.569-16.538-19.728-21.746-32.508-23.638-73.635-3.2532-80.39 31.173-0.6274 3.1971-0.9586 6.5153-0.9586 9.9296 0 47.361 63.623 76.042 99.053 22.032 1.2278-1.8732 1.7242-2.7268 3.046-4.8642-0.065-0.0951-0.129-0.19212-0.194-0.2882 6.6944 9.7785 13.867 18.897 22.706 25.017 35.358 24.479 80.219-2.1234 80.23-41.896 8e-3 -33.265-31.233-57.522-62.282-50.029m-23.4 12.417c-6.2141 0-11.251 5.0374-11.251 11.25 0 6.2131 5.0373 11.25 11.251 11.25 6.2133 0 11.251-5.0374 11.251-11.25 0-6.2131-5.0373-11.25-11.251-11.25"/>
</svg>
