<?xml version="1.0" encoding="utf-8"?>
<!DOCTYPE svg PUBLIC "-//W3C//DTD SVG 1.1//EN" "http://www.w3.org/Graphics/SVG/1.1/DTD/svg11.dtd">
<svg version="1.1" id="Layer_1" xmlns="http://www.w3.org/2000/svg" xmlns:xlink="http://www.w3.org/1999/xlink" x="0px" y="0px"
	 width="150.5px" height="114.25px" viewBox="0 0 150.5 114.25" enable-background="new 0 0 150.5 114.25" xml:space="preserve">
<path fill="#2E6F66" d="M2.818,25.482v8.319c40.071-17.957,53.374,39.326,134.708,4.483c5.926-2.538,9.783-8.349,9.783-14.795
	C58.568,66.694,44.854,6.729,4.716,22.686C3.57,23.142,2.818,24.25,2.818,25.482"/>
<path fill="#80C675" d="M146.928,4.577c-26.629-11.932-41.436,9.359-72.243,14.764C92.032,22.384,114.457,20.387,146.928,4.577"/>
<path fill="#2E6F66" d="M2.818,19.239L2.818,19.239C44.178,0.703,57.02,62.327,145.59,20.067c1.047-0.5,1.719-1.557,1.719-2.716
	V8.926C66.864,48.091,48.073,2.475,15.363,5.492C8.257,6.147,2.818,12.104,2.818,19.239"/>
<path fill="#F9A638" d="M3.198,38.445C29.821,26.514,44.63,47.804,75.437,53.21C58.086,56.251,35.667,54.255,3.198,38.445"/>
<g>
	<path fill="#2E6F66" d="M10.143,68.783c-4.442-0.34-7.131-0.62-8.138-0.182c0,0-0.289-3.399,4.482-4.135
		c4.77-0.735,17.185,2.228,22.544-2.811c-0.097,0.254,0.674,7.951-9.387,7.654c-1.448-0.043-2.806-0.102-4.076-0.168
		c-1.007,1.264-3.129,4.067-4.907,7.339C5.51,85.96,4.494,92.813,4.494,92.813s-1.617,1.314-3.26,0
		C-0.035,91.799,3.985,77.278,10.143,68.783z"/>
	<path fill="#2E6F66" d="M25.837,82.995c0,0-3.127,9.596-9.162,9.149c-6.035-0.446-5.516-6.494-5.516-6.494h0.025
		c-0.065-4.506,5.139-11.839,9.753-11.839c2.02,0,2.941,1.835,3.295,2.846c0.039,0.068,0.067,0.154,0.083,0.253
		c0.074,0.242,0.105,0.396,0.105,0.396c-0.03-0.021-0.059-0.041-0.088-0.062c-0.091,2.107-3.268,7.702-8.938,6.74
		c-0.011,0.1-0.02,0.195-0.023,0.287c-0.01,1.78,0.721,4.465,3.706,4.502C22.203,88.812,25.837,82.995,25.837,82.995z M15.63,82.902
		c2.32-1.195,6.449-3.623,6.662-5.852c-0.155-0.49-0.539-0.557-0.794-0.541c-0.082,0.012-0.164,0.026-0.245,0.043
		C18.572,77.11,16.366,80.472,15.63,82.902z"/>
	<path fill="#2E6F66" d="M39.235,82.995c0,0-3.127,9.596-9.162,9.149c-6.035-0.446-5.515-6.494-5.515-6.494h0.024
		c-0.065-4.506,5.139-11.839,9.753-11.839c2.02,0,2.941,1.835,3.295,2.846c0.039,0.068,0.067,0.154,0.083,0.253
		c0.074,0.242,0.105,0.396,0.105,0.396c-0.03-0.021-0.059-0.041-0.088-0.062c-0.091,2.107-3.268,7.702-8.938,6.74
		c-0.012,0.1-0.02,0.195-0.023,0.287c-0.01,1.78,0.72,4.465,3.706,4.502C35.601,88.812,39.235,82.995,39.235,82.995z M29.028,82.902
		c2.319-1.195,6.449-3.623,6.662-5.852c-0.155-0.49-0.539-0.557-0.794-0.541c-0.082,0.012-0.163,0.026-0.244,0.043
		C31.97,77.11,29.763,80.472,29.028,82.902z"/>
	<path fill="#2E6F66" d="M47.788,80.574c0,0,1.944-4.824-1.599-4.598c-3.542,0.227-1.346,5.069,0.025,10.883
		c0.414,1.761-0.025,2.941-0.835,3.73c-0.932,1.747-5.202,2.04-5.595,1.567c-0.003-0.001-0.003-0.001,0-0.001
		c-4.17-2.425-0.177-6.233,1.49-7.592c-0.434-1.031-0.884-2.103-1.2-3.181c-1.695-5.773,9.841-10.699,11.485-5.867
		C53.203,80.347,47.788,80.574,47.788,80.574z"/>
	<path fill="#2E6F66" d="M65.98,81.451c-0.226,1.205-0.395,2.484-0.487,3.831c0,0.149,0.102,5.809,8.522-9.753
		c2.512-5.36,5.53-9.64,6.565-9.64c2.533,0,4.447,2.893,4.447,2.893L74.362,81.837c-3.153,4.729-7.886,10.737-10.949,9.582
		c-2.301,0.74-2.646-3.722-2.647-3.738c-0.3-5.704,0.61-14.107,6.322-21.406c0,0,1.494-1.897,4.547,2.157
		C71.635,68.431,67.515,73.241,65.98,81.451z"/>
	<path fill="#2E6F66" d="M97.712,82.995c0,0-2.524,8.174-6.35,6.959c-4.439-1.564-2.77-8.151-0.639-12.457
		c-5.472-0.243-8.587,10.673-7.21,11.579c1.504,0.989,4.346-3.149,4.346-3.149s-1.244,6.731-6.483,6.212
		c-7.968-1.074,0.997-18.241,6.169-18.483c1.891-0.088,3.166,1.273,3.915,2.472c0.872-1.489,1.715-2.472,2.159-2.472
		c1.672,0,2.934,1.572,2.934,1.572c-4.457,4.972-5.726,11.739-3.912,12.09C94.703,87.719,97.712,82.995,97.712,82.995z"/>
	<path fill="#2E6F66" d="M107.344,82.995c0,0-3.529,10.987-9.563,10.987c-3.409,0-0.662-7.458-0.662-7.458
		c1.527-6.121,5.524-16.233,10.575-21.549c0,0,2.414,0,3.908,2.196c0,0-3.066,3.593-5.492,8.056
		c-3.305,6.082-4.908,11.082-5.631,13.885c-0.211,1.039-0.213,1.914,0.52,1.528C102.564,89.813,107.344,82.995,107.344,82.995z"/>
	<path fill="#2E6F66" d="M117.9,82.995c0,0-3.531,10.987-9.564,10.987c-3.408,0-0.662-7.458-0.662-7.458
		c1.527-6.121,5.525-16.233,10.574-21.549c0,0,2.414,0,3.908,2.196c0,0-3.066,3.593-5.49,8.056
		c-3.307,6.082-4.908,11.082-5.633,13.885c-0.211,1.039-0.213,1.914,0.52,1.528C113.119,89.813,117.9,82.995,117.9,82.995z"/>
	<path fill="#2E6F66" d="M131.871,82.995c0,0-3.127,9.596-9.162,9.149c-6.033-0.446-5.516-6.494-5.516-6.494h0.025
		c-0.064-4.506,5.139-11.839,9.754-11.839c2.02,0,2.939,1.835,3.295,2.846c0.039,0.068,0.066,0.154,0.082,0.253
		c0.074,0.242,0.105,0.396,0.105,0.396c-0.029-0.021-0.059-0.041-0.09-0.062c-0.09,2.107-3.268,7.702-8.938,6.74
		c-0.012,0.1-0.02,0.195-0.023,0.287c-0.01,1.78,0.721,4.465,3.707,4.502C128.238,88.812,131.871,82.995,131.871,82.995z
		 M121.664,82.902c2.32-1.195,6.449-3.623,6.662-5.852c-0.154-0.49-0.539-0.557-0.793-0.541c-0.082,0.012-0.164,0.026-0.244,0.043
		C124.607,77.11,122.4,80.472,121.664,82.902z"/>
	<path fill="#2E6F66" d="M148.156,82.995c0,0-2.717,8.454-7.455,10.531c-0.891,1.794-2.021,3.583-3.402,4.863
		c-4.01,3.722-5.779,0.291-5.779,0.291s-2.332-3.72,4.473-6.128c0.693-1.61,1.236-3.102,1.494-3.838
		c0.219-0.673,0.414-1.132,0.414-1.132h0.088c0.172-0.479,0.35-0.961,0.531-1.446c-2.021,2.088-4.283,3.809-5.914,3.303
		c-1.727,0.457-1.986-2.3-1.988-2.311c-0.225-3.526,0.459-8.721,4.746-13.233c0,0,1.121-1.172,3.414,1.333
		c0,0-3.092,2.974-4.244,8.048c-0.17,0.745-0.297,1.536-0.367,2.37c-0.002,0.125-0.064,4.635,4.973-3.199
		c1.09-1.693,1.902-2.764,2.506-3.402c1.131-2.135,2.381-4.048,3.75-5.489c0,0,2.123,0.256,3.73,2.591c0,0-2.449,2.568-5.271,9.367
		c-0.313,0.753-0.615,1.468-0.906,2.15c-0.203,0.7-0.52,1.712-0.951,2.862C143.721,89.32,148.156,82.995,148.156,82.995z"/>
</g>
<g>
	<path fill="#F9A638" stroke="#F9A738" stroke-width="0.4185" stroke-miterlimit="10" d="M18.964,111
		c-0.089,0.015-0.178,0.024-0.267,0.031c-0.089,0.007-0.182,0.014-0.277,0.021v1.9h-1.737v-7.51h1.737
		c0.431,0.007,0.835,0.086,1.212,0.235c0.377,0.151,0.707,0.354,0.992,0.606c0.284,0.253,0.506,0.547,0.667,0.882
		c0.161,0.335,0.242,0.694,0.242,1.077c0,0.403-0.086,0.778-0.257,1.123c-0.172,0.346-0.411,0.646-0.72,0.897l1.665,2.688h-2.045
		L18.964,111z M18.42,109.306c0.185-0.008,0.361-0.04,0.529-0.099c0.167-0.058,0.314-0.134,0.441-0.23
		c0.126-0.096,0.226-0.207,0.298-0.334s0.107-0.262,0.107-0.406c0-0.144-0.036-0.277-0.107-0.4
		c-0.072-0.122-0.171-0.232-0.298-0.328c-0.127-0.097-0.274-0.173-0.441-0.231c-0.168-0.059-0.344-0.091-0.529-0.098V109.306z"/>
	<path fill="#F9A638" stroke="#F9A738" stroke-width="0.4185" stroke-miterlimit="10" d="M29.958,112.952
		c-0.384,0-0.747-0.07-1.089-0.21c-0.343-0.141-0.648-0.341-0.915-0.602c-0.274-0.273-0.484-0.582-0.632-0.925
		c-0.147-0.342-0.225-0.708-0.231-1.099v-4.716h1.736v4.706c0,0.301,0.113,0.564,0.339,0.79c0.226,0.213,0.493,0.318,0.801,0.318
		c0.151,0,0.294-0.03,0.432-0.092s0.257-0.145,0.36-0.247c0.103-0.103,0.181-0.223,0.236-0.359c0.055-0.138,0.083-0.284,0.083-0.441
		v-4.675h1.736v4.664c0.007,0.391-0.063,0.761-0.21,1.109c-0.147,0.35-0.349,0.654-0.605,0.915c-0.258,0.26-0.559,0.467-0.905,0.62
		c-0.346,0.155-0.714,0.235-1.104,0.242H29.958z"/>
	<path fill="#F9A638" stroke="#F9A738" stroke-width="0.4185" stroke-miterlimit="10" d="M40.241,111
		c-0.089,0.015-0.178,0.024-0.268,0.031s-0.182,0.014-0.277,0.021v1.9H37.96v-7.51h1.736c0.432,0.007,0.835,0.086,1.212,0.235
		c0.376,0.151,0.707,0.354,0.992,0.606c0.284,0.253,0.506,0.547,0.667,0.882s0.241,0.694,0.241,1.077
		c0,0.403-0.086,0.778-0.257,1.123c-0.171,0.346-0.411,0.646-0.719,0.897l1.664,2.688h-2.045L40.241,111z M39.696,109.306
		c0.185-0.008,0.361-0.04,0.529-0.099c0.167-0.058,0.315-0.134,0.441-0.23c0.127-0.096,0.226-0.207,0.298-0.334
		s0.108-0.262,0.108-0.406c0-0.144-0.037-0.277-0.108-0.4c-0.072-0.122-0.171-0.232-0.298-0.328
		c-0.126-0.097-0.274-0.173-0.441-0.231c-0.168-0.059-0.344-0.091-0.529-0.098V109.306z"/>
	<path fill="#F9A638" stroke="#F9A738" stroke-width="0.4185" stroke-miterlimit="10" d="M52.682,112.952l-0.298-0.914h-2.373
		l-0.308,0.914h-1.839l2.568-7.541h1.644l2.434,7.541H52.682z M50.606,110.302h1.223l-0.596-1.829L50.606,110.302z"/>
	<path fill="#F9A638" stroke="#F9A738" stroke-width="0.4185" stroke-miterlimit="10" d="M63.624,112.952h-4.49v-7.551h1.736v5.814
		h2.754V112.952z"/>
	<path fill="#F9A638" stroke="#F9A738" stroke-width="0.4185" stroke-miterlimit="10" d="M78.612,112.952l-0.298-0.914H75.94
		l-0.307,0.914h-1.839l2.568-7.541h1.644l2.435,7.541H78.612z M76.536,110.302h1.223l-0.597-1.829L76.536,110.302z"/>
	<path fill="#F9A638" stroke="#F9A738" stroke-width="0.4185" stroke-miterlimit="10" d="M88.32,112.941
		c-0.485,0-0.96-0.09-1.422-0.271c-0.463-0.182-0.878-0.457-1.248-0.827c-0.356-0.363-0.629-0.772-0.817-1.229
		c-0.189-0.455-0.283-0.936-0.283-1.442c0-0.515,0.093-0.999,0.283-1.454c0.188-0.455,0.46-0.861,0.817-1.217
		c0.37-0.37,0.788-0.648,1.253-0.832c0.466-0.185,0.939-0.278,1.423-0.278c0.482,0,0.956,0.094,1.418,0.278
		c0.462,0.184,0.878,0.462,1.247,0.832l-1.223,1.223c-0.198-0.199-0.424-0.348-0.677-0.447s-0.51-0.149-0.771-0.149
		c-0.26,0-0.515,0.05-0.765,0.149c-0.25,0.1-0.474,0.248-0.673,0.447c-0.191,0.198-0.338,0.421-0.441,0.667
		c-0.104,0.247-0.155,0.507-0.155,0.781s0.051,0.532,0.155,0.775c0.103,0.243,0.25,0.465,0.441,0.662
		c0.199,0.199,0.423,0.348,0.673,0.448c0.25,0.099,0.505,0.148,0.765,0.148c0.261,0,0.518-0.05,0.771-0.148
		c0.253-0.101,0.479-0.249,0.677-0.448l1.223,1.233c-0.369,0.37-0.784,0.646-1.242,0.827
		C89.289,112.852,88.813,112.941,88.32,112.941z"/>
	<path fill="#F9A638" stroke="#F9A738" stroke-width="0.4185" stroke-miterlimit="10" d="M99.939,105.381v1.735h-1.447v5.836h-1.738
		v-5.836h-1.438v-1.735H99.939z"/>
	<path fill="#F9A638" stroke="#F9A738" stroke-width="0.4185" stroke-miterlimit="10" d="M106.523,112.952h-1.734v-7.551h1.734
		V112.952z"/>
	<path fill="#F9A638" stroke="#F9A738" stroke-width="0.4185" stroke-miterlimit="10" d="M114.912,105.401
		c0.521,0,1.01,0.099,1.467,0.298c0.459,0.198,0.859,0.468,1.201,0.807c0.342,0.338,0.611,0.738,0.811,1.197
		c0.199,0.458,0.297,0.948,0.297,1.469s-0.098,1.011-0.297,1.469c-0.199,0.459-0.469,0.858-0.811,1.196
		c-0.342,0.34-0.742,0.608-1.201,0.808c-0.457,0.198-0.945,0.297-1.467,0.297c-0.52,0-1.008-0.099-1.467-0.297
		c-0.459-0.199-0.857-0.468-1.195-0.808c-0.338-0.338-0.607-0.737-0.805-1.196c-0.199-0.458-0.299-0.948-0.299-1.469
		s0.1-1.011,0.299-1.469c0.197-0.459,0.467-0.859,0.805-1.197c0.338-0.339,0.736-0.608,1.195-0.807
		C113.904,105.5,114.393,105.401,114.912,105.401z M114.918,111.206c0.281,0,0.545-0.053,0.791-0.159s0.463-0.252,0.648-0.438
		c0.184-0.185,0.33-0.4,0.436-0.646c0.105-0.247,0.158-0.511,0.158-0.791s-0.053-0.545-0.158-0.791s-0.252-0.463-0.436-0.647
		c-0.186-0.186-0.402-0.33-0.648-0.437s-0.51-0.159-0.791-0.159s-0.545,0.053-0.791,0.159s-0.463,0.251-0.646,0.437
		c-0.186,0.185-0.332,0.401-0.438,0.647c-0.107,0.246-0.158,0.511-0.158,0.791s0.051,0.544,0.158,0.791
		c0.105,0.246,0.252,0.462,0.438,0.646c0.184,0.186,0.4,0.331,0.646,0.438S114.637,111.206,114.918,111.206z"/>
	<path fill="#F9A638" stroke="#F9A738" stroke-width="0.4185" stroke-miterlimit="10" d="M127.668,105.411h1.734v7.541h-1.879
		l-2.467-4.396v4.396h-1.734v-7.521h1.889l2.457,4.388V105.411z"/>
</g>
</svg>
