<svg width="1536" height="1024" viewBox="0 0 1536 1024" fill="none" xmlns="http://www.w3.org/2000/svg">
<path d="M297.553 418.121C331.955 416.973 359.945 423.319 386.756 446.67C409.867 466.847 423.89 495.477 425.666 526.109C426.812 543.181 425.41 564.088 425.885 581.659C426.266 595.728 426.094 612.482 425.564 626.66C425.407 630.848 423.206 636.281 420.287 639.539C416.525 643.686 411.232 646.113 405.635 646.258C388.153 646.815 384.931 632.098 384.55 618.224C372.013 629.406 361.143 635.465 345.554 641.116C338.732 643.389 331.714 645.023 324.59 646C293.386 650.191 261.986 643.085 236.855 623.784C213.272 605.462 197.852 578.587 193.929 548.977C189.608 517.846 197.945 486.28 217.075 461.345C238.005 434.328 264.415 422.255 297.553 418.121ZM317.704 607.101C358.804 602.483 388.313 565.316 383.5 524.23C378.687 483.142 341.387 453.805 300.334 458.816C259.558 463.793 230.469 500.795 235.25 541.604C240.029 582.413 276.882 611.687 317.704 607.101Z" fill="#04289E"/>
<path d="M1268.74 420.408C1270.26 420.269 1271.79 420.171 1273.32 420.112C1304.08 419.211 1333.97 430.351 1356.65 451.163C1379.36 472.375 1391.62 501.328 1391.88 532.298C1392.11 558.792 1391.73 585.364 1392.05 611.862C1392.16 621.224 1393.14 632.706 1386.15 639.878C1378.4 647.827 1364.68 648.251 1356.74 640.296C1350.65 634.261 1351.19 626.33 1351.13 618.419C1335.32 631.512 1327.58 635.711 1308.2 642.556C1302.95 644.002 1293.62 645.638 1288.25 646.22C1258.07 649.448 1227.84 640.702 1204.04 621.865C1180.53 602.777 1165.63 575.072 1162.67 544.927C1155.8 479.97 1205.12 426.835 1268.74 420.408ZM1286.68 606.648C1327.04 601.363 1355.45 564.336 1350.13 523.976C1344.8 483.617 1307.75 455.231 1267.41 460.6C1227.12 465.962 1198.79 502.953 1204.11 543.253C1209.43 583.553 1246.38 611.925 1286.68 606.648Z" fill="#04289E"/>
<path d="M674.569 421.009C705.28 420.449 698.585 449.758 699.024 471.06C699.507 494.542 698.236 518.523 698.893 541.983C699.23 559.687 706.781 576.485 719.798 588.486C733.322 601.006 751.252 607.656 769.672 606.979C783.6 606.394 797.01 601.541 808.095 593.077C820.207 583.67 828.93 570.575 832.942 555.77C836.017 544.163 835.117 524.614 835.08 511.931L834.945 463.294C834.93 454.563 834.57 446.562 835.718 438.07C838.29 415.623 872.955 415.543 875.505 437.829C876.9 450.049 876.09 464.574 876.09 477.081C876.615 481.322 876.247 499.736 876.188 505.052C875.865 536.379 878.827 557.049 865.027 585.857C852.697 611.876 830.385 631.807 803.145 641.124C775.777 650.746 743.993 648.526 717.908 635.971C692.279 623.677 672.65 601.616 663.413 574.729C660.359 565.795 658.431 556.514 657.677 547.103C654.79 514.715 658.641 476.374 657.095 443.303C656.572 432.106 664.09 424.426 674.569 421.009Z" fill="#04289E"/>
<path d="M938.625 421.933C942.052 421.937 945.157 422.13 948.45 423.243C952.477 424.576 955.965 427.163 958.417 430.626C961.8 435.325 977.16 466.889 980.663 473.778L1034.2 579.757C1040.66 568.323 1048.36 552.137 1054.39 540.196L1090.39 469.319C1096.96 456.424 1103.51 442.052 1111.36 429.832C1113.1 427.126 1117.46 424.563 1120.5 423.476C1125.93 421.524 1131.91 421.878 1137.07 424.456C1161.31 436.636 1137.5 468.676 1128.83 485.033C1113.13 517.279 1095.43 550.761 1079.16 582.914L1062.67 615.504C1056.88 626.905 1052.55 640.644 1038.11 642.519C1026.4 644.04 1017.56 639.984 1011.99 629.38C1005.78 617.562 999.75 605.712 993.727 593.814L959.032 524.911C953.422 513.82 920.295 451.732 919.372 445.327C918.592 439.835 920.085 434.262 923.512 429.9C927.69 424.558 932.167 422.735 938.625 421.933Z" fill="#04289E"/>
<path d="M305.908 288.903C308.413 288.94 311.447 289.893 313.874 291.002C358.406 311.355 403.62 330.669 447.701 351.876C449.007 352.504 448.968 354.402 449.049 355.65C445.556 359.498 399.179 380.461 391.552 383.135C390.787 382.335 390.007 381.548 389.213 380.776C352.446 345.171 255.473 347.078 220.253 384.043L219.056 384.557C208.932 380.846 193.287 373.17 183.047 368.504C182.894 378.981 183.002 389.78 182.984 400.284C191.147 405.637 192.342 411.052 185.948 418.624C188.857 430.069 190.968 441.947 192.984 453.587C184.949 454.212 174.129 453.889 166.066 453.72C167.682 443.123 171.011 429.259 173.445 418.749C167.09 411.352 168.584 405.801 176.003 400.473C176.189 388.818 176.091 376.869 176.122 365.19C170.57 363.034 161.556 361.147 161.168 354.501C164.149 351.57 294.844 291.539 305.908 288.903Z" fill="#04289E"/>
<path d="M565.909 421.081C583.393 420.701 621.49 415.278 612.973 448.399C608.815 464.572 588.416 460.614 575.437 461.041C541.044 462.177 511.355 488.317 507.363 522.941C505.996 534.274 506.404 546.07 506.44 557.703L506.596 604.485C506.625 614.434 507.576 626.734 504.165 635.791C493.758 652.434 466.788 648.623 465.241 627.356C463.417 602.287 466.374 574.77 464.918 549.912C460.969 482.47 497.791 430.685 565.909 421.081Z" fill="#04289E"/>
<path d="M295.881 366.383C319.237 362.548 362.163 371.998 380.545 387.302C387.493 393.086 384.886 420.262 384.745 429.895C363.616 414.088 341.097 407.542 315.181 405.395C286.424 401.764 250.692 415.079 227.545 432.398C227.124 420.603 226.93 404.043 227.635 392.366C241.408 375.331 275.073 368.477 295.881 366.383Z" fill="#04289E"/>
</svg>
