<svg width="1231" height="359" viewBox="0 0 1231 359" fill="none" xmlns="http://www.w3.org/2000/svg">
<path d="M136.384 129.218C170.787 128.07 198.776 134.416 225.587 157.767C248.698 177.944 262.721 206.573 264.497 237.206C265.644 254.278 264.241 275.184 264.717 292.756C265.098 306.825 264.925 323.579 264.395 337.757C264.238 341.945 262.037 347.378 259.119 350.636C255.357 354.783 250.063 357.21 244.467 357.355C226.984 357.912 223.762 343.195 223.381 329.321C210.844 340.503 199.975 346.562 184.386 352.213C177.564 354.486 170.545 356.12 163.422 357.097C132.217 361.287 100.817 354.182 75.6862 334.881C52.1039 316.559 36.6831 289.684 32.7606 260.074C28.4399 228.942 36.7769 197.377 55.9064 172.442C76.8367 145.425 103.246 133.352 136.384 129.218ZM156.535 318.198C197.635 313.58 227.144 276.413 222.331 235.326C217.519 194.239 180.219 164.902 139.165 169.913C98.3894 174.89 69.3006 211.892 74.0811 252.701C78.8609 293.51 115.714 322.784 156.535 318.198Z" fill="#04289E"/>
<path d="M1107.57 131.505C1109.09 131.366 1110.62 131.268 1112.15 131.209C1142.91 130.307 1172.8 141.448 1195.48 162.26C1218.19 183.472 1230.45 212.425 1230.71 243.395C1230.94 269.889 1230.56 296.461 1230.88 322.959C1230.99 332.321 1231.97 343.803 1224.98 350.975C1217.23 358.924 1203.51 359.348 1195.57 351.393C1189.48 345.358 1190.02 337.427 1189.96 329.516C1174.15 342.609 1166.41 346.808 1147.03 353.653C1141.78 355.099 1132.45 356.735 1127.08 357.317C1096.9 360.545 1066.67 351.799 1042.87 332.962C1019.36 313.874 1004.46 286.169 1001.5 256.024C994.627 191.067 1043.95 137.932 1107.57 131.505ZM1125.51 317.745C1165.87 312.46 1194.28 275.433 1188.96 235.073C1183.63 194.714 1146.58 166.328 1106.24 171.697C1065.95 177.059 1037.62 214.05 1042.94 254.35C1048.26 294.65 1085.21 323.022 1125.51 317.745Z" fill="#04289E"/>
<path d="M513.4 132.106C544.112 131.545 537.417 160.855 537.856 182.157C538.339 205.639 537.068 229.62 537.724 253.08C538.062 270.784 545.613 287.582 558.63 299.583C572.153 312.103 590.084 318.753 608.504 318.076C622.432 317.491 635.842 312.638 646.927 304.174C659.039 294.767 667.762 281.672 671.774 266.866C674.849 255.26 673.949 235.711 673.911 223.028L673.777 174.391C673.762 165.66 673.402 157.659 674.549 149.166C677.122 126.72 711.787 126.64 714.337 148.926C715.732 161.146 714.922 175.671 714.922 188.178C715.447 192.419 715.079 210.833 715.019 216.149C714.697 247.476 717.659 268.146 703.859 296.954C691.529 322.973 669.217 342.904 641.977 352.221C614.609 361.843 582.825 359.623 556.74 347.068C531.111 334.774 511.481 312.713 502.245 285.826C499.19 276.892 497.263 267.611 496.509 258.2C493.621 225.812 497.473 187.471 495.927 154.4C495.403 143.203 502.921 135.523 513.4 132.106Z" fill="#04289E"/>
<path d="M777.457 133.03C780.884 133.034 783.989 133.227 787.282 134.34C791.309 135.673 794.797 138.26 797.249 141.723C800.632 146.422 815.992 177.986 819.494 184.875L873.029 290.854C879.487 279.42 887.197 263.234 893.227 251.293L929.219 180.416C935.797 167.521 942.344 153.148 950.196 140.929C951.936 138.223 956.294 135.66 959.332 134.573C964.762 132.621 970.747 132.975 975.907 135.553C1000.14 147.733 976.334 179.772 967.664 196.129C951.967 228.376 934.267 261.857 917.992 294.011L901.499 326.601C895.717 338.002 891.382 351.741 876.944 353.616C865.229 355.137 856.394 351.081 850.821 340.477C844.611 328.659 838.582 316.809 832.559 304.91L797.864 236.008C792.254 224.917 759.126 162.829 758.204 156.424C757.424 150.932 758.917 145.359 762.344 140.997C766.522 135.655 770.999 133.832 777.457 133.03Z" fill="#04289E"/>
<path d="M144.739 0C147.244 0.036759 150.279 0.990245 152.705 2.09902C197.237 22.4522 242.452 41.7657 286.533 62.9734C287.839 63.6013 287.8 65.4993 287.881 66.7468C284.388 70.5945 238.01 91.5576 230.383 94.232C229.618 93.4316 228.838 92.6446 228.044 91.8727C191.278 56.2675 94.305 58.1745 59.085 95.1397L57.888 95.6544C47.7638 91.9424 32.1187 84.2666 21.8782 79.6004C21.7252 90.0775 21.834 100.877 21.8152 111.38C29.979 116.734 31.1737 122.149 24.7792 129.721C27.6885 141.166 29.7998 153.044 31.8158 164.684C23.781 165.309 12.9607 164.986 4.8975 164.817C6.51375 154.22 9.84224 140.356 12.2767 129.845C5.92199 122.449 7.41524 116.898 14.8342 111.57C15.0202 99.9147 14.9227 87.9657 14.9535 76.2869C9.40199 74.1309 0.38775 72.2442 0 65.5975C2.9805 62.6666 133.675 2.63614 144.739 0Z" fill="#04289E"/>
<path d="M404.74 132.178C422.224 131.798 460.321 126.375 451.805 159.496C447.647 175.669 427.248 171.711 414.268 172.138C379.876 173.273 350.187 199.414 346.194 234.037C344.828 245.371 345.235 257.167 345.271 268.799L345.427 315.582C345.456 325.531 346.407 337.831 342.996 346.888C332.589 363.531 305.619 359.719 304.072 338.453C302.248 313.384 305.205 285.867 303.75 261.009C299.8 193.567 336.623 141.781 404.74 132.178Z" fill="#04289E"/>
<path d="M134.712 77.4803C158.068 73.6447 200.994 83.0947 219.377 98.3992C226.324 104.183 223.718 131.358 223.577 140.992C202.447 125.184 179.928 118.639 154.013 116.492C125.256 112.861 89.5234 126.176 66.3761 143.495C65.9554 131.7 65.7611 115.14 66.4661 103.463C80.2391 86.4278 113.904 79.5741 134.712 77.4803Z" fill="#04289E"/>
</svg>
