<svg width="1040" height="327" viewBox="0 0 1040 327" fill="none" xmlns="http://www.w3.org/2000/svg">
<path d="M137.354 151.958C149.178 152.112 159.485 154.653 169.69 160.848C182.927 168.839 192.41 181.795 196.017 196.833C198.557 207.493 198.276 218.631 195.202 229.145C191.127 242.793 176.925 263.721 169.057 276.604L138.425 326.991C135.801 325.148 87.9573 245.597 84.3955 238.005C65.888 198.548 92.0732 154.001 137.354 151.958ZM142.939 248.555C163.581 245.885 178.133 226.965 175.415 206.33C172.697 185.695 153.74 171.184 133.112 173.951C112.552 176.713 98.1031 195.59 100.812 216.158C103.521 236.725 122.366 251.218 142.939 248.555Z" fill="#0A2352"/>
<path d="M136.166 200.446C142.043 199.368 147.697 203.201 148.873 209.061C150.049 214.921 146.312 220.64 140.475 221.913C136.61 222.758 132.591 221.448 129.96 218.497C127.33 215.539 126.498 211.394 127.785 207.653C129.07 203.911 132.275 201.156 136.166 200.446Z" fill="#0264FC"/>
<path d="M566.836 100.907C575.451 100.882 585.297 100.647 593.796 101.145C598.755 106.709 605.442 115.787 610.212 121.906L641.807 162.759C652.797 146.621 666.317 131.247 677.859 115.435C681.374 110.623 685.427 105.495 689.279 100.951C698.151 100.763 707.623 100.928 716.551 100.924L716.514 226.72C708.927 226.769 701.341 226.757 693.754 226.683L693.718 150.61L693.748 131.945C687.16 140.161 646.233 195.033 641.194 196.962C636.847 192.933 627.411 180.264 623.168 174.845L589.087 131.522C589.767 139.264 589.369 155.528 589.381 163.683L589.301 226.787C581.807 226.891 574.318 226.818 566.824 226.561C565.758 186.724 566.475 140.954 566.836 100.907Z" fill="#0A2352"/>
<path d="M914.117 100.902L968.918 100.88C979.872 100.879 999.35 100.152 1009.34 102.572C1016.06 104.161 1022.23 107.544 1027.18 112.36C1043.91 128.645 1043.92 158.791 1027.49 175.335C1013.13 189.804 992.608 187.214 973.878 187.189L937.182 187.11C937.262 197.886 937.93 216.647 937.115 226.714L914.16 226.805C914.044 206.299 914.043 185.799 914.148 165.299C933.637 164.595 954.7 165.606 974.331 165.226C983.075 164.926 992.192 165.887 1000.86 164.608C1022.35 161.424 1022.41 126.455 1000.68 123.371C996.858 122.828 994.053 122.656 990.171 122.617C964.871 122.369 939.448 123.128 914.16 122.6C913.982 115.557 914.105 107.987 914.117 100.902Z" fill="#0A2352"/>
<path d="M460.535 101.1C466.256 100.522 480.693 100.888 486.816 100.889L537.323 100.914C535.192 106.936 530.851 116.653 527.991 122.325C514.98 123.905 498.827 122.035 485.472 122.647C475.246 123.117 465.126 121.553 454.976 124.336C448.687 126.079 442.955 129.418 438.337 134.03C418.675 153.482 422.769 188.953 448.537 200.985C458.711 205.73 468.254 205.05 479.198 205.032L503.726 204.958C511.833 204.922 519.903 204.818 528.004 205.154C530.777 210.083 535.155 221.166 537.219 226.61C523.717 227.179 509.224 226.965 495.662 226.818C470.076 226.536 447.868 230.345 426.336 213.353C413.329 202.913 405.086 187.667 403.475 171.067C401.475 153.88 406.521 136.614 417.462 123.207C428.892 109.334 442.894 102.833 460.535 101.1Z" fill="#0A2352"/>
<path d="M785.857 146.639C789.953 139.247 809.866 104.244 815.052 100.729C820.158 100.254 821.769 102.33 824.31 106.511C829.6 115.201 834.633 124.057 839.905 132.759C850.964 150.672 861.905 168.655 872.731 186.712L887.518 211.369C890.267 215.943 894.358 222.195 896.354 226.946C888.332 226.922 878.964 227.13 871.053 226.805C857.705 206.293 845.343 183.026 832.282 162.171C827.91 155.201 821.31 142.685 816.791 136.68C811.017 146.646 805.132 156.545 799.126 166.371C799.095 166.169 799.058 165.967 799.022 165.765C800.43 160.285 790.1 151.36 787.927 146.903C787.81 146.628 787.694 146.353 787.584 146.077L786.886 146.879L785.857 146.639Z" fill="#0262F3"/>
<path d="M348.16 138.209L371.026 138.225C371.127 147.228 371.56 224.656 370.353 226.597C362.878 226.848 355.652 226.757 348.179 226.677C347.97 222.146 347.907 217.554 347.959 213.023C348.244 188.157 347.414 163.046 348.16 138.209Z" fill="#0A2352"/>
<path d="M785.857 146.64L786.886 146.879L787.584 146.077C787.694 146.353 787.81 146.628 787.927 146.903C790.101 151.36 800.43 160.285 799.022 165.765C799.059 165.967 799.095 166.169 799.126 166.371C796.456 171.153 793.646 175.856 790.707 180.472C789.984 182.285 783.616 192.657 782.202 195.015L763.245 226.634C756.167 227.093 745.317 226.726 737.853 226.763C743.823 215.808 751.372 203.844 757.838 193.067C764.72 181.593 771.958 169.022 779.171 157.823C779.716 156.13 784.608 148.464 785.857 146.64Z" fill="#082D6C"/>
<path d="M785.857 146.64L786.886 146.879L787.584 146.077C787.694 146.353 787.811 146.628 787.927 146.903C790.101 151.36 800.43 160.285 799.022 165.765C799.059 165.967 799.095 166.169 799.126 166.371C796.456 171.153 793.646 175.856 790.707 180.472C790.064 180.307 789.721 180.019 789.115 179.67C786.206 173.921 781.191 169.102 777.414 163.616C778.381 161.301 778.804 160.285 779.171 157.823C779.716 156.13 784.608 148.464 785.857 146.64Z" fill="#0442A7"/>
<path d="M135.849 101.732C136.01 101.709 136.171 101.686 136.332 101.663C159.596 101.55 176.74 108.706 193.535 123.186C190.588 126.461 188.15 128.57 184.849 131.481C170.294 120.282 158.833 115.195 140.179 114.062C121.749 112.97 105.874 121.072 91.4811 131.489C88.0614 128.457 86.1167 126.669 83.0986 123.273C94.8169 109.613 118.574 102.947 135.849 101.732Z" fill="#0264FC"/>
<path d="M86.2054 144.187C87.9505 145.49 88.6736 145.987 89.1139 147.756C85.9918 151.521 39.7487 183.81 33.6887 187.673C36.4704 194.341 37.2682 201.064 33.0574 207.371C30.4178 211.388 26.2412 214.149 21.5063 215.006C15.4843 216.096 10.6207 214.247 5.79699 210.83C2.9908 207.916 1.31492 205.314 0.427074 201.279C-0.659154 196.331 0.347479 191.145 3.20939 186.963C5.99354 182.916 10.3201 180.185 15.1757 179.419C21.4004 178.409 25.9339 180.509 30.7257 184.14C49.079 170.633 67.5736 157.309 86.2054 144.187Z" fill="#026487"/>
<path d="M190.308 143.97C194.181 144.557 240.483 171.6 247.932 175.862C254.539 169.996 261.924 166.683 270.572 170.816C274.942 172.917 278.244 176.737 279.685 181.366C281.65 187.759 280.08 192.345 277.181 197.856C275.998 199.27 274.015 201.113 272.483 202.105C268.37 204.781 263.342 205.663 258.566 204.536C246.75 201.707 242.925 191.163 245.822 180.166L209.946 160.248C202.756 156.27 194.705 152.16 187.884 147.795C187.914 146.032 188.795 145.716 190.308 143.97Z" fill="#026487"/>
<path d="M159.762 0.00969623C181.619 -0.641184 188.687 31.6787 161.033 36.0469C160.597 50.5946 157.039 77.5899 155.226 92.7046L154.781 93.0947C152.8 92.9526 151.859 93.1186 150.407 91.8046C150.14 87.3764 151.546 78.711 152.036 73.9094C153.315 61.3455 155.176 48.6273 156.192 36.0481C136.79 26.6835 138.856 3.58678 159.762 0.00969623Z" fill="#0264FC"/>
<path d="M130.478 11.7298C131.949 11.5308 135.567 11.4733 137.211 11.3955C136.46 15.97 136.458 17.9472 137.003 22.4152C133.151 22.4733 129.302 22.7164 125.473 23.1426C92.1766 26.4864 61.6042 43.0192 40.5771 69.0513C37.6662 65.0371 36.4856 64.1523 32.0691 61.8996C33.7811 59.6978 35.5709 57.5578 37.4359 55.4845C60.796 29.3575 95.6692 13.7737 130.478 11.7298Z" fill="#0A2352"/>
<path d="M248.485 206.844C252.64 209.086 253.788 209.698 258.297 211.045C245.77 236.994 225.856 254.886 200.64 267.995L192.32 271.767C194.415 268.442 202.932 254.2 204.986 252.829C224.87 239.511 235.743 227.865 248.485 206.844Z" fill="#026487"/>
<path d="M12.7044 93.1658L14.7348 94.3873C17.6714 96.193 18.6597 97.0319 22.0714 97.6644C21.9043 100.263 17.3818 111.653 16.4474 115.027C14.5168 121.997 13.5334 127.435 12.8017 134.709C12.0302 142.827 11.9188 150.993 12.4686 159.128C12.6885 162.336 14.4978 170.951 13.8353 172.825L12.0119 173.333C8.35825 174.57 7.70185 174.98 4.44745 177.001C-2.23647 145.908 0.74301 122.234 12.7044 93.1658Z" fill="#0A2352"/>
<path d="M131.218 126.163C142.981 124.849 155.18 126.867 165.867 131.909C169.446 133.599 174.138 135.308 174.326 139.763C172.388 142.439 169.041 144.708 166.36 146.792C158.814 142.039 154.61 139.907 145.824 138.395C130.452 137.209 123.048 138.868 109.953 146.629C105.892 143.841 104.307 142.526 100.688 139.161C108.739 131.643 120.452 127.591 131.218 126.163Z" fill="#0264FC"/>
<path d="M185.488 19.5802C212.502 29.3875 229.379 43.3988 247.531 64.9661C245.294 66.2464 243.825 67.3179 241.723 68.8328C240.632 70.219 240.706 70.249 239.235 71.173C238.748 71.0542 238.261 70.9354 237.773 70.8166C227.314 57.5504 213.257 45.5046 198.522 37.5924C191.778 33.9706 187.861 32.4104 182.364 30.1743C183.962 25.9561 184.495 23.9968 185.488 19.5802Z" fill="#026487"/>
<path d="M265.127 97.1689C271.019 102.235 276.507 139.711 275.613 148.325C275.07 153.573 274.916 160.272 274.237 165.618C272.59 164.852 270.771 164.203 269.067 163.554C268.008 163.407 264.785 163.022 264.494 162.581C263.092 160.432 264.684 147.192 264.541 144.073C263.834 128.727 260.873 115.673 255.397 101.49C260.027 100.155 261.208 99.6029 265.127 97.1689Z" fill="#026487"/>
<path d="M23.0052 66.6143C34.1601 66.1092 39.6078 73.9712 36.7416 84.4734C42.1201 87.9164 77.5468 109.725 78.6606 112.739C75.765 116.435 72.4616 113.88 69.6028 111.829C61.1775 105.272 43.5798 94.4301 34.1693 88.2109C32.7512 89.1729 31.5658 89.9493 29.9616 90.5971C26.8915 91.8352 23.4491 91.7678 20.4304 90.4103C17.1681 88.9359 14.6827 86.1487 13.5898 82.7394C10.9862 74.706 15.674 69.1425 23.0052 66.6143Z" fill="#026487"/>
<path d="M33.5786 215.87C34.6238 216.592 38.125 221.43 39.1494 222.813C45.1322 230.89 50.011 236.609 58.012 242.719C61.4967 245.377 70.1669 251.09 72.4287 254.016C76.1393 258.811 79.1065 265.246 82.9439 270.567L83.4637 271.283C81.5098 270.187 78.7839 269.048 76.6947 268.099C52.4774 255.333 39.6306 243.405 24.3892 221.044C28.9416 219.084 29.6409 218.674 33.5786 215.87Z" fill="#0A2352"/>
<path d="M251.144 70.3611C254.467 70.3053 256.702 70.3396 259.697 72.0449C262.599 73.6663 264.662 76.4608 265.357 79.7122C266.151 83.2397 265.439 86.938 263.392 89.9181C258.389 97.1776 250.293 95.8703 243.988 91.1824C233.066 97.6404 222.033 103.912 210.896 109.994C207.631 111.951 200.356 118.096 197.753 112.676C200.499 109.527 235.424 90.9437 241.716 87.4664C240.563 78.0693 242.32 74.0729 251.144 70.3611Z" fill="#026487"/>
<path d="M347.817 100.81C354.775 100.431 364.176 100.744 371.315 100.793C371.371 108.534 371.424 115.68 371.05 123.417C363.45 123.613 355.452 123.529 347.817 123.564V100.81Z" fill="#0264FC"/>
</svg>
