<svg width="114" height="122" viewBox="0 0 114 122" fill="none" xmlns="http://www.w3.org/2000/svg">
<rect width="114" height="122" fill="#F4F4FF"/>
<rect x="0.5" y="0.5" width="113" height="121" rx="7.5" fill="#F4F4FF"/>
<rect x="0.5" y="0.5" width="113" height="121" rx="7.5" stroke="#A1A1AA"/>
<path d="M57.5398 75.8199C57.2798 75.8199 57.1465 75.6865 57.1465 75.4265V52.7532C57.1465 52.4932 57.2798 52.3599 57.5398 52.3599H60.3665C60.6265 52.3599 60.7598 52.4932 60.7598 52.7532V59.3065C60.7598 60.0199 60.7531 60.7465 60.7398 61.4732C60.7265 62.1999 60.7065 62.9132 60.6865 63.6065H60.7198C61.2465 62.9865 61.7731 62.3665 62.2931 61.7465C62.8198 61.1265 63.3531 60.5065 63.9065 59.8865L70.3531 52.5799C70.4465 52.4399 70.6065 52.3665 70.8198 52.3665H74.4398C74.5798 52.3665 74.6931 52.4065 74.7598 52.4932C74.8331 52.5799 74.7931 52.6932 74.6531 52.8332L66.4865 61.8932L75.3665 75.3599C75.4398 75.4999 75.4531 75.6199 75.3998 75.6999C75.3531 75.7865 75.2598 75.8265 75.1131 75.8265H71.5331C71.3398 75.8265 71.1865 75.7399 71.0665 75.5732L64.0132 64.6865L60.7531 68.2665V75.4265C60.7531 75.6865 60.6198 75.8199 60.3598 75.8199H57.5398Z" fill="#0D0C0C"/>
<path d="M81.3929 76.2532C79.9862 76.2532 78.9062 75.8265 78.1729 74.9798C77.4329 74.1332 77.0596 72.9065 77.0596 71.3065C77.0596 70.0665 77.2996 69.0532 77.7729 68.2598C78.2529 67.4732 79.0329 66.8598 80.1196 66.4332C81.2062 66.0065 82.6529 65.7198 84.4729 65.5732L87.8396 65.2865L87.8062 67.7198L84.5862 68.0065C83.0796 68.1265 82.0396 68.3998 81.4529 68.8332C80.8662 69.2598 80.5729 69.9798 80.5729 70.9798C80.5729 71.7465 80.7262 72.3198 81.0396 72.6998C81.3529 73.0798 81.8262 73.2732 82.4729 73.2732C83.2129 73.2732 83.9862 73.0198 84.7996 72.5198C85.6129 72.0198 86.6596 71.0998 87.9529 69.7598L88.0262 72.5198C87.2129 73.3798 86.4529 74.0865 85.7529 74.6332C85.0462 75.1798 84.3462 75.5865 83.6396 75.8532C82.9262 76.1198 82.1796 76.2532 81.3929 76.2532ZM88.2329 75.8198C88.0929 75.8198 87.9862 75.7732 87.9262 75.6798C87.8662 75.5865 87.8129 75.4665 87.7662 75.3198C87.7396 75.1065 87.6862 74.6998 87.6062 74.0998C87.5196 73.5065 87.4662 72.9398 87.4462 72.4198L87.2662 71.0198V63.8932C87.2662 62.7732 87.0462 61.9798 86.6062 61.5132C86.1662 61.0465 85.3929 60.8132 84.2929 60.8132C82.2862 60.8132 81.2929 61.5198 81.3196 62.9265C81.3196 63.1865 81.1996 63.3198 80.9596 63.3198H78.1996C77.9396 63.3198 77.7929 63.1065 77.7729 62.6732C77.6529 61.1932 78.1929 60.0198 79.3862 59.1465C80.5796 58.2732 82.2529 57.8398 84.3996 57.8398C86.5929 57.8398 88.2196 58.3332 89.2729 59.3265C90.3262 60.3198 90.8462 61.8265 90.8462 63.8598V71.4198C90.8462 72.2332 90.8729 72.9732 90.9196 73.6398C90.9662 74.3065 91.0262 74.8932 91.0996 75.3932C91.1462 75.6798 91.0129 75.8198 90.7062 75.8198H88.2329Z" fill="#0D0C0C"/>
<path d="M97.6535 55.5132C96.9135 55.5132 96.3668 55.3132 96.0068 54.9199C95.6468 54.5265 95.4668 54.0199 95.4668 53.3999V52.9732C95.4668 52.3265 95.6468 51.8132 96.0068 51.4332C96.3668 51.0532 96.9135 50.8599 97.6535 50.8599C98.4201 50.8599 98.9735 51.0532 99.3201 51.4332C99.6668 51.8132 99.8401 52.3265 99.8401 52.9732V53.3999C99.8401 54.0199 99.6668 54.5265 99.3201 54.9199C98.9668 55.3199 98.4135 55.5132 97.6535 55.5132ZM96.2535 75.8199C95.9935 75.8199 95.8601 75.6865 95.8601 75.4265V58.6665C95.8601 58.4065 95.9935 58.2732 96.2535 58.2732H99.0468C99.3068 58.2732 99.4401 58.4065 99.4401 58.6665V75.4265C99.4401 75.6865 99.3068 75.8199 99.0468 75.8199H96.2535Z" fill="#0D0C0C"/>
<path d="M37.22 46H30.4933L14 75.7333H20.4067C20.4467 75.6667 20.4867 75.6 20.5267 75.5333C24.6867 67.96 28.8933 60.4133 33.0867 52.8533L33.76 51.64C34.6867 53.6933 35.4667 55.5133 36.3333 57.2933C36.68 58.0133 36.7 58.5733 36.2667 59.2667C35.4133 60.6533 34.6667 62.1067 33.8 63.6733C35.4067 63.6733 36.8267 63.7067 38.2467 63.6667C38.8333 63.6467 39.1533 63.8267 39.3667 64.3933C39.7467 65.3933 40.2 66.3667 40.6333 67.3467C40.98 68.1333 41.3333 68.92 41.7333 69.8267C39.8133 69.8067 38.12 69.7933 36.3133 69.7733C37.1867 71.8533 37.9867 73.8067 38.8267 75.7333H50.3L37.22 46Z" fill="#903E8E"/>
<path d="M32.22 75.7264C31.4867 73.9931 30.7934 72.3531 30.0467 70.5864L27.1934 75.7264H32.22Z" fill="#903E8E"/>
<path d="M45.8136 65.4202C45.5469 64.7602 45.2403 64.1402 44.9336 63.5269L46.2136 66.4269C46.0736 66.0935 45.9403 65.7602 45.8136 65.4202Z" fill="#903E8E"/>
<path d="M40.66 53.9065C41.04 54.7465 41.42 55.5732 41.7933 56.3865L39.8066 51.8599C40.0866 52.5465 40.3733 53.2265 40.66 53.9065Z" fill="#903E8E"/>
<path d="M37.2197 46L39.7997 51.8733C38.9731 49.8933 38.1531 47.92 37.2397 46H37.2197Z" fill="#903E8E"/>
<path d="M41.793 56.3936L43.6596 60.6402C43.073 59.2069 42.4396 57.8069 41.793 56.3936Z" fill="#903E8E"/>
<path d="M44.9335 63.5268L43.6602 60.6401C43.8068 61.0001 43.9535 61.3601 44.0935 61.7268C44.3468 62.3535 44.6402 62.9401 44.9335 63.5268Z" fill="#903E8E"/>
<path d="M47.4004 69.1401L49.6204 74.1935C48.9604 72.4535 48.1671 70.8068 47.4004 69.1401Z" fill="#903E8E"/>
<path d="M46.207 66.4268C46.5804 67.3468 46.987 68.2468 47.4004 69.1401L46.207 66.4268Z" fill="#903E8E"/>
<mask id="mask0_33440_172048" style="mask-type:luminance" maskUnits="userSpaceOnUse" x="40" y="46" width="8" height="7">
<path d="M43.9532 46C42.1532 46 40.6865 47.46 40.6865 49.2667C40.6865 51.0733 42.1465 52.5333 43.9532 52.5333C45.7599 52.5333 47.2199 51.0733 47.2199 49.2667C47.2199 47.46 45.7599 46 43.9532 46Z" fill="white"/>
</mask>
<g mask="url(#mask0_33440_172048)">
<path d="M40.6934 46H47.2267V52.5333H40.6934V46Z" fill="#903E8E"/>
</g>
</svg>
