<svg width="38" height="31" viewBox="0 0 38 31" fill="none" xmlns="http://www.w3.org/2000/svg">
<path d="M23.8333 0H16.9267L0 30.5133H6.58C6.62 30.4467 6.66 30.38 6.7 30.3067C10.9733 22.5333 15.2867 14.7867 19.5933 7.02667L20.2867 5.78C21.2333 7.88667 22.04 9.76 22.9267 11.5867C23.2867 12.3267 23.3 12.9 22.86 13.6133C21.9867 15.04 21.22 16.5267 20.3267 18.14C21.98 18.14 23.4333 18.1733 24.8867 18.1333C25.4867 18.1133 25.82 18.3 26.0333 18.8733C26.42 19.9 26.8933 20.8933 27.3333 21.9067C27.6867 22.7133 28.0533 23.52 28.46 24.4467C26.4867 24.4267 24.7533 24.4133 22.9 24.3933C23.7933 26.5333 24.6133 28.5333 25.48 30.5067H37.2533L23.8333 0Z" fill="#903E8E"/>
<path d="M18.6934 30.5136C17.94 28.7336 17.2334 27.0469 16.4667 25.2402L13.54 30.5136H18.6934Z" fill="#903E8E"/>
<path d="M32.6467 19.9335C32.3733 19.2535 32.06 18.6201 31.74 17.9868L33.0533 20.9668C32.9133 20.6268 32.78 20.2801 32.6467 19.9335Z" fill="#903E8E"/>
<path d="M27.36 8.12019C27.7466 8.98019 28.14 9.82685 28.52 10.6669L26.48 6.02686C26.7733 6.72019 27.06 7.42019 27.36 8.12019Z" fill="#903E8E"/>
<path d="M23.8333 0L26.4866 6.02667C25.6399 3.99333 24.7999 1.97333 23.8599 0H23.8333Z" fill="#903E8E"/>
<path d="M28.52 10.6665L30.4334 15.0265C29.8334 13.5532 29.1867 12.1198 28.52 10.6665Z" fill="#903E8E"/>
<path d="M31.74 17.9867L30.4333 15.02C30.5867 15.3934 30.7334 15.76 30.88 16.14C31.1467 16.7867 31.44 17.3867 31.74 17.9867Z" fill="#903E8E"/>
<path d="M34.28 23.7534L36.56 28.9401C35.88 27.1534 35.0667 25.4601 34.28 23.7534Z" fill="#903E8E"/>
<path d="M33.0532 20.9668C33.4399 21.9068 33.8532 22.8335 34.2799 23.7535L33.0532 20.9668Z" fill="#903E8E"/>
<mask id="mask0_242_115" style="mask-type:luminance" maskUnits="userSpaceOnUse" x="27" y="0" width="8" height="7">
<path d="M30.7401 0C28.8867 0 27.3867 1.5 27.3867 3.35333C27.3867 5.20667 28.8867 6.70667 30.7401 6.70667C32.5934 6.70667 34.0934 5.20667 34.0934 3.35333C34.0934 1.5 32.5934 0 30.7401 0Z" fill="white"/>
</mask>
<g mask="url(#mask0_242_115)">
<path d="M27.3933 0H34.0933V6.7H27.3933V0Z" fill="#903E8E"/>
</g>
</svg>
