<svg width="90" height="40" viewBox="0 0 90 40" fill="none" xmlns="http://www.w3.org/2000/svg">
<path d="M45.5398 34.82C45.2798 34.82 45.1465 34.6867 45.1465 34.4267V11.7533C45.1465 11.4933 45.2798 11.36 45.5398 11.36H48.3665C48.6265 11.36 48.7598 11.4933 48.7598 11.7533V18.3067C48.7598 19.02 48.7531 19.7467 48.7398 20.4733C48.7265 21.2 48.7065 21.9133 48.6865 22.6067H48.7198C49.2465 21.9867 49.7731 21.3667 50.2931 20.7467C50.8198 20.1267 51.3531 19.5067 51.9065 18.8867L58.3531 11.58C58.4465 11.44 58.6065 11.3667 58.8198 11.3667H62.4398C62.5798 11.3667 62.6931 11.4067 62.7598 11.4933C62.8331 11.58 62.7931 11.6933 62.6531 11.8333L54.4865 20.8933L63.3665 34.36C63.4398 34.5 63.4531 34.62 63.3998 34.7C63.3531 34.7867 63.2598 34.8267 63.1131 34.8267H59.5331C59.3398 34.8267 59.1865 34.74 59.0665 34.5733L52.0132 23.6867L48.7531 27.2667V34.4267C48.7531 34.6867 48.6198 34.82 48.3598 34.82H45.5398Z" fill="#FFFFFF"/>
<path d="M69.3929 35.2533C67.9862 35.2533 66.9062 34.8267 66.1729 33.98C65.4329 33.1333 65.0596 31.9067 65.0596 30.3067C65.0596 29.0667 65.2996 28.0533 65.7729 27.26C66.2529 26.4733 67.0329 25.86 68.1196 25.4333C69.2062 25.0067 70.6529 24.72 72.4729 24.5733L75.8396 24.2867L75.8062 26.72L72.5862 27.0067C71.0796 27.1267 70.0396 27.4 69.4529 27.8333C68.8662 28.26 68.5729 28.98 68.5729 29.98C68.5729 30.7467 68.7262 31.32 69.0396 31.7C69.3529 32.08 69.8262 32.2733 70.4729 32.2733C71.2129 32.2733 71.9862 32.02 72.7996 31.52C73.6129 31.02 74.6596 30.1 75.9529 28.76L76.0262 31.52C75.2129 32.38 74.4529 33.0867 73.7529 33.6333C73.0462 34.18 72.3462 34.5867 71.6396 34.8533C70.9262 35.12 70.1796 35.2533 69.3929 35.2533ZM76.2329 34.82C76.0929 34.82 75.9862 34.7733 75.9262 34.68C75.8662 34.5867 75.8129 34.4667 75.7662 34.32C75.7396 34.1067 75.6862 33.7 75.6062 33.1C75.5196 32.5067 75.4662 31.94 75.4462 31.42L75.2662 30.02V22.8933C75.2662 21.7733 75.0462 20.98 74.6062 20.5133C74.1662 20.0467 73.3929 19.8133 72.2929 19.8133C70.2862 19.8133 69.2929 20.52 69.3196 21.9267C69.3196 22.1867 69.1996 22.32 68.9596 22.32H66.1996C65.9396 22.32 65.7929 22.1067 65.7729 21.6733C65.6529 20.1933 66.1929 19.02 67.3862 18.1467C68.5796 17.2733 70.2529 16.84 72.3996 16.84C74.5929 16.84 76.2196 17.3333 77.2729 18.3267C78.3262 19.32 78.8462 20.8267 78.8462 22.86V30.42C78.8462 31.2333 78.8729 31.9733 78.9196 32.64C78.9662 33.3067 79.0262 33.8933 79.0996 34.3933C79.1462 34.68 79.0129 34.82 78.7062 34.82H76.2329Z" fill="#FFFFFF"/>
<path d="M85.6535 14.5133C84.9135 14.5133 84.3668 14.3133 84.0068 13.92C83.6468 13.5267 83.4668 13.02 83.4668 12.4V11.9733C83.4668 11.3267 83.6468 10.8133 84.0068 10.4333C84.3668 10.0533 84.9135 9.86 85.6535 9.86C86.4201 9.86 86.9735 10.0533 87.3201 10.4333C87.6668 10.8133 87.8401 11.3267 87.8401 11.9733V12.4C87.8401 13.02 87.6668 13.5267 87.3201 13.92C86.9668 14.32 86.4135 14.5133 85.6535 14.5133ZM84.2535 34.82C83.9935 34.82 83.8601 34.6867 83.8601 34.4267V17.6667C83.8601 17.4067 83.9935 17.2733 84.2535 17.2733H87.0468C87.3068 17.2733 87.4401 17.4067 87.4401 17.6667V34.4267C87.4401 34.6867 87.3068 34.82 87.0468 34.82H84.2535Z" fill="#FFFFFF"/>
<path d="M25.22 5H18.4933L2 34.7333H8.40667C8.44667 34.6667 8.48667 34.6 8.52667 34.5333C12.6867 26.96 16.8933 19.4133 21.0867 11.8533L21.76 10.64C22.6867 12.6933 23.4667 14.5133 24.3333 16.2933C24.68 17.0133 24.7 17.5733 24.2667 18.2667C23.4133 19.6533 22.6667 21.1067 21.8 22.6733C23.4067 22.6733 24.8267 22.7067 26.2467 22.6667C26.8333 22.6467 27.1533 22.8267 27.3667 23.3933C27.7467 24.3933 28.2 25.3667 28.6333 26.3467C28.98 27.1333 29.3333 27.92 29.7333 28.8267C27.8133 28.8067 26.12 28.7933 24.3133 28.7733C25.1867 30.8533 25.9867 32.8067 26.8267 34.7333H38.3L25.22 5Z" fill="#903E8E"/>
<path d="M20.22 34.7267C19.4867 32.9933 18.7934 31.3533 18.0467 29.5867L15.1934 34.7267H20.22Z" fill="#903E8E"/>
<path d="M33.8136 24.42C33.5469 23.76 33.2403 23.14 32.9336 22.5267L34.2136 25.4267C34.0736 25.0933 33.9403 24.76 33.8136 24.42Z" fill="#903E8E"/>
<path d="M28.66 12.9067C29.04 13.7467 29.42 14.5733 29.7933 15.3867L27.8066 10.86C28.0866 11.5467 28.3733 12.2267 28.66 12.9067Z" fill="#903E8E"/>
<path d="M25.2197 5L27.7997 10.8733C26.9731 8.89333 26.1531 6.92 25.2397 5H25.2197Z" fill="#903E8E"/>
<path d="M29.793 15.3933L31.6596 19.64C31.073 18.2067 30.4396 16.8067 29.793 15.3933Z" fill="#903E8E"/>
<path d="M32.9335 22.5267L31.6602 19.64C31.8068 20 31.9535 20.36 32.0935 20.7267C32.3468 21.3533 32.6402 21.94 32.9335 22.5267Z" fill="#903E8E"/>
<path d="M35.4004 28.14L37.6204 33.1933C36.9604 31.4533 36.1671 29.8067 35.4004 28.14Z" fill="#903E8E"/>
<path d="M34.207 25.4267C34.5804 26.3467 34.987 27.2467 35.4004 28.14L34.207 25.4267Z" fill="#903E8E"/>
<mask id="mask0_33423_23224" style="mask-type:luminance" maskUnits="userSpaceOnUse" x="28" y="5" width="8" height="7">
<path d="M31.9532 5C30.1532 5 28.6865 6.46 28.6865 8.26667C28.6865 10.0733 30.1465 11.5333 31.9532 11.5333C33.7599 11.5333 35.2199 10.0733 35.2199 8.26667C35.2199 6.46 33.7599 5 31.9532 5Z" fill="white"/>
</mask>
<g mask="url(#mask0_33423_23224)">
<path d="M28.6934 5H35.2267V11.5333H28.6934V5Z" fill="#903E8E"/>
</g>
</svg>
