<svg role="img" viewBox="0 0 24 24" xmlns="http://www.w3.org/2000/svg"><title>Blackboard</title>
<!-- B -->
<path d="M2 2h5.5C9.4 2 11 3.6 11 5.5c0 1.1-.5 2-1.3 2.6C10.6 8.7 11.5 9.8 11.5 11.2c0 2.1-1.7 3.8-3.8 3.8H2V2zm2 2v3.5h3.3c.9 0 1.7-.7 1.7-1.7 0-.9-.7-1.7-1.7-1.7H4zm0 5.5V13h3.5c1 0 1.8-.8 1.8-1.8 0-1-.8-1.8-1.8-1.8H4z" fill="#2E3191"/>
<!-- b -->
<path d="M13 2h2v5.2c.6-.5 1.4-.7 2.2-.7 2.2 0 4 1.8 4 4s-1.8 4-4 4c-.8 0-1.6-.2-2.2-.7V15h-2V2zm4 6.5c-1.1 0-2 .9-2 2s.9 2 2 2 2-.9 2-2-.9-2-2-2z" fill="#2E3191"/>
</svg>
