<svg role="img" viewBox="0 0 24 24" xmlns="http://www.w3.org/2000/svg"><title>Microsoft Excel</title><path d="M21.179 3H8.727A.818.818 0 0 0 7.91 3.82v2.183H4.364A1.637 1.637 0 0 0 2.727 7.64v8.727a1.637 1.637 0 0 0 1.637 1.637H7.91v2.181c0 .453.366.82.818.82H21.18A.818.818 0 0 0 22 20.185V3.818A.818.818 0 0 0 21.18 3zM7.91 16.366H4.364a.819.819 0 0 1-.819-.818V7.64a.819.819 0 0 1 .819-.818h3.546v9.544zm12.45 3.637H8.727V17.18h6.546a1.637 1.637 0 0 0 1.637-1.637V7.64A1.637 1.637 0 0 0 15.273 6H8.727V3.82H20.36v16.183zm-8.97-5.385L9.578 12.53l1.766-2.384h-1.28L9.03 11.59l-1.035-1.443H6.716l1.766 2.384-1.82 2.447h1.28l1.088-1.512 1.089 1.512z" fill="#217346"/></svg>
