<svg width="104" height="122" viewBox="0 0 104 122" fill="none" xmlns="http://www.w3.org/2000/svg">
<path d="M8 0.5H96C100.142 0.5 103.5 3.85786 103.5 8V114C103.5 118.142 100.142 121.5 96 121.5H8C3.85786 121.5 0.5 118.142 0.5 114V8C0.5 3.85786 3.85786 0.5 8 0.5Z" fill="#F4F4FF"/>
<path d="M8 0.5H96C100.142 0.5 103.5 3.85786 103.5 8V114C103.5 118.142 100.142 121.5 96 121.5H8C3.85786 121.5 0.5 118.142 0.5 114V8C0.5 3.85786 3.85786 0.5 8 0.5Z" stroke="#A1A1AA"/>
<g clip-path="url(#clip0_33440_172047)">
<path d="M68.6978 30.0054L20.37 60.7436L16.2139 54.1644V48.495C16.2139 46.431 17.2555 44.5073 18.9813 43.384L47.0741 25.0924C51.3541 22.3056 56.867 22.305 61.1476 25.0913L68.6978 30.0054Z" fill="url(#paint0_linear_33440_172047)"/>
<path d="M60.7143 24.8223C60.8596 24.9086 61.0038 24.9988 61.1469 25.0918L83.071 39.3621L28.71 73.9378L20.3682 60.7326L60.2642 35.3084C64.0432 32.9 64.2087 27.4826 60.7143 24.8223Z" fill="url(#paint1_linear_33440_172047)"/>
<path d="M60.7143 24.8223C60.8596 24.9086 61.0038 24.9988 61.1469 25.0918L83.071 39.3621L28.71 73.9378L20.3682 60.7326L60.2642 35.3084C64.0432 32.9 64.2087 27.4826 60.7143 24.8223Z" fill="url(#paint2_linear_33440_172047)"/>
<path d="M50.3993 80.5404L28.7109 73.9386L74.8234 44.6081C78.707 42.1381 78.6971 36.449 74.8047 33.9927L74.5969 33.8618L75.195 34.2348L89.2291 43.3698C90.9555 44.4931 91.9971 46.4174 91.9971 48.4819V53.9687L50.3993 80.5404Z" fill="url(#paint3_linear_33440_172047)"/>
<path d="M50.3993 80.5404L28.7109 73.9386L74.8234 44.6081C78.707 42.1381 78.6971 36.449 74.8047 33.9927L74.5969 33.8618L75.195 34.2348L89.2291 43.3698C90.9555 44.4931 91.9971 46.4174 91.9971 48.4819V53.9687L50.3993 80.5404Z" fill="url(#paint4_linear_33440_172047)"/>
<path d="M61.1476 25.0913C56.867 22.305 51.3541 22.3056 47.0735 25.0924L18.9813 43.384C17.2555 44.5073 16.2139 46.431 16.2139 48.495V48.7722C16.2818 50.8445 17.3684 52.7539 19.1239 53.8645L54.0541 75.9617L89.0726 53.8981C90.8916 52.7522 91.9952 50.7488 91.9952 48.594V53.9691L91.9963 48.4818C91.9963 46.4172 90.9541 44.4935 89.2283 43.3696L61.1476 25.0913Z" fill="url(#paint5_radial_33440_172047)"/>
<path d="M47.8962 98.9976H78.8353C86.1021 98.9976 91.9928 93.0867 91.9928 85.7951V48.5942C91.9928 50.749 90.8892 52.7525 89.0707 53.8983L43.0504 82.8933C40.568 84.4578 39.0615 87.1923 39.0615 90.1337C39.0621 95.0291 43.017 98.9976 47.8962 98.9976Z" fill="url(#paint6_linear_33440_172047)"/>
<path d="M47.8962 98.9976H78.8353C86.1021 98.9976 91.9928 93.0867 91.9928 85.7951V48.5942C91.9928 50.749 90.8892 52.7525 89.0707 53.8983L43.0504 82.8933C40.568 84.4578 39.0615 87.1923 39.0615 90.1337C39.0621 95.0291 43.017 98.9976 47.8962 98.9976Z" fill="url(#paint7_radial_33440_172047)"/>
<path d="M47.8962 98.9976H78.8353C86.1021 98.9976 91.9928 93.0867 91.9928 85.7951V48.5942C91.9928 50.749 90.8892 52.7525 89.0707 53.8983L43.0504 82.8933C40.568 84.4578 39.0615 87.1923 39.0615 90.1337C39.0621 95.0291 43.017 98.9976 47.8962 98.9976Z" fill="url(#paint8_radial_33440_172047)"/>
<path d="M60.4761 98.9955H29.3664C22.0997 98.9955 16.209 93.0847 16.209 85.793V48.5669C16.209 50.7178 17.3087 52.718 19.1217 53.865L65.0965 82.9484C67.6134 84.5404 69.1397 87.3179 69.1397 90.3033C69.1391 95.1041 65.2604 98.9955 60.4761 98.9955Z" fill="url(#paint9_radial_33440_172047)"/>
<path d="M60.4761 98.9955H29.3664C22.0997 98.9955 16.209 93.0847 16.209 85.793V48.5669C16.209 50.7178 17.3087 52.718 19.1217 53.865L65.0965 82.9484C67.6134 84.5404 69.1397 87.3179 69.1397 90.3033C69.1391 95.1041 65.2604 98.9955 60.4761 98.9955Z" fill="url(#paint10_linear_33440_172047)"/>
<path d="M18.8419 58.8545H38.8412C42.6201 58.8545 45.683 61.9279 45.683 65.7198V85.7876C45.683 89.5795 42.6201 92.6529 38.8412 92.6529H18.8419C15.0629 92.6529 12 89.5795 12 85.7876V65.7198C12 61.9279 15.0629 58.8545 18.8419 58.8545Z" fill="url(#paint11_radial_33440_172047)"/>
<path d="M18.8419 58.8545H38.8412C42.6201 58.8545 45.683 61.9279 45.683 65.7198V85.7876C45.683 89.5795 42.6201 92.6529 38.8412 92.6529H18.8419C15.0629 92.6529 12 89.5795 12 85.7876V65.7198C12 61.9279 15.0629 58.8545 18.8419 58.8545Z" fill="url(#paint12_radial_33440_172047)"/>
<path d="M28.7552 85.4712C25.9697 85.4712 23.6836 84.5965 21.8958 82.8483C20.108 81.1001 19.2139 78.8182 19.2139 76.0034C19.2139 73.0306 20.1212 70.6266 21.9358 68.7904C23.751 66.9547 26.127 66.0371 29.0649 66.0371C31.8412 66.0371 34.1004 66.9156 35.8432 68.6727C37.5953 70.4297 38.4714 72.7467 38.4714 75.6227C38.4714 78.5778 37.5636 80.9598 35.7489 82.7696C33.9431 84.5707 31.612 85.4712 28.7552 85.4712ZM28.8358 81.7602C30.3538 81.7602 31.5758 81.2398 32.5012 80.1996C33.4266 79.1593 33.8893 77.712 33.8893 75.8587C33.8893 73.9267 33.4398 72.4233 32.5418 71.3478C31.6433 70.2724 30.4437 69.7349 28.9438 69.7349C27.3983 69.7349 26.1539 70.29 25.2109 71.4001C24.2674 72.5019 23.7959 73.9619 23.7959 75.78C23.7959 77.6251 24.2674 79.085 25.2109 80.1599C26.1539 81.2266 27.3622 81.7602 28.8358 81.7602Z" fill="white"/>
<path d="M28.7473 85.7314C25.9728 85.7314 23.6949 84.8336 21.9137 83.0375C20.1331 81.2414 19.2422 78.8974 19.2422 76.0061C19.2422 72.9524 20.1462 70.483 21.9543 68.5973C23.7623 66.7109 26.1296 65.7681 29.056 65.7681C31.8212 65.7681 34.0723 66.6708 35.8085 68.4757C37.554 70.2811 38.4263 72.6609 38.4263 75.6155C38.4263 78.6504 37.5222 81.0978 35.7147 82.9566C33.9155 84.8066 31.5932 85.7314 28.7473 85.7314ZM28.8274 81.9197C30.3399 81.9197 31.5575 81.385 32.4791 80.3167C33.4012 79.2478 33.8617 77.7614 33.8617 75.8575C33.8617 73.8728 33.4144 72.3286 32.5197 71.224C31.6244 70.1194 30.4298 69.5671 28.9354 69.5671C27.3954 69.5671 26.1559 70.137 25.2162 71.2779C24.2766 72.4089 23.8067 73.9091 23.8067 75.7767C23.8067 77.6718 24.2766 79.1714 25.2162 80.276C26.1559 81.3718 27.3598 81.9197 28.8274 81.9197Z" fill="white"/>
</g>
<defs>
<linearGradient id="paint0_linear_33440_172047" x1="24.6083" y1="57.513" x2="68.7812" y2="30.2083" gradientUnits="userSpaceOnUse">
<stop stop-color="#20A7FA"/>
<stop offset="0.4" stop-color="#3BD5FF"/>
<stop offset="1" stop-color="#C4B0FF"/>
</linearGradient>
<linearGradient id="paint1_linear_33440_172047" x1="39.7826" y1="66.87" x2="64.448" y2="27.5099" gradientUnits="userSpaceOnUse">
<stop stop-color="#165AD9"/>
<stop offset="0.5008" stop-color="#1880E5"/>
<stop offset="1" stop-color="#8587FF"/>
</linearGradient>
<linearGradient id="paint2_linear_33440_172047" x1="57.6837" y1="67.4063" x2="30.3594" y2="45.2182" gradientUnits="userSpaceOnUse">
<stop offset="0.236946" stop-color="#448AFF" stop-opacity="0"/>
<stop offset="0.792113" stop-color="#0032B1" stop-opacity="0.2"/>
</linearGradient>
<linearGradient id="paint3_linear_33440_172047" x1="54.2167" y1="75.9861" x2="97.3671" y2="48.4641" gradientUnits="userSpaceOnUse">
<stop stop-color="#1A43A6"/>
<stop offset="0.492267" stop-color="#2052CB"/>
<stop offset="1" stop-color="#5F20CB"/>
</linearGradient>
<linearGradient id="paint4_linear_33440_172047" x1="66.3735" y1="74.3329" x2="40.1281" y2="51.6997" gradientUnits="userSpaceOnUse">
<stop stop-color="#0045B9" stop-opacity="0"/>
<stop offset="0.669859" stop-color="#0D1F69" stop-opacity="0.2"/>
</linearGradient>
<radialGradient id="paint5_radial_33440_172047" cx="0" cy="0" r="1" gradientUnits="userSpaceOnUse" gradientTransform="translate(54.1078 24.6714) rotate(-90) scale(57.0406 61.5267)">
<stop offset="0.568182" stop-color="#275FF0" stop-opacity="0"/>
<stop offset="0.992424" stop-color="#002177"/>
</radialGradient>
<linearGradient id="paint6_linear_33440_172047" x1="91.993" y1="73.5214" x2="53.7916" y2="73.5214" gradientUnits="userSpaceOnUse">
<stop stop-color="#4DC4FF"/>
<stop offset="0.196145" stop-color="#0FAFFF"/>
</linearGradient>
<radialGradient id="paint7_radial_33440_172047" cx="0" cy="0" r="1" gradientTransform="matrix(17.226 -17.285 17.226 17.285 62.7199 90.3543)" gradientUnits="userSpaceOnUse">
<stop offset="0.259477" stop-color="#0060D1" stop-opacity="0.4"/>
<stop offset="0.908166" stop-color="#0383F1" stop-opacity="0"/>
</radialGradient>
<radialGradient id="paint8_radial_33440_172047" cx="0" cy="0" r="1" gradientTransform="matrix(50.1606 -65.9697 59.4498 45.5134 25.9603 108.437)" gradientUnits="userSpaceOnUse">
<stop offset="0.732317" stop-color="#F4A7F7" stop-opacity="0"/>
<stop offset="1" stop-color="#F4A7F7" stop-opacity="0.501961"/>
</radialGradient>
<radialGradient id="paint9_radial_33440_172047" cx="0" cy="0" r="1" gradientTransform="matrix(-23.9796 36.5763 -94.5957 -62.4432 42.6745 68.4281)" gradientUnits="userSpaceOnUse">
<stop stop-color="#49DEFF"/>
<stop offset="0.724349" stop-color="#29C3FF"/>
</radialGradient>
<linearGradient id="paint10_linear_33440_172047" x1="10.8583" y1="90.2712" x2="47.6392" y2="90.2448" gradientUnits="userSpaceOnUse">
<stop offset="0.205882" stop-color="#6CE0FF"/>
<stop offset="0.535" stop-color="#50D5FF" stop-opacity="0"/>
</linearGradient>
<radialGradient id="paint11_radial_33440_172047" cx="0" cy="0" r="1" gradientTransform="matrix(30.2821 32.4985 -32.3875 30.3858 11.8798 60.1545)" gradientUnits="userSpaceOnUse">
<stop offset="0.038877" stop-color="#0091FF"/>
<stop offset="0.919119" stop-color="#183DAD"/>
</radialGradient>
<radialGradient id="paint12_radial_33440_172047" cx="0" cy="0" r="1" gradientUnits="userSpaceOnUse" gradientTransform="translate(28.8415 79.4375) rotate(90) scale(23.6589 27.1965)">
<stop offset="0.557796" stop-color="#0FA5F7" stop-opacity="0"/>
<stop offset="1" stop-color="#74C6FF" stop-opacity="0.501961"/>
</radialGradient>
<clipPath id="clip0_33440_172047">
<rect width="80" height="76" fill="white" transform="translate(12 23)"/>
</clipPath>
</defs>
</svg>
