<svg width="104" height="122" viewBox="0 0 104 122" fill="none" xmlns="http://www.w3.org/2000/svg">
<path d="M8 0.5H96C100.142 0.5 103.5 3.85786 103.5 8V114C103.5 118.142 100.142 121.5 96 121.5H8C3.85786 121.5 0.5 118.142 0.5 114V8L0.509766 7.61426C0.710535 3.65139 3.98724 0.5 8 0.5Z" fill="#F4F4FF"/>
<path d="M8 0.5H96C100.142 0.5 103.5 3.85786 103.5 8V114C103.5 118.142 100.142 121.5 96 121.5H8C3.85786 121.5 0.5 118.142 0.5 114V8L0.509766 7.61426C0.710535 3.65139 3.98724 0.5 8 0.5Z" stroke="#A1A1AA"/>
<g clip-path="url(#clip0_33452_137125)">
<path d="M29.4144 71.2524C29.4144 75.828 25.7163 79.5263 21.1408 79.5263C16.5652 79.5263 12.8672 75.828 12.8672 71.2524C12.8672 66.6769 16.5652 62.979 21.1408 62.979H29.4144V71.2524ZM33.5512 71.2524C33.5512 66.6769 37.2492 62.979 41.8247 62.979C46.4003 62.979 50.0983 66.6769 50.0983 71.2524V91.9366C50.0983 96.5121 46.4003 100.21 41.8247 100.21C37.2492 100.21 33.5512 96.5121 33.5512 91.9366V71.2524Z" fill="#E01E5A"/>
<path d="M41.8249 38.0325C37.2494 38.0325 33.5514 34.3345 33.5514 29.759C33.5514 25.1834 37.2494 21.4854 41.8249 21.4854C46.4005 21.4854 50.0985 25.1834 50.0985 29.759V38.0325H41.8249ZM41.8249 42.232C46.4005 42.232 50.0985 45.9301 50.0985 50.5056C50.0985 55.0811 46.4005 58.7792 41.8249 58.7792H21.0783C16.5027 58.7792 12.8047 55.0811 12.8047 50.5056C12.8047 45.9301 16.5027 42.232 21.0783 42.232H41.8249Z" fill="#36C5F0"/>
<path d="M74.9826 50.5056C74.9826 45.9301 78.6805 42.232 83.2564 42.232C87.832 42.232 91.5299 45.9301 91.5299 50.5056C91.5299 55.0811 87.832 58.7792 83.2564 58.7792H74.9826V50.5056ZM70.8457 50.5056C70.8457 55.0811 67.1478 58.7792 62.5723 58.7792C57.9967 58.7792 54.2988 55.0811 54.2988 50.5056V29.759C54.2988 25.1834 57.9967 21.4854 62.5723 21.4854C67.1478 21.4854 70.8457 25.1834 70.8457 29.759V50.5056Z" fill="#2EB67D"/>
<path d="M62.5723 83.6628C67.1478 83.6628 70.8457 87.3611 70.8457 91.9366C70.8457 96.5121 67.1478 100.21 62.5723 100.21C57.9967 100.21 54.2988 96.5121 54.2988 91.9366V83.6628H62.5723ZM62.5723 79.5263C57.9967 79.5263 54.2988 75.828 54.2988 71.2524C54.2988 66.6769 57.9967 62.979 62.5723 62.979H83.3189C87.8944 62.979 91.5924 66.6769 91.5924 71.2524C91.5924 75.828 87.8944 79.5263 83.3189 79.5263H62.5723Z" fill="#ECB22E"/>
</g>
<defs>
<clipPath id="clip0_33452_137125">
<rect width="80" height="80" fill="white" transform="translate(12 21)"/>
</clipPath>
</defs>
</svg>
