<svg width="259" height="115" viewBox="0 0 259 115" fill="none" xmlns="http://www.w3.org/2000/svg">
<path d="M131.054 100.108C130.306 100.108 129.922 99.7243 129.922 98.9768V33.791C129.922 33.0435 130.306 32.6602 131.054 32.6602H139.188C139.937 32.6602 140.32 33.0435 140.32 33.791V52.6318C140.32 54.6826 140.301 56.7718 140.263 58.861C140.224 60.9501 140.167 63.001 140.109 64.9943H140.205C141.721 63.2118 143.236 61.4293 144.733 59.6468C146.248 57.8643 147.783 56.0818 149.376 54.2993L167.928 33.2927C168.196 32.8902 168.657 32.6793 169.271 32.6793H179.688C180.091 32.6793 180.417 32.7943 180.609 33.0435C180.82 33.2927 180.705 33.6185 180.302 34.021L156.8 60.0685L182.355 98.7852C182.566 99.1877 182.604 99.5327 182.451 99.7627C182.317 100.012 182.048 100.127 181.626 100.127H171.324C170.767 100.127 170.326 99.8776 169.981 99.3985L149.683 68.0993L140.301 78.3918V98.9768C140.301 99.7243 139.917 100.108 139.169 100.108H131.054Z" fill="#0D0C0C"/>
<path d="M199.699 101.353C195.651 101.353 192.543 100.127 190.432 97.6925C188.303 95.2584 187.229 91.7317 187.229 87.1317C187.229 83.5667 187.919 80.6534 189.281 78.3725C190.663 76.1109 192.907 74.3475 196.035 73.1209C199.162 71.8942 203.325 71.07 208.562 70.6484L218.251 69.8242L218.155 76.82L208.889 77.6442C204.553 77.9892 201.56 78.775 199.872 80.0209C198.183 81.2475 197.339 83.3175 197.339 86.1925C197.339 88.3967 197.78 90.045 198.682 91.1375C199.584 92.23 200.946 92.7859 202.807 92.7859C204.936 92.7859 207.162 92.0575 209.503 90.62C211.843 89.1825 214.855 86.5375 218.577 82.685L218.788 90.62C216.448 93.0925 214.26 95.1242 212.246 96.6959C210.212 98.2675 208.198 99.4367 206.164 100.203C204.111 100.97 201.963 101.353 199.699 101.353ZM219.383 100.108C218.98 100.108 218.673 99.9734 218.5 99.705C218.328 99.4367 218.174 99.0917 218.04 98.67C217.963 98.0567 217.81 96.8875 217.579 95.1625C217.33 93.4567 217.177 91.8275 217.119 90.3325L216.601 86.3075V65.8184C216.601 62.5984 215.968 60.3175 214.702 58.9759C213.435 57.6342 211.21 56.9634 208.044 56.9634C202.27 56.9634 199.411 58.995 199.488 63.0392C199.488 63.7867 199.143 64.17 198.452 64.17H190.509C189.761 64.17 189.339 63.5567 189.281 62.3109C188.936 58.0559 190.49 54.6825 193.924 52.1717C197.358 49.6609 202.174 48.415 208.351 48.415C214.663 48.415 219.345 49.8334 222.376 52.6892C225.407 55.545 226.903 59.8767 226.903 65.7225V87.4575C226.903 89.7959 226.98 91.9234 227.115 93.84C227.249 95.7567 227.421 97.4434 227.633 98.8809C227.767 99.705 227.383 100.108 226.501 100.108H219.383Z" fill="#0D0C0C"/>
<path d="M246.491 41.726C244.361 41.726 242.788 41.151 241.752 40.0201C240.716 38.8893 240.198 37.4327 240.198 35.6502V34.4235C240.198 32.5643 240.716 31.0885 241.752 29.996C242.788 28.9035 244.361 28.3477 246.491 28.3477C248.697 28.3477 250.29 28.9035 251.287 29.996C252.285 31.0885 252.784 32.5643 252.784 34.4235V35.6502C252.784 37.4327 252.285 38.8893 251.287 40.0201C250.27 41.1701 248.678 41.726 246.491 41.726ZM242.462 100.108C241.714 100.108 241.33 99.7243 241.33 98.9768V50.7918C241.33 50.0443 241.714 49.661 242.462 49.661H250.501C251.249 49.661 251.633 50.0443 251.633 50.7918V98.9768C251.633 99.7243 251.249 100.108 250.501 100.108H242.462Z" fill="#0D0C0C"/>
<path d="M72.5779 14.375H53.22L5.75586 99.8583H24.1928C24.308 99.6667 24.423 99.475 24.5382 99.2833C36.5097 77.51 48.6156 55.8133 60.6831 34.0783L62.6207 30.59C65.2875 36.4933 67.5322 41.7258 70.0262 46.8433C71.0239 48.9133 71.0814 50.5233 69.8344 52.5167C67.3787 56.5033 65.2299 60.6817 62.7359 65.1858C67.3595 65.1858 71.4459 65.2817 75.5324 65.1667C77.2207 65.1092 78.1416 65.6267 78.7555 67.2558C79.849 70.1308 81.1536 72.9292 82.4007 75.7467C83.3983 78.0083 84.4151 80.27 85.5662 82.8767C80.0409 82.8192 75.1679 82.7808 69.9687 82.7233C72.4819 88.7033 74.7842 94.3192 77.2015 99.8583H110.219L72.5779 14.375Z" fill="#903E8E"/>
<path d="M58.1893 99.839C56.0789 94.8557 54.0836 90.1407 51.9349 85.0615L43.7236 99.839H58.1893Z" fill="#903E8E"/>
<path d="M97.3078 70.2075C96.5404 68.31 95.6579 66.5275 94.7754 64.7642L98.4589 73.1017C98.0561 72.1433 97.6724 71.185 97.3078 70.2075Z" fill="#903E8E"/>
<path d="M82.4772 37.1068C83.5707 39.5218 84.6643 41.8985 85.7387 44.2368L80.0215 31.2227C80.8273 33.1968 81.6522 35.1518 82.4772 37.1068Z" fill="#903E8E"/>
<path d="M72.5781 14.375L80.0028 31.2608C77.6238 25.5683 75.2641 19.895 72.6357 14.375H72.5781Z" fill="#903E8E"/>
<path d="M85.7393 44.2559L91.1111 56.465C89.4228 52.3442 87.6002 48.3192 85.7393 44.2559Z" fill="#903E8E"/>
<path d="M94.7747 64.764L91.1104 56.4648C91.5324 57.4998 91.9545 58.5349 92.3574 59.589C93.0864 61.3907 93.9306 63.0774 94.7747 64.764Z" fill="#903E8E"/>
<path d="M101.874 80.9023L108.263 95.4307C106.363 90.4282 104.08 85.694 101.874 80.9023Z" fill="#903E8E"/>
<path d="M98.4395 73.1016C99.5138 75.7466 100.684 78.3341 101.874 80.9024L98.4395 73.1016Z" fill="#903E8E"/>
<mask id="mask0_33474_17918" style="mask-type:luminance" maskUnits="userSpaceOnUse" x="82" y="14" width="20" height="20">
<path d="M91.9545 14.375C86.7745 14.375 82.5537 18.5725 82.5537 23.7667C82.5537 28.9608 86.7553 33.1583 91.9545 33.1583C97.1536 33.1583 101.355 28.9608 101.355 23.7667C101.355 18.5725 97.1536 14.375 91.9545 14.375Z" fill="white"/>
</mask>
<g mask="url(#mask0_33474_17918)">
<path d="M82.5723 14.375H101.374V33.1583H82.5723V14.375Z" fill="#903E8E"/>
</g>
</svg>
