<svg width="249" height="156" viewBox="0 0 249 156" fill="none" xmlns="http://www.w3.org/2000/svg">
<g clip-path="url(#clip0_196_178)">
<path d="M44.0097 35.0032C53.1894 34.8975 62.196 37.4208 69.8946 42.2555C79.7175 48.5118 86.5931 58.2597 89.03 69.3846C90.4178 75.9382 90.8083 84.0718 86.8055 89.969C78.6672 101.765 56.2691 99.8332 53.1852 84.3589C51.2074 74.434 56.7521 58.9833 70.8793 66.3961C73.7514 67.9033 74.9843 71.5607 75.4965 74.6887C70.8052 74.8069 61.2851 75.0081 56.9909 74.6584C57.1745 76.9649 57.0815 81.0197 57.0944 83.4447C63.6523 82.9905 70.791 83.5124 77.4032 83.316C80.8784 83.2126 84.9097 83.2638 88.3739 83.4653C88.5022 80.3556 88.21 77.2426 87.5046 74.2058C84.2135 60.18 72.8318 52.31 58.0838 55.5484C45.7161 59.1757 39.399 69.7188 40.653 81.9586C41.3265 89.2494 45.0078 95.9713 50.8667 100.609C60.3128 108.013 68.1386 108.215 79.3749 107.064C77.1318 108.792 75.2254 110.924 72.9453 112.671C65.5239 118.356 56.8549 121.386 47.4707 121.934C35.6663 122.564 24.0775 118.692 15.195 111.149C6.20659 103.45 0.76327 92.6054 0.0708001 81.0153C-0.597955 69.4821 3.49205 58.1634 11.4439 49.5412C20.1869 40.1038 31.0831 35.7195 44.0097 35.0032ZM22.7062 83.8232C25.4266 83.2567 27.1622 80.672 26.5896 78.0394C26.0173 75.407 23.3523 73.7162 20.6262 74.2565C17.8811 74.8003 16.117 77.399 16.6935 80.0502C17.2698 82.7014 19.9667 84.3938 22.7062 83.8232Z" fill="#003348"/>
<path d="M225.366 55.0352C230.02 54.8719 235.321 55.2232 239.503 57.2452C243.098 58.9571 245.927 62.3377 246.656 66.1192C248.002 73.0917 247.646 80.4213 247.725 87.4786C247.778 92.5354 247.391 97.9535 249 102.837C244.994 102.778 240.986 102.769 236.98 102.809C236.29 101.233 236.085 100.487 235.664 98.8371C229.748 104.275 217.942 105.633 210.773 101.877C207.294 100.055 205.488 98.0197 203.863 94.6392C202.027 89.535 203.075 84.0787 207.439 80.4193C213.046 75.7171 220.37 75.634 227.389 74.5962C230.373 74.1553 235.519 72.3956 234.894 68.7876C233.599 63.5186 224.837 62.5953 220.67 64.9971C218.424 66.2909 217.723 69.0027 217.252 71.2492C213.863 71.0817 209.172 71.1388 205.756 71.2244C207.508 59.0502 212.864 55.7146 225.366 55.0352ZM218.358 93.7573C222.704 96.3413 231.368 94.8588 234.073 90.6517C235.092 89.064 235.674 81.5918 235.208 79.858L235.124 79.7662C228.953 83.111 218.635 81.0466 216.149 88.3526C215.39 90.5793 216.641 92.3155 218.358 93.7573Z" fill="#003348"/>
<path d="M122.377 55.1855C123.3 54.9942 124.507 54.9965 125.454 55.0014C141.521 55.0864 149.133 69.8921 148.739 84.3629C146.295 83.9548 138.148 84.0122 135.204 84.065C130.155 84.1556 123.13 83.8134 118.277 84.2231C118.291 81.6941 118.431 77.6512 118.131 75.2533C122.481 75.1974 131.833 75.5195 135.645 75.0695L135.898 74.547C135.766 70.2044 132.001 65.8469 127.628 65.1759C113.229 62.9659 111.468 82.9596 117.742 91.7036C121.615 95.8356 128.013 97.5133 132.727 93.6717C134.614 92.134 135.425 90.5253 136.558 88.4377C140.467 88.1885 144.931 88.4696 149 88.3023C146.165 98.0867 140.414 104.21 130.128 105.726C123.666 106.71 117.082 105.019 111.884 101.04C98.5863 91.0125 98.9241 69.7167 111.585 59.3257C114.751 56.727 118.408 55.721 122.377 55.1855Z" fill="#003348"/>
<path d="M174.032 55.2291C179.642 54.1099 189.429 57.2192 192.938 61.7755C195.53 65.1379 196.157 67.7357 196.524 71.8146C193.496 71.6433 189.35 71.9565 186.324 71.6068C185.819 71.4234 185.444 70.3278 185.352 69.9563C183.98 65.0619 180.598 63.7253 175.829 63.6907C172.322 63.6652 167.125 65.9549 167.647 69.7703C168.348 74.8975 181.282 74.6074 185.415 76.1058C188.451 77.2067 191.099 77.4996 193.646 79.7482C199.65 84.5551 199.082 94.4364 194.159 99.8555C189.717 104.746 184.496 105.482 178.114 105.988C165.919 106.29 156.688 100.989 155 88.6831C158.659 88.5171 162.628 88.5523 166.316 88.5256C167.086 90.8521 167.506 92.8556 169.463 94.7175C173.765 98.8833 186.707 98.0313 186.179 90.3942C186.01 87.9234 183.592 86.8116 181.433 86.2605C174.666 84.5314 166.618 84.367 160.834 80.1491C155.322 76.1297 155.091 66.7789 159.285 61.7802C163.261 57.0016 167.99 55.7976 174.032 55.2291Z" fill="#003348"/>
</g>
<defs>
<clipPath id="clip0_196_178">
<rect width="248.625" height="156" fill="white"/>
</clipPath>
</defs>
</svg>
