<svg width="249" height="140" viewBox="0 0 249 140" fill="none" xmlns="http://www.w3.org/2000/svg">
<path d="M123.729 1.75461C130.021 1.09927 134.23 5.22498 139.535 7.49506C144.393 9.57466 149.87 7.75864 154.914 9.27918C160.358 10.9203 163.612 14.3518 166.159 19.3053C167.234 21.3189 168.53 23.3331 170.189 24.9139C173.095 27.6832 176.905 28.8383 179.949 31.4155C181.878 33.0494 182.525 34.0571 183.791 36.1142C187.49 42.1343 184.768 48.1942 186.795 54.2935C188.485 59.3798 192.265 62.3444 192.705 68.2106C193.107 73.5643 191.969 76.2979 189.197 80.8242C188.35 82.2095 187.664 83.5311 187.057 85.024C184.976 90.1455 186.779 95.2303 185.273 100.371C183.652 105.896 180.219 109.019 175.264 111.614C173.271 112.659 171.174 114.045 169.604 115.689C166.841 118.584 165.649 122.454 163.061 125.488C161.713 127.056 160.087 128.365 158.267 129.347C151.468 133.061 146.713 130.134 140.423 132.199C134.506 134.141 132.866 137.647 125.564 138.227C125.46 138.239 125.357 138.248 125.252 138.255C118.477 138.724 115.014 134.836 109.393 132.475C104.465 130.405 99.1154 132.244 94.0875 130.719C88.3985 128.992 85.4297 125.589 82.7391 120.512C81.6854 118.523 80.3485 116.538 78.6993 114.988C75.7618 112.227 71.9298 111.075 68.8843 108.434C65.2846 105.299 63.1817 100.787 63.0965 96.0163C63.0174 92.7157 63.3496 88.9989 62.2693 85.8617C60.3855 80.391 56.5663 77.4537 56.2521 71.2249C55.9998 66.2246 57.2482 63.3431 59.835 59.1108C60.699 57.6974 61.3911 56.4029 62.0019 54.8696C64.0198 49.8031 62.2957 44.9492 63.7032 39.8022C64.9107 35.386 67.5903 32.0067 71.5208 29.6659C74.5229 27.8781 77.0392 26.7966 79.459 24.2077C82.2816 21.1878 83.4187 17.3782 86.1073 14.3216C87.5386 12.6935 89.2753 11.3616 91.2191 10.4014C97.967 7.04216 102.529 9.7787 108.524 7.8213C114.565 5.84899 116.203 2.24154 123.729 1.75461Z" fill="#0075C8"/>
<path d="M123.01 10.013C127.52 9.61303 130.335 10.8547 134.089 13.1393C135.306 13.8804 136.561 14.538 137.883 15.0568C142.562 16.8938 147.027 15.0614 151.843 16.7567C156.569 18.4209 158.875 21.1318 161.186 25.4379C162.12 27.1771 163.128 28.7175 164.515 30.1227C166.914 32.5527 170.092 33.5935 172.756 35.6232C176.455 38.4419 178.474 42.7176 178.579 47.3343C178.646 50.3232 178.339 53.4091 179.339 56.2517C180.823 60.4728 183.93 63.2427 184.473 67.9044C184.99 72.3351 183.979 75.378 181.674 79.1164C180.906 80.3639 180.084 81.9005 179.537 83.2517C177.618 87.9854 179.503 92.4548 177.774 97.3546C176.122 102.039 173.421 104.347 169.138 106.646C167.413 107.572 165.772 108.639 164.384 110.022C161.992 112.404 160.925 115.572 158.919 118.225C156.122 121.924 151.733 123.972 147.13 124.057C144.384 124.108 140.995 123.83 138.391 124.78C133.31 126.636 131.85 129.235 126.109 129.997C121.538 130.393 118.802 129.245 114.993 126.909C113.799 126.177 112.456 125.47 111.155 124.965C106.538 123.167 102.091 124.906 97.3562 123.319C92.5773 121.717 90.1697 118.945 87.8548 114.617C86.9045 112.84 85.8742 111.274 84.45 109.845C82.0261 107.413 78.7416 106.347 76.1017 104.271C72.3944 101.356 70.4846 97.0821 70.4352 92.407C70.4047 89.5341 70.6513 86.6492 69.7224 83.922C68.2289 79.5374 65.0358 76.7733 64.5245 71.9319C64.0516 67.4526 65.0962 64.5318 67.4256 60.7704C68.1966 59.5256 68.9558 58.0933 69.4974 56.7356C71.3366 52.1241 69.5793 47.6051 71.172 42.8661C72.7453 38.1855 75.5031 35.7081 79.7585 33.4397C81.5919 32.4624 83.2878 31.3584 84.7462 29.8722C87.1344 27.4387 88.1886 24.207 90.2737 21.5703C93.1434 17.9411 97.4142 16.0225 102.007 15.9629C104.747 15.9274 107.998 16.1741 110.584 15.2476C115.667 13.4267 117.286 10.6742 123.01 10.013Z" fill="#66ACDF"/>
<path d="M123.597 12.3214C129.426 11.8893 131.993 15.2552 137.103 17.2922C141.969 19.232 146.183 17.5217 150.867 18.9245C158.078 21.0842 158.266 27.2431 162.961 31.923C165.556 34.5083 168.708 35.468 171.366 37.5337C172.699 38.5621 173.804 39.8547 174.614 41.3304C177.585 46.7488 175.122 51.0049 177.025 56.7666C178.519 61.2878 181.6 63.8191 182.167 68.559C182.879 74.4923 179.472 77.2746 177.324 82.3833C175.288 87.2251 177.004 91.6642 175.63 96.3121C173.801 103.23 166.809 104.078 162.485 108.575C158.804 112.404 158.416 117.017 153.468 119.94C148.173 123.069 143.231 120.635 137.744 122.505C133.065 124.098 130.673 127.107 125.502 127.687C119.374 128.071 117.243 124.844 111.87 122.708C107.117 120.819 102.841 122.444 98.2872 121.139C90.9605 119.038 90.734 112.696 85.9732 108.014C83.385 105.469 80.1353 104.464 77.5062 102.369C76.2289 101.356 75.1692 100.095 74.3906 98.6622C71.4199 93.2213 73.8948 88.9724 71.976 83.2074C70.4692 78.68 67.3501 76.1155 66.8265 71.3289C66.181 65.4286 69.6203 62.652 71.7141 57.5735C73.6829 52.7982 72.0459 48.4775 73.3485 43.8508C75.0836 36.8112 82.171 35.9637 86.5313 31.4402C90.2634 27.5684 90.6043 22.8857 95.6767 19.9966C100.957 16.9892 105.803 19.3526 111.24 17.5197C115.961 15.928 118.367 12.852 123.597 12.3214Z" fill="#101C4D"/>
<path d="M145.647 38.5923C154.63 38.093 162.324 44.9556 162.846 53.934C163.367 62.9125 156.521 70.6194 147.54 71.1634C138.527 71.7093 130.783 64.8364 130.259 55.8264C129.737 46.8163 136.631 39.0933 145.647 38.5923Z" fill="#FEFEFE"/>
<path d="M145.099 45.4983C150.281 44.6836 155.143 48.2231 155.956 53.403C156.769 58.5828 153.226 63.4404 148.043 64.251C142.864 65.0611 138.008 61.5221 137.195 56.3452C136.382 51.1682 139.921 46.3127 145.099 45.4983Z" fill="#101C4D"/>
<path d="M114.859 38.5746C118.855 38.1549 122.695 40.2703 125.357 43.0766L120.695 47.5091C118.898 45.6357 115.891 43.6228 113.291 45.4515C112.836 45.7716 112.49 46.4033 112.443 46.9672C112.118 50.9053 118.5 51.2677 121.019 52.795C122.563 53.5251 124.125 54.4687 125.179 55.8759C128.114 59.7939 127.647 65.8909 123.576 68.8743C120.482 71.1426 117.135 71.4612 113.5 70.985C113.165 70.9065 112.831 70.8252 112.498 70.7411C108.618 69.7411 105.989 67.4873 103.984 64.1033L109.766 60.5048C111.195 63.2301 113.465 64.7904 116.639 64.6204C117.419 64.5785 118.914 64.114 119.384 63.4494C122.489 59.0517 114.482 57.7229 111.84 56.4376C108.31 54.9676 105.679 52.837 105.41 48.7294C105.006 42.5525 109.078 39.0933 114.859 38.5746Z" fill="#FEFEFE"/>
<path d="M92.8086 38.9922H99.8202L99.8186 70.776L92.8093 70.7798L92.8086 38.9922Z" fill="#FEFEFE"/>
<path d="M127.627 82.4354C133.398 81.7677 135.3 85.6738 134.996 90.6521C134.708 95.3539 136.235 100.65 129.753 101.716C123.137 102.591 121.652 97.8169 122.084 92.4924C122.293 89.9118 121.522 86.9153 123.312 84.6287C124.479 83.1362 125.873 82.6832 127.627 82.4354Z" fill="#FEFEFE"/>
<path d="M127.942 85.6884C132.524 85.4146 130.938 90.4523 131.198 93.4754C131.378 95.5617 131.409 97.5985 129.301 98.4658C128.66 98.5629 127.949 98.5485 127.346 98.2869C126.849 98.071 126.381 97.6095 126.191 97.1012C125.761 95.9518 125.728 87.9822 126.235 86.9716C126.601 86.2407 127.196 85.9379 127.942 85.6884Z" fill="#101C4D"/>
<path d="M143.024 82.4361C146.391 82.0242 149.621 83.6212 150.217 87.1778C150.413 88.3404 150.408 89.4554 150.384 90.6284C150.285 95.391 151.392 100.59 145.199 101.706C143.427 101.943 141.355 101.757 139.801 100.64C136.551 98.2575 137.669 93.6819 137.467 90.2209C137.219 85.9465 138.469 83.0529 143.024 82.4361Z" fill="#FEFEFE"/>
<path d="M143.237 85.6953C143.824 85.6537 144.441 85.648 144.999 85.8544C145.509 86.0426 145.973 86.4098 146.191 86.917C146.686 88.0652 146.76 96.0451 146.273 97.116C145.929 97.8726 145.373 98.1879 144.625 98.482C144.047 98.5487 143.434 98.5449 142.878 98.3512C142.355 98.1688 141.852 97.7543 141.62 97.2469C141.092 96.0945 141.059 88.2362 141.56 87.0483C141.87 86.3131 142.529 85.9665 143.237 85.6953Z" fill="#101C4D"/>
<path d="M112.231 82.4366C113.856 82.2782 116.003 82.5645 117.274 83.6011C123.53 88.7058 114.703 94.5997 112.148 98.1363L112.088 98.2202C114.419 98.2163 117.479 98.1247 119.753 98.2687C119.79 99.2821 119.759 100.446 119.754 101.471C116.863 101.595 113.164 101.497 110.214 101.496C109.141 101.5 108.068 101.492 106.995 101.472C106.963 100.524 106.986 99.4449 106.984 98.4869C108.726 96.4326 115.11 90.487 115.512 88.0406C115.915 85.5888 110.839 83.6874 110.663 88.8469C109.402 88.8723 108.14 88.8707 106.879 88.842C106.747 84.9315 108.255 82.9925 112.231 82.4366Z" fill="#FEFEFE"/>
<path d="M95.4255 82.6354C96.7386 82.6106 98.0522 82.6128 99.3653 82.6418C99.0185 83.691 98.1915 85.4097 97.7142 86.4797L94.6845 93.2612L99.0826 93.2604C99.0757 92.001 99.0833 90.7417 99.1056 89.4825C100.402 89.4431 101.57 89.4547 102.861 89.4801C102.914 90.643 102.879 92.0691 102.883 93.2523L104.447 93.2973C104.505 94.3671 104.47 95.5325 104.456 96.6114L102.881 96.6661C102.886 98.2682 102.881 99.8705 102.866 101.473C101.611 101.506 100.356 101.505 99.1019 101.47C99.0404 99.9829 99.0859 98.1479 99.0844 96.6353C96.1674 96.6483 93.2503 96.6423 90.3333 96.6174C90.3239 96.1605 90.2528 94.3752 90.3777 94.0234C91.4354 91.044 92.9321 88.1807 94.1774 85.2695C94.545 84.4101 94.9736 83.442 95.4255 82.6354Z" fill="#FEFEFE"/>
<path d="M155.365 82.6516C156.686 82.5934 157.961 82.6199 159.281 82.6395C159.468 88.5192 159.314 95.5057 159.283 101.464C158.328 101.535 156.853 101.492 155.859 101.493L155.629 101.36C155.317 100.55 155.493 87.9236 155.495 86.1318C154.459 86.3531 153.505 86.5498 152.46 86.7178C152.397 85.9166 152.435 84.6827 152.437 83.8475C153.331 83.4419 154.442 83.0256 155.365 82.6516Z" fill="#FEFEFE"/>
</svg>
