<svg width="198" height="140" viewBox="0 0 198 140" fill="none" xmlns="http://www.w3.org/2000/svg">
<path d="M70.4136 12.3867C79.2962 11.2734 91.362 16.9821 98.7256 21.6266C96.7189 22.6032 94.7831 24.3582 92.816 25.6076C86.4705 22.129 74.6907 17.2052 68.374 23.1026C66.5062 24.8466 65.5052 28.0793 65.6115 30.5953C66.21 44.7684 77.5381 59.4125 87.0565 69.0066C90.1953 72.2548 95.1192 76.3603 98.7305 79.0584C97.4898 80.1277 94.4002 81.9816 93.0035 82.6993C92.8033 82.5736 92.6092 82.4384 92.422 82.2943C79.6158 72.2538 67.6644 57.9556 61.1179 42.9689C56.1807 31.6665 53.7481 14.2751 70.4136 12.3867Z" fill="#26C3C1"/>
<path d="M124.073 57.1095C125.541 59.0664 126.576 60.7669 127.782 62.8967C126.637 64.6867 124.826 66.5465 123.432 68.178C118.533 73.9107 112.867 78.9481 106.918 83.5629C106.367 83.9896 104.14 85.7778 103.634 85.9174C102.875 86.6546 100.777 87.9259 99.8048 88.5462C94.8537 91.727 89.707 94.3481 84.1499 96.2947C76.1828 99.2267 62.9866 100.531 58.8355 91.0131C55.1597 82.5853 59.0569 71.5026 62.9611 63.6924C64.0563 61.5016 65.3487 59.4915 66.4181 57.3442C67.7857 59.277 69.229 61.1959 70.6196 63.1176C67.2139 69.8856 61.4795 83.8395 69.4506 88.7098C79.3415 94.7532 97.0604 83.2306 104.865 77.0152C106.284 75.8854 107.446 74.7786 108.817 73.7663C113.609 69.1897 120.493 62.7059 124.073 57.1095Z" fill="#173777"/>
<path d="M124.073 57.1095C125.541 59.0664 126.576 60.7669 127.782 62.8967C126.637 64.6867 124.826 66.5465 123.432 68.178C118.534 73.9107 112.867 78.9481 106.918 83.5629C106.367 83.9896 104.14 85.7778 103.634 85.9174C102.554 86.1164 99.7035 88.6506 98.9793 88.5831C99.1663 87.6264 99.2593 87.4315 99.0002 86.5083C98.5258 84.8177 98.9346 82.9868 99.5186 81.4121C100.995 80.2144 108.501 75.1484 108.817 73.7663C113.609 69.1897 120.493 62.7059 124.073 57.1095Z" fill="#237BB5"/>
<path d="M94.0968 27.1824C104.408 19.0491 129.343 4.50383 140.612 17.353C148.027 25.808 139.966 45.6001 134.313 53.5786C133.174 51.6959 131.534 49.4517 130.157 47.7457C133.192 41.6589 136.947 33.36 134.775 26.5966C132.16 18.4517 122.079 19.8746 115.853 22.1423C110.277 24.1735 105.423 26.9373 100.571 30.306C98.9623 31.4149 97.4065 32.6844 95.8048 33.8257C93.8276 35.5397 91.759 37.2039 89.8351 38.9756C86.536 42.0411 83.4312 45.3094 80.5391 48.7615C79.4357 50.0535 77.5652 52.2097 76.8615 53.6878C75.5661 51.9959 74.128 49.7519 73.2349 47.8528C77.4682 41.6753 87.9465 31.4971 94.0968 27.1824Z" fill="#2995CE"/>
<path d="M94.0968 27.1825C95.0885 27.2009 100.507 22.492 101.557 22.3493C101.865 22.9643 102.038 27.9597 101.798 28.9685C100.957 29.9531 96.7178 32.4807 95.6813 33.6341L95.8048 33.8257C93.8276 35.5398 91.759 37.2039 89.8351 38.9757C86.536 42.0412 83.4312 45.3094 80.5391 48.7616C79.4357 50.0536 77.5652 52.2098 76.8615 53.6878C75.5661 51.9959 74.128 49.752 73.2349 47.8528C77.4682 41.6753 87.9465 31.4972 94.0968 27.1825Z" fill="#1B518E"/>
<path d="M107.824 28.1481L108.132 28.1601C109.669 29.1834 112.244 31.5241 113.707 32.8382C125.737 43.7582 136.372 56.9581 141.736 72.4927C144.668 80.9793 145.477 94.3794 134.646 97.6492C125.563 100.391 115.227 96.1449 107.139 92.0244C105.589 91.1924 104.053 90.3327 102.533 89.4458C103.582 88.4635 107.032 86.0598 108.29 85.2504C109.439 85.6566 111.67 86.8644 112.772 87.3422C134.627 96.8241 140.762 83.0476 131.088 64.6064C125.838 54.598 119.764 47.2573 111.585 39.3817C108.578 36.4861 105.377 34.192 102.338 31.5957C103.91 30.4752 106.139 29.1796 107.824 28.1481Z" fill="#29B9D2"/>
<path d="M74.4927 106.121C75.4992 106.077 76.7849 106.04 77.7942 106.061C80.9386 106.124 84.6888 105.624 87.6478 106.828C90.97 108.18 91.2783 113.975 89.5285 116.666C88.7346 117.887 87.7129 118.424 86.4202 118.891C88.049 121.142 90.0651 124.817 91.5249 127.296C90.3958 127.192 87.6558 127.363 86.9188 127.083C85.4435 124.688 83.8367 121.68 82.4728 119.188C81.2604 119.283 79.7204 119.264 78.4827 119.281C78.6459 121.886 78.483 124.673 78.5923 127.328C77.2641 127.121 75.8964 127.191 74.5641 127.312C74.2995 120.522 74.8405 113.037 74.4927 106.121ZM85.6215 115.367C86.6671 114.139 86.8065 111.119 85.5999 110.12C84.2666 109.017 80.3805 109.41 78.6078 109.441C78.3855 110.04 78.6375 114.74 78.5135 115.974C80.4102 115.908 84.2015 116.154 85.6215 115.367Z" fill="#121E5F"/>
<path d="M93.6436 106.124C96.9058 105.98 100.247 106.081 103.514 106.039C105.24 106.017 107.061 106.008 108.781 106.109C108.538 107.189 108.307 108.272 108.087 109.358C104.729 109.529 101.045 109.368 97.6182 109.456C97.7047 110.954 97.7706 113.091 97.5961 114.57C100.684 114.348 104.994 114.782 107.843 114.433C107.724 115.6 107.494 117.032 107.192 118.157C104.442 118.006 100.927 118.101 98.13 118.106L97.8918 118.127C97.4725 118.526 97.753 122.477 97.6044 123.683C100.999 123.473 105.224 123.646 108.743 123.584C108.562 124.779 108.37 126.065 108.047 127.225C104.481 127.135 100.886 127.218 97.3166 127.18C96.1324 127.167 94.863 127.155 93.6914 127.31C93.7677 120.72 93.9085 112.64 93.6436 106.124Z" fill="#121E5F"/>
<path d="M117.207 106.01C119.863 105.932 123.072 105.91 125.703 106.106L125.071 109.355C122.242 109.524 117.585 109.034 115.193 109.918C111.78 118.026 126.897 111.084 126.28 120.728C125.947 125.936 124.268 127.055 119.118 127.197C116.246 127.17 113.374 127.174 110.501 127.208C110.823 126.109 111.063 124.932 111.395 123.779C112.831 123.904 121.357 124.156 121.818 122.921C124.675 115.272 111.248 121.067 110.714 113.567C110.331 108.19 112.06 106.495 117.207 106.01Z" fill="#121E5F"/>
<path d="M64.6442 106.014C66.8481 105.904 69.4562 105.989 71.6644 106.035L71.0543 109.488C69.277 109.331 64.5057 109.146 62.9025 109.955C60.6603 111.087 61.4135 115.938 61.2721 118.128C61.1684 119.737 61.399 121.417 62.2751 122.86C64.4249 124.16 67.8443 123.814 70.277 123.765C70.8036 123.755 71.2485 123.634 71.7516 123.657L71.8733 123.897C71.5694 124.741 71.4923 127.362 70.2536 127.267C66.8292 127.005 62.2747 127.849 59.3981 125.511C56.5668 123.209 56.9171 118.054 56.9469 114.775C56.9865 112.507 57.3696 109.969 58.8454 108.181C60.3219 106.391 62.5027 106.204 64.6442 106.014Z" fill="#121E5F"/>
<path d="M145.886 106.033L146.061 106.231C146.153 107.111 145.737 108.574 145.505 109.441C143.347 109.379 141.13 109.438 138.937 109.384L138.953 127.345C137.434 127.152 136.238 127.176 134.719 127.306C134.655 125.133 134.726 122.607 134.737 120.415C134.741 117.11 134.574 112.584 134.783 109.383C132.34 109.408 129.898 109.412 127.456 109.396C127.6 108.676 127.894 106.86 128.23 106.307C129.506 105.821 143.511 106.035 145.886 106.033Z" fill="#121E5F"/>
<path d="M147.942 122.015C149.356 121.646 150.801 122.501 151.156 123.919C151.513 125.337 150.646 126.773 149.226 127.118C147.822 127.459 146.407 126.604 146.054 125.203C145.701 123.803 146.543 122.38 147.942 122.015ZM146.716 124.111C146.789 124.793 146.785 125.776 147.386 126.195C147.85 125.794 147.652 123.645 147.636 122.962C148.133 122.991 148.85 123.009 149.317 123.113C150.335 124.423 149.062 124.678 149.618 126.037C150.634 125.814 151.346 122.377 147.875 122.516C147.178 123.073 147.088 123.306 146.716 124.111Z" fill="#121E5F"/>
</svg>
