<svg width="104" height="122" viewBox="0 0 104 122" fill="none" xmlns="http://www.w3.org/2000/svg">
<path d="M8 0.5H96C100.142 0.5 103.5 3.85786 103.5 8V114C103.5 118.142 100.142 121.5 96 121.5H8C3.85786 121.5 0.5 118.142 0.5 114V8C0.5 3.85786 3.85786 0.5 8 0.5Z" fill="#F4F4FF"/>
<path d="M8 0.5H96C100.142 0.5 103.5 3.85786 103.5 8V114C103.5 118.142 100.142 121.5 96 121.5H8C3.85786 121.5 0.5 118.142 0.5 114V8C0.5 3.85786 3.85786 0.5 8 0.5Z" stroke="#A1A1AA"/>
<path d="M65.825 55.375H83.905C85.615 55.375 87 56.755 87 58.46V74.9C86.9986 76.3918 86.7035 77.8688 86.1314 79.2465C85.5593 80.6243 84.7214 81.8759 83.6656 82.9298C82.6098 83.9838 81.3568 84.8194 79.978 85.3891C78.5992 85.9588 77.1218 86.2513 75.63 86.25H75.58C74.0881 86.2513 72.6107 85.9588 71.2319 85.3891C69.8532 84.8194 68.6001 83.9838 67.5443 82.9298C66.4885 81.8759 65.6506 80.6243 65.0785 79.2465C64.5064 77.8688 64.2113 76.3918 64.21 74.9V56.995C64.21 56.1 64.935 55.375 65.825 55.375ZM78.05 52.125C82.09 52.125 85.37 48.85 85.37 44.815C85.37 40.775 82.09 37.5 78.045 37.5C74 37.5 70.72 40.775 70.72 44.815C70.72 48.85 74 52.125 78.045 52.125H78.05Z" fill="#5059C9"/>
<path d="M55.2549 52.125C56.6434 52.127 58.0186 51.8554 59.3021 51.3257C60.5856 50.796 61.7522 50.0186 62.7351 49.038C63.7181 48.0573 64.4982 46.8926 65.031 45.6104C65.5637 44.3281 65.8385 42.9535 65.8399 41.565C65.8392 40.1757 65.5647 38.8001 65.0319 37.517C64.4992 36.2338 63.7187 35.0683 62.7351 34.0871C61.7516 33.1058 60.5842 32.3281 59.2998 31.7984C58.0154 31.2687 56.6392 30.9974 55.2499 31C53.8618 30.9987 52.4871 31.2708 51.2041 31.8008C49.9212 32.3308 48.7553 33.1082 47.7728 34.0888C46.7904 35.0694 46.0107 36.2339 45.4783 37.5158C44.9459 38.7977 44.6712 40.1719 44.6699 41.56C44.6699 47.395 49.4049 52.125 55.2499 52.125H55.2549ZM69.3649 55.375H39.5149C38.7054 55.3947 37.9369 55.7349 37.3781 56.3208C36.8194 56.9068 36.5161 57.6906 36.5349 58.5V77.25C36.4262 82.1098 38.2508 86.8141 41.6079 90.3297C44.965 93.8452 49.5802 95.8847 54.4399 96C59.3004 95.886 63.9169 93.8471 67.2751 90.3314C70.6333 86.8157 72.4585 82.1107 72.3499 77.25V58.5C72.3592 58.0988 72.2893 57.6997 72.1443 57.3255C71.9993 56.9513 71.782 56.6093 71.5048 56.3191C71.2276 56.0289 70.8959 55.7961 70.5288 55.6341C70.1616 55.4722 69.7661 55.3841 69.3649 55.375Z" fill="#7B83EB"/>
<path opacity="0.1" d="M56.0701 55.375V81.65C56.0662 82.4387 55.7508 83.1938 55.1926 83.751C54.6345 84.3083 53.8788 84.6224 53.0901 84.625H37.9651C37.0188 82.2795 36.5316 79.7742 36.5301 77.245V58.5C36.5208 58.099 36.5907 57.7002 36.7358 57.3262C36.8808 56.9523 37.0982 56.6107 37.3755 56.3209C37.6527 56.031 37.9844 55.7988 38.3516 55.6373C38.7187 55.4759 39.1141 55.3884 39.5151 55.38H56.0651L56.0701 55.375Z" fill="black"/>
<path opacity="0.2" d="M54.4399 55.3751V83.2751C54.4333 84.063 54.1171 84.8166 53.5595 85.3733C53.0019 85.9299 52.2478 86.2449 51.4599 86.2501H38.7349C38.1727 85.2187 37.725 84.1289 37.3999 83.0001C36.8312 81.1364 36.5414 79.1987 36.5399 77.2501V58.4901C36.5306 58.0896 36.6003 57.6911 36.745 57.3175C36.8898 56.9439 37.1067 56.6025 37.3835 56.3127C37.6602 56.023 37.9913 55.7906 38.3579 55.6289C38.7245 55.4671 39.1193 55.3792 39.5199 55.3701H54.4449L54.4399 55.3751Z" fill="black"/>
<path opacity="0.2" d="M54.4399 55.3751V80.0251C54.4333 80.813 54.1171 81.5666 53.5595 82.1233C53.0019 82.6799 52.2478 82.9949 51.4599 83.0001H37.3999C36.8312 81.1364 36.5414 79.1987 36.5399 77.2501V58.4901C36.5306 58.0896 36.6003 57.6911 36.745 57.3175C36.8898 56.9439 37.1067 56.6025 37.3835 56.3127C37.6602 56.023 37.9913 55.7906 38.3579 55.6289C38.7245 55.4671 39.1193 55.3792 39.5199 55.3701H54.4449L54.4399 55.3751Z" fill="black"/>
<path opacity="0.2" d="M52.815 55.3751V80.0251C52.8085 80.813 52.4922 81.5666 51.9346 82.1233C51.3771 82.6799 50.6229 82.9949 49.835 83.0001H37.395C36.8263 81.1364 36.5365 79.1987 36.535 77.2501V58.4901C36.5257 58.0896 36.5954 57.6911 36.7402 57.3175C36.8849 56.9439 37.1018 56.6025 37.3786 56.3127C37.6553 56.023 37.9864 55.7906 38.353 55.6289C38.7196 55.4671 39.1144 55.3792 39.515 55.3701L52.815 55.3751Z" fill="black"/>
<path opacity="0.1" d="M56.0698 46.975V52.095C55.7948 52.11 55.5348 52.125 55.2548 52.125C54.9798 52.125 54.7198 52.11 54.4398 52.095C52.2068 51.9229 50.0861 51.0463 48.3832 49.5915C46.6804 48.1367 45.4835 46.1788 44.9648 44H53.0898C53.8777 44.0026 54.6326 44.3161 55.1906 44.8722C55.7486 45.4283 56.0646 46.1822 56.0698 46.97V46.975Z" fill="black"/>
<path opacity="0.2" d="M54.4402 48.5999V52.0949C52.4976 51.9463 50.6339 51.2639 49.0545 50.1231C47.4752 48.9823 46.2418 47.4274 45.4902 45.6299H51.4652C52.2522 45.6338 53.0058 45.9478 53.5628 46.5038C54.1197 47.0598 54.435 47.8129 54.4402 48.5999Z" fill="black"/>
<path opacity="0.2" d="M54.4402 48.5999V52.0949C52.4976 51.9463 50.6339 51.2639 49.0545 50.1231C47.4752 48.9823 46.2418 47.4274 45.4902 45.6299H51.4652C52.2522 45.6338 53.0058 45.9478 53.5628 46.5038C54.1197 47.0598 54.435 47.8129 54.4402 48.5999Z" fill="black"/>
<path opacity="0.2" d="M52.8152 48.6V51.835C51.1908 51.4514 49.6803 50.6887 48.4072 49.6094C47.1341 48.5301 46.1345 47.1647 45.4902 45.625H49.8402C50.628 45.6289 51.3825 45.9436 51.9395 46.5007C52.4966 47.0578 52.8113 47.8122 52.8152 48.6Z" fill="black"/>
<path d="M19.985 45.625H49.83C51.48 45.625 52.815 46.96 52.815 48.605V78.395C52.815 78.7868 52.7378 79.1747 52.5877 79.5366C52.4376 79.8984 52.2177 80.2272 51.9404 80.5039C51.6632 80.7807 51.3341 81.0001 50.9719 81.1496C50.6098 81.2991 50.2218 81.3757 49.83 81.375H19.98C19.5887 81.375 19.2012 81.2979 18.8396 81.1482C18.4781 80.9984 18.1495 80.7789 17.8728 80.5022C17.5961 80.2255 17.3766 79.8969 17.2268 79.5354C17.0771 79.1738 17 78.7863 17 78.395V48.605C17 46.955 18.335 45.625 19.985 45.625Z" fill="url(#paint0_linear_33452_137038)"/>
<path d="M42.7598 56.9649H36.7948V73.1799H32.9948V56.9649H27.0498V53.8149H42.7548L42.7598 56.9649Z" fill="white"/>
<defs>
<linearGradient id="paint0_linear_33452_137038" x1="23.22" y1="43.3" x2="46.53" y2="83.74" gradientUnits="userSpaceOnUse">
<stop stop-color="#5A62C3"/>
<stop offset="0.5" stop-color="#4D55BD"/>
<stop offset="1" stop-color="#3940AB"/>
</linearGradient>
</defs>
</svg>
