<svg width="104" height="122" viewBox="0 0 104 122" fill="none" xmlns="http://www.w3.org/2000/svg">
<path d="M8 0.5H96C100.142 0.5 103.5 3.85786 103.5 8V114C103.5 118.142 100.142 121.5 96 121.5H8C3.85786 121.5 0.5 118.142 0.5 114V8C0.5 3.85786 3.85786 0.5 8 0.5Z" fill="#F4F4FF"/>
<path d="M8 0.5H96C100.142 0.5 103.5 3.85786 103.5 8V114C103.5 118.142 100.142 121.5 96 121.5H8C3.85786 121.5 0.5 118.142 0.5 114V8C0.5 3.85786 3.85786 0.5 8 0.5Z" stroke="#A1A1AA"/>
<path d="M36.8981 84.0922L37.9186 84.6955C42.2045 87.2343 47.1186 88.5772 52.1301 88.5795H52.1406C67.5305 88.5795 80.0554 76.0813 80.0618 60.72C80.0645 53.276 77.1629 46.2759 71.8913 41.0103C69.3057 38.4134 66.2297 36.3541 62.8413 34.9518C59.453 33.5494 55.8196 32.8318 52.1515 32.8404C36.7497 32.8404 24.2244 45.3372 24.2189 60.6976C24.2113 65.9428 25.6912 71.083 28.4875 75.524L29.1518 76.5776L26.3306 86.8574L36.8981 84.0922ZM18.2646 94.8213L23.0309 77.4526C20.0914 72.3696 18.545 66.6031 18.5468 60.6954C18.5546 42.2138 33.6235 27.1782 52.141 27.1782C61.1269 27.1828 69.5613 30.673 75.9046 37.0087C82.2479 43.3444 85.7379 51.7658 85.7347 60.7222C85.7265 79.2025 70.6553 94.2408 52.1406 94.2408H52.1259C46.5041 94.2385 40.9799 92.8308 36.0731 90.1604L18.2646 94.8213Z" fill="#B3B3B3"/>
<path d="M17.9199 94.4771L22.6862 77.1083C19.7416 72.0131 18.195 66.2331 18.2021 60.3511C18.2098 41.8695 33.2788 26.834 51.7963 26.834C60.7822 26.8385 69.2166 30.3288 75.5599 36.6645C81.9031 43.0001 85.3932 51.4216 85.39 60.378C85.3818 78.8582 70.3106 93.8965 51.7958 93.8965H51.7812C46.1594 93.8942 40.6352 92.4866 35.7283 89.8161L17.9199 94.4771Z" fill="white"/>
<path d="M51.8067 32.4962C36.4049 32.4962 23.8795 44.993 23.8741 60.3534C23.8665 65.5986 25.3463 70.7388 28.1426 75.1798L28.8069 76.2339L25.9857 86.5137L36.5537 83.748L37.5742 84.3514C41.8601 86.8901 46.7742 88.2326 51.7857 88.2353H51.7962C67.1861 88.2353 79.7114 75.7371 79.7174 60.3758C79.729 56.7144 79.0128 53.0872 77.6103 49.704C76.2079 46.3208 74.1469 43.2489 71.5469 40.6661C68.9612 38.0691 65.8851 36.0099 62.4967 34.6075C59.1083 33.2051 55.4748 32.4875 51.8067 32.4962Z" fill="url(#paint0_linear_33452_137089)"/>
<path fill-rule="evenodd" clip-rule="evenodd" d="M43.3997 46.3385C42.7705 44.9436 42.1085 44.9153 41.5108 44.8912L39.9018 44.8716C39.3421 44.8716 38.4326 45.0812 37.6637 45.9197C36.8948 46.7582 34.7256 48.7847 34.7256 52.9066C34.7256 57.0284 37.7335 61.0113 38.1527 61.5709C38.5718 62.1305 43.9594 70.8586 52.4915 74.2167C59.5818 77.0075 61.0246 76.4524 62.5641 76.313C64.1037 76.1735 67.5304 74.2865 68.2294 72.3301C68.9284 70.3738 68.9289 68.6977 68.7193 68.3472C68.5097 67.9968 67.95 67.7886 67.1098 67.3693C66.2697 66.9501 62.1436 64.9235 61.3743 64.6437C60.605 64.3639 60.0456 64.2249 59.4854 65.0634C58.9252 65.9019 57.3185 67.7881 56.8286 68.3472C56.3387 68.9064 55.8497 68.9766 55.0096 68.5578C54.1695 68.139 51.4665 67.254 48.2595 64.3999C45.7643 62.1793 44.08 59.4368 43.5896 58.5988C43.0993 57.7608 43.5376 57.3069 43.9585 56.8894C44.3352 56.5139 44.7977 55.911 45.2182 55.4221C45.6387 54.9331 45.7771 54.5836 46.0565 54.0253C46.3359 53.4671 46.1967 52.9768 45.9867 52.558C45.7766 52.1392 44.1457 47.9954 43.3997 46.3385Z" fill="white"/>
<defs>
<linearGradient id="paint0_linear_33452_137089" x1="51.2273" y1="35.841" x2="51.5093" y2="83.4737" gradientUnits="userSpaceOnUse">
<stop stop-color="#57D163"/>
<stop offset="1" stop-color="#23B33A"/>
</linearGradient>
</defs>
</svg>
