<svg width="141" height="140" viewBox="0 0 141 140" fill="none" xmlns="http://www.w3.org/2000/svg">
<path d="M32.5686 0.0290401L86.9209 0.0261498L101.67 0.0173021C105.769 0.0161765 110.97 -0.164719 114.91 0.669347C120.608 1.88499 125.862 4.64591 130.095 8.64918C136.106 14.4429 139.921 22.0917 139.976 30.56C140.016 36.8659 139.988 43.1728 139.988 49.479L139.985 85.4735L139.993 102.012C139.998 105.956 140.212 111.166 139.435 114.899C138.2 120.665 135.392 125.976 131.322 130.244C126.348 135.373 120.032 138.739 112.908 139.744C111.377 139.961 109.227 139.937 107.651 139.959L52.2213 139.962L37.1717 139.969C33.5015 139.97 29.0262 140.184 25.4766 139.47C10.9498 136.55 0.0584463 123.511 0.0761365 108.637C0.0835343 102.535 0.0598984 96.4154 0.0608633 90.3137L0.0663307 55.231L0.056515 38.792C0.050243 34.5554 -0.262385 29.6247 0.652199 25.5117C4.20247 9.54869 16.6961 0.283264 32.5686 0.0290401Z" fill="#209CF5"/>
<path d="M23.8427 40.2378C24.4477 39.6668 25.2908 38.9664 26.1404 38.9265C29.5547 38.7663 33.2112 38.8459 36.628 38.8541L56.9993 38.8596L94.6693 38.8551C100.801 38.8561 106.962 38.8427 113.096 38.8562C114.728 38.8599 115.336 39.1804 116.512 40.3388C116.981 40.9969 117.387 41.534 117.404 42.3729C117.491 46.2636 117.456 50.2645 117.454 54.1515L117.449 77.5196L117.456 92.1506C117.456 94.1662 117.527 96.5199 117.348 98.521C117.318 98.8789 116.84 99.6001 116.618 99.9309C115.891 100.646 115.05 101.443 113.987 101.499C111.02 101.654 107.847 101.567 104.878 101.565L86.03 101.563L27.7456 101.572C25.9746 101.555 25.2834 101.518 23.8938 100.269C23.4673 99.7487 22.8639 98.833 22.8206 98.1656C22.6605 95.6882 22.7261 93.0352 22.7283 90.5526L22.7425 75.2012L22.7344 53.5258C22.7338 49.8961 22.6899 46.1535 22.7968 42.5197C22.8227 41.6403 23.3238 40.9141 23.8427 40.2378Z" fill="#FAFAF9"/>
<path d="M116.512 40.3387C116.981 40.9968 117.387 41.5339 117.404 42.3728C117.491 46.2635 117.456 50.2643 117.454 54.1513L117.449 77.5195L117.456 92.1505C117.456 94.1661 117.527 96.5198 117.348 98.5209C117.318 98.8788 116.84 99.6 116.618 99.9308C115.891 100.646 115.05 101.443 113.987 101.499C111.02 101.653 107.847 101.567 104.878 101.565L86.03 101.563L27.7456 101.571C25.9746 101.555 25.2834 101.518 23.8938 100.269C24.607 99.2593 29.1327 94.8765 30.2447 93.7535L45.835 78.0928C47.7396 76.1767 51.9228 72.1942 53.4318 70.2824C55.4806 72.2821 57.6514 74.514 59.6271 76.5972C62.6947 79.8315 65.4994 81.6407 70.1056 81.7006C75.6443 81.7728 78.5165 78.2542 82.0707 74.6092C83.6965 72.9501 85.3449 71.3107 87.0127 69.6915C93.0338 63.278 100.029 56.7973 106.2 50.4192C108.281 48.2683 114.502 41.8164 116.512 40.3387Z" fill="#B3DBF9"/>
<path d="M116.512 40.3387C116.982 40.9968 117.387 41.5339 117.404 42.3728C117.491 46.2635 117.456 50.2643 117.454 54.1513L117.45 77.5195L117.456 92.1505C117.456 94.1661 117.527 96.5198 117.348 98.5209C117.318 98.8788 116.84 99.6 116.618 99.9308C114.638 98.1364 112.519 95.8055 110.61 93.8717L98.7188 81.7701L91.223 74.1567C89.8753 72.7825 88.1835 71.1781 87.0127 69.6915C93.0338 63.278 100.029 56.7973 106.2 50.4192C108.281 48.2683 114.502 41.8164 116.512 40.3387Z" fill="#D9EBFB"/>
<path d="M23.8938 100.269C23.4673 99.7486 22.8639 98.8329 22.8206 98.1656C22.6605 95.6881 22.7261 93.0351 22.7283 90.5525L22.7425 75.2012L22.7344 53.5257C22.7338 49.896 22.6899 46.1534 22.7968 42.5196C22.8227 41.6402 23.3238 40.9141 23.8427 40.2377C25.3195 41.4494 27.0121 43.3047 28.3736 44.7088L34.6822 51.1483C40.7555 57.3254 47.5812 63.9856 53.4318 70.2825C51.9228 72.1942 47.7396 76.1767 45.835 78.0928L30.2447 93.7536C29.1327 94.8766 24.607 99.2593 23.8938 100.269Z" fill="#D9EBFB"/>
</svg>
