<svg width="151" height="140" viewBox="0 0 151 140" fill="none" xmlns="http://www.w3.org/2000/svg">
<path d="M35.0504 28.1079L35.0221 13.0347C35.0214 10.2988 34.8726 7.41365 35.2694 4.71557C35.333 4.28331 35.6322 3.66361 35.8476 3.28301C37.9011 -0.345684 41.3529 0.00577924 44.8969 0.0117537L51.4388 0.013907L73.6974 0.0175913L142.444 0.000800319C150.719 0.0412652 150.661 4.83442 150.489 11.2617C150.458 12.4392 150.487 13.7163 150.484 14.8989L150.466 34.1405L150.459 58.6773C150.458 62.371 150.383 66.368 150.468 70.0441L150.452 92.8294C150.452 96.7667 150.356 101.126 150.462 105.034C150.356 113.864 150.482 122.712 150.451 131.546C150.442 134.001 150.487 136.165 148.581 138.057C146.224 140.398 143.14 139.972 140.063 139.966L132.515 139.955L108.415 139.952L64.2286 139.955C56.8079 139.956 49.4045 139.962 41.967 139.952C38.9921 139.949 36.2576 138.503 35.3612 135.437C34.7695 133.411 35.152 130.932 35.0405 128.841C34.9908 125.56 35.1151 122.175 35.0417 118.906C35.0637 116.594 35.0696 114.281 35.0593 111.969L35.0914 108.54C32.695 108.396 29.6645 108.481 27.2193 108.479L13.5604 108.475C11.0636 108.482 7.87438 108.656 5.43509 108.374C1.9203 107.969 0.0346907 104.684 0.035064 101.309C0.0356861 96.9178 0.0216268 92.4285 0.027599 87.9877L0.0324516 62.5048L0.0212503 46.4129C0.0150293 43.4361 -0.0619852 40.4491 0.12191 37.4744C0.293488 34.6991 2.40866 32.121 5.20914 31.6972C8.26829 31.2344 11.4982 31.5593 14.5955 31.4693C15.9276 31.4306 17.2983 31.5056 18.6334 31.4744C24.086 31.3893 29.6106 31.6058 35.0564 31.4642C35.0321 30.3456 35.03 29.2266 35.0504 28.1079Z" fill="#00A8F1"/>
<path d="M80.5169 69.8721L80.6501 69.9307C81.7462 69.9291 82.927 69.9058 84.0132 69.9779C99.2536 70.1478 114.789 69.997 130.049 69.9977L143.3 69.998C145.358 69.9979 148.484 69.9094 150.468 70.0441L150.452 92.8294C150.452 96.7667 150.356 101.125 150.462 105.034C150.356 113.864 150.482 122.712 150.451 131.546C150.442 134.001 150.487 136.165 148.581 138.057C146.224 140.398 143.14 139.972 140.063 139.966L132.515 139.955L108.415 139.952L64.2285 139.955C56.8079 139.956 49.4044 139.962 41.967 139.952C38.9921 139.948 36.2575 138.503 35.3612 135.437C34.7695 133.411 35.1519 130.932 35.0404 128.841C34.9908 125.56 35.1151 122.175 35.0417 118.906C35.0637 116.594 35.0696 114.281 35.0592 111.969L35.0913 108.54C38.043 108.334 42.1663 108.453 45.2179 108.453L63.1687 108.447C64.2413 108.446 65.3319 108.468 66.4035 108.461C70.6085 108.438 73.899 109.137 76.3525 104.934L76.6586 104.218C77.2036 101.978 77.007 95.5417 77.0058 92.8586L77.0257 73.8362C77.1439 73.0078 77.0991 70.9227 77.0978 70.01C78.2288 69.9028 79.3511 69.9473 80.4821 69.9974L80.5169 69.8721Z" fill="#003D94"/>
<path d="M80.517 69.8721L80.6501 69.9307C81.7463 69.9291 82.9271 69.9058 84.0133 69.9779C99.2537 70.1478 114.789 69.997 130.049 69.9977L143.3 69.998C145.358 69.9979 148.484 69.9094 150.468 70.0441L150.452 92.8294C150.452 96.7667 150.356 101.125 150.462 105.034C145.753 104.92 140.878 104.953 136.16 104.995C118.794 105.15 101.355 104.785 83.9983 105.008C83.5989 104.995 83.0776 105.021 82.6683 105.029C82.0486 104.994 81.1466 105.03 80.5071 105.035L80.4809 105.107C79.7556 104.864 78.6183 105.122 77.8494 105.052C76.9971 104.974 77.0108 104.954 76.6587 104.218C77.2037 101.978 77.0071 95.5417 77.0058 92.8586L77.0257 73.8362C77.1439 73.0078 77.0991 70.9227 77.0979 70.01C78.2289 69.9028 79.3512 69.9473 80.4822 69.9974L80.517 69.8721Z" fill="#025AC4"/>
<path d="M80.517 69.8721L80.6501 69.9307C81.3282 70.0467 83.217 70.0217 83.9946 70.0287C84.1041 73.4855 84.0531 77.1075 84.0531 80.58L83.9983 105.008C83.5989 104.995 83.0776 105.021 82.6683 105.029C82.0486 104.994 81.1466 105.03 80.5071 105.035L80.4809 105.107C79.7556 104.864 78.6183 105.122 77.8494 105.052C76.9971 104.974 77.0108 104.954 76.6587 104.218C77.2037 101.978 77.0071 95.5417 77.0058 92.8586L77.0257 73.8362C77.1439 73.0078 77.0991 70.9227 77.0979 70.01C78.2289 69.9028 79.3512 69.9473 80.4822 69.9974L80.517 69.8721Z" fill="#0360B5"/>
<path d="M77.0979 70.01C78.2289 69.9028 79.3512 69.9472 80.4822 69.9974C80.5879 81.644 80.3466 93.4129 80.5071 105.035L80.4809 105.107C79.7556 104.864 78.6183 105.122 77.8494 105.052C76.9971 104.974 77.0108 104.954 76.6587 104.218C77.2037 101.978 77.0071 95.5417 77.0058 92.8586L77.0257 73.8361C77.1439 73.0078 77.0991 70.9227 77.0979 70.01Z" fill="#002E70"/>
<path d="M76.6587 104.218C77.0108 104.954 76.9971 104.974 77.8494 105.052C78.6183 105.122 79.7556 104.864 80.4809 105.107L80.4834 106.215C80.5605 108.186 80.8057 113.148 80.1375 114.886C78.6743 117.162 77.5172 118.691 74.5846 118.882C72.7047 119.004 70.8232 118.958 68.9432 118.958L56.9299 118.959L42.7063 118.956C40.4632 118.955 37.2268 119.052 35.0417 118.906C35.0638 116.594 35.0696 114.281 35.0593 111.969L35.0914 108.54C38.043 108.334 42.1664 108.453 45.218 108.454L63.1688 108.447C64.2414 108.446 65.332 108.468 66.4036 108.461C70.6086 108.438 73.899 109.137 76.3526 104.934L76.6587 104.218Z" fill="#002E70"/>
<path d="M35.0914 108.54C38.0431 108.334 42.1664 108.453 45.218 108.453L63.1688 108.447C64.2414 108.446 65.332 108.468 66.4036 108.461C70.6086 108.438 73.8991 109.137 76.3527 104.934C78.805 106.01 74.7078 111.312 72.5511 111.857C68.2985 112.124 62.9351 111.981 58.6045 111.98L35.0593 111.969L35.0914 108.54Z" fill="#001743"/>
<path d="M76.6587 104.218C77.0108 104.954 76.9971 104.974 77.8494 105.052C78.6183 105.122 79.7555 104.864 80.4809 105.107L80.4834 106.215C80.4249 106.738 80.3677 107.234 80.3378 107.76C78.0136 111.09 76.8876 112.236 72.551 111.857C74.7078 111.312 78.805 106.01 76.3526 104.934L76.6587 104.218Z" fill="#002056"/>
<path d="M35.0564 31.4642C35.8552 31.7017 48.0702 31.4905 49.8632 31.4989C54.7052 31.5217 60.6503 31.6022 65.5799 31.5359C66.6308 31.5217 72.0607 31.4132 72.535 31.5448L72.5261 31.7435C74.3133 32.6232 75.4418 33.2461 76.4136 35.1572C76.9946 34.9524 78.8423 35.065 79.753 34.9468L79.8936 35.1044C80.196 35.9547 80.4336 36.664 80.4647 37.5818C80.5817 41.1324 80.5257 44.8052 80.5245 48.3575L80.517 69.8721L80.4821 69.9974C79.3512 69.9473 78.2289 69.9028 77.0979 70.01C77.0991 70.9227 77.1439 73.0078 77.0257 73.8362L77.0058 92.8587C77.0071 95.5417 77.2036 101.978 76.6587 104.218L76.3526 104.934C73.899 109.137 70.6085 108.438 66.4036 108.461C65.3319 108.468 64.2414 108.446 63.1688 108.447L45.2179 108.454C42.1664 108.453 38.043 108.334 35.0914 108.54C32.695 108.396 29.6645 108.481 27.2193 108.479L13.5604 108.475C11.0636 108.482 7.87438 108.656 5.43509 108.374C1.9203 107.969 0.0346907 104.684 0.035064 101.309C0.0356861 96.9178 0.0216268 92.4285 0.027599 87.9877L0.0324516 62.5048L0.0212503 46.4129C0.0150293 43.4361 -0.0619852 40.4491 0.12191 37.4744C0.293488 34.6991 2.40866 32.121 5.20914 31.6972C8.2683 31.2344 11.4982 31.5593 14.5955 31.4693C15.9276 31.4306 17.2983 31.5056 18.6334 31.4744C24.086 31.3893 29.6106 31.6058 35.0564 31.4642Z" fill="#005BC1"/>
<path d="M76.4136 35.1572C76.9946 34.9524 78.8423 35.065 79.753 34.9468L79.8936 35.1044C80.196 35.9547 80.4336 36.664 80.4648 37.5818C80.5817 41.1325 80.5257 44.8052 80.5245 48.3575L80.517 69.8721L80.4822 69.9974C79.3512 69.9473 78.2289 69.9028 77.0979 70.01C77.0991 70.9227 77.1439 73.0078 77.0257 73.8362C76.8802 71.4312 77.0021 67.5536 77.0033 65.0657L77.0096 48.0419C77.0096 45.0161 77.338 37.5153 76.4136 35.1572Z" fill="#003D94"/>
<path d="M34.3777 49.1194L43.1012 49.1039C43.3874 50.7968 44.0834 53.3251 44.5063 55.0491L47.1125 65.6839C48.0738 69.6105 49.0548 73.5463 49.9828 77.4803C50.4135 79.3068 50.6018 81.1637 51.0605 83.0112L51.1706 83.0411C51.2091 82.5187 51.0754 82.1765 51.1803 81.5112C51.8106 77.513 52.6477 73.4601 53.417 69.493L57.3489 49.1133C59.992 49.0934 62.6351 49.0983 65.278 49.128C64.8195 51.1531 64.3494 53.1757 63.8677 55.1955L58.3047 78.8949C57.4418 82.5481 56.1796 87.2856 55.5463 90.875L46.2019 90.8541C45.9975 89.6918 45.5214 87.9633 45.2342 86.7689L43.3037 78.7313C42.026 73.3956 40.716 68.0563 39.4552 62.7167C39.0344 60.9345 38.8191 59.0278 38.4262 57.2082C36.5074 68.4889 33.5728 79.6817 31.1341 90.8926C28.0908 90.7981 24.7631 90.8591 21.6965 90.8595L11.8102 49.1305C14.5215 49.1138 17.2326 49.1108 19.9439 49.1215L24.0658 68.9905C25.1753 74.3015 26.1874 78.3093 26.6425 83.7386C27.6153 77.9517 28.8521 72.8834 30.1805 67.1729L34.3777 49.1194Z" fill="#FEFEFE"/>
<path d="M150.466 34.1406L150.459 58.6774C150.458 62.371 150.384 66.3681 150.468 70.0441C148.484 69.9095 145.358 69.998 143.3 69.9981L130.049 69.9977C114.789 69.9971 99.2537 70.1478 84.0133 69.9779C82.9271 69.9059 81.7463 69.9291 80.6502 69.9308L80.517 69.8721L80.5245 48.3575C80.5257 44.8052 80.5817 41.1325 80.4648 37.5819C80.4337 36.664 80.196 35.9547 79.8937 35.1045C81.2213 35.0258 82.5887 35.0462 83.9212 35.0477L84.0145 35.0066L127.986 35.0115L142.587 35.0165C143.665 35.0174 150.025 35.1203 150.354 34.8803L150.466 34.1406Z" fill="#017FD7"/>
<path d="M79.8937 35.1044C81.2213 35.0257 82.5886 35.0462 83.9212 35.0477C84.1016 35.99 84.0444 38.2856 84.0382 39.3505L84.0083 46.1777C83.9996 54.0054 84.1501 62.1792 84.0133 69.9779C82.9271 69.9058 81.7463 69.9291 80.6502 69.9307L80.517 69.8721L80.5245 48.3575C80.5257 44.8052 80.5817 41.1324 80.4648 37.5818C80.4337 36.664 80.196 35.9547 79.8937 35.1044Z" fill="#0360B5"/>
<path d="M35.0505 28.1079C35.7605 28.2694 41.0469 28.0517 42.103 28.0545L65.261 28.0586C68.4275 28.058 77.5222 27.6786 80.0492 28.4972C81.169 28.8602 82.4207 30.037 83.0329 31.0298C83.7869 32.2534 83.9536 33.6008 84.0146 35.0066L83.9212 35.0477C82.5887 35.0462 81.2213 35.0257 79.8937 35.1044L79.7531 34.9468C78.8423 35.065 76.9947 34.9524 76.4136 35.1572C75.4419 33.2461 74.3134 32.6232 72.5262 31.7435L72.535 31.5448C72.0608 31.4132 66.6309 31.5217 65.58 31.5359C60.6504 31.6022 54.7053 31.5217 49.8633 31.4989C48.0703 31.4905 35.8553 31.7017 35.0565 31.4642C35.0322 30.3456 35.0301 29.2266 35.0505 28.1079Z" fill="#017FD7"/>
<path d="M72.535 31.5448C75.6197 31.5183 78.1555 31.9188 79.753 34.9468C78.8423 35.0649 76.9946 34.9524 76.4136 35.1572C75.4418 33.2461 74.3133 32.6232 72.5261 31.7435L72.535 31.5448Z" fill="#0360B5"/>
</svg>
