<svg width="140" height="140" viewBox="0 0 140 140" fill="none" xmlns="http://www.w3.org/2000/svg">
<path d="M34.059 36.0651L34.0031 21.6238C33.997 18.8285 33.8973 15.9731 34.1809 13.1949C34.5412 9.66755 36.7983 8.16305 40.1242 8.10918C46.7188 8.00203 53.3119 8.06111 59.9047 8.06331L97.85 8.04509L119.826 8.02987C122.092 8.02887 128.68 7.89108 130.676 8.21593C137.232 8.51795 136.239 15.8363 136.15 20.5367L136.161 49.8235C136.158 54.3556 136.383 61.4317 136.145 65.803C136.175 76.2147 136.384 87.8811 136.127 98.2079V118.068C136.13 121.456 136.316 125.094 135.895 128.431C135.507 131.498 132.653 132.812 129.917 132.909C125.862 133.052 121.797 132.986 117.745 132.979L94.8295 132.963L59.1538 132.956C53.211 132.959 47.2233 132.988 41.3018 132.972C35.65 132.958 33.8713 130.627 33.9982 125.038C34.0604 122.296 33.8581 119.103 34.0977 116.389C33.9248 114.944 34.0463 109.799 34.0412 108.061L34.059 104.93C28.3474 104.723 22.5997 104.86 16.8839 104.878C14.2764 104.886 11.5438 105.057 8.95376 104.797C7.86514 104.688 6.77929 104.461 5.78342 103.989C4.67498 103.464 3.90286 102.348 3.51323 101.199C2.6327 98.6019 3.15194 72.7821 3.15313 67.6157C3.15511 59.2941 2.81622 50.8321 3.18266 42.5239C3.23459 41.3471 3.31307 40.2259 3.85232 39.1576C4.40842 38.0565 5.22316 37.1673 6.38392 36.7411C9.64542 35.5434 25.0999 36.144 29.6605 36.1757C30.7809 36.1835 32.9593 36.4927 33.906 36.129C33.9575 36.1092 34.0079 36.0864 34.059 36.0651Z" fill="#20A265"/>
<path d="M34.3509 36.4661C40.379 36.0382 48.8594 36.6074 55.1256 36.3897C57.2255 36.3169 68.9637 36.3429 70.078 36.6171C71.9846 37.1363 73.2135 37.8284 74.2177 39.5865L74.3668 39.6635L74.487 39.8883C75.0409 41.9087 74.8589 43.931 74.8981 45.997C75.0453 53.7774 74.6772 61.6782 74.8989 69.4475C74.9021 69.8351 74.8883 70.3915 74.9179 70.7621C73.6614 70.6631 73.0803 70.6691 71.83 70.7393L71.8482 89.6513C71.8492 93.0044 72.0614 96.8513 71.5649 100.115C70.7381 105.551 63.7424 104.603 59.8109 104.594L42.4227 104.554C40.7999 104.555 35.693 104.476 34.3509 104.688C28.5856 104.482 22.7838 104.618 17.0143 104.636C14.3823 104.644 11.6241 104.813 9.0097 104.556C7.91085 104.448 6.8148 104.223 5.80958 103.756C4.69072 103.235 3.91134 102.13 3.51805 100.992C2.62925 98.4186 3.15337 72.84 3.15457 67.7219C3.15657 59.4781 2.81449 51.0951 3.18438 42.8646C3.23679 41.6987 3.31601 40.588 3.86033 39.5297C4.42166 38.4389 5.24405 37.558 6.41571 37.1358C9.70786 35.9493 25.3076 36.5443 29.9111 36.5757C31.0419 36.5834 33.2408 36.8897 34.1964 36.5294C34.2484 36.5098 34.2993 36.4872 34.3509 36.4661Z" fill="#117C42"/>
<path d="M71.396 38.9033C71.7658 38.7013 73.6841 38.6802 74.2373 38.6603L74.3822 38.739L74.4991 38.9685C75.0377 41.032 74.8607 43.0974 74.8988 45.2074C75.042 53.1535 74.6841 61.2226 74.8996 69.1573C74.9027 69.5532 74.8893 70.1214 74.9181 70.5C73.6963 70.3988 73.1313 70.4049 71.9156 70.4766C71.8747 65.6222 72.3065 41.9189 71.396 38.9033Z" fill="#104729"/>
<path d="M69.5128 36.3019C71.4667 36.8746 72.726 37.638 73.7551 39.5772C73.1721 39.5987 71.1504 39.6214 70.7607 39.8396C70.6975 39.7289 70.6309 39.6205 70.5612 39.5144C69.2533 37.4964 68.7545 37.78 67.8589 36.5503C68.1598 36.2338 68.9755 36.3225 69.5128 36.3019Z" fill="#175C37"/>
<path d="M45.4018 51.6321C48.142 51.6598 50.8825 51.6676 53.6228 51.6558C50.5381 56.8723 45.7408 64.7564 42.2917 69.7176C45.8035 74.9314 50.5339 82.4253 53.7073 87.811L53.6174 88.0978L52.9003 88.1541L45.2294 88.1847C43.2252 83.8301 39.1983 77.8658 37.5529 73.6673C35.1875 77.6031 31.5346 84.1432 29.493 88.1887L20.6885 88.1486L32.7347 69.7944C30.3104 66.0861 28.0086 61.9268 25.6182 58.1578C24.9111 57.0428 22.154 52.6171 21.8313 51.6955C24.672 51.6089 27.7656 51.6608 30.6251 51.6558C32.2896 55.2825 36.6072 62.5201 37.6751 65.8677C39.8495 61.6126 43.6623 55.5912 45.4018 51.6321Z" fill="#FEFEFE"/>
<path d="M74.0711 69.3207C74.2229 70.1977 74.0541 70.0323 74.6198 70.4692C75.6438 70.6734 76.1301 70.4476 77.1233 70.5277L86.4854 70.5285L86.4951 90.6445C86.4949 93.9162 86.6257 98.6012 86.3943 101.775L120.228 101.751C123.198 101.752 133.605 101.545 136.029 101.945C136.023 101.236 135.911 98.6237 136.211 98.1878V118.06C136.214 121.449 136.401 125.089 135.978 128.428C135.589 131.497 132.723 132.812 129.977 132.909C125.906 133.052 121.825 132.986 117.757 132.979L94.7518 132.963L58.9361 132.956C52.9701 132.959 46.9589 132.988 41.0141 132.972C35.3402 132.958 33.5545 130.626 33.6818 125.033C33.7443 122.29 33.5412 119.095 33.7817 116.379C33.6082 114.934 33.7302 109.786 33.725 108.047L33.7429 104.914C35.0778 104.7 40.157 104.78 41.771 104.779L59.0648 104.819C62.975 104.828 69.9329 105.786 70.7552 100.295C71.249 96.9991 71.0379 93.1136 71.0369 89.7269L71.0188 70.6255C72.2623 70.5546 72.8403 70.5486 74.09 70.6486C74.0605 70.2742 74.0742 69.7123 74.0711 69.3207Z" fill="#175C37"/>
<path d="M71.5341 70.5516C72.7957 70.4822 73.3821 70.4763 74.65 70.5741C75.093 71.1815 74.8887 74.669 74.8776 75.7085L74.8581 83.982C74.8575 92.1357 75.0191 100.946 74.8244 109.075C73.2707 111.027 72.0987 112.834 69.4244 112.979C63.9059 113.279 57.9669 113.152 52.4442 113.148L40.4523 113.139C38.5924 113.138 35.6641 113.217 33.8854 113.09C33.8591 113.726 33.8478 114.713 33.7556 115.311C33.5795 113.897 33.7033 108.861 33.698 107.16L33.7162 104.095C35.0704 103.886 40.2236 103.964 41.861 103.963L59.4063 104.002C63.3734 104.011 70.4324 104.948 71.2667 99.5768C71.7677 96.3522 71.5535 92.5511 71.5525 89.238L71.5341 70.5516Z" fill="#104729"/>
<path d="M71.7939 70.5531C73.0654 70.4817 73.6564 70.4756 74.9342 70.5763C74.6248 72.5414 74.813 78.6633 74.7869 80.9319C74.6966 88.8415 74.9558 96.9159 74.7493 104.813C73.1242 106.502 72.0836 107.759 69.5547 107.932C60.7289 108.532 51.8093 108.008 42.9725 108.18C40.3021 108.231 36.1837 107.91 33.6606 108.236L33.679 105.082C35.0438 104.866 40.2374 104.946 41.8877 104.945L59.5709 104.986C63.5691 104.995 70.6836 105.959 71.5244 100.43C72.0293 97.111 71.8135 93.1984 71.8125 89.7881L71.7939 70.5531Z" fill="#0C301E"/>
<path d="M73.7549 38.7239C77.6537 38.5657 82.5585 38.7543 86.6047 38.7415C86.6952 48.8079 86.8279 60.4077 86.6132 70.4538L118.391 70.4318C123.803 70.4322 130.631 70.2462 135.952 70.4916C135.955 69.1976 135.885 66.8025 136.147 65.6339C136.176 76.2026 136.385 88.045 136.128 98.5275C135.83 98.9697 135.941 101.62 135.947 102.34C133.534 101.934 123.177 102.144 120.221 102.143L86.5467 102.167C86.777 98.9469 86.6469 94.194 86.6471 90.8749L86.6374 70.4674L77.3195 70.4666C76.3309 70.3852 75.847 70.6144 74.8278 70.4072C74.2648 69.964 74.4327 70.1317 74.2816 69.2421C74.0622 61.2813 74.4266 53.1857 74.2808 45.2136C74.242 43.0966 74.4222 41.0244 73.8739 38.9542L73.7549 38.7239Z" fill="#0F7C41"/>
<path d="M73.7549 39.8396H77.2733L77.2682 59.9402C77.2674 61.5933 77.3707 67.8854 77.1584 69.2927C76.182 69.2167 75.7039 69.4308 74.6971 69.2372C74.141 68.8229 74.3069 68.9797 74.1576 68.1482C73.9409 60.7077 74.3008 53.1411 74.1569 45.6899C74.1185 43.7113 74.2965 41.7745 73.7549 39.8396Z" fill="#0D713B"/>
<path d="M130.696 8C137.229 8.30786 136.24 15.7678 136.151 20.5591C135.64 22.3293 135.954 37.1732 135.953 39.8396C130.771 39.5013 123.708 39.6994 118.378 39.7006L86.772 39.7077C86.9059 32.564 86.7108 25.2621 86.7864 18.1072C86.8208 14.8628 86.61 11.2797 86.8235 8.07962L115.636 8.06941C120.115 8.07023 126.339 8.25866 130.696 8Z" fill="#31C581"/>
</svg>
