<svg width="140" height="140" viewBox="0 0 140 140" fill="none" xmlns="http://www.w3.org/2000/svg">
<g clip-path="url(#clip0_176_131)">
<path d="M102.125 27.557C106.749 22.6661 110.576 18.1901 117.839 18.0054C122.022 17.8957 126.076 19.4588 129.103 22.3488C133.377 26.4455 134.424 31.7382 133.809 37.45C134.142 41.7847 133.939 48.8542 133.938 53.378L133.933 82.5432L133.946 102.808C133.949 105.595 134.098 111.39 133.777 113.958C133.516 115.938 132.671 117.795 131.349 119.293C127.617 123.57 121.665 122.666 116.528 122.656L102.348 122.647C102.331 105.935 102.528 88.8491 102.3 72.1722L102.399 72.0044C102.155 69.1884 102.319 63.5025 102.319 60.4004L102.321 38.5428C102.326 36.2648 102.504 29.3648 102.125 27.557Z" fill="#00AF45"/>
<path d="M102.125 27.557C106.749 22.6661 110.576 18.1901 117.839 18.0054C122.022 17.8957 126.076 19.4588 129.103 22.3488C133.377 26.4455 134.424 31.7382 133.809 37.45C133.124 39.0153 132.122 41.6692 131.098 42.9228C128.147 46.5361 124.267 50.1138 120.932 53.4397L102.399 72.0044C102.155 69.1884 102.319 63.5025 102.319 60.4004L102.321 38.5428C102.326 36.2648 102.504 29.3648 102.125 27.557Z" fill="#FFBC00"/>
<path d="M6.24132 37.7141C6.09101 36.3685 6.01914 35.0151 6.02573 33.661C6.07464 29.2952 7.6987 25.4451 10.8415 22.394C13.8415 19.4801 17.8895 17.899 22.0702 18.0084C29.2657 18.1557 33.0178 22.5382 37.627 27.3516C37.4503 30.7111 37.6065 35.3432 37.6146 38.8384L37.6247 60.0471C37.624 63.2279 37.7732 68.8669 37.4631 71.8994L37.6249 72.1976L37.5943 122.643L22.3905 122.653C19.9487 122.655 17.1331 122.793 14.7522 122.52C10.0532 121.947 6.29568 117.987 6.11866 113.232C5.92903 108.138 6.02215 103.001 6.0278 97.9101L6.0357 68.6455L6.03401 48.0731C6.03476 45.7065 5.89592 39.7165 6.24132 37.7141Z" fill="#4185F6"/>
<path d="M6.24139 37.7141C6.09108 36.3685 6.01922 35.0151 6.02581 33.661C6.07472 29.2952 7.69878 25.4451 10.8416 22.394C13.8416 19.4801 17.8896 17.899 22.0702 18.0084C29.2658 18.1557 33.0179 22.5382 37.6271 27.3516C37.4504 30.7111 37.6066 35.3432 37.6146 38.8384L37.6248 60.0471C37.6241 63.2279 37.7732 68.8669 37.4632 71.8994C31.1376 65.1479 24.0722 58.7636 17.6405 52.07C12.4113 46.628 9.20903 44.8506 6.24139 37.7141Z" fill="#C7221F"/>
<path d="M37.6272 27.3515C47.2821 36.7144 56.634 46.4578 66.2255 55.8909C67.4654 57.1105 68.796 58.4081 69.9528 59.6958C80.3804 49.2648 91.5418 37.6922 102.126 27.5569C102.504 29.3648 102.326 36.2648 102.321 38.5427L102.319 60.4004C102.319 63.5025 102.155 69.1883 102.399 72.0043L102.301 72.1722C100.663 73.5464 97.9891 76.369 96.4091 77.9519L85.8302 88.5635C83.558 90.8481 81.2422 93.425 78.5654 95.2125C73.3869 98.6704 66.7259 98.6392 61.4889 95.3261C58.9651 93.7293 56.2947 90.7156 54.1521 88.5678L44.0601 78.4611C42.0752 76.4755 39.7282 73.9981 37.6252 72.1976L37.4634 71.8994C37.7734 68.8668 37.6242 63.2279 37.625 60.0471L37.6148 38.8383C37.6067 35.3432 37.4506 30.711 37.6272 27.3515Z" fill="#EC4034"/>
</g>
<defs>
<clipPath id="clip0_176_131">
<rect width="140" height="140" fill="white"/>
</clipPath>
</defs>
</svg>
