<svg width="117" height="140" viewBox="0 0 117 140" fill="none" xmlns="http://www.w3.org/2000/svg">
<path d="M10.8266 0.0842102C12.2835 0.000747632 14.1194 -0.0803843 15.542 0.154952C18.844 0.714652 21.7916 2.54311 23.7481 5.24543C26.3359 8.84819 26.6171 12.2898 25.9047 16.4798C26.9381 17.6926 28.0974 18.1438 29.3638 19.102L38.2228 25.8463L58.9859 41.5013C62.1864 43.9197 65.6626 46.6806 68.8895 49.0062C72.739 47.5093 74.0882 46.5684 78.4975 46.1237C78.8228 40.8991 78.5405 35.2534 78.8823 29.6406C77.1632 28.6314 75.6802 27.5512 74.4218 25.9934C72.4582 23.6028 71.5516 20.5233 71.9116 17.4579C72.2617 14.3726 73.7563 11.4653 76.2169 9.52279C78.7733 7.52592 82.025 6.6263 85.2518 7.0235C95.418 8.17672 99.4921 21.3878 91.3687 27.7588C90.5265 28.4188 89.6579 29.0274 88.809 29.6785C88.9312 35.0865 88.9081 40.4968 88.743 45.9036C92.9822 46.8917 96.1579 47.5084 100.182 49.6951C107.729 53.8418 113.331 60.7768 115.77 68.998C118.17 77.2627 116.987 84.5559 112.839 92.1235C109.321 98.5422 101.634 104.717 94.5263 106.732C88.274 108.997 81.6385 108.77 75.2244 107.423C71.5747 112.997 67.5717 119.233 64.0657 124.877C64.7015 126.393 65.1589 127.739 65.2465 129.389C65.367 131.966 64.4488 134.485 62.6967 136.388C61.463 137.731 57.3444 140.064 55.5542 139.999C49.949 139.795 45.285 135.028 45.138 129.875C45.0819 127.152 46.1089 124.517 47.996 122.542C49.9693 120.516 53.0887 119.535 55.8697 119.492C56.8242 118.139 57.8596 116.351 58.7828 114.926C61.1922 111.137 63.6743 107.394 66.2291 103.7C50.3996 93.6124 45.4652 74.5875 56.697 58.8368C57.858 57.2086 59.6729 55.5437 61.0915 54.1002C60.023 52.979 58.2444 51.7914 56.9464 50.8516C54.4362 49.0412 51.914 47.2475 49.3794 45.4713L30.1683 31.672C26.8306 29.2592 23.3327 26.8221 20.0794 24.3192C18.8442 24.7281 17.0018 25.6827 15.7657 25.8842C-1.41884 28.6865 -6.70375 4.15771 10.8266 0.0842102ZM86.061 95.2718C92.6684 94.4411 98.3179 90.1462 100.855 84.0251C103.389 77.9038 102.422 70.9007 98.3179 65.6865C94.2141 60.4724 87.6084 57.8515 81.0209 58.8235C70.9852 60.3041 64.0195 69.5367 65.4017 79.5256C66.7823 89.5144 75.9972 96.5369 86.061 95.2718ZM84.8175 12.9829C86.824 12.6496 89.3309 11.5487 86.2576 10.0011C84.9331 9.33387 83.7342 9.43727 82.3107 9.4852C81.3149 9.68725 80.5899 9.77851 79.9458 10.5808C79.3315 12.8462 83.2883 13.1978 84.8175 12.9829ZM5.09901 11.0074C6.29976 10.2046 7.0145 9.58795 7.77564 8.34577C8.79457 6.68309 10.0158 4.31068 6.93374 4.36583C5.6055 5.43238 2.3791 8.94388 3.75623 10.7103C4.14794 10.9279 4.6414 11.1133 5.09901 11.0074ZM49.8218 128.498C51.5226 127.911 54.7351 125.177 54.132 123.217C53.5657 122.584 53.3218 122.63 52.5001 122.666C50.951 123.433 47.5359 126.236 48.2949 128.162C48.68 128.56 49.3036 128.634 49.8218 128.498Z" fill="#FE8125"/>
</svg>
