<svg width="484" height="140" viewBox="0 0 484 140" fill="none" xmlns="http://www.w3.org/2000/svg">
<g clip-path="url(#clip0_185_34)">
<path d="M150.979 25.8203C153.585 25.1284 160.887 25.4798 163.838 25.8466L164.341 26.0034C164.625 26.5932 164.571 27.1101 164.567 27.7605C164.233 30.4715 164.478 38.5627 164.435 41.6446C164.4 44.1776 164.218 53.5765 164.535 55.7366C165.132 55.825 164.967 55.7912 165.595 55.4838C170.95 51.4436 174.154 49.2157 181.201 48.8683C211.845 47.3576 228.171 84.0452 207.19 106.274C200.819 112.975 192.053 116.876 182.814 117.122C174.087 117.372 167.124 115.196 160.549 109.34C154.099 103.763 149.458 94.5175 149.189 85.8806C148.572 66.0786 149.3 46.0184 148.761 26.1954L150.979 25.8203ZM182.122 102.069C192.651 102.659 201.651 94.5639 202.183 84.0241C202.716 73.4844 194.578 64.523 184.043 64.0472C173.588 63.5749 164.715 71.6427 164.187 82.102C163.658 92.5613 171.673 101.483 182.122 102.069Z" fill="#504F4F"/>
<path d="M150.979 25.8203C153.585 25.1284 160.887 25.4798 163.837 25.8466C163.541 25.9265 163.241 25.9958 162.94 26.0537C161.065 26.4144 152.248 26.6866 150.979 25.8203Z" fill="#6B686A"/>
<path d="M252.992 26.3498C254.497 26.2644 256.005 26.2557 257.51 26.3235C263.834 26.6002 271.385 29.6339 276.346 33.5674C277.695 34.6367 279.323 36.4676 280.503 37.7562C278.432 41.0287 272.959 46.4164 270.291 49.6354C263.723 43.6095 252.205 37.6574 245.051 46.6127C243.25 48.4691 243.302 55.2718 245.053 57.014C250.293 62.2229 261.403 63.7593 268.027 66.9708C270.56 68.1878 272.872 69.8203 274.869 71.8006C279.758 76.6843 281.93 83.4747 281.961 90.2813C282.039 107.646 268.535 117.146 252.198 117.084C243.803 117.202 237.297 114.814 230.729 109.601C229.406 108.551 225.441 105.284 225.254 103.725C225.702 102.115 234.48 93.7269 236.258 92.5345C237.484 93.3951 239.67 95.7385 240.948 96.8478C245.001 100.494 248.475 101.518 253.88 101.261C259.467 100.996 265.018 96.3831 264.64 90.4785C264.127 83.0458 254.941 80.3184 249.054 78.2905C237.054 74.1565 227.732 69.5322 226.556 55.3991C225.138 38.3562 236.397 27.4393 252.992 26.3498Z" fill="#504F4F"/>
<path d="M83.3837 47.8838C87.051 47.8367 90.8573 47.9729 94.5658 47.9635C94.9125 57.4045 94.5476 66.9063 94.6639 76.4546C94.7501 85.1909 92.799 95.5538 102.554 100.11C110.854 103.885 121.235 99.5934 122.697 90.076C123.447 85.1997 123.138 79.7976 123.131 74.8751L123.121 48.1829C127.141 47.7438 134.382 47.975 138.668 48.0136L138.716 68.8097L138.716 81.3982C138.712 90.5502 138.451 98.4249 132.482 105.863C115.968 126.441 82.8961 117.604 79.3808 91.2762C79.0116 88.51 79.1409 85.2167 79.1052 82.4281C79.0374 76.3113 79.0435 70.1941 79.1239 64.0779C79.1442 61.5863 78.6855 49.4625 79.6043 48.2969C80.6716 47.8738 82.2044 47.9185 83.3837 47.8838Z" fill="#504F4F"/>
<path d="M324.06 0H335.692C337.33 3.27742 340.634 4.39723 342.619 8.76828C344.729 13.4134 341.929 15.7935 344.304 18.5825C345.902 20.4593 350.685 23.4704 352.947 25.1844C362.596 32.5904 372.316 39.9012 382.109 47.1159C384.532 48.9082 386.422 52.0594 389.674 51.468C391.581 51.1213 392.895 50.0999 394.77 49.4169C395.998 49.1497 399.645 49.2249 399.969 47.648C400.333 45.8599 400.777 33.6844 399.973 32.6869C396.658 28.5725 391.43 27.3863 392.522 18.6799C392.978 15.2524 394.784 12.1494 397.537 10.0606C406.468 3.18098 419.723 11.5189 417.362 22.6268C416.023 28.9247 413.699 28.4727 410.263 32.2636C410.114 37.0158 410.072 43.9009 410.318 48.6308C411.074 48.7309 411.882 48.8148 412.626 48.9629C441.584 54.726 450.018 91.5768 426.839 109.293C419.173 115.054 409.531 117.523 400.042 116.153C397.168 115.761 392.867 114.643 390.206 113.329C388.519 112.494 386.574 111.081 384.768 110.464C384.173 110.259 383.357 110.66 382.915 111.057C379.422 114.193 376.064 117.76 372.862 121.197C372.061 122.059 371.037 122.731 370.354 123.606C370.357 131.649 369.062 137.473 359.564 137.711C353.275 137.868 349.109 132.542 349.222 126.602C349.26 123.777 350.415 121.082 352.436 119.108C354.589 117.042 357.489 116.437 360.391 116.512C361.49 116.544 362.586 116.61 363.681 116.709C367.015 114.52 371.061 109.508 374.23 106.733C375.27 105.823 376.059 104.75 377.281 103.947C372.973 96.7885 369.227 90.3745 369.832 81.6782C370.005 79.1915 369.95 76.6585 370.591 74.1688C371.063 72.3341 374.112 64.5265 375.329 63.8043C376.36 61.9145 379.2 59.0377 380.784 57.5284C379.451 56.7052 377.666 55.1657 376.298 54.2379C373.039 51.8989 369.78 49.5688 366.561 47.1748C357.222 40.2299 346.27 33.6577 337.458 26.1261C332.523 27.3986 329.51 29.5989 323.734 26.845C320.366 25.2095 317.776 22.3125 316.528 18.7812C315.342 15.3752 315.406 11.6086 316.973 8.33915C317.994 5.49824 321.016 3.20271 323.398 1.47791C323.616 1.22391 323.921 0.35586 324.06 0ZM408.488 101.016C418.691 99.1964 425.49 89.4513 423.682 79.2412C421.874 69.0311 412.144 62.2163 401.94 64.0136C391.719 65.814 384.896 75.57 386.704 85.7956C388.514 96.0216 398.272 102.839 408.488 101.016Z" fill="#F37925"/>
<path d="M316.973 8.33915C317.994 5.49823 321.016 3.20271 323.399 1.47791C323.247 3.9589 319.069 7.46339 316.973 8.33915Z" fill="#D96929"/>
<path d="M292.265 140C292.437 126.628 292.232 112.998 292.314 99.7902C292.418 83.5252 289.942 68.8105 303.018 56.5664C308.843 51.1107 316.441 47.6331 324.578 47.749C334.414 47.9351 343.782 51.9783 350.666 59.0079C360.382 69.0257 362.265 83.3062 357.049 95.9102C349.782 113.479 327.794 122.706 311.471 111.757C310.504 111.108 309.297 109.747 308.255 109.386C307.3 110.636 307.626 136.398 307.69 140H292.265ZM327.572 101.906C333.693 101.156 336.685 99.523 340.634 94.6757C343.777 90.8182 345.391 84.906 344.784 79.953C344.065 74.4252 341.189 69.4065 336.786 65.9932C333.721 63.6028 329.881 62.1844 325.977 62.485C322.999 63.132 319.87 63.6627 317.266 65.3171C300.798 75.7767 307.281 101.804 327.572 101.906Z" fill="#504F4F"/>
<path d="M0 25.6084C5.56321 25.5334 11.0967 25.8198 16.6546 25.8986C16.9158 30.5216 16.4984 35.3576 16.6307 40.0055C16.8506 47.7234 16.2869 55.8084 16.6599 63.4914L38.5728 63.4926C41.5207 63.5058 50.1316 63.765 52.6137 63.1696C53.1509 51.2568 52.457 38.1176 52.7629 26.0279C58.2771 25.7394 63.8029 25.7572 69.3153 26.0809C68.7401 43.3633 69.1789 61.15 69.1158 78.4846L69.048 103.442C69.052 107.23 68.9438 113.361 69.225 117.053C63.6236 117.357 58.2511 117.134 52.7395 117.299C52.6487 104.626 52.9016 91.8679 52.6979 79.2059C40.6473 79.4091 28.5943 79.4211 16.5432 79.2419C16.6706 86.6931 16.7157 94.1455 16.6785 101.598C16.6829 106.574 16.8251 112.414 16.5973 117.286C11.5495 117.211 5.0249 117.075 0 117.268V25.6084Z" fill="#504F4F"/>
<path d="M450.231 39.5368C455.752 37.3107 460.745 34.6923 466.084 32.3769C466.037 38.5258 466.02 44.6749 466.037 50.824C468.702 51.2968 477.437 50.9092 480.625 50.8474C480.791 55.212 480.682 60.1499 480.679 64.5563C475.88 64.6379 470.74 64.3125 465.989 64.5866L465.996 84.0281C466.006 101.475 466.412 102.436 484 102.615V105.808C482.01 106.964 480.696 113.982 479.829 116.896C468.624 118.455 453.31 115.401 450.907 101.937C449.697 95.1704 450.264 85.247 450.266 78.1921L450.231 39.5368Z" fill="#504F4F"/>
</g>
<defs>
<clipPath id="clip0_185_34">
<rect width="484" height="140" fill="white"/>
</clipPath>
</defs>
</svg>
