<svg width="404" height="140" viewBox="0 0 404 140" fill="none" xmlns="http://www.w3.org/2000/svg">
<path d="M357.067 41.0849C361.049 40.4111 368.966 41.3162 372.749 42.9084C379.691 45.8297 384.191 50.3397 387.126 57.206C387.217 56.055 387.134 53.6123 387.136 52.3224C387.165 49.0199 387.144 45.7171 387.073 42.4153C391.261 42.5415 397.11 42.5683 401.268 42.3709C400.976 51.7712 401.236 62.8078 401.236 72.3672L401.27 125.029C398.656 124.699 389.825 124.841 387.077 125.018C387.302 120.174 387.027 114.801 387.156 109.831C386.737 110.556 386.262 111.613 385.887 112.39C381.281 120.345 374.148 124.713 365.166 126.048C344.649 129.098 331.122 116.309 327.65 96.6075C324.06 76.2377 328.226 49.4389 350.979 42.2193C352.816 41.6366 355.147 41.3657 357.067 41.0849ZM365.612 113.269C381.871 111.533 388.061 98.2721 387.158 83.4132C387.004 80.8938 387.284 78.218 386.968 75.6095C385.414 62.7969 376.86 52.7995 362.872 54.1073C356.51 54.7004 351.05 56.3003 346.907 61.4466C340.506 69.3988 339.794 81.3457 340.954 91.0913C342.712 105.877 350.549 113.966 365.612 113.269Z" fill="#243859"/>
<path d="M5.06842 67.887C6.39581 68.1986 15.8623 68.0775 17.6671 68.0745L54.7306 68.0647C59.7991 68.085 64.9643 67.8937 70.0076 68.1012C76.8932 68.3847 75.5488 77.0409 75.5468 81.8135L75.5307 96.6395C75.5105 110.103 75.5267 123.585 75.534 137.05C75.5342 137.422 75.5549 137.548 75.3166 137.843C75.0456 137.848 74.7743 137.849 74.5031 137.846C66.9105 137.81 59.6585 134.691 54.4108 129.206C45.1003 119.599 45.989 109.537 46.1744 97.2785C41.7452 97.4258 32.0555 97.5321 27.9896 96.6363C20.5188 95.0192 13.9915 90.5128 9.8334 84.1012C7.22203 80.0067 5.64274 75.6805 5.21576 70.8515C5.13479 69.9358 4.87542 68.7607 5.06842 67.887Z" fill="#1A77F3"/>
<path d="M69.0671 3.31465C89.5275 3.78675 110.211 3.11686 130.692 3.34932C140.743 3.46339 139.214 7.85907 139.162 15.8757L139.14 29.2754C139.266 43.808 139.262 58.3415 139.129 72.8741L139.076 73.2298C138.87 73.3138 138.738 73.3543 138.515 73.356C130.532 73.4237 123.824 70.0574 118.285 64.5739C114.58 60.9073 111.022 54.237 110.367 49.1796C109.815 44.9112 110.069 37.2242 110.074 32.7251C109.976 32.7316 109.877 32.7359 109.778 32.7381C97.6231 33.0199 87.442 33.7954 78.0585 24.7305C71.8091 18.6935 69.2259 11.8999 69.0671 3.31465Z" fill="#2584FE"/>
<path d="M37.0906 35.7148C43.2218 35.9163 49.5226 35.8266 55.6679 35.8242L85.3443 35.8457C88.5004 35.8623 91.6566 35.8394 94.8121 35.7769C102.613 35.6511 107.973 34.8014 107.353 44.5971C107.254 46.1605 107.315 48.2225 107.308 49.8258L107.308 63.3379L107.382 97.0517C107.399 99.9022 107.28 102.712 107.312 105.592C98.6319 105.406 93.0746 103.283 86.6358 97.232C82.3427 93.1974 78.7911 85.8091 78.1804 80.0236C77.7462 75.9088 77.9597 69.3408 77.9461 64.9763C75.4694 65.1583 72.898 64.9596 70.4884 65.0657C61.8119 65.4478 53.641 63.752 46.9586 57.8703C42.9125 54.3087 39.3493 48.7979 38.0081 43.5179C37.3729 41.0172 37.232 38.3006 37.0906 35.7148Z" fill="#1C79F5"/>
<path d="M207.711 16.6434C208.806 17.0862 220.717 16.8608 222.711 16.8175C222.798 18.7593 222.541 21.613 222.553 23.7201L222.549 50.5761L222.557 77.2926C222.658 92.2267 224.853 112.007 210.1 121.391C203.671 125.481 196.264 125.977 188.832 125.482C184.831 125.363 179.842 124.127 176.094 122.724C175.563 117.13 176.374 113.183 175.94 108.364C180.493 110.324 186.571 111.271 191.594 111.238C199.657 111.185 206.042 107.009 207.47 98.7248C208.228 94.3316 208.036 89.4253 208.038 84.9133L207.839 62.2192L207.835 33.1173C207.837 27.7141 207.928 22.0177 207.711 16.6434Z" fill="#243859"/>
<path d="M316.31 41.2923C317.617 41.2629 319.466 41.1456 320.679 41.5475C320.908 41.9334 320.717 53.2546 320.983 55.2353C290.91 51.8722 291.018 68.4734 291.689 91.7907C291.999 102.524 291.523 114.185 291.752 125.037C289.375 124.773 280.265 124.763 277.896 125.029C277.955 122.247 277.906 119.234 277.91 116.437L277.912 66.609L277.916 51.2538C277.916 48.7549 278.036 44.8333 277.79 42.4604C281.942 42.4758 287.722 42.6412 291.774 42.3328C291.592 46.2978 291.59 53.3589 291.805 57.3077C292.801 54.7564 294.198 52.3795 295.942 50.2667C299.067 46.5007 304.797 43.0445 309.577 42.0978C311.646 41.6884 314.189 41.4893 316.31 41.2923Z" fill="#243859"/>
<path d="M242.522 42.396C245.614 42.6288 253.516 42.5377 256.564 42.3417C256.256 46.968 256.483 54.5736 256.485 59.4207L256.491 92.11L256.473 113.961C256.471 116.343 256.319 122.895 256.585 125.009L253.2 124.882C249.764 124.85 245.896 124.808 242.501 125.027C242.434 122.621 242.552 119.913 242.54 117.465L242.542 90.9929L242.54 63.8727C242.517 56.8747 242.388 49.3711 242.522 42.396Z" fill="#243859"/>
<path d="M247.888 10.8317C253.315 9.83845 258.515 13.4387 259.493 18.865C260.472 24.2912 256.856 29.4801 251.425 30.4429C246.014 31.4016 240.85 27.8042 239.875 22.3996C238.901 16.9948 242.485 11.821 247.888 10.8317Z" fill="#243859"/>
</svg>
