<svg width="166" height="140" viewBox="0 0 166 140" fill="none" xmlns="http://www.w3.org/2000/svg">
<path d="M53.165 26.4381C53.1822 23.5542 53.1834 20.6703 53.1684 17.7865C53.1673 17.2578 53.1501 16.7095 53.1657 16.1866C53.239 13.7382 52.8027 11.1995 54.6898 9.27633C55.9562 7.98591 57.2577 7.43861 59.0518 7.43829C64.8659 7.43724 70.7187 7.43749 76.528 7.43667L111.664 7.43749L130.046 7.43515L135.722 7.43632C138.526 7.43998 140.886 7.20843 142.744 9.77192C144.273 11.8831 143.884 15.336 143.881 17.8657C143.856 20.6254 143.861 23.3852 143.895 26.1447L143.885 54.3093L143.898 63.8908C143.899 64.7101 143.798 67.1522 143.943 67.8391C144.954 68.4113 148.499 70.3439 149.165 70.9853C149.556 71.3583 149.839 71.8302 149.985 72.351C150.166 72.9918 150.127 73.5747 150.103 74.2347C150.228 77.1923 150.129 80.6728 150.126 83.6682L150.126 100.705L150.127 117.895C150.128 120.361 150.135 122.827 150.143 125.294C150.147 126.371 150.163 127.479 149.734 128.489C149.267 129.72 148.557 130.618 147.494 131.377C146.217 132.404 144.666 132.566 143.121 132.566C136.21 132.567 129.296 132.565 122.386 132.566L80.8029 132.569L61.6069 132.569L55.744 132.572C54.9394 132.572 54.1013 132.54 53.3004 132.561C50.5323 132.637 47.767 130.622 47.1245 127.888C46.6793 125.993 46.8432 123.495 46.8483 121.472L46.845 113.853C46.836 111.758 46.8406 109.664 46.8586 107.569C46.8904 106.587 46.8573 105.432 46.8538 104.438C46.2517 104.364 45.0176 104.391 44.3761 104.391L40.0723 104.396L26.4383 104.398C25.778 104.4 25.0907 104.423 24.4291 104.404C22.6829 104.354 20.6971 104.622 19.0536 103.927C16.8941 103.012 15.6492 100.968 15.6073 98.6531C15.5741 96.8201 15.6068 95.0155 15.6163 93.1866L15.6184 84.976L15.6146 61.341L15.6064 47.6681L15.6067 43.5108C15.5998 41.2736 15.4068 39.162 17.0915 37.4006C17.9977 36.4702 19.1762 35.8521 20.4568 35.6355C21.4238 35.4682 23.1767 35.5206 24.2087 35.5209L30.203 35.5263C37.7646 35.5353 45.6118 35.6377 53.149 35.5151C53.2051 33.3787 53.152 31.1626 53.1808 29.0062C53.1292 28.3936 53.1663 27.1013 53.165 26.4381Z" fill="#27A8E9"/>
<path d="M46.8538 104.438C46.2517 104.364 45.0176 104.391 44.3761 104.391L40.0723 104.396L26.4383 104.398C25.778 104.4 25.0907 104.423 24.4291 104.404C22.6829 104.354 20.6971 104.622 19.0536 103.927C16.8941 103.012 15.6492 100.968 15.6073 98.6531C15.5741 96.8201 15.6068 95.0155 15.6163 93.1866L15.6184 84.976L15.6146 61.3411L15.6064 47.6681L15.6067 43.5108C15.5998 41.2736 15.4068 39.1621 17.0915 37.4006C17.9977 36.4702 19.1762 35.8521 20.4568 35.6355C21.4238 35.4682 23.1767 35.5206 24.2087 35.5209L30.203 35.5263C37.7646 35.5353 45.6118 35.6377 53.149 35.5151C55.6445 35.7375 59.7829 35.6013 62.4331 35.5997L79.7234 35.6501C80.4263 35.3906 82.5299 35.4975 83.2769 35.7462C83.6702 35.8772 84.0667 36.0512 84.401 36.156L84.4196 36.2228C84.3985 36.9199 84.4697 39.5964 84.2731 39.9805C84.4608 41.7655 84.405 43.6881 84.4066 45.4941L84.3985 54.3007C84.9383 54.3044 87.1509 54.2861 87.5539 54.358L87.562 74.5226C87.5612 77.1212 87.5158 79.876 87.5733 82.4649L87.5684 82.8412L87.5539 89.1792C87.5539 90.2741 87.5142 91.6579 87.5644 92.7334C87.5862 93.9344 87.5838 95.1353 87.5571 96.3354L87.6647 96.4058C87.498 96.6979 87.5652 102.384 87.4875 103.354L87.4454 103.418C87.1622 103.848 86.9558 104.294 86.6969 104.735C85.8844 106.116 84.7158 107.077 83.1272 107.41C82.114 107.622 80.9996 107.575 79.957 107.543C77.7956 107.644 75.5946 107.61 73.4276 107.61L63.6213 107.609L53.1504 107.611C51.1145 107.611 48.8816 107.65 46.8586 107.569C46.8904 106.587 46.8573 105.432 46.8538 104.438Z" fill="#1078D4"/>
<path d="M84.426 94.5737L84.4996 94.5988L87.557 96.3354L87.6647 96.4058C87.498 96.6979 87.5651 102.384 87.4874 103.354L87.4454 103.418C87.1621 103.848 86.9558 104.294 86.6968 104.735C85.8843 106.116 84.7157 107.077 83.1271 107.41C82.1139 107.622 80.9995 107.575 79.957 107.543C77.7956 107.644 75.5945 107.61 73.4275 107.61L63.6212 107.609L53.1504 107.611C51.1144 107.611 48.8815 107.65 46.8585 107.569C46.8903 106.587 46.8572 105.432 46.8538 104.438C48.2031 104.55 50.7586 104.467 52.1942 104.467H62.7567L73.1254 104.471C75.0581 104.476 77.0039 104.523 78.9332 104.427C81.6292 104.291 83.6175 102.543 84.2714 99.9681C84.4923 98.2719 84.4316 96.3014 84.426 94.5737Z" fill="#0B4A82"/>
<path d="M84.4261 94.5737L84.4997 94.5988L87.5571 96.3354L87.6647 96.4058C87.498 96.6979 87.5652 102.384 87.4875 103.354L87.4454 103.418C87.1622 103.848 86.9558 104.294 86.6969 104.735C85.8844 106.116 84.7158 107.077 83.1272 107.41C82.114 107.622 80.9996 107.575 79.957 107.543C83.3109 106.765 84.9529 103.237 84.3702 100.023L84.2715 99.9681C84.4924 98.2719 84.4317 96.3014 84.4261 94.5737Z" fill="#146090"/>
<path d="M84.3987 54.3007C84.9385 54.3044 87.151 54.2861 87.5541 54.358L87.5621 74.5226C87.5613 77.1211 87.516 79.876 87.5735 82.4649L87.5686 82.8412L87.5541 89.1792C87.5541 90.2741 87.5144 91.6579 87.5646 92.7334C87.5864 93.9343 87.584 95.1353 87.5573 96.3354L84.4999 94.5987L84.4262 94.5736C84.3623 93.6034 84.4068 92.2131 84.4149 91.2153C84.355 90.1017 84.4044 88.5027 84.4044 87.36L84.4076 79.8388C84.4198 71.3769 84.5039 62.7487 84.3987 54.3007Z" fill="#0B4A82"/>
<path d="M84.5104 82.4656C85.3432 82.4673 86.477 82.4584 87.3259 82.5474C87.4918 82.5652 87.5015 82.6906 87.5687 82.8411L87.5541 89.1792C87.5541 90.2741 87.5144 91.6579 87.5646 92.7334C87.5865 93.9343 87.584 95.1352 87.5573 96.3354L84.4999 94.5987L84.4263 94.5736C84.3623 93.6033 84.4069 92.213 84.4149 91.2152C84.5582 90.5711 84.5112 88.7365 84.508 87.9693C84.4902 86.1348 84.491 84.3002 84.5104 82.4656Z" fill="#023A6A"/>
<path d="M84.5362 91.0226C85.4175 91.407 86.591 92.2365 87.5645 92.7334C87.5864 93.9343 87.584 95.1352 87.5573 96.3354L84.4998 94.5987C84.4974 93.4957 84.4561 92.0998 84.5362 91.0226Z" fill="#082764"/>
<path d="M79.7234 35.6501C80.4263 35.3906 82.5299 35.4975 83.2769 35.7462C83.6702 35.8772 84.0667 36.0512 84.401 36.156L84.4196 36.2228C84.3985 36.9199 84.4697 39.5964 84.2731 39.9805C84.0659 39.271 83.7811 38.6045 83.3635 37.992C82.5154 36.7531 81.2027 35.9088 79.7234 35.6501Z" fill="#0B4A82"/>
<path d="M48.6916 49.8025L48.7774 49.7947C59.8282 48.8632 67.8322 56.3166 68.6486 67.1844C69.5062 78.6023 63.7393 88.7697 51.5009 89.6696C46.2099 89.8905 41.7716 88.9736 37.5719 85.472C33.749 82.1945 31.665 77.1917 31.3127 72.2446C30.4815 60.576 36.3343 50.7349 48.6916 49.8025Z" fill="#FEFEFE"/>
<path d="M49.5779 56.3581C57.4287 56.0522 60.4501 62.1253 60.7785 69.0018C61.0955 75.6436 58.2875 82.8816 50.6174 83.1236C47.7333 83.1543 45.7278 82.7335 43.4202 80.8081C40.7152 78.5019 39.5157 74.7477 39.2762 71.294C38.7937 64.3377 41.6205 56.8583 49.5779 56.3581Z" fill="#0778D1"/>
<path d="M87.4875 103.354C87.5652 102.384 87.498 96.6979 87.6647 96.4058C88.0572 96.6275 90.5457 98.0048 90.7513 98.1748C92.6393 99.1807 94.4861 100.314 96.3458 101.366C96.9997 101.735 98.3519 102.592 98.9621 102.86C100.198 103.707 102.172 104.791 103.499 105.566L111.486 110.233L135.345 124.21L143.189 128.799C144.166 129.368 146.711 130.78 147.494 131.377C146.217 132.404 144.666 132.566 143.121 132.566C136.21 132.567 129.296 132.565 122.386 132.566L80.8029 132.569L61.6069 132.569L55.744 132.572C54.9394 132.572 54.1013 132.54 53.3004 132.561C50.5323 132.637 47.767 130.622 47.1245 127.888C46.6793 125.993 46.8432 123.495 46.8483 121.472L46.845 113.853C46.836 111.758 46.8406 109.664 46.8586 107.569C48.8816 107.65 51.1145 107.611 53.1504 107.611L63.6213 107.609L73.4276 107.61C75.5946 107.61 77.7956 107.644 79.957 107.543C80.9996 107.575 82.114 107.622 83.1272 107.41C84.7158 107.077 85.8844 106.116 86.6969 104.735C86.9558 104.294 87.1622 103.848 87.4454 103.418L87.4875 103.354Z" fill="#27A8E9"/>
<path d="M79.9571 107.543C80.9997 107.575 82.114 107.622 83.1272 107.41C84.7158 107.077 85.8844 106.116 86.6969 104.735C86.9559 104.294 87.1622 103.848 87.4455 103.418L87.4876 103.354C87.6494 105.053 87.6794 108.731 87.1671 110.272C84.732 114.179 83.2599 113.86 78.9707 113.86H72.6065L46.8451 113.853C46.8361 111.758 46.8406 109.664 46.8587 107.569C48.8817 107.65 51.1145 107.611 53.1505 107.611L63.6213 107.609L73.4277 107.61C75.5946 107.61 77.7957 107.644 79.9571 107.543Z" fill="#1E80B2"/>
<path d="M87.4877 103.354C87.5654 102.384 87.4982 96.6979 87.6649 96.4058C88.0574 96.6275 90.5459 98.0048 90.7515 98.1748C90.6908 99.5626 90.7086 101.164 90.707 102.575C90.7037 105.248 90.9182 107.306 88.7777 109.304C88.2865 109.762 87.8033 110.065 87.1672 110.272C87.6795 108.731 87.6496 105.053 87.4877 103.354Z" fill="#1690DC"/>
<path d="M53.1651 26.4381C53.1824 23.5542 53.1835 20.6703 53.1685 17.7865C53.1674 17.2578 53.1502 16.7095 53.1658 16.1866C53.2391 13.7382 52.8028 11.1995 54.6899 9.27633C55.9563 7.98591 57.2578 7.43861 59.052 7.43829C64.866 7.43724 70.7188 7.43749 76.5281 7.43667L111.664 7.43749L130.046 7.43515L135.722 7.43632C138.526 7.43998 140.886 7.20843 142.744 9.77192C144.273 11.8831 143.884 15.336 143.881 17.8657C143.856 20.6254 143.861 23.3852 143.895 26.1447L116.481 26.148C115.694 26.0891 114.023 26.1446 113.159 26.1465L106.616 26.1536L84.4302 26.1424L84.4246 30.1918C84.4246 30.7601 84.3987 31.8573 84.4594 32.3782L84.4367 32.5975C84.4205 33.6824 84.359 35.0968 84.4011 36.156C84.0669 36.0512 83.6703 35.8771 83.277 35.7462C82.5301 35.4974 80.4265 35.3906 79.7235 35.6501L62.4332 35.5997C59.783 35.6013 55.6446 35.7375 53.1492 35.5151C53.2053 33.3787 53.1522 31.1626 53.1809 29.0062C53.1293 28.3936 53.1664 27.1013 53.1651 26.4381Z" fill="#0165B7"/>
<path d="M53.1651 26.4381C53.2163 26.2985 53.2453 26.2416 53.3147 26.1094C54.2155 26.1852 55.8167 26.1396 56.782 26.1396L63.312 26.1386L84.4302 26.1424L84.4246 30.1919C84.4246 30.7601 84.3987 31.8573 84.4594 32.3782L84.4367 32.5975C84.4205 33.6824 84.359 35.0968 84.4011 36.156C84.0669 36.0512 83.6703 35.8771 83.277 35.7462C82.5301 35.4974 80.4265 35.3906 79.7235 35.6501L62.4332 35.5997C59.783 35.6013 55.6446 35.7375 53.1492 35.5151C53.2053 33.3787 53.1522 31.1626 53.1809 29.0062C53.1293 28.3936 53.1664 27.1013 53.1651 26.4381Z" fill="#0778D1"/>
<path d="M53.1809 29.0062C53.3551 29.7524 53.0842 32.2041 53.345 32.5599C53.4042 32.5103 53.4764 32.4497 53.5617 32.3784C54.2434 32.3651 55.1155 32.3618 55.7777 32.3618L62.7792 32.3663L77.2387 32.366C78.2092 32.366 84.1632 32.2999 84.3873 32.4603L84.4367 32.5975C84.4205 33.6824 84.359 35.0968 84.4011 36.156C84.0669 36.0512 83.6703 35.8772 83.277 35.7462C82.5301 35.4975 80.4265 35.3906 79.7235 35.6501L62.4332 35.5997C59.783 35.6013 55.6446 35.7375 53.1492 35.5151C53.2053 33.3787 53.1522 31.1626 53.1809 29.0062Z" fill="#0165B7"/>
<path d="M144.043 78.2276C145.589 77.4418 147.354 76.3358 148.886 75.4803C149.468 75.1553 149.808 74.3597 150.103 74.2347C150.228 77.1923 150.129 80.6728 150.126 83.6682L150.127 100.705L150.127 117.895C150.128 120.361 150.135 122.827 150.143 125.294C150.147 126.371 150.163 127.479 149.734 128.489C149.267 129.72 148.557 130.618 147.494 131.377C146.711 130.78 144.166 129.368 143.189 128.799L135.345 124.21L111.486 110.233L103.499 105.566C102.172 104.791 100.198 103.707 98.9621 102.86C98.352 102.592 96.9997 101.736 96.3458 101.366C94.4861 100.314 92.6393 99.1807 90.7513 98.1748C90.5458 98.0049 88.0573 96.6275 87.6648 96.4058L87.5571 96.3354C87.5838 95.1353 87.5863 93.9344 87.5644 92.7334C88.5606 93.2659 89.6887 93.8389 90.6291 94.4426C90.9965 94.7711 93.4065 96.0522 93.9722 96.392C95.7275 97.4449 97.847 98.5268 99.5367 99.6218C100.899 99.0553 103.497 97.4174 104.887 96.6656C108.539 94.6886 112.162 92.4955 115.824 90.5468L125.023 85.3555C126.186 84.7049 128.945 83.2741 129.912 82.524L130.214 82.4519C132.039 82.5418 134.582 82.3516 136.301 82.5774C136.539 82.4989 137.725 81.8167 137.954 81.6718C139.841 80.4681 142.214 79.4686 144.043 78.2276Z" fill="#1690DC"/>
<path d="M103.045 101.285C103.057 101.525 103.005 101.498 103.156 101.62C103.827 102.162 104.695 102.488 105.444 102.932L113.506 107.681L131.975 118.459C133.557 119.375 134.996 120.319 136.617 121.206C140.01 123.061 143.274 125.21 146.671 127.058C147.254 127.375 148.966 128.587 149.47 128.709C149.54 128.649 149.663 128.535 149.734 128.489C149.267 129.72 148.557 130.618 147.494 131.377C146.711 130.78 144.166 129.368 143.189 128.799L135.345 124.21L111.486 110.233L103.499 105.566C102.172 104.791 100.198 103.707 98.9622 102.86C100.779 102.632 101.517 102.194 103.045 101.285Z" fill="#0778D1"/>
<path d="M130.214 82.4519C132.039 82.5417 134.582 82.3516 136.301 82.5773L114.277 94.9734L106.853 99.1564C105.808 99.7456 104.066 100.797 103.045 101.285C101.517 102.194 100.779 102.632 98.9621 102.86C98.352 102.592 96.9997 101.735 96.3458 101.366C94.4861 100.314 92.6393 99.1807 90.7513 98.1748C90.5458 98.0049 88.0573 96.6275 87.6648 96.4058L87.5571 96.3354C87.5838 95.1353 87.5863 93.9343 87.5644 92.7334C88.5606 93.2659 89.6887 93.8388 90.6291 94.4425C90.9965 94.7711 93.4065 96.0521 93.9722 96.392C95.7275 97.4449 97.847 98.5268 99.5367 99.6217C100.899 99.0553 103.497 97.4173 104.887 96.6655C108.539 94.6886 112.162 92.4955 115.824 90.5468L125.023 85.3555C126.186 84.7049 128.945 83.2741 129.912 82.5239L130.214 82.4519Z" fill="#0B4A82"/>
<path d="M87.5685 54.3137C88.3632 54.3403 89.1579 54.3547 89.9526 54.357C90.1744 54.3393 90.4624 54.3401 90.6899 54.3338C98.9938 54.4447 107.448 54.3199 115.768 54.3428L115.747 70.9057C115.747 74.708 115.689 78.6829 115.762 82.4738L125.623 82.473C126.37 82.473 129.404 82.4317 129.912 82.524C128.945 83.2741 126.186 84.7049 125.023 85.3555L115.824 90.5469C112.162 92.4955 108.539 94.6886 104.887 96.6656C103.497 97.4174 100.899 99.0553 99.5368 99.6218C97.847 98.5269 95.7275 97.4449 93.9722 96.3921C93.4066 96.0522 90.9966 94.7711 90.6292 94.4426C89.6888 93.8389 88.5607 93.2659 87.5645 92.7334C87.5143 91.658 87.5539 90.2741 87.5539 89.1792L87.5685 82.8412L87.5734 82.4649C87.5159 79.876 87.5612 77.1212 87.562 74.5226L87.5539 54.3581L87.5685 54.3137Z" fill="#0778D1"/>
<path d="M87.5685 54.3137C88.3632 54.3403 89.1579 54.3547 89.9526 54.357C90.2723 54.3786 90.4657 54.3329 90.6753 54.5054C90.8274 56.3052 90.7109 60.1442 90.7085 62.0327L90.7077 75.1265C90.7085 77.48 90.6389 80.1148 90.7376 82.4447C96.672 82.5725 102.715 82.4139 108.658 82.4762C110.918 82.4997 113.528 82.3953 115.75 82.4932C115.75 83.4789 115.671 90.0662 115.824 90.5469C112.162 92.4955 108.539 94.6886 104.887 96.6656C103.497 97.4174 100.899 99.0553 99.5368 99.6218C97.847 98.5269 95.7275 97.4449 93.9722 96.3921C93.4066 96.0522 90.9966 94.7711 90.6292 94.4426C89.6888 93.8389 88.5607 93.2659 87.5645 92.7334C87.5143 91.658 87.5539 90.2741 87.5539 89.1792L87.5685 82.8412L87.5734 82.4649C87.5159 79.876 87.5612 77.1212 87.562 74.5226L87.5539 54.3581L87.5685 54.3137Z" fill="#0165B7"/>
<path d="M87.5734 82.4648L90.6753 82.4681C90.753 83.6018 90.7222 85.4639 90.7101 86.6398C90.685 89.0651 90.7991 92.0472 90.6292 94.4425C89.6888 93.8388 88.5607 93.2659 87.5645 92.7334C87.5143 91.6579 87.5539 90.2741 87.5539 89.1792L87.5685 82.8411L87.5734 82.4648Z" fill="#146090"/>
<path d="M116.481 26.148L143.895 26.1447L143.885 54.3093C142.652 54.3732 141.089 54.3397 139.841 54.3403L132.789 54.3419C127.186 54.3423 121.367 54.4199 115.777 54.3288C115.704 52.1112 115.75 49.6705 115.75 47.4359L115.753 35.3675L115.748 29.4214C115.744 28.7891 115.685 26.8863 115.763 26.3375C115.995 26.1428 116.136 26.1872 116.481 26.148Z" fill="#4FD9FE"/>
<path d="M84.4593 32.3782C86.4283 32.5029 87.9068 32.8326 89.3028 34.4222C89.947 35.1546 90.384 36.0464 90.5669 37.0046C90.7902 38.2163 90.6996 41.5996 90.6972 43.0228L90.6899 54.3337C90.4625 54.34 90.1744 54.3392 89.9526 54.357C89.1579 54.3546 88.3632 54.3402 87.5685 54.3137L87.554 54.358C87.151 54.2861 84.9384 54.3044 84.3986 54.3006L84.4067 45.4941C84.4051 43.6881 84.4609 41.7655 84.2732 39.9805C84.4698 39.5963 84.3986 36.9198 84.4197 36.2228L84.4011 36.156C84.359 35.0968 84.4205 33.6824 84.4367 32.5975L84.4593 32.3782Z" fill="#1690DC"/>
<path d="M84.4197 36.2228C86.1329 36.8818 87.4277 39.0042 87.5175 40.7959C87.5969 42.3836 87.5734 43.9799 87.5734 45.5706L87.5685 54.3137L87.554 54.358C87.151 54.2861 84.9384 54.3044 84.3986 54.3007L84.4067 45.4941C84.4051 43.6881 84.4609 41.7655 84.2732 39.9805C84.4698 39.5964 84.3986 36.9199 84.4197 36.2228Z" fill="#146090"/>
<path d="M143.943 67.8391C144.954 68.4113 148.499 70.3439 149.165 70.9853C149.556 71.3583 149.839 71.8302 149.985 72.3509C150.166 72.9918 150.126 73.5747 150.103 74.2347C149.808 74.3597 149.468 75.1553 148.886 75.4803C147.354 76.3358 145.589 77.4418 144.043 78.2275C143.846 77.8018 144.011 69.9676 143.958 68.6983L143.943 67.8391Z" fill="#082764"/>
<path d="M143.958 68.6983C144.011 69.9676 143.846 77.8018 144.043 78.2275C142.215 79.4686 139.841 80.468 137.954 81.6718C137.725 81.8166 136.539 82.4988 136.301 82.5773C134.582 82.3515 132.039 82.5417 130.214 82.4519C133.484 80.6946 136.803 78.6319 140.096 76.8719C141.37 76.1909 142.62 75.3846 143.927 74.7602C143.88 73.4433 143.831 69.8962 143.958 68.6983Z" fill="#0165B7"/>
</svg>
