<svg width="140" height="140" viewBox="0 0 140 140" fill="none" xmlns="http://www.w3.org/2000/svg">
<path d="M127.491 20.4584C128.432 19.5733 134.755 14.4423 135.483 14.1955C136.634 13.8055 137.625 14.0337 138.675 14.5742C140.293 16.2115 139.985 17.9182 139.962 20.2269L139.918 86.5666L139.922 104.385C139.926 110.665 140.801 116.459 135.702 121.337C130.798 126.028 125.838 125.523 119.573 125.534L110.164 125.54C102.299 125.434 94.2619 125.513 86.3854 125.513L42.6219 125.511H23.6008C20.2661 125.511 16.6295 125.605 13.3562 125.428C9.4067 125.115 5.94953 123.351 3.41015 120.331C0.842355 117.276 0.00349307 114.061 0.0102216 110.144C0.0151425 107.32 0.0175521 104.512 0.0183555 101.702L0.0173503 80.4378L0.014641 53.9333L0.0145399 45.6394C0.0145399 44.1851 -0.044512 42.1908 0.0753969 40.7822C0.0256859 36.0804 0.00981941 31.3782 0.0278961 26.6761C0.0244816 23.4451 -0.0681096 19.6763 0.119487 16.4973C0.889957 13.3649 4.13804 13.4319 6.26457 15.3614L45.1354 47.4914L55.3038 55.9042C60.6075 60.3315 64.4184 64.5259 71.8427 63.6126C74.3986 63.2983 75.8818 62.5197 78.2077 61.6645C78.5944 61.2585 79.4952 60.7057 79.9501 60.1892C80.2785 59.8158 81.0096 59.2596 81.4254 58.8994C83.7995 56.8131 86.1886 54.7423 88.5908 52.6871C95.5584 46.7759 102.909 40.7977 109.996 34.9938C111.989 33.1765 114.204 31.5173 116.254 29.7527C118.532 27.7928 120.912 25.9572 123.182 23.9833C123.818 23.4869 124.277 23.1714 124.899 22.6225C125.251 22.2628 126.959 20.9061 127.491 20.4584Z" fill="#6A4AFE"/>
<path d="M127.662 20.4584C128.59 19.5733 134.827 14.4423 135.545 14.1955C136.68 13.8055 137.657 14.0337 138.694 14.5742C140.289 16.2115 139.985 17.9182 139.962 20.2269L139.919 86.5666L139.923 104.385C139.927 110.665 140.79 116.459 135.761 121.337C130.924 126.028 126.032 125.523 119.853 125.534L110.573 125.54V57.3203L110.577 43.0926C110.578 41.849 110.684 35.7847 110.406 34.9938C112.373 33.1765 114.557 31.5173 116.579 29.7527C118.826 27.7928 121.173 25.9572 123.412 23.9833C124.04 23.4869 124.493 23.1714 125.106 22.6225C125.453 22.2628 127.137 20.9061 127.662 20.4584Z" fill="#B5A6FF"/>
<path d="M127.48 20.3385C128.437 19.4698 134.872 14.4341 135.613 14.1918C136.784 13.8091 137.793 14.033 138.862 14.5635L138.814 14.6448C138.661 14.9109 138.61 14.9584 138.613 15.2662C138.312 15.4973 136.369 15.8923 135.985 15.8629C135.669 15.651 135.833 15.6807 135.491 15.7213C135.28 16.1741 135.4 16.0937 134.831 16.2975C132.667 17.0733 129.593 20.0193 127.793 20.8293C127.44 20.3909 128.125 20.7307 127.48 20.3385Z" fill="#9A82FE"/>
<path d="M122.927 24.0377C123.635 23.6977 124.145 23.4816 124.836 23.1057C124.946 23.1749 125.22 23.3097 125.202 23.3918C125.092 23.9103 124.183 24.2495 123.441 24.2439L123.302 24.1815C123.139 24.1099 123.098 24.093 122.927 24.0377Z" fill="#9A82FE"/>
<path d="M0.117922 16.4789C0.891652 13.3574 4.15348 13.4241 6.289 15.3469L45.3244 47.3651L55.5357 55.7485C60.8619 60.1604 64.6889 64.3402 72.1446 63.4301C74.7113 63.1169 76.2009 62.341 78.5366 61.4888C78.4256 61.9256 77.0752 62.9908 76.689 63.3293L72.8788 66.6621L64.8868 73.6394C63.4486 74.9003 61.0518 77.1245 59.5192 78.068C57.8385 79.092 55.9486 79.7349 53.9858 79.9499C51.3642 80.2166 48.7234 79.6752 46.4256 78.4023C44.6944 77.436 42.3077 75.3322 40.7162 74.0195L32.6679 67.4115L11.3362 49.8924C7.59896 46.8012 3.84467 43.7301 0.0736454 40.6792C0.023724 35.9937 0.00779035 31.308 0.0259436 26.6222C0.0225146 23.4025 -0.0704684 19.6469 0.117922 16.4789Z" fill="#C4B8FF"/>
<path d="M0 16.2764C0.856254 13.4098 4.46598 13.4712 6.82927 15.2369C6.39891 15.4244 6.51509 15.4462 6.14601 15.38L5.87034 15.1829L5.57948 15.2015C5.32982 15.4651 5.42993 15.3154 5.39455 15.7262C4.03573 15.7347 2.67579 15.688 1.32221 15.7824C0.840292 15.8159 0.422993 16.0808 0 16.2764Z" fill="#9A82FE"/>
</svg>
