<svg width="198" height="140" viewBox="0 0 198 140" fill="none" xmlns="http://www.w3.org/2000/svg">
<path d="M51.3369 0.0247428C52.9533 -0.171624 59.5305 0.852143 61.2187 1.28404C68.1278 3.02423 74.4243 6.65851 79.4106 11.7843C80.4088 12.8108 81.7543 14.2681 82.4722 15.4782C84.3299 12.529 90.6015 8.6527 93.8901 7.26333C102.408 3.64141 112.004 3.57843 120.567 7.08824C126.627 9.54856 131.872 13.6846 135.7 19.0197C136.675 20.3861 137.366 21.3161 138.009 22.8772C138.253 22.7193 138.503 22.5738 138.762 22.4414C140.137 21.7408 143.093 20.7972 144.573 20.4173C152.461 18.3547 160.77 18.6297 168.506 21.2094C179.334 24.7703 188.289 32.5664 193.362 42.8472C198.569 53.3005 199.429 65.4144 195.753 76.5091C192.199 87.3709 184.514 96.3658 174.384 101.517C167.229 105.11 159.541 106.499 151.597 105.843C150.132 105.722 148.171 105.598 146.818 105.14C144.875 110.381 138.233 115.533 133.494 118.172C124.536 122.186 114.868 122.606 105.962 118.125C105.838 118.503 105.699 118.876 105.546 119.243C102.129 127.259 94.7927 134.171 86.8215 137.382C72.8449 143.011 56.5436 139.43 46.5799 127.926C43.5049 124.376 41.4959 120.855 39.7432 116.442C38.8577 116.813 37.7975 116.946 36.8483 117.062C23.5352 118.694 10.0407 111.446 3.92312 99.4545C-0.344115 91.2673 -1.16798 81.6944 1.63695 72.8884C4.00254 65.5129 9.68366 57.8596 16.5877 54.3014C15.2174 51.976 13.8662 46.0767 13.5518 43.2674C12.4173 33.0132 15.3729 22.725 21.7673 14.6688C27.2774 7.7099 35.0024 2.88296 43.636 1.00428C46.2407 0.450465 48.714 0.314555 51.3369 0.0247428Z" fill="#00A1E0"/>
<path d="M122.785 56.4842C125.129 56.3976 126.545 56.321 128.687 57.5811C130.412 58.6026 131.821 60.5972 132.207 62.5954C133.299 68.2283 132.03 73.6062 125.882 75.0901C120.728 75.8267 116.626 72.8825 116.166 67.59C115.685 62.0635 117.039 57.9885 122.785 56.4842Z" fill="#FEFEFE"/>
<path d="M123.74 59.5506C127.677 59.3029 128.769 62.6389 128.666 65.9689C128.578 68.857 128.1 70.8795 125.268 72.0908C122.81 72.1858 120.8 71.2903 120.273 68.6976C119.552 65.1481 119.614 60.6018 123.74 59.5506Z" fill="#00A1E0"/>
<path d="M50.0485 56.499C59.5723 55.4755 59.449 60.5713 59.4303 67.8315L59.423 73.9897C55.3767 75.1838 48.0067 76.5498 45.2106 72.422C44.234 70.7611 44.1808 68.4763 45.0278 66.7762C46.991 62.8357 51.9998 63.266 55.5425 63.4078C55.5537 62.8719 55.6283 61.7957 55.3855 61.3229C53.8206 58.2761 48.8327 59.789 46.526 60.9482C46.0688 60.0009 45.696 59.0298 45.3073 58.0526C47.1734 57.2258 48.0577 56.91 50.0485 56.499Z" fill="#FEFEFE"/>
<path d="M51.3603 66.2878C52.998 66.1938 53.9197 66.1756 55.5242 66.4849L55.5408 71.7418C54.1482 72.0914 53.7635 72.0893 52.3588 72.0904C50.2929 72.141 49.7647 72.1276 48.3835 70.5353C47.9339 67.6229 48.672 66.9217 51.3603 66.2878Z" fill="#00A1E0"/>
<path d="M76.7633 56.4888C77.3708 56.466 77.9785 56.4501 78.5864 56.4413C81.5049 56.4074 84.0469 57.972 85.1203 60.7508C85.8666 62.6831 85.736 64.7559 85.7238 66.7909C84.0166 66.7974 75.1592 66.5854 74.1673 66.9555C73.9599 67.3603 74.0489 67.7524 74.1329 68.1821C75.0605 72.9241 79.809 72.2099 83.243 71.3704L83.996 71.1643C84.7328 71.5413 84.9318 72.9811 85.2661 73.9576C81.7432 75.3979 77.2435 75.8829 73.8365 73.8738C69.3097 71.2109 68.943 64.3459 71.3673 60.1438C72.5361 58.1177 74.5775 57.0217 76.7633 56.4888Z" fill="#FEFEFE"/>
<path d="M77.129 59.5638C80.5388 59.3615 81.6275 60.56 82.2246 63.8754C81.3923 63.9791 80.2126 63.9655 79.3446 63.9787C77.5505 63.9852 75.7565 63.9807 73.9624 63.9655C74.4448 61.5567 74.839 60.5754 77.129 59.5638Z" fill="#00A1E0"/>
<path d="M168.645 56.4884C169.403 56.4587 170.362 56.4068 171.108 56.4558C172.897 56.5643 174.565 57.3964 175.736 58.7632C177.72 61.0798 177.79 63.922 177.583 66.7928L165.773 66.8038C165.843 67.3794 165.945 68.2911 166.104 68.8198C166.431 69.9168 167.182 70.8351 168.188 71.3669C170.477 72.5664 172.964 71.9791 175.264 71.2642L175.805 71.0739C176.505 71.502 176.692 73.0071 177.095 73.977C173.594 75.4102 169.057 75.8458 165.672 73.8802C160.766 71.0305 160.555 62.2839 164.531 58.5779C165.794 57.4003 166.992 56.8902 168.645 56.4884Z" fill="#FEFEFE"/>
<path d="M169.007 59.5612C171.418 59.3843 173.309 60.2758 174.101 62.9608C174.2 63.2978 173.976 63.5996 173.784 63.8557C173.15 64.0292 171.949 63.9789 171.252 63.9791C169.822 63.9588 168.371 64.0553 166.94 64.0204C166.313 64.0051 166.064 63.9553 165.786 63.3859C165.796 61.7847 167.622 60.1768 169.007 59.5612Z" fill="#00A1E0"/>
<path d="M114.767 48.9774C116.206 48.8057 118.893 48.8909 117.771 51.018C117.213 52.076 117.545 52.8936 115.986 52.397C112.834 51.3922 112.133 54.3731 111.691 56.7503C113.031 56.7256 114.418 56.7433 115.763 56.7422C115.59 57.7749 115.424 58.8088 115.265 59.8437C113.957 59.7924 112.424 59.8107 111.101 59.797C110.436 65.335 109.074 71.6739 107.968 77.1925C107.408 79.9841 105.592 82.3554 102.655 82.9456C100.864 83.0575 99.6691 83.0791 97.9819 82.5049C98.4845 81.3216 98.7361 80.7602 99.1108 79.5086C99.4318 79.6162 99.7563 79.7132 100.084 79.7997C101.935 80.2688 103.473 79.5653 104.031 77.6891C105.747 71.9159 106.201 65.6809 107.505 59.8069L104.433 59.8243C105.448 56.8471 103.918 56.6516 108.094 56.7112C108.084 54.3297 109.296 51.3632 111.309 50.0573C112.457 49.3129 113.466 49.1755 114.767 48.9774Z" fill="#FEFEFE"/>
<path d="M33.9331 56.4903C38.2458 56.3429 38.1348 56.4013 42.0635 58.0121C41.7124 59.0075 41.3535 60.0002 40.9865 60.9898C38.9285 59.9286 34.9668 58.5318 33.1178 60.4332C31.7999 61.7884 33.6537 62.9179 34.7576 63.3818C37.4152 64.459 42.3547 65.4698 42.5613 69.1469C42.7629 72.7351 39.9049 74.8937 36.7194 75.1664C33.1821 75.2335 31.6052 74.9072 28.5432 73.026C28.867 72.3632 29.3802 70.8045 29.659 70.0439C31.5954 71.2209 36.8025 73.8056 38.5964 70.8397C39.9941 68.0484 33.5866 67.1947 31.8382 66.1095C27.123 63.1828 28.9717 57.7943 33.9331 56.4903Z" fill="#FEFEFE"/>
<path d="M93.2589 56.4796C97.6373 56.3683 97.4715 56.3419 101.453 58.0045C101.12 58.9727 100.811 59.9496 100.527 60.9339C98.6214 60.0298 94.6576 58.6689 92.6172 60.1977C92.3287 60.4138 92.2869 60.9895 92.3147 61.3511C92.4356 63.2346 94.8315 63.6889 96.2847 64.2014C98.8703 65.1133 101.598 65.8279 101.778 69.1475C101.993 73.1053 99.3553 75.0724 95.6436 75.173C92.2765 75.2217 90.949 74.783 88.056 73.065C88.3885 71.8866 88.6553 71.1441 89.11 70.005C91.1121 71.5645 94.2115 72.613 96.7195 71.9709C97.753 71.7063 98.4845 70.3452 98.0852 69.3157C97.712 68.3532 96.5476 68.0695 95.6743 67.769C93.2876 66.915 89.7098 66.3853 88.8748 63.5138C87.7825 59.7579 89.9884 57.5162 93.2589 56.4796Z" fill="#FEFEFE"/>
<path d="M153.795 56.4821C157.106 56.402 157.652 56.3206 160.829 57.2646C160.398 58.0958 159.953 59.284 159.592 60.1764C156.13 59.1761 151.961 59.1754 150.997 63.351C149.684 69.0371 152.44 73.1277 158.49 71.5942C158.932 71.4821 159.486 71.2357 159.879 71.397L160.878 74.2331C160.499 74.3631 160.117 74.4831 159.732 74.593C156.911 75.3758 153.58 75.5393 150.925 74.0177C146.412 71.45 145.794 64.6132 148.166 60.3867C149.43 58.1346 151.434 57.1079 153.795 56.4821Z" fill="#FEFEFE"/>
<path d="M62.9991 49.4898C64.2507 49.4807 65.5024 49.485 66.754 49.5029L66.7584 74.8533C65.6979 74.9067 64.0545 74.9046 63.0261 74.7717C62.8576 66.5333 62.9995 57.7688 62.9991 49.4898Z" fill="#FEFEFE"/>
<path d="M142.891 56.6324C144.053 56.5043 145.34 56.7921 146.472 57.0401C146.065 57.9602 145.654 59.1381 145.292 60.0961C143.847 60.0743 141.889 59.8911 140.775 61.007C138.727 63.0584 139.389 71.8444 139.399 74.7894C138.898 74.846 138.279 74.8571 137.766 74.8797L135.787 74.8838L135.786 56.7484C136.751 56.7631 138.649 56.371 139.232 57.1667C139.411 57.6398 139.275 57.9792 139.154 58.4753C140.5 57.4674 141.219 56.9255 142.891 56.6324Z" fill="#FEFEFE"/>
</svg>
