<svg width="140" height="140" viewBox="0 0 140 140" fill="none" xmlns="http://www.w3.org/2000/svg">
<path d="M58.0471 37.4473C58.793 37.9497 65.7617 37.5955 67.4017 37.7281C67.9548 38.1391 68.4607 38.2129 68.9917 38.5354C72.8755 40.8944 70.7366 46.0417 71.6492 49.1333C71.6546 50.9064 71.7224 53.2675 71.6037 54.9901L71.7367 55.2255C72.4717 55.319 73.6161 55.2486 74.3973 55.2233C83.5187 55.2199 92.8338 55.1193 101.94 55.2515L119.266 55.2107C120.961 55.2099 122.877 55.24 124.55 55.2106C131.063 55.0959 133.236 56.3541 133.267 63.1306L133.24 80.1101C133.259 89.2572 134.484 97.8421 127.426 105.062C121.618 111.003 111.417 113.059 103.879 109.299C103.209 110.643 102.472 112.183 101.68 113.441C97.6188 119.893 91.4421 124.734 84.2064 127.136C76.3548 129.744 67.7883 129.122 60.396 125.407C53.9719 122.19 49.2611 117.41 45.82 111.175C45.5004 110.709 44.9092 109.258 44.6949 108.721C44.2585 107.631 43.8867 106.544 43.5023 105.436C43.4467 104.857 42.9737 103.336 42.84 102.415C42.3228 102.218 37.9125 102.316 36.9659 102.323L19.9086 102.346C17.0957 102.348 13.9387 102.517 11.1768 102.217C8.52707 101.928 6.80745 99.2842 6.767 96.7619C6.70862 93.1222 6.73093 89.5218 6.73425 85.8944L6.73381 65.241L6.7355 50.1677C6.73664 47.3732 6.64682 44.2773 6.98089 41.5443C7.09518 40.0802 9.30074 38.0561 10.7273 37.8588C13.8975 37.4203 17.8865 37.6428 21.1003 37.6426L50.8175 37.6402C52.6669 37.641 55.7628 37.6398 57.7563 37.6548C57.8699 37.5737 57.9668 37.5046 58.0471 37.4473Z" fill="#4C53BB"/>
<path d="M101.94 55.2515L119.265 55.2108C120.961 55.2099 122.876 55.24 124.55 55.2106C131.063 55.0959 133.236 56.3541 133.267 63.1306L133.24 80.1101C133.259 89.2573 134.484 97.8421 127.426 105.062C121.618 111.003 111.417 113.059 103.879 109.299C103.209 110.643 102.471 112.184 101.68 113.441C97.6188 119.893 91.4421 124.734 84.2064 127.136C76.3548 129.744 67.7882 129.122 60.396 125.407C53.9718 122.19 49.2611 117.41 45.82 111.175C45.5003 110.709 44.9092 109.258 44.6948 108.721C44.2584 107.631 43.8867 106.544 43.5022 105.436C44.3581 105.148 47.5902 105.253 48.6677 105.256L60.6153 105.278C62.5952 105.281 65.9887 105.382 67.8473 105.082C71.1664 105.799 72.3642 103.963 74.2576 101.843C74.4381 100.151 74.3885 97.8086 74.3894 96.0812L74.3904 87.4218C74.3886 76.8587 74.2102 65.7408 74.3972 55.2233C83.5187 55.2199 92.8337 55.1193 101.94 55.2515Z" fill="#7B82EB"/>
<path d="M101.94 55.2515L119.266 55.2107C120.961 55.2099 122.877 55.24 124.55 55.2106C131.063 55.0959 133.236 56.3541 133.268 63.1306L133.24 80.1101C133.259 89.2572 134.484 97.8421 127.426 105.062C121.618 111.003 111.417 113.059 103.879 109.299C104.049 108.546 104.597 107.111 104.878 106.351C106.725 101.363 106.644 96.54 106.647 91.3171L106.65 81.0253L106.648 68.1792C106.647 65.7415 106.678 63.297 106.583 60.8621C106.511 59.0105 105.968 57.7228 104.522 56.4825C103.72 55.7937 103.021 55.3349 101.978 55.4091L101.94 55.2515Z" fill="#5158C8"/>
<path d="M74.2576 101.843C74.5517 103.31 74.3589 106.189 74.1452 107.707L73.7071 108.123C73.2235 109.138 72.3851 110.066 71.3451 110.54C68.6582 111.764 47.0384 110.397 45.82 111.175C45.5003 110.709 44.9092 109.258 44.6948 108.721C44.2584 107.631 43.8867 106.544 43.5022 105.436C44.3581 105.148 47.5902 105.253 48.6677 105.256L60.6153 105.278C62.5952 105.281 65.9887 105.382 67.8473 105.082C71.1664 105.799 72.3642 103.963 74.2576 101.843Z" fill="#5158C8"/>
<path d="M44.6948 108.721C45.0536 108.505 45.3747 108.358 45.7998 108.341C55.0433 107.969 64.4813 108.581 73.7071 108.123C73.2235 109.138 72.3852 110.066 71.3451 110.54C68.6582 111.764 47.0385 110.397 45.82 111.175C45.5004 110.709 44.9092 109.258 44.6948 108.721Z" fill="#6A70CD"/>
<path d="M74.3972 55.2233C83.5187 55.2199 92.8338 55.1193 101.94 55.2515L101.978 55.4091C93.8023 55.4608 85.5282 55.2962 77.3676 55.4124L77.38 88.1932L77.3955 97.4871C77.4023 101.069 78.0877 105.895 74.1453 107.707C74.359 106.189 74.5517 103.31 74.2576 101.843C74.4381 100.151 74.3885 97.8086 74.3894 96.0812L74.3904 87.4218C74.3886 76.8587 74.2102 65.7408 74.3972 55.2233Z" fill="#6A70CD"/>
<path d="M71.3805 97.9495C71.5634 96.731 71.5201 94.6308 71.5165 93.3525L71.4927 86.4412L71.4724 62.9826C71.4722 61.8434 71.4279 55.5945 71.6038 54.9901L71.7368 55.2255C72.4718 55.319 73.6161 55.2486 74.3973 55.2233C74.2103 65.7408 74.3887 76.8586 74.3905 87.4218L74.3895 96.0811C74.3886 97.8086 74.4382 100.151 74.2577 101.843C72.3643 103.963 71.1665 105.799 67.8474 105.081C70.347 104.115 72.1504 100.501 71.3805 97.9495Z" fill="#474987"/>
<path d="M71.3803 97.9496C72.1502 100.501 70.3468 104.115 67.8472 105.082C65.9887 105.382 62.5952 105.281 60.6152 105.278L48.6676 105.256C47.5901 105.253 44.358 105.148 43.5021 105.436C43.4466 104.857 42.9736 103.336 42.8398 102.415C50.5846 102.125 58.3261 102.371 66.0704 102.209C68.8295 102.151 70.6551 100.623 71.3803 97.9496Z" fill="#393A6C"/>
<path d="M25.1465 52.4956C34.4745 52.4 43.9951 52.47 53.3317 52.4918L53.3252 58.1098L42.6711 58.1085L42.6792 76.7676L42.6674 87.5034L35.8105 87.5018L35.8183 58.1098L25.1479 58.106L25.1465 52.4956Z" fill="#FEFEFE"/>
<path d="M58.0471 37.4472C56.1023 32.573 56.1069 27.6254 58.195 22.7905C60.1491 18.1409 63.8799 14.4647 68.5579 12.5796C73.5001 10.6383 79.0137 10.7561 83.8685 12.9069C88.4526 14.9324 92.027 18.7198 93.7841 23.4133C97.6499 33.446 92.7749 44.5512 82.7285 48.3329C79.9496 49.3791 77.3576 49.5162 74.4272 49.4986C73.5189 49.2573 72.5871 49.2134 71.6492 49.1333C70.7366 46.0417 72.8755 40.8943 68.9917 38.5354C68.4607 38.2129 67.9548 38.139 67.4016 37.7281C65.7617 37.5955 58.793 37.9497 58.0471 37.4472Z" fill="#7B82EB"/>
<path d="M67.4016 37.7281C75.8339 37.7412 74.3319 43.2286 74.4272 49.4986C73.5188 49.2573 72.5871 49.2134 71.6492 49.1333C70.7366 46.0417 72.8754 40.8944 68.9917 38.5354C68.4606 38.2129 67.9548 38.1391 67.4016 37.7281Z" fill="#474987"/>
<path d="M115.764 22.934C123.086 22.2636 129.571 27.6403 130.27 34.9597C130.968 42.2792 125.617 48.7855 118.3 49.5119C110.943 50.2422 104.394 44.8551 103.692 37.496C102.99 30.1368 108.402 23.6082 115.764 22.934Z" fill="#5158C8"/>
</svg>
