<svg width="140" height="140" viewBox="0 0 140 140" fill="none" xmlns="http://www.w3.org/2000/svg">
<g clip-path="url(#clip0_175_97)">
<path d="M64.1669 0H75.8435C76.6801 0.470153 80.4027 0.59534 81.6307 0.793606C85.1419 1.36053 88.5006 2.21823 91.8906 3.30442C113.043 10.276 129.661 26.8272 136.718 47.9516C137.944 51.5234 138.716 55.6038 139.372 59.3193C139.586 60.5307 139.625 63.0509 140 63.93V76.138C139.623 77.6054 139.565 79.4149 139.326 80.9374C138.962 83.2515 138.518 85.7757 137.892 88.0286C133.053 105.946 121.378 121.25 105.374 130.65C98.1773 134.903 89.7583 137.797 81.5207 139.238C80.5312 139.411 77.8065 139.642 77.0394 140H63.0886C62.2286 139.621 56.7941 138.88 55.4538 138.61C51.7988 137.863 48.2147 136.805 44.7411 135.445C24.8868 127.796 9.58055 111.545 3.13428 91.2691C1.8277 87.0208 0.795461 82.903 0.437201 78.4789C0.384151 77.8239 0.264115 76.4853 0 75.9679V64.1387C0.164572 63.8805 1.01005 56.9595 1.25952 55.7759C2.39261 50.2586 4.18765 44.8982 6.60572 39.8111C15.0084 22.0084 30.5558 8.59573 49.3981 2.89405C52.5239 1.98155 55.7021 1.25909 58.9151 0.73063C60.3712 0.491422 62.9465 0.492845 64.1669 0Z" fill="#29A1D3"/>
<path d="M48.2365 79.3611L36.4413 75.7112C34.2687 75.0339 32.0022 74.4119 29.9204 73.5055C29.074 73.1369 28.2173 72.107 28.6311 71.1625C29.2708 69.7031 31.2813 68.8594 32.6623 68.3201C35.5926 67.1762 38.5196 66.0523 41.4496 64.9221L61.165 57.3215L86.2102 47.6613C90.5344 45.9919 94.8463 44.3085 99.1924 42.677C101.195 41.9252 102.923 41.6697 104.166 43.8215C104.715 44.7723 104.712 45.8134 104.568 46.8725C104.003 50.2463 103.197 53.7124 102.48 57.0594L98.5737 75.4659L94.7829 93.3561C94.0947 96.6217 93.4658 99.9042 92.6162 103.144C92.0946 105.252 90.0207 106.621 87.9295 105.686C85.3415 104.528 82.9377 102.361 80.6171 100.705C76.7345 97.9343 72.969 94.8923 69.0586 92.1691C67.2363 93.911 65.432 95.672 63.6463 97.4515C61.6859 99.3816 59.9314 101.702 57.1248 102.148C56.6682 102.127 55.692 102.006 55.4629 101.581C54.6711 100.112 54.2342 98.178 53.7178 96.5218C51.9652 90.9009 50.3965 85.1525 48.5258 79.5757C48.41 79.4898 48.3136 79.4183 48.2365 79.3611Z" fill="#F5F9FB"/>
<path d="M48.2366 79.3611C49.2159 79.2527 54.6093 75.6528 55.8962 74.8386L78.4949 60.5832C80.5874 59.2763 82.6726 57.958 84.7503 56.628C86.307 55.6302 89.3476 53.2948 91.1643 53.7075C91.6947 54.2124 90.8808 54.9422 90.4623 55.3167C80.815 63.9469 71.2424 72.6663 61.6096 81.3124C61.1296 81.7433 58.5346 84.0042 58.4016 84.2762C61.9678 86.8885 65.5201 89.5195 69.0587 92.1691C67.2364 93.911 65.4321 95.672 63.6464 97.4515C61.686 99.3816 59.9315 101.702 57.1249 102.148C56.6683 102.127 55.6921 102.006 55.463 101.581C54.6712 100.112 54.2343 98.178 53.7179 96.5218C51.9653 90.9009 50.3966 85.1525 48.5259 79.5757C48.4101 79.4898 48.3137 79.4183 48.2366 79.3611Z" fill="#C8D9E8"/>
<path d="M58.4017 84.2762C61.9678 86.8885 65.5202 89.5195 69.0588 92.1691C67.2364 93.911 65.4322 95.672 63.6465 97.4515C61.6861 99.3816 59.9316 101.702 57.125 102.148C57.3052 101.485 57.4448 98.4167 57.4962 97.577L58.0801 87.9225C58.1281 87.1195 58.2069 84.9076 58.4017 84.2762Z" fill="#A9C9DC"/>
</g>
<defs>
<clipPath id="clip0_175_97">
<rect width="140" height="140" fill="white"/>
</clipPath>
</defs>
</svg>
