<svg width="140" height="140" viewBox="0 0 140 140" fill="none" xmlns="http://www.w3.org/2000/svg">
<path d="M34.3887 8.53045C34.6655 8.46145 36.2129 8.41543 36.5952 8.41623C51.6151 8.44783 66.6449 8.43335 81.6636 8.4298L96.6958 8.42687C106.791 8.4243 116.294 7.82762 124.083 15.5286C130.546 21.918 131.633 29.1569 131.645 37.8745C131.664 52.633 131.638 67.4107 131.644 82.1735L131.648 96.2079C131.648 101.216 131.722 107.933 130.617 112.79C129.605 117.061 127.458 120.978 124.402 124.129C119.284 129.321 112.667 131.335 105.521 131.4C105.388 131.42 105.255 131.437 105.121 131.451C102.975 131.678 97.9472 131.545 95.6619 131.544L77.4172 131.538L48.8829 131.539C42.6032 131.54 34.6238 131.831 28.6045 130.825C24.5578 130.182 20.7518 128.484 17.5704 125.902C6.9646 117.361 8.31151 104.713 8.31411 92.5368L8.32111 69.7853L8.31874 47.0957C8.31709 40.9285 8.07335 34.2758 9.11689 28.3048C10.8628 18.3155 19.2461 10.1782 29.3356 8.98228C31.0923 8.77405 32.6828 8.70903 34.3887 8.53045Z" fill="#42E860"/>
<path d="M68.0305 25.2144C71.6998 25.0433 75.258 25.0899 78.8898 25.7087C90.4164 27.7271 100.66 34.2634 107.347 43.8665C113.962 53.3799 116.539 65.1258 114.516 76.5349C112.479 88.0059 105.97 98.1988 96.4213 104.874C86.6824 111.733 74.9691 114.061 63.2805 112.045C58.1834 111.082 54.8589 109.715 50.2569 107.439C42.6704 109.575 34.556 111.373 27.0764 113.629C28.9775 106.106 31.4492 98.397 33.2547 90.902C32.9687 90.2035 32.5211 89.3711 32.173 88.6863C18.23 61.254 36.5152 27.5896 68.0305 25.2144Z" fill="#FEFEFE"/>
<path d="M68.0632 32.5882C69.503 32.5253 71.2226 32.5164 72.6675 32.5396C81.811 32.6871 90.9844 36.8716 97.3434 43.3535C104.176 50.3248 107.922 59.7487 107.739 69.5084C107.586 79.091 103.676 88.2302 96.8511 94.9588C90.9368 100.727 83.2517 104.334 75.0357 105.199C72.9718 105.397 69.8485 105.286 67.753 105.259C63.6539 104.689 60.3441 103.951 56.5002 102.209C54.6612 101.376 53.1006 100.416 51.3322 99.5369C47.2249 100.721 41.5239 101.839 37.6451 103.208C38.3262 100.548 39.0343 97.8942 39.769 95.2481C40.2143 93.6134 40.7843 91.3019 41.3883 89.7649C38.1888 84.8447 36.0638 80.0264 35.2652 74.1509C33.8852 64.492 36.415 54.6818 42.2942 46.895C48.9019 38.2147 57.4438 34.0186 68.0632 32.5882Z" fill="#42E860"/>
<path d="M55.0642 48.6994C56.9047 48.6075 59.2861 48.0971 60.1336 50.1484C61.292 53.0195 63.6332 57.3146 63.9885 60.2857C64.2269 62.2791 58.8983 64.0912 61.1018 67.457C64.6343 72.8531 70.4366 78.6167 77.0834 80.0048C78.4172 78.9219 81.7559 74.0909 82.6347 74.2961C85.4611 74.9561 91.089 77.7872 93.5218 79.2909C93.6169 81.4023 93.3863 83.7446 92.2318 85.5637C86.9794 92.2659 78.7999 90.0826 72.2129 87.0453C62.6932 82.6555 54.5883 73.9252 50.1383 64.511C47.6555 59.2584 49.398 50.8957 55.0642 48.6994Z" fill="#FEFEFE"/>
</svg>
