<svg width="249" height="140" viewBox="0 0 249 140" fill="none" xmlns="http://www.w3.org/2000/svg">
<path d="M60.6531 51.6013C64.0067 51.1644 67.2922 51.9829 70.1684 53.6704C70.6044 53.9263 72.1029 55.2729 72.3978 55.253C72.3594 54.3238 72.2964 53.3958 72.2086 52.4699C76.2003 52.6385 81.3082 52.4567 85.4278 52.4621C85.2659 53.8625 85.3506 57.3003 85.3504 58.8794L85.3497 71.1409L85.3463 83.5159C85.3454 85.2007 85.2523 88.785 85.4557 90.3551C84.2539 90.1707 81.7238 90.2338 80.393 90.2372C77.7174 90.2444 74.9262 90.1992 72.2634 90.2918C72.2863 89.1905 72.3176 88.2726 72.4197 87.1776L72.3154 87.0544C69.7134 89.5846 67.032 90.8919 63.3794 91.1654C58.8621 91.4685 54.4103 89.9589 51.0091 86.9708C38.9787 76.5386 44.1701 52.7229 60.6531 51.6013ZM66.7683 78.7693C70.8707 77.8307 73.4372 73.7462 72.503 69.6428C71.5688 65.5394 67.487 62.9684 63.3827 63.8982C59.272 64.8294 56.6964 68.9187 57.6319 73.0283C58.5676 77.138 62.6596 79.7094 66.7683 78.7693Z" fill="#6001D0"/>
<path d="M89.9211 35.5986C90.8575 35.8153 101.819 35.7032 103.321 35.6336C103.169 37.3475 103.223 39.6203 103.225 41.3706L103.23 50.1532C103.231 51.6149 103.326 54.6004 102.997 55.9043C105.544 53.3701 107.399 52.021 111.055 51.6169C117.202 50.9377 122.482 53.6579 124.671 59.5896C126.053 63.3325 125.819 66.8523 125.819 70.7677L125.818 83.3816C125.818 85.3619 125.731 88.4659 125.903 90.365C124.512 90.1692 121.688 90.2269 120.158 90.2356C117.571 90.2502 114.7 90.1753 112.145 90.3152C112.343 88.6482 112.228 83.7027 112.229 81.8262L112.245 73.045C112.248 70.385 112.751 66.2806 110.297 64.6156C107.937 63.0137 105.566 63.8601 104.057 66.1231C103.562 66.8651 103.421 67.5786 103.321 68.4507C103.088 72.3766 103.276 76.3397 103.215 80.2731C103.222 82.1539 103.08 88.7172 103.406 90.2749C101.14 90.183 98.4691 90.2627 96.1745 90.2315C94.5914 90.2101 90.9987 90.1402 89.6495 90.4203C89.7943 85.7719 89.6644 80.4627 89.6637 75.751L89.6593 47.2462C89.6589 43.8495 89.615 39.3376 89.713 35.834C89.7948 35.7416 89.8643 35.6631 89.9211 35.5986Z" fill="#6001D0"/>
<path d="M188.579 51.3198C199.682 50.0664 209.684 58.0863 210.874 69.1959C212.064 80.3056 203.987 90.2623 192.871 91.389C181.844 92.5066 171.984 84.5087 170.804 73.4884C169.623 62.4679 177.565 52.5632 188.579 51.3198ZM192.135 78.7117C196.148 78.0332 198.877 74.2623 198.265 70.2382C197.654 66.2141 193.929 63.4231 189.896 63.9667C187.225 64.3266 184.957 66.0986 183.962 68.6022C182.965 71.1059 183.399 73.9517 185.093 76.0469C186.787 78.1421 189.479 79.1607 192.135 78.7117Z" fill="#6001D0"/>
<path d="M145.927 51.3635C156.989 49.9523 167.092 57.7944 168.468 68.8596C169.844 79.925 161.971 90.0037 150.902 91.3456C139.881 92.6815 129.856 84.8501 128.486 73.8339C127.115 62.8175 134.915 52.7687 145.927 51.3635ZM149.756 78.7255C153.804 78.0653 156.563 74.2654 155.937 70.2121C155.312 66.1586 151.536 63.3674 147.477 63.9584C143.369 64.5567 140.537 68.3889 141.17 72.4916C141.803 76.5941 145.66 79.3938 149.756 78.7255Z" fill="#6001D0"/>
<path d="M1.48022 52.5119C5.34272 52.4464 12.5371 52.2661 16.2853 52.5351C18.4378 59.0629 21.8373 65.8228 24.033 72.4036C24.1916 72.8791 24.419 73.4468 24.6946 73.8667C25.0201 73.3481 26.7809 68.6962 27.141 67.7784L33.1299 52.4919C37.6568 52.4133 43.0898 52.3674 47.5858 52.5158L40.2898 70.1446C39.3673 72.3677 38.0631 75.8156 37.048 77.8813C33.7783 86.463 29.621 95.7836 26.0792 104.38C25.2424 104.323 24.3755 104.296 23.5367 104.312C19.6251 104.387 15.5936 104.15 11.6935 104.329C12.1413 102.776 12.7835 101.633 13.3553 100.183C14.6555 96.8852 16.3933 93.4392 17.5856 90.1436C17.0613 89.3142 16.204 87.2237 15.787 86.2552L12.7842 79.199C9.09355 70.489 5.31534 61.0997 1.48022 52.5119Z" fill="#6001D0"/>
<path d="M231.416 35.673C234.954 35.8513 238.673 35.6205 242.229 35.7065C243.853 35.7458 245.755 35.7471 247.368 35.6342C245.049 42.0061 241.839 49.2293 239.231 55.5488L235.365 64.9231C235.063 65.6564 233.523 69.7115 233.08 69.9862C227.815 70.0895 222.314 70.0067 217.031 70.0039C218.555 67.0529 220.192 62.4907 221.547 59.3384C224.905 51.5252 227.95 43.4301 231.416 35.673Z" fill="#6001D0"/>
<path d="M220.588 73.1054C225.516 72.6265 229.894 76.2452 230.352 81.1754C230.81 86.1057 227.173 90.4687 222.24 90.9054C217.338 91.3393 213.008 87.7286 212.553 82.8282C212.097 77.9278 215.689 73.5815 220.588 73.1054Z" fill="#6001D0"/>
</svg>
