<svg width="210" height="140" viewBox="0 0 210 140" fill="none" xmlns="http://www.w3.org/2000/svg">
<path d="M154.118 53.6275C155.456 51.7827 159.256 47.2107 161.369 46.2969C161.842 46.0927 165.776 46.1588 166.557 46.1618L174.851 46.1717C184.818 46.1799 194.927 46.0708 204.88 46.184C205.139 46.3732 205.321 46.4218 205.308 46.7872C205.141 51.4492 205.177 56.1174 205.177 60.7832L205.184 83.3994C205.186 86.5392 205.354 91.6107 205.174 94.5668C203.26 97.3537 200.682 98.8057 198.659 101.135C196.634 102.292 160.366 100.982 153.943 101.742C153.842 98.2048 153.938 94.6363 153.786 91.1182C154.068 89.7591 155.108 87.1817 155.16 85.9504C155.265 83.4414 154.552 80.0723 154.25 77.5159C154.011 75.4864 153.891 73.8116 153.766 71.787C153.898 69.3367 153.672 54.6528 154.118 53.6275Z" fill="#FFCF11"/>
<path d="M154.118 53.6275C155.455 51.7827 159.255 47.2107 161.369 46.2969C161.841 46.0927 165.775 46.1588 166.557 46.1618L174.85 46.1717C184.818 46.1799 194.926 46.0708 204.88 46.184C203.794 47.999 200.051 51.9782 198.441 53.7644C195.225 53.9796 155.648 54.0906 154.118 53.6275Z" fill="#FFDF49"/>
<path d="M204.88 46.184C205.139 46.3732 205.322 46.4218 205.308 46.7872C205.141 51.4492 205.177 56.1174 205.177 60.7832L205.184 83.3994C205.186 86.5392 205.354 91.6107 205.174 94.5668C203.26 97.3537 200.682 98.8057 198.659 101.135C198.216 99.8631 198.411 88.4982 198.411 86.3626L198.442 53.7644C200.052 51.9782 203.795 47.999 204.88 46.184Z" fill="#E89224"/>
<path d="M174.358 60.2237C184.148 59.5248 192.676 66.8386 193.477 76.6211C194.277 86.4035 187.054 95.0074 177.279 95.9107C170.867 96.5035 164.628 93.6054 160.944 88.3215C157.26 83.0376 156.699 76.1823 159.475 70.3695C162.249 64.5568 167.933 60.6824 174.358 60.2237Z" fill="#FEFEFE"/>
<path d="M174.619 66.4123C179.665 66.0721 183.515 68.8378 184.667 73.7033C186.256 80.4076 184.669 87.7643 177.186 89.6302C174.562 89.7123 172.731 89.6576 170.404 88.1189C164.207 84.0206 164.504 70.4348 171.493 67.2646C172.527 66.7958 173.504 66.6117 174.619 66.4123Z" fill="#FFDF49"/>
<path d="M45.789 37.2732L46.1723 37.2006C46.7627 37.9085 49.3252 59.2474 49.9164 61.7474C50.0663 62.3813 50.1276 64.4971 50.3362 64.9355C50.9727 69.4738 52.9503 77.8243 52.1185 82.0276L51.6736 84.5116C51.2571 86.6353 50.2384 91.0599 50.0481 92.9733C49.4007 94.953 49.1166 94.7553 47.1253 95.0798C34.325 97.1655 21.4836 98.9555 8.70427 101.176C8.11288 101.279 7.44056 101.33 6.85664 101.173C6.32031 100.106 0.109961 62.2698 0.000367788 59.2161C-0.0343686 57.5297 2.40135 45.5217 3.10372 44.2362C4.44924 43.5783 11.3936 42.699 13.1726 42.4412C24.0503 40.8646 34.9065 38.7606 45.789 37.2732Z" fill="#CB2333"/>
<path d="M45.789 37.2733C45.962 37.4229 46.14 37.4984 46.101 37.7473C45.3256 42.6774 44.002 47.6262 43.449 52.5994C40.5145 53.2719 34.1285 53.977 30.9401 54.4505L15.3401 56.8733C10.3461 57.6183 4.94058 58.326 0.000367789 59.2163C-0.0343686 57.5299 2.40135 45.5218 3.10372 44.2364C4.44924 43.5785 11.3936 42.6991 13.1726 42.4414C24.0503 40.8647 34.9065 38.7607 45.789 37.2733Z" fill="#F0453F"/>
<path d="M45.7892 37.2732L46.1726 37.2006C46.7629 37.9085 49.3254 59.2474 49.9166 61.7474C50.0665 62.3813 50.1278 64.4971 50.3364 64.9355C50.9729 69.4738 52.9505 77.8243 52.1187 82.0276L51.6738 84.5116C51.2573 86.6353 50.2386 91.0599 50.0483 92.9733C49.9883 92.5353 49.7705 92.3507 49.4706 92.0537C48.8275 91.4166 43.7486 55.6355 43.4492 52.5992C44.0022 47.626 45.3259 42.6773 46.1012 37.7471C46.1402 37.4983 45.9622 37.4227 45.7892 37.2732Z" fill="#791215"/>
<path d="M28.6416 57.731C29.4037 57.6635 30.6334 57.5469 31.3625 57.7071C33.6629 58.2123 34.057 61.535 34.1442 63.4683C34.61 73.7977 23.637 79.8937 21.3065 89.0025C24.582 88.0358 28.4605 87.6863 31.8415 87.0421C33.3013 86.7639 35.2457 86.6642 36.7305 86.9001C39.6685 87.3668 40.3292 91.0796 37.7933 92.6217C35.5939 93.8534 32.3659 94.1572 29.8921 94.5687C26.9499 95.0633 24.0055 95.543 21.0585 96.008C17.7708 96.5658 14.5972 97.1025 14.0155 92.8527C12.8336 84.2151 19.3824 77.4077 24.2904 71.1443C25.5072 69.5916 26.8695 67.5232 26.8082 65.4794C26.2179 64.766 22.268 65.8769 21.4632 65.9525C18.7244 66.2099 11.6835 68.731 10.5736 64.9614C9.192 60.2691 15.4977 60.0162 18.9135 59.4135C22.1525 58.831 25.3951 58.2703 28.6416 57.731Z" fill="#FEFEFE"/>
<path d="M50.3364 64.9356C50.948 64.2348 52.6065 59.9141 53.0952 58.7692L63.3926 34.4874C63.7808 33.5719 64.2022 31.5403 64.9431 31L65.3333 31.1482C66.9897 31.7274 69.8255 33.1511 71.5057 33.9323L82.3375 38.9123L97.2186 45.6864C99.4212 46.7071 101.714 47.6728 103.829 48.8592C104.438 49.2008 104.765 49.9279 105.052 50.5431C104.783 51.4613 106.273 56.8031 106.651 57.9904C107.04 59.2845 107.298 60.6241 107.575 61.9474C107.031 64.0701 104.538 68.296 104.436 69.9666C103.284 71.6796 100.84 77.7948 99.865 80.0068L90.1647 102C88.5255 101.086 86.5243 100.14 84.7847 99.3899C73.7276 94.6246 62.778 89.1211 51.6738 84.5116L52.1187 82.0276C52.9505 77.8243 50.973 69.4739 50.3364 64.9356Z" fill="#169A4D"/>
<path d="M65.3334 31.1482C66.9898 31.7274 69.8255 33.1511 71.5057 33.9323L82.3376 38.9123L97.2186 45.6864C99.4213 46.7072 101.714 47.6728 103.829 48.8592C104.438 49.2009 104.765 49.9279 105.052 50.5431C104.784 51.4613 106.274 56.8031 106.651 57.9904C107.04 59.2845 107.298 60.6241 107.575 61.9474C102.916 60.1382 96.2738 56.9275 91.6523 54.8249C84.2967 51.4784 76.4199 48.1192 69.1777 44.6523L68.8394 44.4781L66.519 36.3779C66.0601 34.8085 65.4109 33.0076 65.0889 31.4402L65.3334 31.1482Z" fill="#98D19F"/>
<path d="M50.3364 64.9356C50.948 64.2348 52.6065 59.9141 53.0952 58.7692L63.3926 34.4874C63.7808 33.5719 64.2022 31.5403 64.9431 31L65.3333 31.1482L65.0888 31.4401C65.4108 33.0076 66.06 34.8085 66.5189 36.3779L68.8393 44.4781L69.1776 44.6523C69.0686 44.7216 68.9345 44.8067 68.7754 44.9076C67.7647 46.969 66.5326 49.9595 65.6441 52.0067L57.7466 69.9293C56.3345 73.1523 53.8563 79.1447 52.1187 82.0276C52.9505 77.8243 50.973 69.4739 50.3364 64.9356Z" fill="#69C06A"/>
<path d="M79.3218 54.2528C82.8095 53.5919 89.0628 56.263 91.6068 58.6895C94.9341 61.863 96.7794 65.9984 96.9898 70.5652C97.2974 76.1859 95.3414 81.6958 91.5582 85.8642C88.7611 88.9105 84.3666 91.5434 80.176 91.7193C79.2318 91.7389 78.1588 91.8041 77.2381 91.712C62.0877 90.1975 57.7828 73.2352 66.0584 61.9702C69.5379 57.2335 73.6952 55.158 79.3218 54.2528Z" fill="#FEFEFE"/>
<path d="M79.0612 61.1801C95.2223 60.5209 90.5525 81.6761 80.2639 84.6992C74.7176 85.8716 69.2237 81.7841 69.4253 75.889C69.637 69.6965 72.772 63.0647 79.0612 61.1801Z" fill="#189B4C"/>
<path d="M149.287 42.1202L149.685 42.0827C149.997 42.5749 150.223 45.6781 150.32 46.4527L152.337 61.7126C152.535 63.3167 153.348 70.6329 153.766 71.787C153.891 73.8116 154.011 75.4864 154.251 77.5159C154.553 80.0723 155.265 83.4414 155.161 85.9504C155.109 87.1817 154.068 89.7591 153.787 91.1182C153.292 92.1978 152.669 94.0951 152.172 94.9029C151.597 95.7972 140.017 97.1182 138.255 97.3554L116.574 100.398C114.843 100.648 110.207 101.16 108.8 101.683C107.355 91.1757 105.715 80.4638 104.436 69.9667C104.539 68.296 107.031 64.0702 107.575 61.9474C107.299 60.6241 107.041 59.2845 106.652 57.9904C106.274 56.8031 104.784 51.4614 105.052 50.5431C105.642 48.3507 105.72 48.177 108.041 47.7857C110.365 47.3942 112.718 47.1464 115.056 46.847L125.174 45.4652C133.187 44.3902 141.284 43.0796 149.287 42.1202Z" fill="#0A78B6"/>
<path d="M105.052 50.5431C105.642 48.3507 105.719 48.177 108.041 47.7857C110.365 47.3942 112.718 47.1464 115.056 46.8469L125.174 45.4651C133.187 44.3902 141.284 43.0796 149.287 42.1202C149.558 42.9908 146.237 52.4591 145.617 52.8721C144.279 52.6965 140.057 53.4172 138.437 53.6353C133.222 54.3165 128.012 55.0399 122.808 55.8055C117.862 56.4971 111.353 57.1199 106.652 57.9904C106.274 56.8031 104.784 51.4613 105.052 50.5431Z" fill="#90C9ED"/>
<path d="M149.286 42.1202L149.684 42.0827C149.996 42.5749 150.222 45.6781 150.32 46.4527L152.336 61.7126C152.534 63.3167 153.347 70.6329 153.765 71.787C153.89 73.8116 154.01 75.4864 154.25 77.5159C154.552 80.0723 155.264 83.4414 155.16 85.9504C155.108 87.1817 154.068 89.7591 153.786 91.1182C153.291 92.1978 152.668 94.0951 152.171 94.9029C151.732 94.0815 151.461 90.4881 151.264 89.2634C150.009 81.2252 148.852 73.1716 147.798 65.1046C147.539 63.2608 146.483 54.0015 145.616 52.8722C146.236 52.4592 149.557 42.9909 149.286 42.1202Z" fill="#089AD7"/>
<path d="M134.192 56.9863C134.409 56.9677 134.627 56.9583 134.845 56.958C139.085 56.9465 138.874 62.4965 139.375 65.7386C139.924 69.2745 140.453 72.8134 140.961 76.3551C141.677 81.2856 142.597 86.429 142.862 91.3821C143.06 95.1069 136.609 95.762 135.994 91.9547C135.412 88.3543 134.032 82.9642 134.129 79.4241L134.132 79.3326C130.314 79.9866 125.391 80.6202 121.525 81.0548C121.998 84.2719 123.961 92.498 123.029 95.2302C122.673 96.2725 122.001 96.8083 121.037 97.2713C119.001 97.3281 116.834 97.3005 116.413 94.8437C114.727 85.0066 113.315 74.9874 111.958 65.0944C111.453 61.4134 112.189 60.6346 115.574 59.7445C120.592 61.1232 119.544 70.0892 120.645 74.7189C123.064 74.6098 130.611 73.3549 133.039 72.8132C132.826 71.7663 132.68 70.2469 132.518 69.1176C132.056 65.887 131.286 62.7787 131.358 59.5123C132.203 58.111 132.732 57.6492 134.192 56.9863Z" fill="#FEFEFE"/>
</svg>
